<svg width="24" height="24" viewBox="0 0 24 24" fill="none" xmlns="http://www.w3.org/2000/svg">
<path d="M14.182 9.966C14.182 9.966 15.125 4.412 11.273 2C11.2155 2.95424 10.9574 3.88562 10.5156 4.73338C10.0738 5.58114 9.45822 6.32622 8.70902 6.92C7.06302 8.368 3.96702 11.616 4.00002 15.089C3.989 16.5714 4.39203 18.0274 5.16375 19.2931C5.93546 20.5588 7.04521 21.5839 8.36802 22.253C8.41556 21.5836 8.59615 20.9304 8.89922 20.3317C9.20228 19.7329 9.62173 19.2007 10.133 18.766C10.5665 18.4329 10.9293 18.0167 11.2 17.5418C11.4708 17.0669 11.6442 16.5427 11.71 16C12.8433 16.602 13.8009 17.4879 14.4891 18.571C15.1773 19.6541 15.5725 20.8973 15.636 22.179V22.2C16.8843 21.6272 17.95 20.7204 18.7152 19.5798C19.4804 18.4392 19.9154 17.1093 19.972 15.737C20.056 12.9198 19.1091 10.1687 17.309 8" stroke="#3D60C5" stroke-width="2" stroke-miterlimit="10" stroke-linecap="square"/>
</svg>
