<svg
                        width="25"
                        height="24"
                        viewBox="0 0 25 24"
                        fill="none"
                        xmlns="http://www.w3.org/2000/svg"
                      >
                        <g clip-path="url(#clip0_179:118)">
                          <path
                            d="M19.856 20.9999H23.856V16.6769C23.8558 16.4771 23.7958 16.2819 23.6837 16.1165C23.5716 15.9511 23.4125 15.8231 23.227 15.7489L19.485 14.2489C19.2997 14.1749 19.1408 14.0472 19.0287 13.8822C18.9167 13.7172 18.8565 13.5224 18.856 13.3229V12.4449C19.4625 12.0969 19.9666 11.5952 20.3177 10.9905C20.6688 10.3857 20.8544 9.69919 20.856 8.99992V6.99992C20.8561 6.2977 20.6714 5.60781 20.3204 4.99961C19.9694 4.39141 19.4644 3.88633 18.8563 3.53515C18.2482 3.18397 17.5584 2.99906 16.8562 2.99902C16.154 2.99898 15.4641 3.18381 14.856 3.53492"
                            stroke="#3D60C5"
                            stroke-width="2"
                            stroke-miterlimit="10"
                            stroke-linecap="square"
                          />
                          <path
                            d="M15.227 16.749L11.485 15.249C11.2997 15.175 11.1408 15.0473 11.0287 14.8823C10.9167 14.7172 10.8565 14.5225 10.856 14.323V13.445C11.4625 13.0969 11.9666 12.5953 12.3177 11.9906C12.6688 11.3858 12.8544 10.6993 12.856 10V8C12.856 6.93913 12.4345 5.92172 11.6844 5.17157C10.9342 4.42143 9.91682 4 8.85596 4C7.79509 4 6.77768 4.42143 6.02753 5.17157C5.27738 5.92172 4.85596 6.93913 4.85596 8V10C4.85748 10.6993 5.04313 11.3858 5.39422 11.9906C5.74531 12.5953 6.24946 13.0969 6.85596 13.445V14.323C6.85583 14.5228 6.79584 14.718 6.68373 14.8834C6.57162 15.0488 6.41252 15.1769 6.22696 15.251L2.48496 16.751C2.29971 16.825 2.14083 16.9527 2.02874 17.1177C1.91666 17.2828 1.85648 17.4775 1.85596 17.677V21H15.856V17.677C15.8558 17.4772 15.7958 17.282 15.6837 17.1166C15.5716 16.9512 15.4125 16.8231 15.227 16.749Z"
                            stroke="#3D60C5"
                            stroke-width="2"
                            stroke-miterlimit="10"
                            stroke-linecap="square"
                          />
                        </g>
                        <defs>
                          <clipPath id="clip0_179:118">
                            <rect
                              width="24"
                              height="24"
                              fill="white"
                              transform="translate(0.855957)"
                            />
                          </clipPath>
                        </defs>
                      </svg>