<svg xmlns="http://www.w3.org/2000/svg" xmlns:xlink="http://www.w3.org/1999/xlink" viewBox="0 0 781.79 532.78"><defs><style>.cls-1{fill:url(#linear-gradient);}.cls-2{fill:url(#linear-gradient-2);}.cls-3{fill:url(#linear-gradient-3);}.cls-4{fill:url(#linear-gradient-4);}.cls-5{fill:url(#linear-gradient-5);}.cls-6{fill:#f8d247;}.cls-7{fill:url(#linear-gradient-6);}.cls-8{fill:url(#linear-gradient-7);}.cls-9{fill:url(#linear-gradient-8);}.cls-10{fill:url(#linear-gradient-9);}.cls-11{fill:url(#linear-gradient-10);}.cls-12{fill:url(#linear-gradient-11);}.cls-13{fill:url(#linear-gradient-12);}.cls-14{fill:url(#linear-gradient-13);}.cls-15{fill:url(#linear-gradient-14);}.cls-16{fill:url(#linear-gradient-15);}.cls-17{fill:url(#linear-gradient-16);}.cls-18{fill:url(#linear-gradient-17);}.cls-19{fill:url(#linear-gradient-18);}.cls-20{fill:url(#linear-gradient-19);}.cls-21{fill:url(#linear-gradient-20);}.cls-22{fill:url(#linear-gradient-21);}.cls-23{fill:url(#linear-gradient-22);}.cls-24{fill:url(#linear-gradient-23);}.cls-25{fill:url(#linear-gradient-24);}.cls-26{fill:url(#linear-gradient-25);}.cls-27{fill:url(#linear-gradient-26);}.cls-28{fill:url(#linear-gradient-27);}.cls-29{fill:url(#linear-gradient-28);}.cls-30{fill:url(#linear-gradient-29);}.cls-31{fill:url(#linear-gradient-30);}.cls-32{fill:url(#linear-gradient-31);}.cls-33{fill:url(#linear-gradient-32);}.cls-34{fill:url(#linear-gradient-33);}.cls-35{fill:url(#linear-gradient-34);}.cls-36{fill:url(#linear-gradient-35);}.cls-37{fill:url(#linear-gradient-36);}.cls-38{fill:url(#linear-gradient-37);}.cls-39{fill:url(#linear-gradient-38);}.cls-40{fill:url(#linear-gradient-39);}.cls-41{fill:url(#linear-gradient-40);}.cls-42{fill:url(#linear-gradient-41);}.cls-43{fill:url(#linear-gradient-42);}.cls-44{fill:url(#linear-gradient-43);}.cls-45{fill:url(#linear-gradient-44);}.cls-46{fill:url(#linear-gradient-45);}.cls-47{fill:url(#linear-gradient-46);}.cls-48{fill:url(#linear-gradient-47);}.cls-49{fill:url(#linear-gradient-48);}.cls-50{fill:url(#linear-gradient-49);}.cls-51{fill:url(#linear-gradient-50);}.cls-52{fill:url(#linear-gradient-51);}.cls-53{fill:url(#linear-gradient-52);}.cls-54{fill:url(#linear-gradient-53);}.cls-55{fill:url(#linear-gradient-54);}.cls-56{fill:url(#linear-gradient-55);}.cls-57{fill:url(#linear-gradient-56);}.cls-58{fill:url(#linear-gradient-57);}.cls-59{fill:url(#linear-gradient-58);}.cls-60{fill:url(#linear-gradient-59);}.cls-61{fill:url(#linear-gradient-60);}.cls-62{fill:url(#linear-gradient-61);}.cls-63{fill:url(#linear-gradient-62);}.cls-64{fill:url(#linear-gradient-63);}.cls-65{fill:url(#linear-gradient-64);}.cls-66{fill:url(#linear-gradient-65);}.cls-67{fill:#f0f4f7;}.cls-68{fill:url(#linear-gradient-66);}.cls-69{fill:url(#linear-gradient-67);}.cls-70{fill:url(#linear-gradient-68);}.cls-71{fill:url(#linear-gradient-69);}.cls-72,.cls-73{fill:none;stroke-miterlimit:10;}.cls-72{stroke:url(#linear-gradient-70);}.cls-73{stroke:url(#linear-gradient-71);}.cls-74{fill:url(#linear-gradient-72);}.cls-75{fill:#f8f8f9;}.cls-76{fill:url(#linear-gradient-73);}.cls-77{fill:url(#linear-gradient-74);}</style><linearGradient id="linear-gradient" x1="322.03" y1="67.82" x2="632.51" y2="284.98" gradientUnits="userSpaceOnUse"><stop offset="0" stop-color="#fff" stop-opacity="0"/><stop offset="1" stop-color="#a4b3e1"/></linearGradient><linearGradient id="linear-gradient-2" x1="187.25" y1="377.67" x2="204.21" y2="87.55" xlink:href="#linear-gradient"/><linearGradient id="linear-gradient-3" x1="433.97" y1="327.95" x2="520.11" y2="223.48" gradientUnits="userSpaceOnUse"><stop offset="0" stop-color="#fff" stop-opacity="0"/><stop offset="1" stop-color="#0042ff"/></linearGradient><linearGradient id="linear-gradient-4" x1="662.74" y1="296.35" x2="748.88" y2="191.87" xlink:href="#linear-gradient-3"/><linearGradient id="linear-gradient-5" x1="410.95" y1="272.44" x2="511.23" y2="272.44" gradientUnits="userSpaceOnUse"><stop offset="0" stop-color="#f8d247"/><stop offset="1" stop-color="#f83d47"/></linearGradient><linearGradient id="linear-gradient-6" x1="437.02" y1="243.03" x2="556.35" y2="355.32" gradientTransform="translate(709.24 -205.22) rotate(87.81)" xlink:href="#linear-gradient-5"/><linearGradient id="linear-gradient-7" x1="426.15" y1="258.17" x2="496.3" y2="258.17" xlink:href="#linear-gradient-5"/><linearGradient id="linear-gradient-8" x1="410.95" y1="261.48" x2="511.23" y2="261.48" xlink:href="#linear-gradient-5"/><linearGradient id="linear-gradient-9" x1="437.02" y1="232.07" x2="556.35" y2="344.37" gradientTransform="translate(698.29 -215.76) rotate(87.81)" xlink:href="#linear-gradient-5"/><linearGradient id="linear-gradient-10" x1="426.15" y1="247.21" x2="496.3" y2="247.21" xlink:href="#linear-gradient-5"/><linearGradient id="linear-gradient-11" x1="410.95" y1="249.61" x2="511.23" y2="249.61" xlink:href="#linear-gradient-5"/><linearGradient id="linear-gradient-12" x1="437.02" y1="220.19" x2="556.35" y2="332.49" gradientTransform="translate(686.42 -227.18) rotate(87.81)" xlink:href="#linear-gradient-5"/><linearGradient id="linear-gradient-13" x1="426.15" y1="235.33" x2="496.3" y2="235.33" xlink:href="#linear-gradient-5"/><linearGradient id="linear-gradient-14" x1="410.95" y1="238.65" x2="511.23" y2="238.65" xlink:href="#linear-gradient-5"/><linearGradient id="linear-gradient-15" x1="437.02" y1="209.24" x2="556.35" y2="321.53" xlink:href="#linear-gradient-5"/><linearGradient id="linear-gradient-16" x1="426.15" y1="224.38" x2="496.3" y2="224.38" xlink:href="#linear-gradient-5"/><linearGradient id="linear-gradient-17" x1="607.45" y1="223.19" x2="707.73" y2="223.19" xlink:href="#linear-gradient-5"/><linearGradient id="linear-gradient-18" x1="633.52" y1="193.77" x2="752.85" y2="306.07" gradientTransform="translate(849.03 -448.95) rotate(87.81)" xlink:href="#linear-gradient-5"/><linearGradient id="linear-gradient-19" x1="622.65" y1="208.91" x2="692.8" y2="208.91" xlink:href="#linear-gradient-5"/><linearGradient id="linear-gradient-20" x1="607.45" y1="212.23" x2="707.73" y2="212.23" xlink:href="#linear-gradient-5"/><linearGradient id="linear-gradient-21" x1="633.52" y1="182.82" x2="752.85" y2="295.11" gradientTransform="translate(838.08 -459.49) rotate(87.81)" xlink:href="#linear-gradient-5"/><linearGradient id="linear-gradient-22" x1="622.65" y1="197.95" x2="692.8" y2="197.95" xlink:href="#linear-gradient-5"/><linearGradient id="linear-gradient-23" x1="607.45" y1="200.35" x2="707.73" y2="200.35" xlink:href="#linear-gradient-5"/><linearGradient id="linear-gradient-24" x1="633.52" y1="170.94" x2="752.85" y2="283.24" gradientTransform="translate(826.21 -470.92) rotate(87.81)" xlink:href="#linear-gradient-5"/><linearGradient id="linear-gradient-25" x1="622.65" y1="186.08" x2="692.8" y2="186.08" xlink:href="#linear-gradient-5"/><linearGradient id="linear-gradient-26" x1="607.45" y1="189.4" x2="707.73" y2="189.4" xlink:href="#linear-gradient-5"/><linearGradient id="linear-gradient-27" x1="633.52" y1="159.98" x2="752.85" y2="272.28" xlink:href="#linear-gradient-5"/><linearGradient id="linear-gradient-28" x1="622.65" y1="175.12" x2="692.8" y2="175.12" xlink:href="#linear-gradient-5"/><linearGradient id="linear-gradient-29" x1="607.45" y1="177.99" x2="707.73" y2="177.99" xlink:href="#linear-gradient-5"/><linearGradient id="linear-gradient-30" x1="633.52" y1="148.58" x2="752.85" y2="260.88" gradientTransform="translate(803.87 -492.42) rotate(87.81)" xlink:href="#linear-gradient-5"/><linearGradient id="linear-gradient-31" x1="622.65" y1="163.72" x2="692.8" y2="163.72" xlink:href="#linear-gradient-5"/><linearGradient id="linear-gradient-32" x1="607.45" y1="167.04" x2="707.73" y2="167.04" xlink:href="#linear-gradient-5"/><linearGradient id="linear-gradient-33" x1="633.52" y1="137.62" x2="752.85" y2="249.92" gradientTransform="translate(792.92 -502.96) rotate(87.81)" xlink:href="#linear-gradient-5"/><linearGradient id="linear-gradient-34" x1="622.65" y1="152.76" x2="692.8" y2="152.76" xlink:href="#linear-gradient-5"/><linearGradient id="linear-gradient-35" x1="607.45" y1="155.16" x2="707.73" y2="155.16" xlink:href="#linear-gradient-5"/><linearGradient id="linear-gradient-36" x1="633.52" y1="125.75" x2="752.85" y2="238.04" gradientTransform="translate(781.05 -514.39) rotate(87.81)" xlink:href="#linear-gradient-5"/><linearGradient id="linear-gradient-37" x1="622.65" y1="140.89" x2="692.8" y2="140.89" xlink:href="#linear-gradient-5"/><linearGradient id="linear-gradient-38" x1="607.45" y1="144.2" x2="707.73" y2="144.2" xlink:href="#linear-gradient-5"/><linearGradient id="linear-gradient-39" x1="633.52" y1="114.79" x2="752.85" y2="227.09" xlink:href="#linear-gradient-5"/><linearGradient id="linear-gradient-40" x1="622.65" y1="129.93" x2="692.8" y2="129.93" xlink:href="#linear-gradient-5"/><linearGradient id="linear-gradient-41" x1="681.5" y1="257.07" x2="781.78" y2="257.07" xlink:href="#linear-gradient-5"/><linearGradient id="linear-gradient-42" x1="707.57" y1="227.66" x2="826.9" y2="339.95" gradientTransform="translate(954.11 -490.36) rotate(87.81)" xlink:href="#linear-gradient-5"/><linearGradient id="linear-gradient-43" x1="696.7" y1="242.79" x2="766.85" y2="242.79" xlink:href="#linear-gradient-5"/><linearGradient id="linear-gradient-44" x1="681.5" y1="245.19" x2="781.78" y2="245.19" xlink:href="#linear-gradient-5"/><linearGradient id="linear-gradient-45" x1="707.57" y1="215.78" x2="826.9" y2="328.08" gradientTransform="translate(942.25 -501.78) rotate(87.81)" xlink:href="#linear-gradient-5"/><linearGradient id="linear-gradient-46" x1="696.7" y1="230.92" x2="766.85" y2="230.92" xlink:href="#linear-gradient-5"/><linearGradient id="linear-gradient-47" x1="681.5" y1="234.24" x2="781.78" y2="234.24" xlink:href="#linear-gradient-5"/><linearGradient id="linear-gradient-48" x1="707.57" y1="204.82" x2="826.9" y2="317.12" xlink:href="#linear-gradient-5"/><linearGradient id="linear-gradient-49" x1="696.7" y1="219.96" x2="766.85" y2="219.96" xlink:href="#linear-gradient-5"/><linearGradient id="linear-gradient-50" x1="-158.48" y1="-237.8" x2="-80.02" y2="-237.8" gradientTransform="translate(551.92 532.33) rotate(18.28)" xlink:href="#linear-gradient-5"/><linearGradient id="linear-gradient-51" x1="-142.9" y1="-242.59" x2="-87.87" y2="-242.59" gradientTransform="translate(551.92 532.33) rotate(18.28)" xlink:href="#linear-gradient-5"/><linearGradient id="linear-gradient-52" x1="-124.34" y1="-287.6" x2="-117.63" y2="-258.57" gradientTransform="translate(551.92 532.33) rotate(18.28)" xlink:href="#linear-gradient-5"/><linearGradient id="linear-gradient-53" x1="174.21" y1="215.26" x2="263.58" y2="106.86" xlink:href="#linear-gradient-3"/><linearGradient id="linear-gradient-54" x1="154.07" y1="158.12" x2="254.35" y2="158.12" xlink:href="#linear-gradient-5"/><linearGradient id="linear-gradient-55" x1="180.14" y1="128.7" x2="299.47" y2="241" xlink:href="#linear-gradient-5"/><linearGradient id="linear-gradient-56" x1="169.27" y1="143.84" x2="239.42" y2="143.84" xlink:href="#linear-gradient-5"/><linearGradient id="linear-gradient-57" x1="211.26" y1="160.52" x2="289.71" y2="160.52" gradientTransform="translate(218.34 -135.25) rotate(51.14)" xlink:href="#linear-gradient-5"/><linearGradient id="linear-gradient-58" x1="226.84" y1="155.72" x2="281.86" y2="155.72" gradientTransform="translate(216.04 -140.04) rotate(51.14)" xlink:href="#linear-gradient-5"/><linearGradient id="linear-gradient-59" x1="245.4" y1="110.72" x2="252.11" y2="139.74" xlink:href="#linear-gradient-5"/><linearGradient id="linear-gradient-60" x1="584.93" y1="480.73" x2="284.64" y2="156.68" xlink:href="#linear-gradient"/><linearGradient id="linear-gradient-61" x1="629.33" y1="23.99" x2="390.12" y2="129.17" xlink:href="#linear-gradient"/><linearGradient id="linear-gradient-62" x1="220.17" y1="291.13" x2="312.77" y2="166.31" xlink:href="#linear-gradient-3"/><linearGradient id="linear-gradient-63" x1="-3550.2" y1="-106.98" x2="-3628.97" y2="77.5" gradientTransform="matrix(-1, 0, 0, 1, -3353.62, 0)" gradientUnits="userSpaceOnUse"><stop offset="0" stop-color="#fff"/><stop offset="1" stop-color="#3e60c4"/></linearGradient><linearGradient id="linear-gradient-64" x1="-3602.91" y1="29.96" x2="-3714.23" y2="315.63" gradientTransform="matrix(-1, 0, 0, 1, -3353.62, 0)" gradientUnits="userSpaceOnUse"><stop offset="0" stop-color="#3e60c4"/><stop offset="1" stop-color="#3e0dc4"/></linearGradient><linearGradient id="linear-gradient-65" x1="-3642.7" y1="403.56" x2="-3642.7" y2="-1.34" gradientTransform="matrix(-1, 0, 0, 1, -3353.62, 0)" gradientUnits="userSpaceOnUse"><stop offset="0" stop-color="#3e60c4"/><stop offset="1" stop-color="#00caff"/></linearGradient><linearGradient id="linear-gradient-66" x1="455.93" y1="373.54" x2="594.93" y2="210.22" xlink:href="#linear-gradient-3"/><linearGradient id="linear-gradient-67" x1="288.51" y1="-45.95" x2="209.73" y2="138.53" gradientTransform="translate(382.9)" xlink:href="#linear-gradient-63"/><linearGradient id="linear-gradient-68" x1="235.79" y1="90.99" x2="124.47" y2="376.66" gradientTransform="translate(382.9)" xlink:href="#linear-gradient-64"/><linearGradient id="linear-gradient-69" x1="196" y1="464.59" x2="196" y2="59.69" gradientTransform="translate(382.9)" xlink:href="#linear-gradient-65"/><linearGradient id="linear-gradient-70" x1="545.59" y1="-685.71" x2="629.38" y2="-685.71" gradientTransform="matrix(0.87, 0.5, 0, 1.15, -219.57, 673.85)" xlink:href="#linear-gradient-64"/><linearGradient id="linear-gradient-71" x1="862.87" y1="1395.34" x2="951.5" y2="1395.34" gradientTransform="matrix(0.87, -0.5, 0, 1.15, -206.34, -918.27)" xlink:href="#linear-gradient-64"/><linearGradient id="linear-gradient-72" x1="346.09" y1="278.79" x2="251.25" y2="428.21" gradientUnits="userSpaceOnUse"><stop offset="0" stop-color="#9dacde" stop-opacity="0"/><stop offset="1" stop-color="#2836c4"/></linearGradient><linearGradient id="linear-gradient-73" x1="399.46" y1="359.59" x2="328.39" y2="471.57" xlink:href="#linear-gradient-72"/><linearGradient id="linear-gradient-74" x1="447.12" y1="24.14" x2="376.04" y2="136.12" xlink:href="#linear-gradient-72"/></defs><g id="Layer_2" data-name="Layer 2"><g id="Layer_1-2" data-name="Layer 1"><polygon class="cls-1" points="603.58 268.88 417.12 159.86 454.49 140.59 295.41 47.49 297.45 43.99 462.9 140.81 425.53 160.08 605.62 265.38 603.58 268.88"/><polygon class="cls-2" points="2.06 339.07 0 335.58 145.31 249.55 219.89 292.56 379.26 200.02 236.84 117.79 238.87 114.28 387.35 200.01 219.89 297.25 145.34 254.24 2.06 339.07"/><polygon class="cls-3" points="538.74 307.65 463.09 351.73 366.73 302.74 420.53 268.55 500.1 282.15 538.74 307.65"/><polygon class="cls-4" points="767.51 276.05 691.86 320.13 595.5 271.14 649.3 236.94 728.87 250.54 767.51 276.05"/><path class="cls-5" d="M511,273.54l.26-5.83-1.62-.06c-5.17-11.5-24.39-20.57-47.64-21.46s-43.12,6.7-49.14,17.78l-1.61-.08-.26,6.64c-.55,14.5,21.39,27.11,49,28.16,26.87,1,49.21-9.26,50.9-23.17h0v-.11c0-.35.08-.7.09-1.06S511,273.81,511,273.54Z"/><path class="cls-6" d="M460.22,292.06c-27.62-1.06-49.56-13.67-49-28.17s23.39-25.39,51-24.34,49.56,13.66,49,28.16S487.84,293.11,460.22,292.06Z"/><ellipse class="cls-7" cx="461.22" cy="265.8" rx="18.42" ry="35.09" transform="translate(178.02 716.55) rotate(-87.81)"/><path class="cls-8" d="M461.78,251.1c18.18.69,32.85,8.52,34.26,17.89a9.58,9.58,0,0,0,.25-1.85c.39-10.17-15-19-34.37-19.75s-35.38,6.91-35.77,17.07a10.45,10.45,0,0,0,.11,1.86C428.39,257.09,443.61,250.4,461.78,251.1Z"/><path class="cls-9" d="M511,262.59l.26-5.83-1.62-.07c-5.17-11.5-24.39-20.57-47.64-21.46s-43.12,6.7-49.14,17.78l-1.61-.07-.26,6.64c-.55,14.49,21.39,27.1,49,28.16,26.87,1,49.21-9.27,50.9-23.18h0v-.11c0-.35.08-.7.09-1.06S511,262.86,511,262.59Z"/><ellipse class="cls-6" cx="461.22" cy="254.85" rx="26.27" ry="50.04" transform="translate(188.97 706.01) rotate(-87.81)"/><ellipse class="cls-10" cx="461.22" cy="254.85" rx="18.42" ry="35.09" transform="translate(188.97 706.01) rotate(-87.81)"/><path class="cls-11" d="M461.78,240.14c18.18.7,32.85,8.53,34.26,17.89a9.47,9.47,0,0,0,.25-1.85c.39-10.16-15-19-34.37-19.74s-35.38,6.9-35.77,17.07a10.56,10.56,0,0,0,.11,1.86C428.39,246.14,443.61,239.45,461.78,240.14Z"/><path class="cls-12" d="M511,250.71l.26-5.83-1.62-.06c-5.17-11.5-24.39-20.58-47.64-21.47s-43.12,6.71-49.14,17.78l-1.61-.07L411,247.7c-.55,14.5,21.39,27.11,49,28.16,26.87,1,49.21-9.27,50.9-23.18h0v-.1c0-.36.08-.71.09-1.06S511,251,511,250.71Z"/><ellipse class="cls-6" cx="461.22" cy="242.97" rx="26.27" ry="50.04" transform="translate(200.84 694.59) rotate(-87.81)"/><ellipse class="cls-13" cx="461.22" cy="242.97" rx="18.42" ry="35.09" transform="matrix(0.04, -1, 1, 0.04, 200.84, 694.59)"/><path class="cls-14" d="M461.78,228.26c18.18.7,32.85,8.53,34.26,17.89a9.47,9.47,0,0,0,.25-1.84c.39-10.17-15-19-34.37-19.75s-35.38,6.9-35.77,17.07a10.45,10.45,0,0,0,.11,1.86C428.39,234.26,443.61,227.57,461.78,228.26Z"/><path class="cls-15" d="M511,239.75l.26-5.83-1.62-.06c-5.17-11.5-24.39-20.57-47.64-21.46s-43.12,6.7-49.14,17.78l-1.61-.08-.26,6.64c-.55,14.5,21.39,27.11,49,28.16,26.87,1,49.21-9.26,50.9-23.17h0v-.11c0-.35.08-.7.09-1.06S511,240,511,239.75Z"/><ellipse class="cls-6" cx="461.22" cy="232.01" rx="26.27" ry="50.04" transform="translate(211.79 684.05) rotate(-87.81)"/><path class="cls-16" d="M460.52,250.42c-19.37-.74-34.75-9.58-34.37-19.75s16.41-17.81,35.77-17.07,34.76,9.58,34.37,19.75S479.89,251.16,460.52,250.42Z"/><path class="cls-17" d="M461.78,217.31C480,218,494.63,225.83,496,235.2a9.58,9.58,0,0,0,.25-1.85c.39-10.17-15-19-34.37-19.75s-35.38,6.91-35.77,17.07a10.45,10.45,0,0,0,.11,1.86C428.39,223.3,443.61,216.61,461.78,217.31Z"/><path class="cls-18" d="M707.47,224.29l.26-5.83-1.62-.06c-5.17-11.5-24.39-20.58-47.64-21.47s-43.12,6.7-49.14,17.78l-1.61-.07-.26,6.64c-.55,14.5,21.39,27.1,49,28.16,26.87,1,49.21-9.27,50.9-23.18h0v-.11c0-.35.08-.7.1-1.06S707.47,224.56,707.47,224.29Z"/><path class="cls-6" d="M656.72,242.8c-27.62-1.05-49.56-13.66-49-28.16s23.39-25.4,51-24.34,49.56,13.66,49,28.16S684.34,243.86,656.72,242.8Z"/><ellipse class="cls-19" cx="657.72" cy="216.55" rx="18.42" ry="35.09" transform="translate(416.25 865.53) rotate(-87.81)"/><path class="cls-20" d="M658.28,201.84c18.18.7,32.85,8.53,34.26,17.89a9.47,9.47,0,0,0,.25-1.84c.39-10.17-15-19-34.37-19.75S623,205,622.65,215.21a10.45,10.45,0,0,0,.11,1.86C624.89,207.84,640.11,201.15,658.28,201.84Z"/><path class="cls-21" d="M707.47,213.33l.26-5.83-1.62-.06c-5.17-11.5-24.39-20.58-47.64-21.46s-43.12,6.7-49.14,17.77l-1.61-.07-.26,6.64c-.55,14.5,21.39,27.11,49,28.16,26.87,1,49.21-9.26,50.9-23.18h0v-.11c0-.35.08-.71.1-1.06S707.47,213.6,707.47,213.33Z"/><ellipse class="cls-6" cx="657.72" cy="205.59" rx="26.27" ry="50.04" transform="translate(427.19 854.99) rotate(-87.81)"/><ellipse class="cls-22" cx="657.72" cy="205.59" rx="18.42" ry="35.09" transform="translate(427.2 854.99) rotate(-87.81)"/><path class="cls-23" d="M658.28,190.89c18.18.69,32.85,8.52,34.26,17.89a9.58,9.58,0,0,0,.25-1.85c.39-10.17-15-19-34.37-19.75s-35.38,6.91-35.77,17.07a10.45,10.45,0,0,0,.11,1.86C624.89,196.88,640.11,190.19,658.28,190.89Z"/><path class="cls-24" d="M707.47,201.46l.26-5.84-1.62-.06c-5.17-11.5-24.39-20.57-47.64-21.46s-43.12,6.7-49.14,17.78l-1.61-.07-.26,6.63c-.55,14.5,21.39,27.11,49,28.17,26.87,1,49.21-9.27,50.9-23.18h0v-.11c0-.35.08-.7.1-1.06S707.47,201.72,707.47,201.46Z"/><ellipse class="cls-6" cx="657.72" cy="193.71" rx="26.27" ry="50.04" transform="translate(439.06 843.57) rotate(-87.81)"/><ellipse class="cls-25" cx="657.72" cy="193.71" rx="18.42" ry="35.09" transform="translate(439.06 843.57) rotate(-87.81)"/><path class="cls-26" d="M658.28,179c18.18.69,32.85,8.52,34.26,17.89a9.58,9.58,0,0,0,.25-1.85c.39-10.16-15-19-34.37-19.75s-35.38,6.91-35.77,17.08a10.56,10.56,0,0,0,.11,1.86C624.89,185,640.11,178.32,658.28,179Z"/><path class="cls-27" d="M707.47,190.5l.26-5.83-1.62-.06c-5.17-11.5-24.39-20.58-47.64-21.47s-43.12,6.7-49.14,17.78l-1.61-.07-.26,6.64c-.55,14.5,21.39,27.1,49,28.16,26.87,1,49.21-9.27,50.9-23.18h0v-.11c0-.35.08-.7.1-1.06S707.47,190.77,707.47,190.5Z"/><ellipse class="cls-6" cx="657.72" cy="182.76" rx="26.27" ry="50.04" transform="translate(450.01 833.03) rotate(-87.81)"/><path class="cls-28" d="M657,201.17c-19.37-.74-34.75-9.58-34.37-19.75s16.41-17.81,35.77-17.07,34.76,9.58,34.37,19.75S676.39,201.91,657,201.17Z"/><path class="cls-29" d="M658.28,168.05c18.18.7,32.85,8.53,34.26,17.89a9.47,9.47,0,0,0,.25-1.84c.39-10.17-15-19-34.37-19.75s-35.38,6.9-35.77,17.07a10.45,10.45,0,0,0,.11,1.86C624.89,174.05,640.11,167.36,658.28,168.05Z"/><path class="cls-30" d="M707.47,179.1l.26-5.83-1.62-.07c-5.17-11.5-24.39-20.57-47.64-21.46s-43.12,6.7-49.14,17.78l-1.61-.07-.26,6.64c-.55,14.49,21.39,27.1,49,28.16,26.87,1,49.21-9.27,50.9-23.18h0V181c0-.35.08-.7.1-1.06S707.47,179.37,707.47,179.1Z"/><path class="cls-6" d="M656.72,197.61c-27.62-1.05-49.56-13.66-49-28.16s23.39-25.4,51-24.35,49.56,13.67,49,28.17S684.34,198.66,656.72,197.61Z"/><ellipse class="cls-31" cx="657.72" cy="171.36" rx="18.42" ry="35.09" transform="translate(461.41 822.07) rotate(-87.81)"/><path class="cls-32" d="M658.28,156.65c18.18.7,32.85,8.53,34.26,17.89a9.47,9.47,0,0,0,.25-1.85c.39-10.16-15-19-34.37-19.74S623,159.85,622.65,170a10.56,10.56,0,0,0,.11,1.86C624.89,162.65,640.11,156,658.28,156.65Z"/><path class="cls-33" d="M707.47,168.14l.26-5.83-1.62-.06c-5.17-11.5-24.39-20.58-47.64-21.46s-43.12,6.7-49.14,17.77l-1.61-.07-.26,6.64c-.55,14.5,21.39,27.11,49,28.16,26.87,1,49.21-9.27,50.9-23.18h0V170c0-.36.08-.71.1-1.06S707.47,168.41,707.47,168.14Z"/><ellipse class="cls-6" cx="657.72" cy="160.4" rx="26.27" ry="50.04" transform="translate(472.35 811.53) rotate(-87.81)"/><ellipse class="cls-34" cx="657.72" cy="160.4" rx="18.42" ry="35.09" transform="matrix(0.04, -1, 1, 0.04, 472.36, 811.53)"/><path class="cls-35" d="M658.28,145.7c18.18.69,32.85,8.52,34.26,17.88a9.47,9.47,0,0,0,.25-1.84c.39-10.17-15-19-34.37-19.75s-35.38,6.9-35.77,17.07a10.45,10.45,0,0,0,.11,1.86C624.89,151.69,640.11,145,658.28,145.7Z"/><path class="cls-36" d="M707.47,156.26l.26-5.83-1.62-.06c-5.17-11.5-24.39-20.57-47.64-21.46s-43.12,6.7-49.14,17.78l-1.61-.08-.26,6.64c-.55,14.5,21.39,27.11,49,28.16,26.87,1,49.21-9.26,50.9-23.17h0v-.11c0-.35.08-.7.1-1.06S707.47,156.53,707.47,156.26Z"/><ellipse class="cls-6" cx="657.72" cy="148.52" rx="26.27" ry="50.04" transform="translate(484.22 800.1) rotate(-87.81)"/><ellipse class="cls-37" cx="657.72" cy="148.52" rx="18.42" ry="35.09" transform="translate(484.22 800.1) rotate(-87.81)"/><path class="cls-38" d="M658.28,133.82c18.18.69,32.85,8.52,34.26,17.89a9.58,9.58,0,0,0,.25-1.85c.39-10.17-15-19-34.37-19.75S623,137,622.65,147.18a10.45,10.45,0,0,0,.11,1.86C624.89,139.81,640.11,133.12,658.28,133.82Z"/><path class="cls-39" d="M707.47,145.31l.26-5.83-1.62-.07c-5.17-11.5-24.39-20.57-47.64-21.46s-43.12,6.7-49.14,17.78l-1.61-.07-.26,6.64c-.55,14.49,21.39,27.1,49,28.16,26.87,1,49.21-9.27,50.9-23.18h0v-.11c0-.35.08-.7.1-1.06S707.47,145.58,707.47,145.31Z"/><ellipse class="cls-6" cx="657.72" cy="137.57" rx="26.27" ry="50.04" transform="translate(495.17 789.56) rotate(-87.81)"/><path class="cls-40" d="M657,156c-19.37-.74-34.75-9.58-34.37-19.75s16.41-17.81,35.77-17.07,34.76,9.58,34.37,19.75S676.39,156.72,657,156Z"/><path class="cls-41" d="M658.28,122.86c18.18.7,32.85,8.53,34.26,17.89a9.47,9.47,0,0,0,.25-1.84c.39-10.17-15-19-34.37-19.75s-35.38,6.9-35.77,17.07a10.56,10.56,0,0,0,.11,1.86C624.89,128.86,640.11,122.17,658.28,122.86Z"/><path class="cls-42" d="M781.52,258.17l.26-5.83-1.62-.06c-5.17-11.5-24.39-20.58-47.64-21.46s-43.12,6.7-49.14,17.77l-1.61-.07-.26,6.64c-.55,14.5,21.39,27.11,49,28.16,26.87,1,49.21-9.26,50.9-23.18h0V260c0-.35.08-.71.1-1.06S781.52,258.44,781.52,258.17Z"/><ellipse class="cls-6" cx="731.77" cy="250.43" rx="26.27" ry="50.04" transform="translate(453.61 972.12) rotate(-87.81)"/><ellipse class="cls-43" cx="731.77" cy="250.43" rx="18.42" ry="35.09" transform="translate(453.62 972.12) rotate(-87.81)"/><path class="cls-44" d="M732.33,235.73c18.18.69,32.85,8.52,34.26,17.89a9.58,9.58,0,0,0,.25-1.85c.39-10.17-15-19-34.36-19.75s-35.39,6.91-35.77,17.07a9.59,9.59,0,0,0,.1,1.86C698.94,241.72,714.16,235,732.33,235.73Z"/><path class="cls-45" d="M781.52,246.29l.26-5.83-1.62-.06c-5.17-11.5-24.39-20.57-47.64-21.46s-43.12,6.7-49.14,17.78l-1.61-.07-.26,6.63c-.55,14.5,21.39,27.11,49,28.16,26.87,1,49.21-9.26,50.9-23.17h0v-.11c0-.35.08-.7.1-1.06S781.52,246.56,781.52,246.29Z"/><ellipse class="cls-6" cx="731.77" cy="238.55" rx="26.27" ry="50.04" transform="translate(465.48 960.7) rotate(-87.81)"/><ellipse class="cls-46" cx="731.77" cy="238.55" rx="18.42" ry="35.09" transform="translate(465.48 960.7) rotate(-87.81)"/><path class="cls-47" d="M732.33,223.85c18.18.69,32.85,8.52,34.26,17.89a9.58,9.58,0,0,0,.25-1.85c.39-10.16-15-19-34.36-19.75s-35.39,6.91-35.77,17.08a9.67,9.67,0,0,0,.1,1.86C698.94,229.85,714.16,223.16,732.33,223.85Z"/><path class="cls-48" d="M781.52,235.34l.26-5.83-1.62-.06C775,218,755.77,208.87,732.52,208s-43.12,6.7-49.14,17.78l-1.61-.07-.26,6.64c-.55,14.5,21.39,27.1,49,28.16,26.87,1,49.21-9.27,50.9-23.18h0v-.11c0-.35.08-.7.1-1.06S781.52,235.61,781.52,235.34Z"/><ellipse class="cls-6" cx="731.77" cy="227.6" rx="26.27" ry="50.04" transform="translate(476.43 950.16) rotate(-87.81)"/><path class="cls-49" d="M731.07,246c-19.37-.74-34.75-9.58-34.37-19.75s16.41-17.81,35.78-17.07,34.75,9.58,34.36,19.75S750.44,246.75,731.07,246Z"/><path class="cls-50" d="M732.33,212.89c18.18.7,32.85,8.53,34.26,17.89a9.47,9.47,0,0,0,.25-1.84c.39-10.17-15-19-34.36-19.75s-35.39,6.9-35.77,17.07a9.59,9.59,0,0,0,.1,1.86C698.94,218.89,714.16,212.2,732.33,212.89Z"/><path class="cls-51" d="M492.81,282.36c-13.9-21.52-16-44.88-4.72-52.18s31.73,4.23,45.63,25.75,16,44.88,4.72,52.18S506.71,303.88,492.81,282.36Z"/><ellipse class="cls-6" cx="518.44" cy="265.8" rx="24.35" ry="46.39" transform="translate(-61.26 323.89) rotate(-32.87)"/><path class="cls-52" d="M504.09,275.07c-9.75-15.09-11.23-31.47-3.31-36.59s22.25,3,32,18.06S544,288,536.09,293.12,513.84,290.16,504.09,275.07Z"/><path class="cls-53" d="M529.89,258.4c9.15,14.16,11,29.46,4.67,35.52a9.29,9.29,0,0,0,1.53-.8c7.92-5.11,6.44-21.49-3.31-36.58s-24.07-23.18-32-18.06a10.75,10.75,0,0,0-1.35,1.07C507.56,236.25,520.74,244.24,529.89,258.4Z"/><polygon class="cls-54" points="281.86 193.33 197.41 242.94 105.49 189.96 163.65 154.23 281.86 193.33"/><path class="cls-55" d="M254.09,159.22l.26-5.83-1.62-.06c-5.17-11.5-24.39-20.58-47.64-21.46S162,138.57,156,149.64l-1.61-.07-.26,6.64c-.55,14.5,21.39,27.11,49,28.16,26.87,1,49.21-9.26,50.9-23.18h0v-.1c0-.36.08-.71.09-1.06S254.09,159.49,254.09,159.22Z"/><ellipse class="cls-6" cx="204.34" cy="151.48" rx="26.27" ry="50.04" transform="translate(45.18 349.9) rotate(-87.81)"/><path class="cls-56" d="M203.64,169.89c-19.37-.74-34.75-9.58-34.37-19.75s16.41-17.81,35.77-17.07,34.76,9.58,34.37,19.75S223,170.63,203.64,169.89Z"/><path class="cls-57" d="M204.9,136.78c18.18.69,32.84,8.52,34.26,17.89a9.68,9.68,0,0,0,.25-1.85c.39-10.17-15-19-34.37-19.75s-35.38,6.9-35.77,17.07a10.45,10.45,0,0,0,.11,1.86C171.51,142.77,186.73,136.08,204.9,136.78Z"/><ellipse class="cls-58" cx="250.48" cy="160.52" rx="24.35" ry="46.39" transform="translate(-31.66 254.87) rotate(-51.14)"/><ellipse class="cls-6" cx="254.35" cy="155.72" rx="24.35" ry="46.39" transform="translate(-26.49 256.09) rotate(-51.14)"/><ellipse class="cls-59" cx="254.35" cy="155.72" rx="17.08" ry="32.53" transform="translate(-26.48 256.1) rotate(-51.14)"/><path class="cls-60" d="M262.9,145.1c13.13,10.58,19.7,24.52,15.57,32.26a9.38,9.38,0,0,0,1.21-1.23c5.92-7.35-.63-22.44-14.62-33.71s-30.13-14.45-36-7.11a9,9,0,0,0-1,1.45C234.76,131.07,249.78,134.52,262.9,145.1Z"/><polygon class="cls-61" points="699.49 532.78 404.1 362.85 458.91 331.2 297.35 237.43 299.39 233.92 467 331.21 412.22 362.84 701.51 529.26 699.49 532.78"/><polygon class="cls-62" points="327.35 171.55 325.32 168.03 507.98 62.58 525.49 73.28 634.32 10.7 636.34 14.21 525.43 78 507.92 67.29 327.35 171.55"/><polygon class="cls-63" points="240.48 201.41 152.02 252.51 250.25 309.16 343.56 255.29 240.48 201.41"/><path class="cls-64" d="M239.42,5.1,247,.68c1.2-.91,2.86-.94,4.69.12l90.09,52c3.67,2.11,6.64,7.8,6.64,12.69V249.35c0,2.59-.84,4.43-2.17,5.28h0l-.31.19-7.77,4.53-8.66-12.07-77.81-44.92c-3.67-2.12-6.64-7.81-6.64-12.7V29.75Z"/><path class="cls-65" d="M244,206.85l90.08,52c3.67,2.12,6.64-.13,6.64-5V70c0-4.9-3-10.58-6.64-12.7L244,5.28c-3.67-2.12-6.65.13-6.65,5V194.15C237.39,199.05,240.37,204.73,244,206.85Z"/><path class="cls-66" d="M247.74,13.06l17.35,10v6.79a4.29,4.29,0,0,0,2.16,3.72l42.88,24.57a2.17,2.17,0,0,0,3.24-1.88V51l17,9.84c3.37,1.94,6.1,7.16,6.1,11.65V247.17c0,4.49-2.73,6.55-6.1,4.61l-82.67-47.73c-3.37-2-6.1-7.16-6.1-11.66V17.67C241.64,13.18,244.37,11.11,247.74,13.06Z"/><path class="cls-67" d="M289.08,60.79c-16.43-9.49-29.74-1.9-29.74,16.95s13.31,41.82,29.74,51.3,29.74,1.89,29.74-17S305.5,70.27,289.08,60.79Zm4.5,23.05c0-1.42,1-2,2.24-1.27a4.94,4.94,0,0,1,2.24,3.86v5.22c0,1.42-1,2-2.24,1.28a4.91,4.91,0,0,1-2.24-3.86ZM280.1,76.06c0-1.42,1-2,2.24-1.28a5,5,0,0,1,2.24,3.87v5.22c0,1.42-1,2-2.24,1.28a5,5,0,0,1-2.24-3.86Zm27,41.07c-.88.49-2.29-.32-3.17-1.83-.6-1-14.3-24.09-29.78-17.1a1.65,1.65,0,0,1-1.49-.2A4.72,4.72,0,0,1,271,96.18c-.82-1.53-.75-3.11.17-3.53,9.74-4.4,19,1.53,25.11,7.27a67.76,67.76,0,0,1,10.83,13.57C308,115,308,116.63,307.09,117.13Z"/><polygon class="cls-68" points="562.18 302.48 422.07 383.35 408.18 375.85 550.09 295.48 562.18 302.48"/><path class="cls-69" d="M628.56,66.13,621,61.71c-1.21-.91-2.87-.94-4.7.12l-90.08,52c-3.67,2.11-6.65,7.8-6.65,12.69V310.38c0,2.59.84,4.43,2.17,5.28h0a1.92,1.92,0,0,0,.31.18l7.77,4.54,8.66-12.07,77.81-44.92c3.67-2.12,6.64-7.81,6.64-12.7V90.78Z"/><path class="cls-70" d="M624,267.88l-90.09,52c-3.67,2.12-6.64-.13-6.64-5V131c0-4.9,3-10.58,6.64-12.7l90.09-52c3.67-2.12,6.64.13,6.64,5V255.18C630.59,260.08,627.62,265.76,624,267.88Z"/><path class="cls-71" d="M620.24,74.09l-17.35,10V90.9a4.27,4.27,0,0,1-2.16,3.72l-42.88,24.57a2.17,2.17,0,0,1-3.24-1.88V112l-17,9.84c-3.37,1.94-6.1,7.16-6.1,11.65V308.2c0,4.49,2.73,6.55,6.1,4.61l82.67-47.73c3.37-1.95,6.1-7.16,6.1-11.66V78.7C626.34,74.21,623.61,72.14,620.24,74.09Z"/><path class="cls-67" d="M581.83,122.75c-16.22,9.36-29.36,32-29.36,50.63s13.14,26.1,29.36,16.74,29.35-32,29.35-50.63S598,113.39,581.83,122.75Zm4.44,17.63a4.89,4.89,0,0,1,2.21-3.82c1.22-.7,2.21-.14,2.21,1.27V143a4.89,4.89,0,0,1-2.21,3.82c-1.22.7-2.21.14-2.21-1.26ZM573,148.06a4.86,4.86,0,0,1,2.21-3.81c1.22-.71,2.21-.14,2.21,1.26v5.16a4.88,4.88,0,0,1-2.21,3.81c-1.22.7-2.21.14-2.21-1.26Zm26.56,2.1c-6.28,10.07-12.36,15.59-17.5,18.56a24.75,24.75,0,0,1-7.28,2.87c-6.41,1.34-10.52-1-10.69-1.05-.87-.49-.87-2.1,0-3.59s2.26-2.29,3.12-1.8c.59.33,14.12,7.48,29.4-17.07.9-1.46,2.3-2.18,3.12-1.6S600.43,148.7,599.52,150.16Z"/><path class="cls-67" d="M325.1,220.65c-5-16-13.68-11.26-17.19-27.92s-18.38-10.48-33-35.44-21.88-25.89-21.88-25.89v47.66Z"/><path class="cls-72" d="M253.06,131.4s7.29.94,21.88,25.89,29.45,18.77,33,35.44,12.22,12,17.19,27.92"/><path class="cls-67" d="M617.67,191c-14.13,8.59-21.91,50-37.49,51.82S563,270.23,554.37,272s-13.06,15.7-13.06,15.7l76.36-44.08Z"/><path class="cls-73" d="M541.31,287.73s4.46-13.91,13.06-15.7,10.23-27.33,25.81-29.19,23.36-43.23,37.49-51.82"/><path class="cls-74" d="M355.1,346.35V298.84H323.56l-1.44-.83a8.34,8.34,0,0,0-8.34,0l-1.44.83H281.05v47.57h0a2.51,2.51,0,0,0,1.25,1.92L314,366.64a8.34,8.34,0,0,0,8.34,0l31.47-18.17a2.48,2.48,0,0,0,1.25-2.06h0Z"/><path class="cls-75" d="M314,319.27,282.31,301a2.53,2.53,0,0,1,0-4.38l31.47-18.17a8.34,8.34,0,0,1,8.34,0l31.72,18.32a2.52,2.52,0,0,1,0,4.37l-31.47,18.17A8.34,8.34,0,0,1,314,319.27Z"/><path class="cls-76" d="M415.52,404.05V380.52H384l-1.44-.82a8.34,8.34,0,0,0-8.34,0l-1.44.82H341.47v23.59h0a2.5,2.5,0,0,0,1.25,1.92l31.72,18.32a8.34,8.34,0,0,0,8.34,0l31.47-18.18a2.49,2.49,0,0,0,1.26-2.06h0Z"/><path class="cls-75" d="M374.45,400.82l-31.72-18.31a2.53,2.53,0,0,1,0-4.38L374.2,360a8.34,8.34,0,0,1,8.34,0l31.72,18.32a2.52,2.52,0,0,1,0,4.37l-31.47,18.17A8.34,8.34,0,0,1,374.45,400.82Z"/><path class="cls-77" d="M463.17,68.6V45.07H431.63l-1.44-.83a8.34,8.34,0,0,0-8.34,0l-1.43.83h-31.3V68.66h0a2.48,2.48,0,0,0,1.24,1.92L422.1,88.89a8.34,8.34,0,0,0,8.34,0l31.47-18.17a2.49,2.49,0,0,0,1.26-2.06h0Z"/><path class="cls-75" d="M422.1,65.37,390.38,47.05a2.52,2.52,0,0,1,0-4.37l31.47-18.17a8.34,8.34,0,0,1,8.34,0l31.72,18.31a2.53,2.53,0,0,1,0,4.38L430.44,65.37A8.34,8.34,0,0,1,422.1,65.37Z"/></g></g></svg>