<svg width="204" height="41" viewBox="0 0 204 41" fill="none" xmlns="http://www.w3.org/2000/svg">
<path d="M20.419 16.851L18.9808 15.4127C18.6731 15.1051 18.2559 14.9323 17.8208 14.9323C17.3858 14.9323 16.9686 15.1051 16.6609 15.4127C16.3533 15.7203 16.1805 16.1376 16.1805 16.5726C16.1805 17.0077 16.3533 17.4249 16.6609 17.7325L18.0064 19.0781C19.1877 20.2594 19.8514 21.8616 19.8514 23.5322C19.8514 25.2028 19.1877 26.805 18.0064 27.9863L15.501 30.4917L13.1811 32.8115L12.968 33.0245L9.70139 36.2914C9.51608 36.4761 9.28942 36.6139 9.04021 36.6935C8.79099 36.7731 8.52639 36.7921 8.26836 36.749C8.01032 36.7059 7.76627 36.6019 7.55645 36.4457C7.34663 36.2894 7.17708 36.0854 7.06185 35.8505C6.91327 35.5316 6.86871 35.1741 6.93448 34.8285C7.00025 34.4829 7.17303 34.1667 7.42836 33.9247L10.6483 30.7051L10.8614 30.4919L13.1812 28.172L15.5011 25.8522C16.1163 25.2369 16.4619 24.4024 16.4619 23.5323C16.4619 22.6622 16.1163 21.8278 15.5011 21.2125L10.8613 16.5728L13.1811 14.2529L15.501 11.9331L18.8311 8.60321C19.729 7.73471 20.2742 6.56495 20.3619 5.31881C20.4496 4.07266 20.0736 2.83808 19.3062 1.85238C18.8703 1.32129 18.3282 0.887318 17.7145 0.578395C17.1009 0.269472 16.4293 0.0924368 15.7431 0.0586798C15.0569 0.0249228 14.3713 0.135192 13.7303 0.382393C13.0893 0.629593 12.5071 1.00825 12.0213 1.494L8.54145 4.974L6.22158 7.29342L3.62299 9.89226C1.85121 11.6642 0.855881 14.0674 0.855957 16.5732C0.856033 19.079 1.8515 21.4821 3.62339 23.254L5.0617 24.6925C5.36934 25.0001 5.78658 25.173 6.22163 25.173C6.65669 25.173 7.07392 25.0001 7.38157 24.6925C7.68918 24.3849 7.862 23.9677 7.862 23.5326C7.862 23.0975 7.68918 22.6803 7.38157 22.3727L6.03608 21.0272C5.45116 20.4423 4.98718 19.7479 4.67063 18.9836C4.35407 18.2194 4.19114 17.4003 4.19114 16.5731C4.19114 15.7459 4.35407 14.9268 4.67063 14.1626C4.98718 13.3983 5.45116 12.7039 6.03608 12.119L8.54145 9.61323L10.8613 7.29342L11.0744 7.08041L14.3411 3.81376C14.5264 3.62906 14.753 3.49118 15.0022 3.41157C15.2515 3.33196 15.5161 3.31292 15.7741 3.35601C16.0322 3.39911 16.2762 3.5031 16.4861 3.65937C16.6959 3.81564 16.8654 4.01968 16.9807 4.25457C17.1293 4.57348 17.1738 4.93104 17.108 5.27666C17.0423 5.62229 16.8695 5.93849 16.6141 6.18052L13.3942 9.40027L13.181 9.61323L10.8613 11.9331L8.54145 14.2529C7.92623 14.8682 7.58061 15.7027 7.58061 16.5728C7.58061 17.4429 7.92623 18.2773 8.54145 18.8926L13.1811 23.5323L5.21131 31.5024C4.31342 32.3709 3.76822 33.5406 3.6805 34.7867C3.59279 36.0328 3.96876 37.2674 4.73613 38.2531C5.17197 38.7842 5.71417 39.2181 6.32784 39.5271C6.94151 39.836 7.61306 40.013 8.29927 40.0468C8.98548 40.0805 9.67116 39.9703 10.3122 39.7231C10.9532 39.4759 11.5354 39.0972 12.0213 38.6114L15.501 35.1318L17.8208 32.812L20.419 30.2138C21.2965 29.3364 21.9925 28.2948 22.4674 27.1484C22.9423 26.002 23.1867 24.7732 23.1867 23.5324C23.1867 22.2915 22.9423 21.0628 22.4674 19.9164C21.9925 18.77 21.2965 17.7284 20.419 16.851Z" fill="#3E5DC9"/>
<path d="M39.7681 18.8228L35.6754 16.4227C34.3522 15.6533 33.9829 15.2533 33.9829 14.5147C33.9829 13.407 34.8139 13.0684 36.9064 13.0684C38.206 13.037 39.5028 13.203 40.7526 13.5608C42.1989 13.961 42.5682 13.6532 42.5682 12.1761V11.8682C42.5682 10.4835 42.2297 10.1142 40.7526 9.71423C39.4999 9.37063 38.2052 9.2049 36.9064 9.22189C31.8905 9.22189 29.7366 10.9451 29.7366 14.3916C29.7366 16.6377 30.7827 18.3611 32.8445 19.5612L36.7832 21.8692C38.7527 23.0077 39.245 23.5 39.245 24.3923C39.245 25.6232 38.3526 26.0542 35.8909 26.0542C34.3121 26.0464 32.7406 25.8396 31.2136 25.4387C29.8287 25.0694 29.4287 25.4387 29.4287 26.8848V27.1927C29.4287 28.5774 29.7366 28.916 31.1828 29.316C32.6969 29.7263 34.2608 29.9231 35.8293 29.9007C41.2453 29.9007 43.4915 27.9929 43.4915 24.3924C43.4914 21.7769 42.3527 20.3306 39.7681 18.8228Z" fill="black"/>
<path d="M51.2759 13.7754C50.4428 13.7768 49.6105 13.8281 48.7835 13.9292C47.4602 14.1447 47.1217 14.4832 47.1217 15.8062V15.9295C47.1217 17.2833 47.4909 17.5911 48.8449 17.3757C49.7322 17.2551 50.6266 17.1934 51.5221 17.1911C53.6453 17.1911 54.7223 17.5911 54.7223 19.0681V20.2374H51.6144C47.4603 20.2374 45.3677 21.8375 45.3677 25.038C45.3677 28.269 47.3985 29.8998 52.0451 29.8998C56.6917 29.8998 58.7226 28.269 58.7226 24.9456V19.0683C58.7226 15.2527 56.1071 13.7754 51.2759 13.7754ZM54.7224 24.7302C54.5686 26.3918 53.5529 26.5765 51.9837 26.5458C50.4759 26.5765 49.4912 26.4227 49.368 24.9457C49.368 23.8072 50.1065 23.2532 51.5528 23.2532H54.7224V24.7302Z" fill="black"/>
<path d="M71.2163 25.9008C70.5061 26.0329 69.7846 26.0948 69.0622 26.0855C67.7701 26.0855 67.1236 25.4084 67.1236 24.0237V17.9309H70.6316C72.0163 17.9309 72.3549 17.5924 72.3549 16.2077V15.8692C72.3549 14.4845 72.0163 14.146 70.6316 14.146H67.1236V11.7458C67.1236 10.4226 66.8467 10.1455 65.5235 10.1455H65.3387C64.0155 10.1455 63.6462 10.4534 63.4924 11.715L63.1234 14.146L61.8618 14.4229C60.6616 14.669 60.354 15.0383 60.354 16.2692V16.3922C60.354 17.6231 60.6616 17.9309 61.8925 17.9309H63.1234V23.9928C63.1234 27.9009 65.0928 29.8702 69.0623 29.8702C69.7849 29.8869 70.5072 29.8249 71.2164 29.6856C72.5395 29.4086 72.9089 28.8856 72.9089 27.5009V27.1627C72.9088 25.8086 72.601 25.6546 71.2163 25.9008Z" fill="black"/>
<path d="M81.9248 13.7754C77.1246 13.7754 74.5396 16.2064 74.5396 20.6068V23.0686C74.5396 27.6536 76.9089 29.8998 81.9248 29.8998C86.7251 29.8998 89.2484 27.4997 89.2484 23.0686V20.607C89.2484 16.0219 86.9405 13.7754 81.9248 13.7754ZM85.2173 23.0686C85.2173 25.1918 84.5404 26.1149 81.9248 26.1149C79.3093 26.1149 78.5706 25.1918 78.5706 23.0686V20.607C78.5706 18.4836 79.3091 17.5606 81.9248 17.5606C84.5406 17.5606 85.2173 18.4836 85.2173 20.607V23.0686Z" fill="black"/>
<path d="M100.141 20.6383L96.9408 19.3767C95.9561 18.9765 95.6792 18.792 95.6792 18.3303C95.6792 17.7456 96.2023 17.4994 97.9563 17.4994C99.0645 17.4919 100.17 17.6159 101.249 17.8687C102.603 18.2073 102.972 17.8687 102.972 16.484V16.1764C102.972 14.8222 102.634 14.4839 101.28 14.1454C100.212 13.8889 99.116 13.7649 98.0177 13.7761C93.5556 13.7761 91.7404 15.2224 91.7404 18.2996C91.7404 20.669 92.7558 21.7768 94.9406 22.6691L97.8023 23.8693C99.4332 24.5154 99.7408 24.7616 99.7408 25.2849C99.7408 25.9925 99.187 26.1772 97.3714 26.1772C95.9603 26.2087 94.5517 26.043 93.1864 25.6848C91.8632 25.3156 91.4941 25.6848 91.4941 27.131V27.4695C91.4941 28.8235 91.8323 29.162 93.1864 29.5006C94.4575 29.7933 95.7598 29.9277 97.0638 29.9005C101.741 29.9005 103.68 28.4542 103.68 25.2539C103.68 22.7922 102.572 21.5922 100.141 20.6383Z" fill="black"/>
<path d="M119.096 15.0072C118.05 14.1711 116.741 13.7347 115.403 13.7763C113.342 13.7763 111.772 14.3609 110.695 15.5302V9.71441C110.695 8.32975 110.357 7.99121 108.972 7.99121H108.387C107.002 7.99121 106.664 8.32975 106.664 9.71441V27.8084C106.664 29.1931 107.002 29.5316 108.387 29.5316H108.972C110.357 29.5316 110.695 29.1931 110.695 27.8084V21.2846C110.695 18.4843 111.957 17.5613 114.019 17.5613C115.742 17.5613 116.603 18.146 116.603 19.7769V27.8084C116.603 29.1931 116.942 29.5316 118.326 29.5316H118.911C120.296 29.5316 120.634 29.1931 120.634 27.8084V19.069C120.634 17.192 120.111 15.8381 119.096 15.0072Z" fill="black"/>
<path d="M124.265 7.83759C123.931 8.17234 123.703 8.59882 123.61 9.06311C123.518 9.52741 123.565 10.0087 123.747 10.446C123.928 10.8834 124.235 11.2572 124.628 11.5202C125.022 11.7832 125.485 11.9235 125.958 11.9235C126.431 11.9235 126.894 11.7832 127.288 11.5202C127.681 11.2572 127.988 10.8834 128.169 10.446C128.35 10.0087 128.398 9.52741 128.305 9.06311C128.213 8.59882 127.985 8.17234 127.65 7.83759C127.431 7.61119 127.167 7.4312 126.877 7.3083C126.586 7.1854 126.274 7.12207 125.958 7.12207C125.642 7.12207 125.33 7.1854 125.039 7.3083C124.748 7.4312 124.485 7.61119 124.265 7.83759Z" fill="black"/>
<path d="M126.235 14.1465H125.681C124.73 14.1465 123.958 14.918 123.958 15.8697V27.8092C123.958 28.7609 124.73 29.5324 125.681 29.5324H126.235C127.187 29.5324 127.958 28.7609 127.958 27.8092V15.8697C127.958 14.918 127.187 14.1465 126.235 14.1465Z" fill="black"/>
<path d="M141.251 18.8228L137.158 16.4227C135.835 15.6533 135.466 15.2533 135.466 14.5147C135.466 13.407 136.297 13.0684 138.389 13.0684C139.689 13.037 140.986 13.203 142.235 13.5608C143.682 13.961 144.051 13.6532 144.051 12.1761V11.8682C144.051 10.4835 143.712 10.1142 142.235 9.71423C140.983 9.37064 139.688 9.20491 138.389 9.22189C133.373 9.22189 131.219 10.9451 131.219 14.3916C131.219 16.6377 132.266 18.3611 134.327 19.5612L138.266 21.8692C140.236 23.0077 140.728 23.5 140.728 24.3923C140.728 25.6232 139.836 26.0542 137.374 26.0542C135.795 26.0464 134.224 25.8396 132.696 25.4387C131.312 25.0694 130.912 25.4387 130.912 26.8848V27.1927C130.912 28.5774 131.22 28.916 132.666 29.316C134.18 29.7263 135.744 29.9231 137.312 29.9007C142.728 29.9007 144.974 27.9929 144.974 24.3924C144.975 21.7769 143.836 20.3306 141.251 18.8228Z" fill="black"/>
<path d="M169.346 14.1465H168.669C167.284 14.1465 166.946 14.485 166.73 15.8697L165.561 25.132C165.407 26.209 165.192 26.4245 164.576 26.4245C163.961 26.4245 163.715 26.209 163.592 25.132L162.607 17.193C162.33 14.8543 161.253 14.1465 158.914 14.1465C156.453 14.1465 155.499 15.0081 155.222 17.193L154.237 25.132C154.114 26.1474 153.868 26.4245 153.252 26.4245C152.606 26.4245 152.422 26.2398 152.268 25.132L151.099 15.8697C150.883 14.485 150.545 14.1465 149.16 14.1465H148.483C147.098 14.1465 146.79 14.485 147.006 15.839L148.36 25.5934C148.459 26.7845 148.908 27.9196 149.652 28.8551C150.329 29.5629 151.529 29.9015 153.252 29.9015C156.237 29.9015 157.191 28.4551 157.53 25.5934L158.391 18.5773C158.484 17.7464 158.545 17.6233 158.914 17.6233C159.284 17.6233 159.345 17.7463 159.438 18.5773L160.299 25.5934C160.638 28.5167 161.592 29.9015 164.576 29.9015C166.269 29.9015 167.469 29.5629 168.146 28.8551C168.823 28.1474 169.254 27.0397 169.469 25.5934L170.823 15.8388C171.039 14.485 170.731 14.1465 169.346 14.1465Z" fill="black"/>
<path d="M178.423 13.7754C177.59 13.7768 176.757 13.8281 175.93 13.9292C174.607 14.1447 174.269 14.4832 174.269 15.8062V15.9295C174.269 17.2833 174.638 17.5911 175.992 17.3757C176.879 17.2551 177.774 17.1934 178.669 17.1911C180.792 17.1911 181.869 17.5911 181.869 19.0681V20.2374H178.761C174.607 20.2374 172.515 21.8375 172.515 25.038C172.515 28.269 174.545 29.8998 179.192 29.8998C183.839 29.8998 185.87 28.269 185.87 24.9456V19.0683C185.87 15.2527 183.254 13.7754 178.423 13.7754ZM181.869 24.7302C181.716 26.3918 180.7 26.5765 179.131 26.5458C177.623 26.5765 176.638 26.4227 176.515 24.9457C176.515 23.8072 177.254 23.2532 178.7 23.2532H181.869V24.7302Z" fill="black"/>
<path d="M195.902 13.7754C191.501 13.7754 188.578 15.9295 188.578 20.5145V33.9617C188.578 35.3464 188.916 35.685 190.301 35.685H190.855C192.24 35.685 192.578 35.3464 192.578 33.9617V28.1459C193.44 29.3151 194.855 29.8998 196.794 29.8998C201.009 29.8998 203.256 27.4074 203.256 22.9762V20.5147C203.256 16.0219 200.794 13.7754 195.902 13.7754ZM199.225 23.0686C199.225 25.1918 198.548 26.1149 195.932 26.1149C193.317 26.1149 192.578 25.1918 192.578 23.0686V20.607C192.578 18.4836 193.317 17.5606 195.932 17.5606C198.61 17.5606 199.225 18.4222 199.225 20.607V23.0686Z" fill="black"/>
</svg>
