<svg width="204" height="40" viewBox="0 0 204 40" fill="none" xmlns="http://www.w3.org/2000/svg">
<path d="M20.419 16.7982L18.9808 15.36C18.6731 15.0524 18.2559 14.8796 17.8208 14.8796C17.3858 14.8796 16.9686 15.0524 16.6609 15.36C16.3533 15.6676 16.1805 16.0848 16.1805 16.5199C16.1805 16.9549 16.3533 17.3721 16.6609 17.6798L18.0064 19.0253C19.1877 20.2066 19.8514 21.8088 19.8514 23.4794C19.8514 25.15 19.1877 26.7522 18.0064 27.9335L15.501 30.439L13.1811 32.7588L12.968 32.9718L9.70139 36.2387C9.51608 36.4234 9.28942 36.5612 9.04021 36.6408C8.79099 36.7204 8.52639 36.7394 8.26836 36.6963C8.01032 36.6532 7.76627 36.5492 7.55645 36.3929C7.34663 36.2367 7.17708 36.0326 7.06185 35.7978C6.91327 35.4789 6.86871 35.1213 6.93448 34.7757C7.00025 34.4301 7.17303 34.1139 7.42836 33.8719L10.6483 30.6523L10.8614 30.4391L13.1812 28.1192L15.5011 25.7994C16.1163 25.1841 16.4619 24.3497 16.4619 23.4796C16.4619 22.6095 16.1163 21.775 15.5011 21.1597L10.8613 16.5201L13.1811 14.2002L15.501 11.8804L18.8311 8.55048C19.729 7.68197 20.2742 6.51222 20.3619 5.26607C20.4496 4.01993 20.0736 2.78534 19.3062 1.79964C18.8703 1.26855 18.3282 0.834584 17.7145 0.525661C17.1009 0.216738 16.4293 0.0397024 15.7431 0.00594545C15.0569 -0.0278115 14.3713 0.0824581 13.7303 0.329659C13.0893 0.576859 12.5071 0.955514 12.0213 1.44126L8.54145 4.92127L6.22158 7.24068L3.62299 9.83953C1.85121 11.6115 0.855881 14.0147 0.855957 16.5205C0.856033 19.0263 1.8515 21.4294 3.62339 23.2012L5.0617 24.6398C5.36934 24.9474 5.78658 25.1202 6.22163 25.1202C6.65669 25.1202 7.07392 24.9474 7.38157 24.6398C7.68918 24.3322 7.862 23.9149 7.862 23.4799C7.862 23.0448 7.68918 22.6276 7.38157 22.3199L6.03608 20.9744C5.45116 20.3895 4.98718 19.6951 4.67063 18.9309C4.35407 18.1667 4.19114 17.3476 4.19114 16.5204C4.19114 15.6932 4.35407 14.8741 4.67063 14.1098C4.98718 13.3456 5.45116 12.6512 6.03608 12.0663L8.54145 9.5605L10.8613 7.24068L11.0744 7.02767L14.3411 3.76103C14.5264 3.57632 14.753 3.43845 15.0022 3.35884C15.2515 3.27923 15.5161 3.26018 15.7741 3.30328C16.0322 3.34637 16.2762 3.45037 16.4861 3.60663C16.6959 3.7629 16.8654 3.96694 16.9807 4.20183C17.1293 4.52074 17.1738 4.8783 17.108 5.22393C17.0423 5.56956 16.8695 5.88575 16.6141 6.12779L13.3942 9.34754L13.181 9.5605L10.8613 11.8804L8.54145 14.2002C7.92623 14.8155 7.58061 15.6499 7.58061 16.52C7.58061 17.3901 7.92623 18.2246 8.54145 18.8399L13.1811 23.4796L5.21131 31.4497C4.31342 32.3182 3.76822 33.4879 3.6805 34.734C3.59279 35.9801 3.96876 37.2146 4.73613 38.2003C5.17197 38.7314 5.71417 39.1654 6.32784 39.4743C6.94151 39.7833 7.61306 39.9603 8.29927 39.9941C8.98548 40.0278 9.67116 39.9175 10.3122 39.6703C10.9532 39.4231 11.5354 39.0445 12.0213 38.5587L15.501 35.0791L17.8208 32.7592L20.419 30.161C21.2965 29.2837 21.9925 28.242 22.4674 27.0956C22.9423 25.9492 23.1867 24.7205 23.1867 23.4796C23.1867 22.2388 22.9423 21.0101 22.4674 19.8637C21.9925 18.7173 21.2965 17.6756 20.419 16.7982Z" fill="#3E5DC9"/>
<path d="M39.7681 18.7701L35.6754 16.37C34.3522 15.6005 33.9829 15.2006 33.9829 14.462C33.9829 13.3543 34.8139 13.0157 36.9064 13.0157C38.206 12.9843 39.5028 13.1503 40.7526 13.5081C42.1989 13.9082 42.5682 13.6004 42.5682 12.1234V11.8154C42.5682 10.4307 42.2297 10.0615 40.7526 9.66149C39.4999 9.3179 38.2052 9.15217 36.9064 9.16915C31.8905 9.16915 29.7366 10.8924 29.7366 14.3388C29.7366 16.585 30.7827 18.3084 32.8445 19.5085L36.7832 21.8164C38.7527 22.955 39.245 23.4473 39.245 24.3396C39.245 25.5705 38.3526 26.0014 35.8909 26.0014C34.3121 25.9937 32.7406 25.7869 31.2136 25.386C29.8287 25.0167 29.4287 25.386 29.4287 26.8321V27.14C29.4287 28.5247 29.7366 28.8632 31.1828 29.2632C32.6969 29.6736 34.2608 29.8704 35.8293 29.8479C41.2453 29.8479 43.4915 27.9402 43.4915 24.3397C43.4914 21.7242 42.3527 20.2779 39.7681 18.7701Z" fill="white"/>
<path d="M51.2759 13.7236C50.4428 13.725 49.6105 13.7764 48.7835 13.8774C47.4602 14.0929 47.1217 14.4315 47.1217 15.7545V15.8777C47.1217 17.2316 47.4909 17.5394 48.8449 17.3239C49.7322 17.2033 50.6266 17.1417 51.5221 17.1394C53.6453 17.1394 54.7223 17.5393 54.7223 19.0164V20.1856H51.6144C47.4603 20.1856 45.3677 21.7857 45.3677 24.9862C45.3677 28.2172 47.3985 29.8481 52.0451 29.8481C56.6917 29.8481 58.7226 28.2172 58.7226 24.8939V19.0166C58.7226 15.2009 56.1071 13.7236 51.2759 13.7236ZM54.7224 24.6784C54.5686 26.34 53.5529 26.5247 51.9837 26.494C50.4759 26.5247 49.4912 26.3709 49.368 24.8939C49.368 23.7554 50.1065 23.2014 51.5528 23.2014H54.7224V24.6784Z" fill="white"/>
<path d="M71.2163 25.848C70.5061 25.9802 69.7846 26.042 69.0622 26.0327C67.7701 26.0327 67.1236 25.3557 67.1236 23.971V17.8782H70.6316C72.0163 17.8782 72.3549 17.5397 72.3549 16.155V15.8164C72.3549 14.4318 72.0163 14.0932 70.6316 14.0932H67.1236V11.6931C67.1236 10.3699 66.8467 10.0928 65.5235 10.0928H65.3387C64.0155 10.0928 63.6462 10.4007 63.4924 11.6622L63.1234 14.0932L61.8618 14.3701C60.6616 14.6163 60.354 14.9855 60.354 16.2165V16.3395C60.354 17.5704 60.6616 17.8782 61.8925 17.8782H63.1234V23.9401C63.1234 27.8481 65.0928 29.8175 69.0623 29.8175C69.7849 29.8341 70.5072 29.7722 71.2164 29.6328C72.5395 29.3559 72.9089 28.8328 72.9089 27.4481V27.1099C72.9088 25.7558 72.601 25.6018 71.2163 25.848Z" fill="white"/>
<path d="M81.9248 13.7236C77.1246 13.7236 74.5396 16.1546 74.5396 20.5551V23.0168C74.5396 27.6018 76.9089 29.8481 81.9248 29.8481C86.7251 29.8481 89.2484 27.448 89.2484 23.0168V20.5553C89.2484 15.9702 86.9405 13.7236 81.9248 13.7236ZM85.2173 23.0168C85.2173 25.14 84.5404 26.0631 81.9248 26.0631C79.3093 26.0631 78.5706 25.14 78.5706 23.0168V20.5553C78.5706 18.4319 79.3091 17.5088 81.9248 17.5088C84.5406 17.5088 85.2173 18.4319 85.2173 20.5553V23.0168Z" fill="white"/>
<path d="M100.141 20.5865L96.9408 19.3249C95.9561 18.9248 95.6792 18.7402 95.6792 18.2786C95.6792 17.6938 96.2023 17.4477 97.9563 17.4477C99.0645 17.4402 100.17 17.5641 101.249 17.817C102.603 18.1555 102.972 17.817 102.972 16.4323V16.1247C102.972 14.7705 102.634 14.4321 101.28 14.0936C100.212 13.8372 99.116 13.7131 98.0177 13.7243C93.5556 13.7243 91.7404 15.1707 91.7404 18.2478C91.7404 20.6172 92.7558 21.725 94.9406 22.6174L97.8023 23.8175C99.4332 24.4636 99.7408 24.7098 99.7408 25.2331C99.7408 25.9407 99.187 26.1254 97.3714 26.1254C95.9603 26.1569 94.5517 25.9912 93.1864 25.6331C91.8632 25.2638 91.4941 25.6331 91.4941 27.0792V27.4178C91.4941 28.7717 91.8323 29.1103 93.1864 29.4488C94.4575 29.7416 95.7598 29.8759 97.0638 29.8488C101.741 29.8488 103.68 28.4024 103.68 25.2022C103.68 22.7404 102.572 21.5405 100.141 20.5865Z" fill="white"/>
<path d="M119.096 14.9545C118.05 14.1184 116.741 13.682 115.403 13.7236C113.342 13.7236 111.772 14.3082 110.695 15.4775V9.66167C110.695 8.27702 110.357 7.93848 108.972 7.93848H108.387C107.002 7.93848 106.664 8.27702 106.664 9.66167V27.7556C106.664 29.1403 107.002 29.4788 108.387 29.4788H108.972C110.357 29.4788 110.695 29.1403 110.695 27.7556V21.2319C110.695 18.4316 111.957 17.5085 114.019 17.5085C115.742 17.5085 116.603 18.0933 116.603 19.7241V27.7556C116.603 29.1403 116.942 29.4788 118.326 29.4788H118.911C120.296 29.4788 120.634 29.1403 120.634 27.7556V19.0163C120.634 17.1393 120.111 15.7853 119.096 14.9545Z" fill="white"/>
<path d="M124.265 7.78486C123.931 8.1196 123.703 8.54608 123.61 9.01038C123.518 9.47467 123.565 9.95592 123.747 10.3933C123.928 10.8306 124.235 11.2044 124.628 11.4674C125.022 11.7304 125.485 11.8708 125.958 11.8708C126.431 11.8708 126.894 11.7304 127.288 11.4674C127.681 11.2044 127.988 10.8306 128.169 10.3933C128.35 9.95592 128.398 9.47467 128.305 9.01038C128.213 8.54608 127.985 8.1196 127.65 7.78486C127.431 7.55845 127.167 7.37847 126.877 7.25557C126.586 7.13266 126.274 7.06934 125.958 7.06934C125.642 7.06934 125.33 7.13266 125.039 7.25557C124.748 7.37847 124.485 7.55845 124.265 7.78486Z" fill="white"/>
<path d="M126.235 14.0938H125.681C124.73 14.0938 123.958 14.8653 123.958 15.817V27.7564C123.958 28.7082 124.73 29.4797 125.681 29.4797H126.235C127.187 29.4797 127.958 28.7082 127.958 27.7564V15.817C127.958 14.8653 127.187 14.0938 126.235 14.0938Z" fill="white"/>
<path d="M141.251 18.7701L137.158 16.37C135.835 15.6005 135.466 15.2006 135.466 14.462C135.466 13.3543 136.297 13.0157 138.389 13.0157C139.689 12.9843 140.986 13.1503 142.235 13.5081C143.682 13.9082 144.051 13.6004 144.051 12.1234V11.8154C144.051 10.4307 143.712 10.0615 142.235 9.66149C140.983 9.3179 139.688 9.15217 138.389 9.16915C133.373 9.16915 131.219 10.8924 131.219 14.3388C131.219 16.585 132.266 18.3084 134.327 19.5085L138.266 21.8164C140.236 22.955 140.728 23.4473 140.728 24.3396C140.728 25.5705 139.836 26.0014 137.374 26.0014C135.795 25.9937 134.224 25.7869 132.696 25.386C131.312 25.0167 130.912 25.386 130.912 26.8321V27.14C130.912 28.5247 131.22 28.8632 132.666 29.2632C134.18 29.6736 135.744 29.8704 137.312 29.8479C142.728 29.8479 144.974 27.9402 144.974 24.3397C144.975 21.7242 143.836 20.2779 141.251 18.7701Z" fill="white"/>
<path d="M169.346 14.0938H168.669C167.284 14.0938 166.946 14.4323 166.73 15.8169L165.561 25.0793C165.407 26.1563 165.192 26.3717 164.576 26.3717C163.961 26.3717 163.715 26.1563 163.592 25.0793L162.607 17.1402C162.33 14.8015 161.253 14.0938 158.914 14.0938C156.453 14.0938 155.499 14.9554 155.222 17.1402L154.237 25.0793C154.114 26.0947 153.868 26.3717 153.252 26.3717C152.606 26.3717 152.422 26.187 152.268 25.0793L151.099 15.8169C150.883 14.4323 150.545 14.0938 149.16 14.0938H148.483C147.098 14.0938 146.79 14.4323 147.006 15.7863L148.36 25.5407C148.459 26.7318 148.908 27.8668 149.652 28.8024C150.329 29.5102 151.529 29.8487 153.252 29.8487C156.237 29.8487 157.191 28.4024 157.53 25.5407L158.391 18.5245C158.484 17.6936 158.545 17.5705 158.914 17.5705C159.284 17.5705 159.345 17.6936 159.438 18.5245L160.299 25.5407C160.638 28.464 161.592 29.8487 164.576 29.8487C166.269 29.8487 167.469 29.5102 168.146 28.8024C168.823 28.0946 169.254 26.987 169.469 25.5407L170.823 15.7861C171.039 14.4323 170.731 14.0938 169.346 14.0938Z" fill="white"/>
<path d="M178.423 13.7236C177.59 13.725 176.757 13.7764 175.93 13.8774C174.607 14.0929 174.269 14.4315 174.269 15.7545V15.8777C174.269 17.2316 174.638 17.5394 175.992 17.3239C176.879 17.2033 177.774 17.1417 178.669 17.1394C180.792 17.1394 181.869 17.5393 181.869 19.0164V20.1856H178.761C174.607 20.1856 172.515 21.7857 172.515 24.9862C172.515 28.2172 174.545 29.8481 179.192 29.8481C183.839 29.8481 185.87 28.2172 185.87 24.8939V19.0166C185.87 15.2009 183.254 13.7236 178.423 13.7236ZM181.869 24.6784C181.716 26.34 180.7 26.5247 179.131 26.494C177.623 26.5247 176.638 26.3709 176.515 24.8939C176.515 23.7554 177.254 23.2014 178.7 23.2014H181.869V24.6784Z" fill="white"/>
<path d="M195.902 13.7236C191.501 13.7236 188.578 15.8777 188.578 20.4627V33.91C188.578 35.2947 188.916 35.6332 190.301 35.6332H190.855C192.24 35.6332 192.578 35.2947 192.578 33.91V28.0941C193.44 29.2634 194.855 29.8481 196.794 29.8481C201.009 29.8481 203.256 27.3556 203.256 22.9245V20.4629C203.256 15.9702 200.794 13.7236 195.902 13.7236ZM199.225 23.0168C199.225 25.14 198.548 26.0631 195.932 26.0631C193.317 26.0631 192.578 25.14 192.578 23.0168V20.5553C192.578 18.4319 193.317 17.5088 195.932 17.5088C198.61 17.5088 199.225 18.3704 199.225 20.5553V23.0168Z" fill="white"/>
</svg>
