<svg xmlns="http://www.w3.org/2000/svg" xmlns:xlink="http://www.w3.org/1999/xlink" viewBox="0 0 717.98 534.22"><defs><style>.cls-1,.cls-235{fill:url(#linear-gradient);}.cls-2{fill:url(#linear-gradient-2);}.cls-3{fill:url(#linear-gradient-3);}.cls-4{fill:url(#linear-gradient-4);}.cls-5{fill:url(#linear-gradient-5);}.cls-6{fill:url(#linear-gradient-6);}.cls-7{fill:url(#linear-gradient-7);}.cls-8{fill:url(#linear-gradient-8);}.cls-9{fill:url(#linear-gradient-9);}.cls-10,.cls-236{fill:#fff;}.cls-11{fill:url(#linear-gradient-10);}.cls-12{fill:url(#linear-gradient-11);}.cls-13{fill:url(#linear-gradient-12);}.cls-14{fill:url(#linear-gradient-13);}.cls-15{fill:url(#linear-gradient-14);}.cls-16{fill:url(#linear-gradient-15);}.cls-17{fill:url(#linear-gradient-16);}.cls-18{fill:url(#linear-gradient-17);}.cls-19{fill:url(#linear-gradient-18);}.cls-20{fill:url(#linear-gradient-19);}.cls-21{fill:url(#linear-gradient-20);}.cls-22{fill:url(#linear-gradient-21);}.cls-23{fill:url(#linear-gradient-22);}.cls-24{fill:url(#linear-gradient-23);}.cls-25{fill:url(#linear-gradient-24);}.cls-26{fill:url(#linear-gradient-25);}.cls-27{fill:url(#linear-gradient-26);}.cls-28{fill:url(#linear-gradient-27);}.cls-29{clip-path:url(#clip-path);}.cls-30{fill:url(#linear-gradient-29);}.cls-31{fill:url(#linear-gradient-30);}.cls-32{fill:#f8d247;}.cls-33{fill:url(#linear-gradient-31);}.cls-34{fill:url(#linear-gradient-32);}.cls-35{fill:url(#linear-gradient-33);}.cls-36{fill:url(#linear-gradient-34);}.cls-37{fill:url(#linear-gradient-35);}.cls-38{fill:url(#linear-gradient-36);}.cls-39{fill:url(#linear-gradient-37);}.cls-40{fill:url(#linear-gradient-38);}.cls-41{fill:url(#linear-gradient-39);}.cls-42{fill:url(#linear-gradient-40);}.cls-43{fill:url(#linear-gradient-41);}.cls-44{fill:url(#linear-gradient-42);}.cls-45{fill:url(#linear-gradient-43);}.cls-46{fill:url(#linear-gradient-44);}.cls-47{fill:url(#linear-gradient-45);}.cls-48{fill:url(#linear-gradient-46);}.cls-49{fill:url(#linear-gradient-47);}.cls-50{fill:url(#linear-gradient-48);}.cls-51{fill:url(#linear-gradient-49);}.cls-52{fill:url(#linear-gradient-50);}.cls-53{fill:url(#linear-gradient-51);}.cls-54{fill:url(#linear-gradient-52);}.cls-55{fill:url(#linear-gradient-53);}.cls-56{fill:url(#linear-gradient-54);}.cls-57{fill:url(#linear-gradient-55);}.cls-58{fill:url(#linear-gradient-56);}.cls-59{fill:url(#linear-gradient-57);}.cls-60{fill:url(#linear-gradient-58);}.cls-61{fill:url(#linear-gradient-59);}.cls-62{fill:url(#linear-gradient-60);}.cls-63{fill:url(#linear-gradient-61);}.cls-64{fill:url(#linear-gradient-62);}.cls-65{fill:url(#linear-gradient-63);}.cls-66{fill:url(#linear-gradient-64);}.cls-67{fill:url(#linear-gradient-65);}.cls-68{fill:url(#linear-gradient-66);}.cls-69{fill:url(#linear-gradient-67);}.cls-70{fill:url(#linear-gradient-68);}.cls-71{fill:url(#linear-gradient-69);}.cls-72{fill:url(#linear-gradient-70);}.cls-73{fill:url(#linear-gradient-71);}.cls-74{fill:url(#linear-gradient-72);}.cls-75{fill:url(#linear-gradient-73);}.cls-76{fill:url(#linear-gradient-74);}.cls-77{fill:url(#linear-gradient-75);}.cls-78{fill:url(#linear-gradient-76);}.cls-79{fill:url(#linear-gradient-77);}.cls-80{fill:url(#linear-gradient-78);}.cls-81{fill:url(#linear-gradient-79);}.cls-82{fill:url(#linear-gradient-80);}.cls-83{fill:url(#linear-gradient-81);}.cls-84{fill:url(#linear-gradient-82);}.cls-85{fill:url(#linear-gradient-83);}.cls-86{fill:url(#linear-gradient-84);}.cls-87{fill:url(#linear-gradient-85);}.cls-88{fill:url(#linear-gradient-86);}.cls-89{fill:url(#linear-gradient-87);}.cls-90{fill:url(#linear-gradient-88);}.cls-91{fill:url(#linear-gradient-89);}.cls-92{fill:url(#linear-gradient-90);}.cls-93{fill:url(#linear-gradient-91);}.cls-94{fill:url(#linear-gradient-92);}.cls-95{fill:url(#linear-gradient-93);}.cls-96{fill:url(#linear-gradient-94);}.cls-97{fill:url(#linear-gradient-95);}.cls-98{fill:url(#linear-gradient-96);}.cls-99{fill:url(#linear-gradient-97);}.cls-100{fill:url(#linear-gradient-98);}.cls-101{fill:url(#linear-gradient-99);}.cls-102{fill:url(#linear-gradient-100);}.cls-103{fill:url(#linear-gradient-101);}.cls-104{fill:url(#linear-gradient-102);}.cls-105{fill:url(#linear-gradient-103);}.cls-106{fill:url(#linear-gradient-104);}.cls-107{fill:url(#linear-gradient-105);}.cls-108{fill:url(#linear-gradient-106);}.cls-109{fill:url(#linear-gradient-107);}.cls-110{fill:url(#linear-gradient-108);}.cls-111{fill:url(#linear-gradient-109);}.cls-112{fill:url(#linear-gradient-110);}.cls-113{fill:url(#linear-gradient-111);}.cls-114{fill:url(#linear-gradient-112);}.cls-115{fill:url(#linear-gradient-113);}.cls-116{fill:url(#linear-gradient-114);}.cls-117{fill:url(#linear-gradient-115);}.cls-118{fill:url(#linear-gradient-116);}.cls-119{fill:url(#linear-gradient-117);}.cls-120{fill:url(#linear-gradient-118);}.cls-121{fill:url(#linear-gradient-119);}.cls-122{fill:url(#linear-gradient-120);}.cls-123{fill:url(#linear-gradient-121);}.cls-124{fill:url(#linear-gradient-122);}.cls-125{fill:url(#linear-gradient-123);}.cls-126{fill:url(#linear-gradient-124);}.cls-127{fill:url(#linear-gradient-125);}.cls-128{fill:url(#linear-gradient-126);}.cls-129{fill:url(#linear-gradient-127);}.cls-130{fill:url(#linear-gradient-128);}.cls-131{fill:url(#linear-gradient-129);}.cls-132{fill:url(#linear-gradient-130);}.cls-133{fill:url(#linear-gradient-131);}.cls-134{fill:url(#linear-gradient-132);}.cls-135{fill:url(#linear-gradient-133);}.cls-136{fill:url(#linear-gradient-134);}.cls-137{fill:url(#linear-gradient-135);}.cls-138{fill:url(#linear-gradient-136);}.cls-139{fill:url(#linear-gradient-137);}.cls-140{fill:url(#linear-gradient-138);}.cls-141{fill:url(#linear-gradient-139);}.cls-142{fill:url(#linear-gradient-140);}.cls-143{fill:url(#linear-gradient-141);}.cls-144{fill:url(#linear-gradient-142);}.cls-145{fill:url(#linear-gradient-143);}.cls-146{fill:url(#linear-gradient-144);}.cls-147{fill:url(#linear-gradient-145);}.cls-148{fill:url(#linear-gradient-146);}.cls-149{fill:url(#linear-gradient-147);}.cls-150{fill:url(#linear-gradient-148);}.cls-151{fill:url(#linear-gradient-149);}.cls-152{fill:url(#linear-gradient-150);}.cls-153{fill:url(#linear-gradient-151);}.cls-154{fill:url(#linear-gradient-152);}.cls-155{fill:url(#linear-gradient-153);}.cls-156{fill:url(#linear-gradient-154);}.cls-157{fill:url(#linear-gradient-155);}.cls-158{fill:url(#linear-gradient-156);}.cls-159{fill:url(#linear-gradient-157);}.cls-160{fill:url(#linear-gradient-158);}.cls-161{fill:url(#linear-gradient-159);}.cls-162{fill:url(#linear-gradient-160);}.cls-163{fill:url(#linear-gradient-161);}.cls-164{fill:url(#linear-gradient-162);}.cls-165{fill:url(#linear-gradient-163);}.cls-166{fill:url(#linear-gradient-164);}.cls-167{fill:url(#linear-gradient-165);}.cls-168{fill:url(#linear-gradient-166);}.cls-169{fill:url(#linear-gradient-167);}.cls-170{fill:url(#linear-gradient-168);}.cls-171{fill:url(#linear-gradient-169);}.cls-172{fill:url(#linear-gradient-170);}.cls-173{fill:url(#linear-gradient-171);}.cls-174{fill:url(#linear-gradient-172);}.cls-175{fill:url(#linear-gradient-173);}.cls-176{fill:url(#linear-gradient-174);}.cls-177{fill:url(#linear-gradient-175);}.cls-178{fill:url(#linear-gradient-176);}.cls-179{fill:url(#linear-gradient-177);}.cls-180{fill:url(#linear-gradient-178);}.cls-181{fill:url(#linear-gradient-179);}.cls-182{fill:url(#linear-gradient-180);}.cls-183{fill:url(#linear-gradient-181);}.cls-184{fill:url(#linear-gradient-182);}.cls-185{fill:url(#linear-gradient-183);}.cls-186{fill:url(#linear-gradient-184);}.cls-187{fill:url(#linear-gradient-185);}.cls-188{fill:url(#linear-gradient-186);}.cls-189{fill:url(#linear-gradient-187);}.cls-190{fill:url(#linear-gradient-188);}.cls-191{fill:url(#linear-gradient-189);}.cls-192{fill:url(#linear-gradient-190);}.cls-193{fill:url(#linear-gradient-191);}.cls-194{fill:url(#linear-gradient-192);}.cls-195{fill:url(#linear-gradient-193);}.cls-196{fill:url(#linear-gradient-194);}.cls-197{fill:url(#linear-gradient-195);}.cls-198{fill:url(#linear-gradient-196);}.cls-199{fill:url(#linear-gradient-197);}.cls-200{fill:url(#linear-gradient-198);}.cls-201{fill:url(#linear-gradient-199);}.cls-202{fill:url(#linear-gradient-200);}.cls-203{fill:url(#linear-gradient-201);}.cls-204{fill:url(#linear-gradient-202);}.cls-205{fill:url(#linear-gradient-203);}.cls-206{fill:url(#linear-gradient-204);}.cls-207{fill:url(#linear-gradient-205);}.cls-208{fill:url(#linear-gradient-206);}.cls-209{fill:url(#linear-gradient-207);}.cls-210{fill:url(#linear-gradient-208);}.cls-211{fill:url(#linear-gradient-209);}.cls-212{fill:url(#linear-gradient-210);}.cls-213{fill:url(#linear-gradient-211);}.cls-214{fill:url(#linear-gradient-212);}.cls-215{fill:url(#linear-gradient-213);}.cls-216{fill:url(#linear-gradient-214);}.cls-217{fill:url(#linear-gradient-215);}.cls-218{fill:url(#linear-gradient-216);}.cls-219{fill:url(#linear-gradient-217);}.cls-220{fill:url(#linear-gradient-218);}.cls-221{fill:url(#linear-gradient-219);}.cls-222{fill:url(#linear-gradient-220);}.cls-223{fill:url(#linear-gradient-221);}.cls-224{fill:url(#linear-gradient-222);}.cls-225{fill:url(#linear-gradient-223);}.cls-226{fill:url(#linear-gradient-224);}.cls-227{fill:url(#linear-gradient-225);}.cls-228{fill:url(#linear-gradient-226);}.cls-229{fill:url(#linear-gradient-227);}.cls-230{fill:url(#linear-gradient-228);}.cls-231{fill:url(#linear-gradient-229);}.cls-232{fill:url(#linear-gradient-230);}.cls-233{fill:url(#linear-gradient-231);}.cls-234{fill:url(#linear-gradient-232);}.cls-235{opacity:0.45;}.cls-236{opacity:0.35;}.cls-237{fill:url(#linear-gradient-234);}.cls-238{fill:url(#linear-gradient-235);}.cls-239{fill:url(#linear-gradient-236);}.cls-240{fill:url(#linear-gradient-237);}.cls-241{fill:url(#linear-gradient-238);}.cls-242{fill:url(#linear-gradient-239);}.cls-243{fill:#f8f8f9;}.cls-244{fill:url(#linear-gradient-240);}.cls-245{fill:url(#linear-gradient-241);}.cls-246{fill:url(#linear-gradient-242);}.cls-247{fill:url(#linear-gradient-243);}.cls-248{fill:url(#linear-gradient-244);}</style><linearGradient id="linear-gradient" x1="420.34" y1="192.83" x2="288.06" y2="353.58" gradientUnits="userSpaceOnUse"><stop offset="0" stop-color="#fff"/><stop offset="1" stop-color="#3e60c4"/></linearGradient><linearGradient id="linear-gradient-2" x1="645.27" y1="501.75" x2="457.95" y2="299.62" gradientUnits="userSpaceOnUse"><stop offset="0" stop-color="#fff" stop-opacity="0"/><stop offset="1" stop-color="#a4b3e1"/></linearGradient><linearGradient id="linear-gradient-3" x1="70.04" y1="474.36" x2="390.7" y2="331.49" xlink:href="#linear-gradient-2"/><linearGradient id="linear-gradient-4" x1="367.07" y1="538.58" x2="377.65" y2="357.62" xlink:href="#linear-gradient-2"/><linearGradient id="linear-gradient-5" x1="177.05" y1="146.91" x2="370.71" y2="282.37" xlink:href="#linear-gradient-2"/><linearGradient id="linear-gradient-6" x1="503.78" y1="27.78" x2="462.51" y2="171.71" xlink:href="#linear-gradient-2"/><linearGradient id="linear-gradient-7" x1="690.86" y1="119.95" x2="541.64" y2="185.56" xlink:href="#linear-gradient-2"/><linearGradient id="linear-gradient-8" x1="528.5" y1="238.14" x2="309.87" y2="408.75" xlink:href="#linear-gradient"/><linearGradient id="linear-gradient-9" x1="292.7" y1="407.28" x2="394.04" y2="288.2" gradientUnits="userSpaceOnUse"><stop offset="0" stop-color="#fff" stop-opacity="0"/><stop offset="1" stop-color="#0042ff"/></linearGradient><linearGradient id="linear-gradient-10" x1="538.07" y1="160.68" x2="538.07" y2="160.68" xlink:href="#linear-gradient"/><linearGradient id="linear-gradient-11" x1="469.2" y1="66.39" x2="385.48" y2="218.76" xlink:href="#linear-gradient"/><linearGradient id="linear-gradient-12" x1="517.24" y1="283.42" x2="414.23" y2="269.07" gradientUnits="userSpaceOnUse"><stop offset="0" stop-color="#3e60c4"/><stop offset="1" stop-color="#3e0dc4"/></linearGradient><linearGradient id="linear-gradient-13" x1="560.79" y1="318.78" x2="512.4" y2="318.01" gradientUnits="userSpaceOnUse"><stop offset="0" stop-color="#3e60c4" stop-opacity="0"/><stop offset="1" stop-color="#3e0dc4"/></linearGradient><linearGradient id="linear-gradient-14" x1="-779.51" y1="224.39" x2="-761.56" y2="383.9" gradientTransform="matrix(-1, 0, 0, 1, -295.94, 0)" xlink:href="#linear-gradient-12"/><linearGradient id="linear-gradient-15" x1="-696.32" y1="460.65" x2="-788.15" y2="254.77" gradientTransform="matrix(-1, 0, 0, 1, -295.94, 0)" gradientUnits="userSpaceOnUse"><stop offset="0" stop-color="#3e60c4"/><stop offset="1" stop-color="#00caff"/></linearGradient><linearGradient id="linear-gradient-16" x1="530.43" y1="401.42" x2="627.24" y2="287.66" xlink:href="#linear-gradient-9"/><linearGradient id="linear-gradient-17" x1="445.86" y1="255.76" x2="409.23" y2="402.65" gradientTransform="matrix(1, 0, 0, 1, 0, 0)" xlink:href="#linear-gradient-15"/><linearGradient id="linear-gradient-18" x1="453.97" y1="227.42" x2="446.44" y2="250.05" xlink:href="#linear-gradient"/><linearGradient id="linear-gradient-19" x1="457.31" y1="247.99" x2="545.12" y2="392.73" gradientTransform="matrix(1, 0, 0, 1, 0, 0)" xlink:href="#linear-gradient-15"/><linearGradient id="linear-gradient-20" x1="479.1" y1="217.09" x2="402.33" y2="331.06" gradientTransform="translate(444.97 -264.91) rotate(59.69)" xlink:href="#linear-gradient"/><linearGradient id="linear-gradient-21" x1="556.56" y1="251.18" x2="494.89" y2="254.81" gradientTransform="translate(221.39 -236.38) rotate(33.12)" xlink:href="#linear-gradient"/><linearGradient id="linear-gradient-22" x1="559.03" y1="293.14" x2="497.35" y2="296.77" gradientTransform="translate(422.31 -278.3) rotate(51.7)" xlink:href="#linear-gradient"/><linearGradient id="linear-gradient-23" x1="490.21" y1="246" x2="480.46" y2="275.3" xlink:href="#linear-gradient"/><linearGradient id="linear-gradient-24" x1="522.77" y1="232.62" x2="423.34" y2="380.22" gradientTransform="translate(485.98 -282.76) rotate(59.69)" xlink:href="#linear-gradient"/><linearGradient id="linear-gradient-25" x1="431.52" y1="338.59" x2="480.08" y2="290.59" xlink:href="#linear-gradient"/><linearGradient id="linear-gradient-26" x1="479.83" y1="274.82" x2="467.27" y2="267.48" xlink:href="#linear-gradient"/><linearGradient id="linear-gradient-27" x1="506.9" y1="229.58" x2="471.91" y2="334.7" xlink:href="#linear-gradient"/><clipPath id="clip-path"><polygon class="cls-1" points="296.93 178.27 296.93 316.61 403.4 377.94 403.4 239.46 296.93 178.27"/></clipPath><linearGradient id="linear-gradient-29" x1="299.35" y1="367.28" x2="510.61" y2="267.66" xlink:href="#linear-gradient-12"/><linearGradient id="linear-gradient-30" x1="315.32" y1="319.6" x2="361.1" y2="319.6" gradientUnits="userSpaceOnUse"><stop offset="0" stop-color="#f8d247"/><stop offset="1" stop-color="#f83d47"/></linearGradient><linearGradient id="linear-gradient-31" x1="327.22" y1="306.17" x2="381.71" y2="357.45" gradientTransform="translate(641.71 -33.53) rotate(87.81)" xlink:href="#linear-gradient-30"/><linearGradient id="linear-gradient-32" x1="322.26" y1="313.08" x2="354.29" y2="313.08" xlink:href="#linear-gradient-30"/><linearGradient id="linear-gradient-33" x1="315.32" y1="314.66" x2="361.1" y2="314.66" xlink:href="#linear-gradient-30"/><linearGradient id="linear-gradient-34" x1="327.22" y1="301.23" x2="381.71" y2="352.5" gradientTransform="translate(636.77 -38.28) rotate(87.81)" xlink:href="#linear-gradient-30"/><linearGradient id="linear-gradient-35" x1="322.26" y1="308.14" x2="354.29" y2="308.14" xlink:href="#linear-gradient-30"/><linearGradient id="linear-gradient-36" x1="315.32" y1="309.66" x2="361.1" y2="309.66" xlink:href="#linear-gradient-30"/><linearGradient id="linear-gradient-37" x1="327.22" y1="296.23" x2="381.71" y2="347.5" gradientTransform="translate(631.77 -43.1) rotate(87.81)" xlink:href="#linear-gradient-30"/><linearGradient id="linear-gradient-38" x1="322.26" y1="303.14" x2="354.29" y2="303.14" xlink:href="#linear-gradient-30"/><linearGradient id="linear-gradient-39" x1="315.32" y1="305.04" x2="361.1" y2="305.04" xlink:href="#linear-gradient-30"/><linearGradient id="linear-gradient-40" x1="327.22" y1="291.61" x2="381.71" y2="342.89" gradientTransform="translate(627.16 -47.53) rotate(87.81)" xlink:href="#linear-gradient-30"/><linearGradient id="linear-gradient-41" x1="322.26" y1="298.52" x2="354.29" y2="298.52" xlink:href="#linear-gradient-30"/><linearGradient id="linear-gradient-42" x1="315.32" y1="300.1" x2="361.1" y2="300.1" xlink:href="#linear-gradient-30"/><linearGradient id="linear-gradient-43" x1="327.22" y1="286.67" x2="381.71" y2="337.94" xlink:href="#linear-gradient-30"/><linearGradient id="linear-gradient-44" x1="322.26" y1="293.58" x2="354.29" y2="293.58" xlink:href="#linear-gradient-30"/><linearGradient id="linear-gradient-45" x1="315.32" y1="295.1" x2="361.1" y2="295.1" xlink:href="#linear-gradient-30"/><linearGradient id="linear-gradient-46" x1="327.22" y1="281.67" x2="381.71" y2="332.94" gradientTransform="translate(617.22 -57.1) rotate(87.81)" xlink:href="#linear-gradient-30"/><linearGradient id="linear-gradient-47" x1="322.26" y1="288.58" x2="354.29" y2="288.58" xlink:href="#linear-gradient-30"/><linearGradient id="linear-gradient-48" x1="315.32" y1="290.62" x2="361.1" y2="290.62" xlink:href="#linear-gradient-30"/><linearGradient id="linear-gradient-49" x1="327.22" y1="277.19" x2="381.71" y2="328.47" gradientTransform="translate(612.75 -61.41) rotate(87.81)" xlink:href="#linear-gradient-30"/><linearGradient id="linear-gradient-50" x1="322.26" y1="284.1" x2="354.29" y2="284.1" xlink:href="#linear-gradient-30"/><linearGradient id="linear-gradient-51" x1="315.32" y1="286" x2="361.1" y2="286" xlink:href="#linear-gradient-30"/><linearGradient id="linear-gradient-52" x1="327.22" y1="272.57" x2="381.71" y2="323.85" gradientTransform="translate(608.14 -65.84) rotate(87.81)" xlink:href="#linear-gradient-30"/><linearGradient id="linear-gradient-53" x1="322.26" y1="279.49" x2="354.29" y2="279.49" xlink:href="#linear-gradient-30"/><linearGradient id="linear-gradient-54" x1="315.32" y1="281.06" x2="361.1" y2="281.06" xlink:href="#linear-gradient-30"/><linearGradient id="linear-gradient-55" x1="327.22" y1="267.63" x2="381.71" y2="318.91" xlink:href="#linear-gradient-30"/><linearGradient id="linear-gradient-56" x1="322.26" y1="274.55" x2="354.29" y2="274.55" xlink:href="#linear-gradient-30"/><linearGradient id="linear-gradient-57" x1="315.32" y1="276.06" x2="361.1" y2="276.06" xlink:href="#linear-gradient-30"/><linearGradient id="linear-gradient-58" x1="327.22" y1="262.63" x2="381.71" y2="313.91" gradientTransform="translate(598.2 -75.41) rotate(87.81)" xlink:href="#linear-gradient-30"/><linearGradient id="linear-gradient-59" x1="322.26" y1="269.54" x2="354.29" y2="269.54" xlink:href="#linear-gradient-30"/><linearGradient id="linear-gradient-60" x1="315.32" y1="270.86" x2="361.1" y2="270.86" xlink:href="#linear-gradient-30"/><linearGradient id="linear-gradient-61" x1="327.22" y1="257.43" x2="381.71" y2="308.7" xlink:href="#linear-gradient-30"/><linearGradient id="linear-gradient-62" x1="322.26" y1="264.34" x2="354.29" y2="264.34" xlink:href="#linear-gradient-30"/><linearGradient id="linear-gradient-63" x1="315.32" y1="265.85" x2="361.1" y2="265.85" xlink:href="#linear-gradient-30"/><linearGradient id="linear-gradient-64" x1="327.22" y1="252.42" x2="381.71" y2="303.7" gradientTransform="translate(588 -85.23) rotate(87.81)" xlink:href="#linear-gradient-30"/><linearGradient id="linear-gradient-65" x1="322.26" y1="259.34" x2="354.29" y2="259.34" xlink:href="#linear-gradient-30"/><linearGradient id="linear-gradient-66" x1="315.32" y1="261.38" x2="361.1" y2="261.38" xlink:href="#linear-gradient-30"/><linearGradient id="linear-gradient-67" x1="327.22" y1="247.95" x2="381.71" y2="299.22" gradientTransform="translate(583.53 -89.53) rotate(87.81)" xlink:href="#linear-gradient-30"/><linearGradient id="linear-gradient-68" x1="322.26" y1="254.86" x2="354.29" y2="254.86" xlink:href="#linear-gradient-30"/><linearGradient id="linear-gradient-69" x1="315.32" y1="256.76" x2="361.1" y2="256.76" xlink:href="#linear-gradient-30"/><linearGradient id="linear-gradient-70" x1="327.22" y1="243.33" x2="381.71" y2="294.61" gradientTransform="translate(578.92 -93.97) rotate(87.81)" xlink:href="#linear-gradient-30"/><linearGradient id="linear-gradient-71" x1="322.26" y1="250.24" x2="354.29" y2="250.24" xlink:href="#linear-gradient-30"/><linearGradient id="linear-gradient-72" x1="315.32" y1="251.82" x2="361.1" y2="251.82" xlink:href="#linear-gradient-30"/><linearGradient id="linear-gradient-73" x1="327.22" y1="238.39" x2="381.71" y2="289.67" xlink:href="#linear-gradient-30"/><linearGradient id="linear-gradient-74" x1="322.26" y1="245.3" x2="354.29" y2="245.3" xlink:href="#linear-gradient-30"/><linearGradient id="linear-gradient-75" x1="380.39" y1="319.46" x2="426.18" y2="319.46" xlink:href="#linear-gradient-30"/><linearGradient id="linear-gradient-76" x1="392.3" y1="306.03" x2="446.78" y2="357.31" gradientTransform="translate(704.17 -98.69) rotate(87.81)" xlink:href="#linear-gradient-30"/><linearGradient id="linear-gradient-77" x1="387.33" y1="312.95" x2="419.36" y2="312.95" xlink:href="#linear-gradient-30"/><linearGradient id="linear-gradient-78" x1="380.39" y1="314.52" x2="426.18" y2="314.52" xlink:href="#linear-gradient-30"/><linearGradient id="linear-gradient-79" x1="392.3" y1="301.09" x2="446.78" y2="352.37" gradientTransform="translate(699.23 -103.44) rotate(87.81)" xlink:href="#linear-gradient-30"/><linearGradient id="linear-gradient-80" x1="387.33" y1="308" x2="419.36" y2="308" xlink:href="#linear-gradient-30"/><linearGradient id="linear-gradient-81" x1="380.39" y1="309.52" x2="426.18" y2="309.52" xlink:href="#linear-gradient-30"/><linearGradient id="linear-gradient-82" x1="392.3" y1="296.09" x2="446.78" y2="347.37" gradientTransform="translate(694.23 -108.25) rotate(87.81)" xlink:href="#linear-gradient-30"/><linearGradient id="linear-gradient-83" x1="387.33" y1="303" x2="419.36" y2="303" xlink:href="#linear-gradient-30"/><linearGradient id="linear-gradient-84" x1="380.39" y1="304.9" x2="426.18" y2="304.9" xlink:href="#linear-gradient-30"/><linearGradient id="linear-gradient-85" x1="392.3" y1="291.47" x2="446.78" y2="342.75" gradientTransform="translate(689.62 -112.69) rotate(87.81)" xlink:href="#linear-gradient-30"/><linearGradient id="linear-gradient-86" x1="387.33" y1="298.39" x2="419.36" y2="298.39" xlink:href="#linear-gradient-30"/><linearGradient id="linear-gradient-87" x1="380.39" y1="299.96" x2="426.18" y2="299.96" xlink:href="#linear-gradient-30"/><linearGradient id="linear-gradient-88" x1="392.3" y1="286.53" x2="446.78" y2="337.81" xlink:href="#linear-gradient-30"/><linearGradient id="linear-gradient-89" x1="387.33" y1="293.44" x2="419.36" y2="293.44" xlink:href="#linear-gradient-30"/><linearGradient id="linear-gradient-90" x1="380.39" y1="294.96" x2="426.18" y2="294.96" xlink:href="#linear-gradient-30"/><linearGradient id="linear-gradient-91" x1="392.3" y1="281.53" x2="446.78" y2="332.81" gradientTransform="translate(679.68 -122.26) rotate(87.81)" xlink:href="#linear-gradient-30"/><linearGradient id="linear-gradient-92" x1="387.33" y1="288.44" x2="419.36" y2="288.44" xlink:href="#linear-gradient-30"/><linearGradient id="linear-gradient-93" x1="380.39" y1="290.48" x2="426.18" y2="290.48" xlink:href="#linear-gradient-30"/><linearGradient id="linear-gradient-94" x1="392.3" y1="277.05" x2="446.78" y2="328.33" gradientTransform="translate(675.21 -126.56) rotate(87.81)" xlink:href="#linear-gradient-30"/><linearGradient id="linear-gradient-95" x1="387.33" y1="283.97" x2="419.36" y2="283.97" xlink:href="#linear-gradient-30"/><linearGradient id="linear-gradient-96" x1="380.39" y1="285.87" x2="426.18" y2="285.87" xlink:href="#linear-gradient-30"/><linearGradient id="linear-gradient-97" x1="392.3" y1="272.44" x2="446.78" y2="323.71" gradientTransform="translate(670.59 -131) rotate(87.81)" xlink:href="#linear-gradient-30"/><linearGradient id="linear-gradient-98" x1="387.33" y1="279.35" x2="419.36" y2="279.35" xlink:href="#linear-gradient-30"/><linearGradient id="linear-gradient-99" x1="380.39" y1="280.93" x2="426.18" y2="280.93" xlink:href="#linear-gradient-30"/><linearGradient id="linear-gradient-100" x1="392.3" y1="267.5" x2="446.78" y2="318.77" xlink:href="#linear-gradient-30"/><linearGradient id="linear-gradient-101" x1="387.33" y1="274.41" x2="419.36" y2="274.41" xlink:href="#linear-gradient-30"/><linearGradient id="linear-gradient-102" x1="380.39" y1="275.92" x2="426.18" y2="275.92" xlink:href="#linear-gradient-30"/><linearGradient id="linear-gradient-103" x1="392.3" y1="262.49" x2="446.78" y2="313.77" gradientTransform="translate(660.66 -140.57) rotate(87.81)" xlink:href="#linear-gradient-30"/><linearGradient id="linear-gradient-104" x1="387.33" y1="269.41" x2="419.36" y2="269.41" xlink:href="#linear-gradient-30"/><linearGradient id="linear-gradient-105" x1="380.39" y1="270.72" x2="426.18" y2="270.72" xlink:href="#linear-gradient-30"/><linearGradient id="linear-gradient-106" x1="392.3" y1="257.29" x2="446.78" y2="308.57" xlink:href="#linear-gradient-30"/><linearGradient id="linear-gradient-107" x1="387.33" y1="264.2" x2="419.36" y2="264.2" xlink:href="#linear-gradient-30"/><linearGradient id="linear-gradient-108" x1="380.39" y1="265.72" x2="426.18" y2="265.72" xlink:href="#linear-gradient-30"/><linearGradient id="linear-gradient-109" x1="392.3" y1="252.29" x2="446.78" y2="303.56" gradientTransform="translate(650.46 -150.38) rotate(87.81)" xlink:href="#linear-gradient-30"/><linearGradient id="linear-gradient-110" x1="387.33" y1="259.2" x2="419.36" y2="259.2" xlink:href="#linear-gradient-30"/><linearGradient id="linear-gradient-111" x1="380.39" y1="261.24" x2="426.18" y2="261.24" xlink:href="#linear-gradient-30"/><linearGradient id="linear-gradient-112" x1="392.3" y1="247.81" x2="446.78" y2="299.09" gradientTransform="translate(645.99 -154.69) rotate(87.81)" xlink:href="#linear-gradient-30"/><linearGradient id="linear-gradient-113" x1="387.33" y1="254.72" x2="419.36" y2="254.72" xlink:href="#linear-gradient-30"/><linearGradient id="linear-gradient-114" x1="380.39" y1="256.63" x2="426.18" y2="256.63" xlink:href="#linear-gradient-30"/><linearGradient id="linear-gradient-115" x1="392.3" y1="243.2" x2="446.78" y2="294.47" gradientTransform="translate(641.37 -159.13) rotate(87.81)" xlink:href="#linear-gradient-30"/><linearGradient id="linear-gradient-116" x1="387.33" y1="250.11" x2="419.36" y2="250.11" xlink:href="#linear-gradient-30"/><linearGradient id="linear-gradient-117" x1="380.39" y1="251.69" x2="426.18" y2="251.69" xlink:href="#linear-gradient-30"/><linearGradient id="linear-gradient-118" x1="392.3" y1="238.26" x2="446.78" y2="289.53" xlink:href="#linear-gradient-30"/><linearGradient id="linear-gradient-119" x1="387.33" y1="245.17" x2="419.36" y2="245.17" xlink:href="#linear-gradient-30"/><linearGradient id="linear-gradient-120" x1="352" y1="339.75" x2="397.79" y2="339.75" xlink:href="#linear-gradient-30"/><linearGradient id="linear-gradient-121" x1="363.91" y1="326.32" x2="418.4" y2="377.6" gradientTransform="translate(697.14 -50.8) rotate(87.81)" xlink:href="#linear-gradient-30"/><linearGradient id="linear-gradient-122" x1="358.94" y1="333.24" x2="390.97" y2="333.24" xlink:href="#linear-gradient-30"/><linearGradient id="linear-gradient-123" x1="352" y1="334.81" x2="397.79" y2="334.81" xlink:href="#linear-gradient-30"/><linearGradient id="linear-gradient-124" x1="363.91" y1="321.38" x2="418.4" y2="372.66" gradientTransform="translate(692.2 -55.56) rotate(87.81)" xlink:href="#linear-gradient-30"/><linearGradient id="linear-gradient-125" x1="358.94" y1="328.29" x2="390.97" y2="328.29" xlink:href="#linear-gradient-30"/><linearGradient id="linear-gradient-126" x1="352" y1="329.81" x2="397.79" y2="329.81" xlink:href="#linear-gradient-30"/><linearGradient id="linear-gradient-127" x1="363.91" y1="316.38" x2="418.4" y2="367.66" gradientTransform="translate(687.2 -60.37) rotate(87.81)" xlink:href="#linear-gradient-30"/><linearGradient id="linear-gradient-128" x1="358.94" y1="323.29" x2="390.97" y2="323.29" xlink:href="#linear-gradient-30"/><linearGradient id="linear-gradient-129" x1="352" y1="325.19" x2="397.79" y2="325.19" xlink:href="#linear-gradient-30"/><linearGradient id="linear-gradient-130" x1="363.91" y1="311.76" x2="418.4" y2="363.04" gradientTransform="translate(682.59 -64.81) rotate(87.81)" xlink:href="#linear-gradient-30"/><linearGradient id="linear-gradient-131" x1="358.94" y1="318.68" x2="390.97" y2="318.68" xlink:href="#linear-gradient-30"/><linearGradient id="linear-gradient-132" x1="352" y1="320.25" x2="397.79" y2="320.25" xlink:href="#linear-gradient-30"/><linearGradient id="linear-gradient-133" x1="363.91" y1="306.82" x2="418.4" y2="358.1" xlink:href="#linear-gradient-30"/><linearGradient id="linear-gradient-134" x1="358.94" y1="313.74" x2="390.97" y2="313.74" xlink:href="#linear-gradient-30"/><linearGradient id="linear-gradient-135" x1="352" y1="315.25" x2="397.79" y2="315.25" xlink:href="#linear-gradient-30"/><linearGradient id="linear-gradient-136" x1="363.91" y1="301.82" x2="418.4" y2="353.1" gradientTransform="translate(672.65 -74.37) rotate(87.81)" xlink:href="#linear-gradient-30"/><linearGradient id="linear-gradient-137" x1="358.94" y1="308.73" x2="390.97" y2="308.73" xlink:href="#linear-gradient-30"/><linearGradient id="linear-gradient-138" x1="352" y1="310.77" x2="397.79" y2="310.77" xlink:href="#linear-gradient-30"/><linearGradient id="linear-gradient-139" x1="363.91" y1="297.34" x2="418.4" y2="348.62" gradientTransform="translate(668.18 -78.68) rotate(87.81)" xlink:href="#linear-gradient-30"/><linearGradient id="linear-gradient-140" x1="358.94" y1="304.26" x2="390.97" y2="304.26" xlink:href="#linear-gradient-30"/><linearGradient id="linear-gradient-141" x1="352" y1="306.16" x2="397.79" y2="306.16" xlink:href="#linear-gradient-30"/><linearGradient id="linear-gradient-142" x1="363.91" y1="292.73" x2="418.4" y2="344" gradientTransform="translate(663.56 -83.12) rotate(87.81)" xlink:href="#linear-gradient-30"/><linearGradient id="linear-gradient-143" x1="358.94" y1="299.64" x2="390.97" y2="299.64" xlink:href="#linear-gradient-30"/><linearGradient id="linear-gradient-144" x1="352" y1="301.22" x2="397.79" y2="301.22" xlink:href="#linear-gradient-30"/><linearGradient id="linear-gradient-145" x1="363.91" y1="287.79" x2="418.4" y2="339.06" xlink:href="#linear-gradient-30"/><linearGradient id="linear-gradient-146" x1="358.94" y1="294.7" x2="390.97" y2="294.7" xlink:href="#linear-gradient-30"/><linearGradient id="linear-gradient-147" x1="352" y1="296.21" x2="397.79" y2="296.21" xlink:href="#linear-gradient-30"/><linearGradient id="linear-gradient-148" x1="363.91" y1="282.78" x2="418.4" y2="334.06" gradientTransform="translate(653.63 -92.68) rotate(87.81)" xlink:href="#linear-gradient-30"/><linearGradient id="linear-gradient-149" x1="358.94" y1="289.7" x2="390.97" y2="289.7" xlink:href="#linear-gradient-30"/><linearGradient id="linear-gradient-150" x1="352" y1="291.01" x2="397.79" y2="291.01" xlink:href="#linear-gradient-30"/><linearGradient id="linear-gradient-151" x1="363.91" y1="277.58" x2="418.4" y2="328.86" xlink:href="#linear-gradient-30"/><linearGradient id="linear-gradient-152" x1="358.94" y1="284.49" x2="390.97" y2="284.49" xlink:href="#linear-gradient-30"/><linearGradient id="linear-gradient-153" x1="352" y1="286.01" x2="397.79" y2="286.01" xlink:href="#linear-gradient-30"/><linearGradient id="linear-gradient-154" x1="363.91" y1="272.58" x2="418.4" y2="323.85" gradientTransform="translate(643.43 -102.5) rotate(87.81)" xlink:href="#linear-gradient-30"/><linearGradient id="linear-gradient-155" x1="358.94" y1="279.49" x2="390.97" y2="279.49" xlink:href="#linear-gradient-30"/><linearGradient id="linear-gradient-156" x1="352" y1="281.53" x2="397.79" y2="281.53" xlink:href="#linear-gradient-30"/><linearGradient id="linear-gradient-157" x1="363.91" y1="268.1" x2="418.4" y2="319.38" gradientTransform="translate(638.96 -106.81) rotate(87.81)" xlink:href="#linear-gradient-30"/><linearGradient id="linear-gradient-158" x1="358.94" y1="275.01" x2="390.97" y2="275.01" xlink:href="#linear-gradient-30"/><linearGradient id="linear-gradient-159" x1="352" y1="276.92" x2="397.79" y2="276.92" xlink:href="#linear-gradient-30"/><linearGradient id="linear-gradient-160" x1="363.91" y1="263.49" x2="418.4" y2="314.76" gradientTransform="translate(634.34 -111.25) rotate(87.81)" xlink:href="#linear-gradient-30"/><linearGradient id="linear-gradient-161" x1="358.94" y1="270.4" x2="390.97" y2="270.4" xlink:href="#linear-gradient-30"/><linearGradient id="linear-gradient-162" x1="352" y1="271.98" x2="397.79" y2="271.98" xlink:href="#linear-gradient-30"/><linearGradient id="linear-gradient-163" x1="363.91" y1="258.55" x2="418.4" y2="309.82" xlink:href="#linear-gradient-30"/><linearGradient id="linear-gradient-164" x1="358.94" y1="265.46" x2="390.97" y2="265.46" xlink:href="#linear-gradient-30"/><linearGradient id="linear-gradient-165" x1="352" y1="266.97" x2="397.79" y2="266.97" xlink:href="#linear-gradient-30"/><linearGradient id="linear-gradient-166" x1="363.91" y1="253.54" x2="418.4" y2="304.82" xlink:href="#linear-gradient-30"/><linearGradient id="linear-gradient-167" x1="358.94" y1="260.45" x2="390.97" y2="260.45" xlink:href="#linear-gradient-30"/><linearGradient id="linear-gradient-168" x1="352" y1="261.97" x2="397.79" y2="261.97" xlink:href="#linear-gradient-30"/><linearGradient id="linear-gradient-169" x1="363.91" y1="248.54" x2="418.4" y2="299.82" gradientTransform="translate(619.41 -125.62) rotate(87.81)" xlink:href="#linear-gradient-30"/><linearGradient id="linear-gradient-170" x1="358.94" y1="255.45" x2="390.97" y2="255.45" xlink:href="#linear-gradient-30"/><linearGradient id="linear-gradient-171" x1="352" y1="256.77" x2="397.79" y2="256.77" xlink:href="#linear-gradient-30"/><linearGradient id="linear-gradient-172" x1="363.91" y1="243.34" x2="418.4" y2="294.61" xlink:href="#linear-gradient-30"/><linearGradient id="linear-gradient-173" x1="358.94" y1="250.25" x2="390.97" y2="250.25" xlink:href="#linear-gradient-30"/><linearGradient id="linear-gradient-174" x1="352" y1="251.76" x2="397.79" y2="251.76" xlink:href="#linear-gradient-30"/><linearGradient id="linear-gradient-175" x1="363.91" y1="238.33" x2="418.4" y2="289.61" gradientTransform="translate(609.21 -135.44) rotate(87.81)" xlink:href="#linear-gradient-30"/><linearGradient id="linear-gradient-176" x1="358.94" y1="245.25" x2="390.97" y2="245.25" xlink:href="#linear-gradient-30"/><linearGradient id="linear-gradient-177" x1="352" y1="247.29" x2="397.79" y2="247.29" xlink:href="#linear-gradient-30"/><linearGradient id="linear-gradient-178" x1="363.91" y1="233.86" x2="418.4" y2="285.13" gradientTransform="translate(604.74 -139.74) rotate(87.81)" xlink:href="#linear-gradient-30"/><linearGradient id="linear-gradient-179" x1="358.94" y1="240.77" x2="390.97" y2="240.77" xlink:href="#linear-gradient-30"/><linearGradient id="linear-gradient-180" x1="352" y1="242.67" x2="397.79" y2="242.67" xlink:href="#linear-gradient-30"/><linearGradient id="linear-gradient-181" x1="363.91" y1="229.24" x2="418.4" y2="280.52" gradientTransform="translate(600.12 -144.18) rotate(87.81)" xlink:href="#linear-gradient-30"/><linearGradient id="linear-gradient-182" x1="358.94" y1="236.15" x2="390.97" y2="236.15" xlink:href="#linear-gradient-30"/><linearGradient id="linear-gradient-183" x1="352" y1="237.73" x2="397.79" y2="237.73" xlink:href="#linear-gradient-30"/><linearGradient id="linear-gradient-184" x1="363.91" y1="224.3" x2="418.4" y2="275.58" xlink:href="#linear-gradient-30"/><linearGradient id="linear-gradient-185" x1="358.94" y1="231.21" x2="390.97" y2="231.21" xlink:href="#linear-gradient-30"/><linearGradient id="linear-gradient-186" x1="380.5" y1="352.01" x2="426.29" y2="352.01" xlink:href="#linear-gradient-30"/><linearGradient id="linear-gradient-187" x1="392.41" y1="338.58" x2="446.89" y2="389.86" gradientTransform="translate(736.79 -67.49) rotate(87.81)" xlink:href="#linear-gradient-30"/><linearGradient id="linear-gradient-188" x1="387.44" y1="345.49" x2="419.47" y2="345.49" xlink:href="#linear-gradient-30"/><linearGradient id="linear-gradient-189" x1="380.5" y1="347.07" x2="426.29" y2="347.07" xlink:href="#linear-gradient-30"/><linearGradient id="linear-gradient-190" x1="392.41" y1="333.64" x2="446.89" y2="384.91" gradientTransform="translate(731.86 -72.25) rotate(87.81)" xlink:href="#linear-gradient-30"/><linearGradient id="linear-gradient-191" x1="387.44" y1="340.55" x2="419.47" y2="340.55" xlink:href="#linear-gradient-30"/><linearGradient id="linear-gradient-192" x1="380.5" y1="342.07" x2="426.29" y2="342.07" xlink:href="#linear-gradient-30"/><linearGradient id="linear-gradient-193" x1="392.41" y1="328.64" x2="446.89" y2="379.91" gradientTransform="translate(726.86 -77.06) rotate(87.81)" xlink:href="#linear-gradient-30"/><linearGradient id="linear-gradient-194" x1="387.44" y1="335.55" x2="419.47" y2="335.55" xlink:href="#linear-gradient-30"/><linearGradient id="linear-gradient-195" x1="380.5" y1="337.45" x2="426.29" y2="337.45" xlink:href="#linear-gradient-30"/><linearGradient id="linear-gradient-196" x1="392.41" y1="324.02" x2="446.89" y2="375.3" gradientTransform="translate(722.25 -81.5) rotate(87.81)" xlink:href="#linear-gradient-30"/><linearGradient id="linear-gradient-197" x1="387.44" y1="330.93" x2="419.47" y2="330.93" xlink:href="#linear-gradient-30"/><linearGradient id="linear-gradient-198" x1="380.5" y1="332.51" x2="426.29" y2="332.51" xlink:href="#linear-gradient-30"/><linearGradient id="linear-gradient-199" x1="392.41" y1="319.08" x2="446.89" y2="370.35" xlink:href="#linear-gradient-30"/><linearGradient id="linear-gradient-200" x1="387.44" y1="325.99" x2="419.47" y2="325.99" xlink:href="#linear-gradient-30"/><linearGradient id="linear-gradient-201" x1="380.5" y1="327.51" x2="426.29" y2="327.51" xlink:href="#linear-gradient-30"/><linearGradient id="linear-gradient-202" x1="392.41" y1="314.08" x2="446.89" y2="365.35" gradientTransform="translate(712.31 -91.06) rotate(87.81)" xlink:href="#linear-gradient-30"/><linearGradient id="linear-gradient-203" x1="387.44" y1="320.99" x2="419.47" y2="320.99" xlink:href="#linear-gradient-30"/><linearGradient id="linear-gradient-204" x1="380.5" y1="323.03" x2="426.29" y2="323.03" xlink:href="#linear-gradient-30"/><linearGradient id="linear-gradient-205" x1="392.41" y1="309.6" x2="446.89" y2="360.88" gradientTransform="translate(707.84 -95.37) rotate(87.81)" xlink:href="#linear-gradient-30"/><linearGradient id="linear-gradient-206" x1="387.44" y1="316.51" x2="419.47" y2="316.51" xlink:href="#linear-gradient-30"/><linearGradient id="linear-gradient-207" x1="380.5" y1="318.41" x2="426.29" y2="318.41" xlink:href="#linear-gradient-30"/><linearGradient id="linear-gradient-208" x1="392.41" y1="304.98" x2="446.89" y2="356.26" gradientTransform="translate(703.22 -99.81) rotate(87.81)" xlink:href="#linear-gradient-30"/><linearGradient id="linear-gradient-209" x1="387.44" y1="311.9" x2="419.47" y2="311.9" xlink:href="#linear-gradient-30"/><linearGradient id="linear-gradient-210" x1="380.5" y1="313.47" x2="426.29" y2="313.47" xlink:href="#linear-gradient-30"/><linearGradient id="linear-gradient-211" x1="392.41" y1="300.04" x2="446.89" y2="351.32" xlink:href="#linear-gradient-30"/><linearGradient id="linear-gradient-212" x1="387.44" y1="306.95" x2="419.47" y2="306.95" xlink:href="#linear-gradient-30"/><linearGradient id="linear-gradient-213" x1="380.5" y1="308.47" x2="426.29" y2="308.47" xlink:href="#linear-gradient-30"/><linearGradient id="linear-gradient-214" x1="392.41" y1="295.04" x2="446.89" y2="346.32" gradientTransform="translate(693.29 -109.37) rotate(87.81)" xlink:href="#linear-gradient-30"/><linearGradient id="linear-gradient-215" x1="387.44" y1="301.95" x2="419.47" y2="301.95" xlink:href="#linear-gradient-30"/><linearGradient id="linear-gradient-216" x1="380.5" y1="303.27" x2="426.29" y2="303.27" xlink:href="#linear-gradient-30"/><linearGradient id="linear-gradient-217" x1="392.41" y1="289.84" x2="446.89" y2="341.11" xlink:href="#linear-gradient-30"/><linearGradient id="linear-gradient-218" x1="387.44" y1="296.75" x2="419.47" y2="296.75" xlink:href="#linear-gradient-30"/><linearGradient id="linear-gradient-219" x1="380.5" y1="298.26" x2="426.29" y2="298.26" xlink:href="#linear-gradient-30"/><linearGradient id="linear-gradient-220" x1="392.41" y1="284.83" x2="446.89" y2="336.11" gradientTransform="translate(683.09 -119.19) rotate(87.81)" xlink:href="#linear-gradient-30"/><linearGradient id="linear-gradient-221" x1="387.44" y1="291.75" x2="419.47" y2="291.75" xlink:href="#linear-gradient-30"/><linearGradient id="linear-gradient-222" x1="380.5" y1="293.79" x2="426.29" y2="293.79" xlink:href="#linear-gradient-30"/><linearGradient id="linear-gradient-223" x1="392.41" y1="280.36" x2="446.89" y2="331.63" gradientTransform="translate(678.61 -123.5) rotate(87.81)" xlink:href="#linear-gradient-30"/><linearGradient id="linear-gradient-224" x1="387.44" y1="287.27" x2="419.47" y2="287.27" xlink:href="#linear-gradient-30"/><linearGradient id="linear-gradient-225" x1="380.5" y1="289.17" x2="426.29" y2="289.17" xlink:href="#linear-gradient-30"/><linearGradient id="linear-gradient-226" x1="392.41" y1="275.74" x2="446.89" y2="327.02" gradientTransform="translate(674 -127.93) rotate(87.81)" xlink:href="#linear-gradient-30"/><linearGradient id="linear-gradient-227" x1="387.44" y1="282.65" x2="419.47" y2="282.65" xlink:href="#linear-gradient-30"/><linearGradient id="linear-gradient-228" x1="380.5" y1="284.23" x2="426.29" y2="284.23" xlink:href="#linear-gradient-30"/><linearGradient id="linear-gradient-229" x1="392.41" y1="270.8" x2="446.89" y2="322.08" xlink:href="#linear-gradient-30"/><linearGradient id="linear-gradient-230" x1="387.44" y1="277.71" x2="419.47" y2="277.71" xlink:href="#linear-gradient-30"/><linearGradient id="linear-gradient-231" x1="359.1" y1="175.26" x2="246.09" y2="312.59" gradientTransform="matrix(1, 0, 0, 1, 0, 0)" xlink:href="#linear-gradient-15"/><linearGradient id="linear-gradient-232" x1="369.62" y1="323.63" x2="338.63" y2="361.29" xlink:href="#linear-gradient-12"/><linearGradient id="linear-gradient-234" x1="369.43" y1="195.84" x2="483.95" y2="61.28" xlink:href="#linear-gradient-13"/><linearGradient id="linear-gradient-235" x1="376.31" y1="149.77" x2="435.29" y2="104.93" xlink:href="#linear-gradient-30"/><linearGradient id="linear-gradient-236" x1="527.36" y1="46.59" x2="384.47" y2="154.87" xlink:href="#linear-gradient-30"/><linearGradient id="linear-gradient-237" x1="502.18" y1="44.2" x2="139.76" y2="270.81" xlink:href="#linear-gradient-30"/><linearGradient id="linear-gradient-238" x1="514.76" y1="64.32" x2="152.34" y2="290.93" xlink:href="#linear-gradient-30"/><linearGradient id="linear-gradient-239" x1="249.67" y1="115.15" x2="161.71" y2="253.72" xlink:href="#linear-gradient"/><linearGradient id="linear-gradient-240" x1="196.63" y1="362.33" x2="124.45" y2="476.06" xlink:href="#linear-gradient"/><linearGradient id="linear-gradient-241" x1="667.53" y1="226.57" x2="579.57" y2="365.15" xlink:href="#linear-gradient"/><linearGradient id="linear-gradient-242" x1="746.36" y1="238.1" x2="324.96" y2="302.28" xlink:href="#linear-gradient"/><linearGradient id="linear-gradient-243" x1="262.78" y1="357.07" x2="47.34" y2="425.72" xlink:href="#linear-gradient"/><linearGradient id="linear-gradient-244" x1="315.02" y1="111.95" x2="-23.21" y2="225.81" xlink:href="#linear-gradient"/></defs><g id="Layer_2" data-name="Layer 2"><g id="Layer_1-2" data-name="Layer 1"><polygon class="cls-2" points="716.72 534.22 532.47 428.22 566.66 408.48 465.88 349.99 467.15 347.8 571.71 408.49 537.53 428.22 717.98 532.03 716.72 534.22"/><polygon class="cls-3" points="1.26 501.38 0 499.19 227.7 367.72 295.71 407.28 387.14 354.88 388.4 357.07 295.7 410.2 227.7 370.65 1.26 501.38"/><polygon class="cls-4" points="251.56 514.51 250.27 512.33 340.91 458.67 387.43 485.5 486.84 427.77 398 376.48 399.27 374.29 491.89 427.76 387.43 488.42 340.93 461.59 251.56 514.51"/><polygon class="cls-5" points="352.67 272.32 236.36 204.32 259.67 192.3 160.44 134.23 161.72 132.05 264.91 192.44 241.61 204.46 353.94 270.14 352.67 272.32"/><polygon class="cls-6" points="432.83 185.69 431.58 183.49 533.77 125.32 429.65 66.36 546.08 0 547.33 2.2 434.77 66.36 538.89 125.31 432.83 185.69"/><polygon class="cls-7" points="502.49 212 501.23 209.81 615.16 144.02 626.09 150.7 693.97 111.66 695.23 113.85 626.05 153.64 615.13 146.97 502.49 212"/><path class="cls-8" d="M419.26,424.94a17.12,17.12,0,0,1-8.42-2h0l-162-93.51c-2.56-1.48-4-3.62-4-6,0-2.76,1.89-5.42,5.18-7.33l158.42-91.46c5.67-3.27,14-3.58,19-.7l162,93.51c2.56,1.47,4,3.62,4,6,0,2.75-1.89,5.42-5.18,7.32L429.86,422.26A21.63,21.63,0,0,1,419.26,424.94Zm-.1-198.85a17.67,17.67,0,0,0-8.57,2.12L252.17,319.68c-1.95,1.12-3.12,2.52-3.12,3.74s1.19,2.05,1.9,2.46l162,93.51c3.7,2.13,10.52,1.81,14.88-.71l158.42-91.46c1.95-1.13,3.11-2.53,3.11-3.74s-1.19-2.05-1.89-2.46l-162-93.51A12.92,12.92,0,0,0,419.16,226.09Z"/><polygon class="cls-9" points="417.49 395.75 339.18 444.96 210.56 368.7 290.86 322.36 417.49 395.75"/><path class="cls-10" d="M533.73,328.86l-114,65.84c-3.4,2-6.15-.12-6.15-4.65V238.44c0-4.53,2.75-9.79,6.15-11.75l114-65.84c3.4-2,6.15.12,6.15,4.65V317.1C539.88,321.63,537.13,326.9,533.73,328.86Z"/><polygon class="cls-11" points="538.07 160.68 538.07 160.68 538.07 160.68 538.07 160.68"/><path class="cls-12" d="M413.62,390.05V238.44c0-4.53,2.75-9.79,6.15-11.75l114-65.84a4,4,0,0,1,3.78-.45l-124-71.46c-1.12-.9-2.69-1-4.43,0l-114,65.84c-3.39,2-6.15,7.22-6.15,11.75V318.19c0,2.55.88,4.33,2.25,5L415.75,395C414.45,394.26,413.62,392.52,413.62,390.05Z"/><path class="cls-13" d="M526.34,322.24l-99.26,57.31c-3,1.7-5.36-.11-5.36-4.05v-132c0-3.95,2.4-8.53,5.36-10.23L526.34,176c3-1.71,5.35.1,5.35,4.05V312C531.69,316,529.3,320.53,526.34,322.24Z"/><path class="cls-14" d="M530.94,316.08,421.72,253V375.5c0,3.94,2.4,5.75,5.36,4.05l99.26-57.31A11.72,11.72,0,0,0,530.94,316.08Z"/><path class="cls-15" d="M420.85,228.86l113.47-65.52a3.42,3.42,0,0,1,3.67-.21l3.15,2-1.37,23.35V315.87c0,4-2.44,8.67-5.45,10.4l-86,49.67-26.57,18.77-4.32-2.57-.13-.07-.12-.08h0c-1.07-.71-1.75-2.21-1.75-4.31V239.26C415.4,235.25,417.84,230.6,420.85,228.86Z"/><path class="cls-16" d="M537.21,329.2l-112.3,65c-3.16,1.83-5.72-.11-5.72-4.33V241.24c0-4.21,2.56-9.11,5.72-10.94l112.3-65c3.17-1.83,5.73.11,5.73,4.33V318.26C542.94,322.48,540.38,327.38,537.21,329.2Z"/><polygon class="cls-17" points="641.59 383.54 563.28 432.76 460.02 371.42 540.31 325.08 641.59 383.54"/><path class="cls-18" d="M455.66,269.25c0,8.45-5.32,15.3-11.87,15.3s-11.87-18-11.87-26.43,5.31-4.16,11.87-4.16S455.66,260.81,455.66,269.25Z"/><path class="cls-19" d="M449.82,266.57l11-20.8-3.55-8.14h0c-2-4.3-6.69-5.41-12.16-2.25-7.29,4.2-13.19,14.39-13.19,22.74,0,5.34,2.4,8.64,6,9.24a7.41,7.41,0,0,0,1.35.09h0a9.4,9.4,0,0,0,1.16-.1Z"/><path class="cls-20" d="M509.29,238.63c-8.28-4.78-19-3.85-30.23,2.63-21.49,12.4-39,42.57-39,67.24,0,12.77,4.52,22.42,12.74,27.17a23,23,0,0,0,11.63,3c5.78,0,12.12-1.89,18.6-5.63,21.5-12.41,39-42.58,39-67.25C522,253,517.51,243.38,509.29,238.63Zm-26.23,9.55c5.24-3,10.21-4.55,14.58-4.55a15.13,15.13,0,0,1,7.65,1.93,14.26,14.26,0,0,1,3.46,2.85l-23,15c-2.78-4.88-8.59-6-15.33-2.11a31.8,31.8,0,0,0-8.88,8l-.07-.05C467.4,260.45,474.91,252.89,483.06,248.18Zm-26.63,29.54a32.29,32.29,0,0,0-3.11,13c0,5,1.65,8.66,4.36,10.56l-9.11,13.41a38.37,38.37,0,0,1-.48-6.24C448.09,298.6,451.23,287.73,456.43,277.72Zm22.63,48.4c-8.63,5-16.52,5.91-22.23,2.62a14.67,14.67,0,0,1-4.89-4.72l14.59-21.47,10-.84h0a10.7,10.7,0,0,0,4.56-1.53,3.28,3.28,0,0,0,.31-.2l14.52,11.47A63.69,63.69,0,0,1,479.06,326.12ZM500.68,305l-13.4-10.59c3.09-4.1,5.13-9.29,5.13-13.84a9.42,9.42,0,0,0-1.67-5.81h0L489,270.83l23.57-15.38A34.6,34.6,0,0,1,514,265.8C514,278.57,508.81,293,500.68,305Z"/><ellipse class="cls-21" cx="453.35" cy="255.33" rx="12.35" ry="7.13" transform="translate(4.12 517.84) rotate(-59.69)"/><rect class="cls-22" x="490.66" y="250.03" width="34.91" height="8" transform="translate(-56.24 318.94) rotate(-33.12)"/><rect class="cls-23" x="494.39" y="282.15" width="8" height="29.13" transform="translate(-43.37 503.9) rotate(-51.7)"/><path class="cls-24" d="M484.84,296.7l14.25-26.94-4.6-10.54h0c-2.59-5.56-8.66-7-15.75-2.92-9.43,5.45-17.08,18.64-17.08,29.46,0,6.91,3.11,11.18,7.81,12a9.91,9.91,0,0,0,1.74.12h.06a11.12,11.12,0,0,0,1.5-.13Z"/><ellipse class="cls-25" cx="489.41" cy="282.14" rx="15.99" ry="9.23" transform="translate(-1.16 562.25) rotate(-59.69)"/><path class="cls-26" d="M455.89,322.34a4,4,0,0,1-3.3-6.25l15.88-23.38a4,4,0,1,1,6.62,4.5l-15.88,23.37A4,4,0,0,1,455.89,322.34Z"/><path class="cls-27" d="M472.39,274.68a4,4,0,0,1-2.15-.63l-7.64-4.88a4,4,0,1,1,4.3-6.74l7.64,4.87a4,4,0,0,1-2.15,7.38Z"/><path class="cls-28" d="M472.8,333.67a22.89,22.89,0,0,1-11.62-3c-8.22-4.74-12.75-14.39-12.75-27.16,0-24.67,17.48-54.84,39-67.25,11.21-6.47,21.94-7.4,30.23-2.62s12.74,14.4,12.74,27.17c0,24.67-17.48,54.83-39,67.24C484.92,331.78,478.59,333.67,472.8,333.67ZM506,238.61c-4.38,0-9.34,1.54-14.58,4.56-19.29,11.14-35,38.19-35,60.32,0,9.79,3.11,17,8.75,20.24s13.6,2.36,22.23-2.62c19.28-11.14,35-38.2,35-60.32,0-9.79-3.1-17-8.74-20.24A15.13,15.13,0,0,0,506,238.61Z"/><polygon class="cls-1" points="296.93 178.27 296.93 316.61 403.4 377.94 403.4 239.46 296.93 178.27"/><g class="cls-29"><polygon class="cls-30" points="314.03 315.65 410.8 259.69 410.74 369.79 314.03 315.65"/><path class="cls-31" d="M361,320.1l.11-2.66-.73,0c-2.36-5.25-11.14-9.39-21.76-9.8s-19.68,3.06-22.44,8.12l-.85,0v3c-.25,6.62,9.77,12.38,22.38,12.86,12.27.47,22.47-4.23,23.24-10.59h0v0c0-.17,0-.33,0-.49Z"/><ellipse class="cls-32" cx="338.27" cy="316.57" rx="12" ry="22.85" transform="translate(9.03 642.52) rotate(-87.81)"/><ellipse class="cls-33" cx="338.27" cy="316.57" rx="8.41" ry="16.02" transform="matrix(0.04, -1, 1, 0.04, 9.03, 642.52)"/><path class="cls-34" d="M338.53,309.85c8.3.32,15,3.9,15.64,8.17a4.59,4.59,0,0,0,.11-.84c.18-4.64-6.84-8.68-15.69-9s-16.15,3.16-16.33,7.8a4.85,4.85,0,0,0,.05.85C323.28,312.59,330.23,309.54,338.53,309.85Z"/><path class="cls-35" d="M361,315.16l.11-2.66-.73,0c-2.36-5.25-11.14-9.39-21.76-9.8s-19.68,3.06-22.44,8.12l-.85,0v3c-.25,6.62,9.77,12.37,22.38,12.86,12.27.46,22.47-4.24,23.24-10.59h0V316c0-.16,0-.32,0-.48Z"/><ellipse class="cls-32" cx="338.27" cy="311.63" rx="12" ry="22.85" transform="translate(13.97 637.77) rotate(-87.81)"/><ellipse class="cls-36" cx="338.27" cy="311.63" rx="8.41" ry="16.02" transform="translate(13.97 637.77) rotate(-87.81)"/><path class="cls-37" d="M338.53,304.91c8.3.32,15,3.9,15.64,8.17a4.71,4.71,0,0,0,.11-.84c.18-4.64-6.84-8.68-15.69-9s-16.15,3.15-16.33,7.8a4.85,4.85,0,0,0,.05.85C323.28,307.65,330.23,304.6,338.53,304.91Z"/><path class="cls-38" d="M361,310.16l.11-2.66-.73,0c-2.36-5.25-11.14-9.4-21.76-9.8s-19.68,3.06-22.44,8.12l-.85,0v3c-.25,6.62,9.77,12.38,22.38,12.86,12.27.47,22.47-4.23,23.24-10.58h0V311c0-.16,0-.32,0-.48Z"/><ellipse class="cls-32" cx="338.27" cy="306.63" rx="12" ry="22.85" transform="translate(18.97 632.96) rotate(-87.81)"/><ellipse class="cls-39" cx="338.27" cy="306.63" rx="8.41" ry="16.02" transform="translate(18.97 632.96) rotate(-87.81)"/><path class="cls-40" d="M338.53,299.91c8.3.32,15,3.89,15.64,8.17a4.83,4.83,0,0,0,.11-.84c.18-4.65-6.84-8.68-15.69-9s-16.15,3.15-16.33,7.79a4.79,4.79,0,0,0,.05.85C323.28,302.65,330.23,299.59,338.53,299.91Z"/><path class="cls-41" d="M361,305.54l.11-2.66-.73,0c-2.36-5.25-11.14-9.39-21.76-9.8s-19.68,3.06-22.44,8.12l-.85,0v3c-.25,6.62,9.77,12.38,22.38,12.86,12.27.47,22.47-4.23,23.24-10.59h0v0c0-.16,0-.33,0-.49Z"/><ellipse class="cls-32" cx="338.27" cy="302.01" rx="12" ry="22.85" transform="translate(23.58 628.52) rotate(-87.81)"/><ellipse class="cls-42" cx="338.27" cy="302.01" rx="8.41" ry="16.02" transform="translate(23.58 628.52) rotate(-87.81)"/><path class="cls-43" d="M338.53,295.3c8.3.31,15,3.89,15.64,8.16a4.59,4.59,0,0,0,.11-.84c.18-4.64-6.84-8.68-15.69-9s-16.15,3.16-16.33,7.8a4.85,4.85,0,0,0,.05.85C323.28,298,330.23,295,338.53,295.3Z"/><path class="cls-44" d="M361,300.6l.11-2.66-.73,0c-2.36-5.25-11.14-9.39-21.76-9.8s-19.68,3.06-22.44,8.12l-.85,0v3c-.25,6.62,9.77,12.37,22.38,12.86,12.27.46,22.47-4.23,23.24-10.59h0v-.05c0-.16,0-.32,0-.48Z"/><ellipse class="cls-32" cx="338.27" cy="297.07" rx="12" ry="22.85" transform="translate(28.52 623.76) rotate(-87.81)"/><path class="cls-45" d="M338,305.47c-8.84-.33-15.87-4.37-15.69-9s7.49-8.14,16.33-7.8,15.87,4.38,15.69,9S346.79,305.81,338,305.47Z"/><path class="cls-46" d="M338.53,290.35c8.3.32,15,3.9,15.64,8.17a4.71,4.71,0,0,0,.11-.84c.18-4.64-6.84-8.68-15.69-9s-16.15,3.15-16.33,7.8a4.85,4.85,0,0,0,.05.85C323.28,293.09,330.23,290,338.53,290.35Z"/><path class="cls-47" d="M361,295.6l.11-2.66-.73,0c-2.36-5.25-11.14-9.4-21.76-9.8s-19.68,3.06-22.44,8.12l-.85,0v3c-.25,6.63,9.77,12.38,22.38,12.86,12.27.47,22.47-4.23,23.24-10.58h0v-.05c0-.16,0-.32,0-.48Z"/><ellipse class="cls-32" cx="338.27" cy="292.07" rx="12" ry="22.85" transform="translate(33.52 618.95) rotate(-87.81)"/><ellipse class="cls-48" cx="338.27" cy="292.07" rx="8.41" ry="16.02" transform="matrix(0.04, -1, 1, 0.04, 33.52, 618.95)"/><path class="cls-49" d="M338.53,285.35c8.3.32,15,3.89,15.64,8.17a4.83,4.83,0,0,0,.11-.84c.18-4.65-6.84-8.68-15.69-9s-16.15,3.15-16.33,7.79a4.79,4.79,0,0,0,.05.85C323.28,288.09,330.23,285,338.53,285.35Z"/><path class="cls-50" d="M361,291.12l.11-2.66-.73,0c-2.36-5.25-11.14-9.39-21.76-9.8s-19.68,3.06-22.44,8.12l-.85,0v3c-.25,6.62,9.77,12.38,22.38,12.86,12.27.47,22.47-4.23,23.24-10.59h0v0c0-.17,0-.33,0-.49Z"/><ellipse class="cls-32" cx="338.27" cy="287.59" rx="12" ry="22.85" transform="translate(37.99 614.65) rotate(-87.81)"/><ellipse class="cls-51" cx="338.27" cy="287.59" rx="8.41" ry="16.02" transform="translate(37.99 614.65) rotate(-87.81)"/><path class="cls-52" d="M338.53,280.87c8.3.32,15,3.9,15.64,8.17a4.59,4.59,0,0,0,.11-.84c.18-4.64-6.84-8.68-15.69-9s-16.15,3.16-16.33,7.8a4.85,4.85,0,0,0,.05.85C323.28,283.61,330.23,280.56,338.53,280.87Z"/><path class="cls-53" d="M361,286.51l.11-2.66-.73,0c-2.36-5.25-11.14-9.4-21.76-9.8s-19.68,3.06-22.44,8.11l-.85,0v3c-.25,6.62,9.77,12.38,22.38,12.86,12.27.47,22.47-4.23,23.24-10.58h0v-.05c0-.16,0-.32,0-.48Z"/><ellipse class="cls-32" cx="338.27" cy="282.97" rx="12" ry="22.85" transform="translate(42.6 610.21) rotate(-87.81)"/><ellipse class="cls-54" cx="338.27" cy="282.97" rx="8.41" ry="16.02" transform="translate(42.6 610.21) rotate(-87.81)"/><path class="cls-55" d="M338.53,276.26c8.3.32,15,3.89,15.64,8.17a4.82,4.82,0,0,0,.11-.85c.18-4.64-6.84-8.67-15.69-9s-16.15,3.15-16.33,7.79a4.79,4.79,0,0,0,.05.85C323.28,279,330.23,275.94,338.53,276.26Z"/><path class="cls-56" d="M361,281.57l.11-2.67-.73,0c-2.36-5.25-11.14-9.4-21.76-9.8s-19.68,3.06-22.44,8.11l-.85,0v3c-.25,6.62,9.77,12.38,22.38,12.86,12.27.47,22.47-4.23,23.24-10.58h0v-.05c0-.16,0-.32,0-.49Z"/><ellipse class="cls-32" cx="338.27" cy="278.03" rx="12" ry="22.85" transform="translate(47.54 605.45) rotate(-87.81)"/><path class="cls-57" d="M338,286.44c-8.84-.34-15.87-4.38-15.69-9s7.49-8.13,16.33-7.79,15.87,4.37,15.69,9S346.79,286.78,338,286.44Z"/><path class="cls-58" d="M338.53,271.32c8.3.31,15,3.89,15.64,8.17a4.82,4.82,0,0,0,.11-.85c.18-4.64-6.84-8.68-15.69-9s-16.15,3.15-16.33,7.79a4.79,4.79,0,0,0,.05.85C323.28,274.06,330.23,271,338.53,271.32Z"/><path class="cls-59" d="M361,276.56l.11-2.66-.73,0c-2.36-5.25-11.14-9.39-21.76-9.8s-19.68,3.06-22.44,8.12l-.85,0v3c-.25,6.62,9.77,12.38,22.38,12.86,12.27.47,22.47-4.23,23.24-10.59h0v0c0-.16,0-.33,0-.49Z"/><ellipse class="cls-32" cx="338.27" cy="273.03" rx="12" ry="22.85" transform="translate(52.54 600.64) rotate(-87.81)"/><ellipse class="cls-60" cx="338.27" cy="273.03" rx="8.41" ry="16.02" transform="translate(52.54 600.64) rotate(-87.81)"/><path class="cls-61" d="M338.53,266.32c8.3.31,15,3.89,15.64,8.16a4.59,4.59,0,0,0,.11-.84c.18-4.64-6.84-8.68-15.69-9s-16.15,3.16-16.33,7.8a4.85,4.85,0,0,0,.05.85C323.28,269.05,330.23,266,338.53,266.32Z"/><path class="cls-62" d="M361,271.36l.11-2.66-.73,0c-2.36-5.25-11.14-9.39-21.76-9.8s-19.68,3.06-22.44,8.12l-.85,0v3c-.25,6.62,9.77,12.37,22.38,12.85,12.27.47,22.47-4.23,23.24-10.58h0v-.05c0-.16,0-.32,0-.48Z"/><ellipse class="cls-32" cx="338.27" cy="267.83" rx="12" ry="22.85" transform="translate(57.74 595.64) rotate(-87.81)"/><path class="cls-63" d="M338,276.23c-8.84-.33-15.87-4.37-15.69-9s7.49-8.14,16.33-7.8,15.87,4.38,15.69,9S346.79,276.57,338,276.23Z"/><path class="cls-64" d="M338.53,261.11c8.3.32,15,3.89,15.64,8.17a4.83,4.83,0,0,0,.11-.84c.18-4.64-6.84-8.68-15.69-9s-16.15,3.15-16.33,7.8a4.74,4.74,0,0,0,.05.84C323.28,263.85,330.23,260.8,338.53,261.11Z"/><path class="cls-65" d="M361,266.36l.11-2.66-.73,0c-2.36-5.25-11.14-9.4-21.76-9.8s-19.68,3.06-22.44,8.11l-.85,0v3c-.25,6.62,9.77,12.38,22.38,12.86,12.27.47,22.47-4.23,23.24-10.58h0v-.05c0-.16,0-.32,0-.48Z"/><ellipse class="cls-32" cx="338.27" cy="262.82" rx="12" ry="22.85" transform="translate(62.74 590.83) rotate(-87.81)"/><ellipse class="cls-66" cx="338.27" cy="262.82" rx="8.41" ry="16.02" transform="matrix(0.04, -1, 1, 0.04, 62.74, 590.83)"/><path class="cls-67" d="M338.53,256.11c8.3.32,15,3.89,15.64,8.17a4.82,4.82,0,0,0,.11-.85c.18-4.64-6.84-8.67-15.69-9s-16.15,3.15-16.33,7.79a4.79,4.79,0,0,0,.05.85C323.28,258.85,330.23,255.79,338.53,256.11Z"/><path class="cls-68" d="M361,261.88l.11-2.66-.73,0c-2.36-5.25-11.14-9.39-21.76-9.8s-19.68,3.06-22.44,8.12l-.85,0v3c-.25,6.62,9.77,12.37,22.38,12.86,12.27.46,22.47-4.24,23.24-10.59h0v0c0-.16,0-.32,0-.48Z"/><ellipse class="cls-32" cx="338.27" cy="258.35" rx="12" ry="22.85" transform="translate(67.21 586.52) rotate(-87.81)"/><ellipse class="cls-69" cx="338.27" cy="258.35" rx="8.41" ry="16.02" transform="translate(67.21 586.52) rotate(-87.81)"/><path class="cls-70" d="M338.53,251.63c8.3.32,15,3.9,15.64,8.17a4.71,4.71,0,0,0,.11-.84c.18-4.64-6.84-8.68-15.69-9s-16.15,3.15-16.33,7.8a4.85,4.85,0,0,0,.05.85C323.28,254.37,330.23,251.32,338.53,251.63Z"/><path class="cls-71" d="M361,257.27l.11-2.67-.73,0c-2.36-5.25-11.14-9.4-21.76-9.8s-19.68,3.06-22.44,8.11l-.85,0v3c-.25,6.62,9.77,12.38,22.38,12.86,12.27.47,22.47-4.23,23.24-10.58h0v-.05c0-.16,0-.32,0-.49Z"/><ellipse class="cls-32" cx="338.27" cy="253.73" rx="12" ry="22.85" transform="translate(71.82 582.08) rotate(-87.81)"/><ellipse class="cls-72" cx="338.27" cy="253.73" rx="8.41" ry="16.02" transform="translate(71.82 582.08) rotate(-87.81)"/><path class="cls-73" d="M338.53,247c8.3.31,15,3.89,15.64,8.17a4.82,4.82,0,0,0,.11-.85c.18-4.64-6.84-8.68-15.69-9s-16.15,3.15-16.33,7.79a4.79,4.79,0,0,0,.05.85C323.28,249.76,330.23,246.7,338.53,247Z"/><path class="cls-74" d="M361,252.33l.11-2.67-.73,0c-2.36-5.25-11.14-9.39-21.76-9.8s-19.68,3.06-22.44,8.12l-.85,0v3c-.25,6.62,9.77,12.38,22.38,12.86,12.27.47,22.47-4.23,23.24-10.58h0v0c0-.16,0-.32,0-.49Z"/><ellipse class="cls-32" cx="338.27" cy="248.79" rx="12" ry="22.85" transform="translate(76.76 577.33) rotate(-87.81)"/><path class="cls-75" d="M338,257.2c-8.84-.34-15.87-4.38-15.69-9s7.49-8.13,16.33-7.8,15.87,4.38,15.69,9S346.79,257.53,338,257.2Z"/><path class="cls-76" d="M338.53,242.08c8.3.31,15,3.89,15.64,8.16a4.59,4.59,0,0,0,.11-.84c.18-4.64-6.84-8.68-15.69-9s-16.15,3.16-16.33,7.8a4.79,4.79,0,0,0,.05.85C323.28,244.81,330.23,241.76,338.53,242.08Z"/><path class="cls-77" d="M426.06,320l.12-2.67-.74,0c-2.36-5.25-11.14-9.4-21.75-9.8s-19.69,3.06-22.44,8.11l-.85,0v3c-.26,6.62,9.76,12.38,22.37,12.86,12.27.47,22.47-4.23,23.25-10.58h0v-.05a3.88,3.88,0,0,0,0-.48C426.07,320.21,426.06,320.09,426.06,320Z"/><ellipse class="cls-32" cx="403.35" cy="316.43" rx="12" ry="22.85" transform="translate(71.76 707.42) rotate(-87.81)"/><ellipse class="cls-78" cx="403.35" cy="316.43" rx="8.41" ry="16.02" transform="matrix(0.04, -1, 1, 0.04, 71.76, 707.42)"/><path class="cls-79" d="M403.6,309.72c8.3.32,15,3.89,15.64,8.17a4.05,4.05,0,0,0,.12-.85c.18-4.64-6.85-8.68-15.69-9s-16.16,3.15-16.34,7.79a4.79,4.79,0,0,0,.05.85C388.35,312.46,395.3,309.4,403.6,309.72Z"/><path class="cls-80" d="M426.06,315l.12-2.67-.74,0c-2.36-5.26-11.14-9.4-21.75-9.8s-19.69,3.06-22.44,8.11l-.85,0v3c-.26,6.62,9.76,12.38,22.37,12.86,12.27.47,22.47-4.23,23.25-10.58h0v-.05a3.89,3.89,0,0,0,0-.49C426.07,315.27,426.06,315.15,426.06,315Z"/><ellipse class="cls-32" cx="403.35" cy="311.49" rx="12" ry="22.85" transform="translate(76.7 702.67) rotate(-87.81)"/><ellipse class="cls-81" cx="403.35" cy="311.49" rx="8.41" ry="16.02" transform="translate(76.7 702.66) rotate(-87.81)"/><path class="cls-82" d="M403.6,304.78c8.3.31,15,3.89,15.64,8.17a4.05,4.05,0,0,0,.12-.85c.18-4.64-6.85-8.68-15.69-9s-16.16,3.15-16.34,7.79a4.79,4.79,0,0,0,.05.85C388.35,307.52,395.3,304.46,403.6,304.78Z"/><path class="cls-83" d="M426.06,310l.12-2.66-.74,0c-2.36-5.25-11.14-9.39-21.75-9.8s-19.69,3.06-22.44,8.12l-.85,0v3c-.26,6.62,9.76,12.38,22.37,12.86,12.27.47,22.47-4.23,23.25-10.59h0v0a4.22,4.22,0,0,0,0-.49C426.07,310.27,426.06,310.15,426.06,310Z"/><ellipse class="cls-32" cx="403.35" cy="306.49" rx="12" ry="22.85" transform="translate(81.7 697.85) rotate(-87.81)"/><ellipse class="cls-84" cx="403.35" cy="306.49" rx="8.41" ry="16.02" transform="translate(81.7 697.85) rotate(-87.81)"/><path class="cls-85" d="M403.6,299.77c8.3.32,15,3.9,15.64,8.17a3.87,3.87,0,0,0,.12-.84c.18-4.64-6.85-8.68-15.69-9s-16.16,3.16-16.34,7.8a4.85,4.85,0,0,0,.05.85C388.35,302.51,395.3,299.46,403.6,299.77Z"/><path class="cls-86" d="M426.06,305.41l.12-2.66-.74,0c-2.36-5.25-11.14-9.4-21.75-9.8S384,296,381.25,301l-.85,0v3c-.26,6.62,9.76,12.38,22.37,12.86,12.27.47,22.47-4.23,23.25-10.58h0v-.05a3.88,3.88,0,0,0,0-.48C426.07,305.65,426.06,305.53,426.06,305.41Z"/><ellipse class="cls-32" cx="403.35" cy="301.87" rx="12" ry="22.85" transform="translate(86.31 693.41) rotate(-87.81)"/><ellipse class="cls-87" cx="403.35" cy="301.87" rx="8.41" ry="16.02" transform="translate(86.31 693.41) rotate(-87.81)"/><path class="cls-88" d="M403.6,295.16c8.3.32,15,3.89,15.64,8.17a4.05,4.05,0,0,0,.12-.85c.18-4.64-6.85-8.68-15.69-9s-16.16,3.15-16.34,7.79a4.79,4.79,0,0,0,.05.85C388.35,297.9,395.3,294.84,403.6,295.16Z"/><path class="cls-89" d="M426.06,300.47l.12-2.67-.74,0c-2.36-5.25-11.14-9.4-21.75-9.8S384,291,381.25,296.09l-.85,0v3c-.26,6.62,9.76,12.38,22.37,12.86,12.27.47,22.47-4.23,23.25-10.58h0v-.05a3.89,3.89,0,0,0,0-.49C426.07,300.71,426.06,300.59,426.06,300.47Z"/><ellipse class="cls-32" cx="403.35" cy="296.93" rx="12" ry="22.85" transform="translate(91.25 688.66) rotate(-87.81)"/><path class="cls-90" d="M403,305.34c-8.85-.34-15.87-4.38-15.7-9s7.49-8.13,16.34-7.79,15.87,4.37,15.69,9S411.87,305.68,403,305.34Z"/><path class="cls-91" d="M403.6,290.22c8.3.31,15,3.89,15.64,8.17a4.05,4.05,0,0,0,.12-.85c.18-4.64-6.85-8.68-15.69-9s-16.16,3.15-16.34,7.79a4.79,4.79,0,0,0,.05.85C388.35,293,395.3,289.9,403.6,290.22Z"/><path class="cls-92" d="M426.06,295.46l.12-2.66-.74,0c-2.36-5.25-11.14-9.39-21.75-9.8S384,286,381.25,291.09l-.85,0v3c-.26,6.62,9.76,12.38,22.37,12.86,12.27.47,22.47-4.23,23.25-10.59h0v0a4,4,0,0,0,0-.49C426.07,295.71,426.06,295.59,426.06,295.46Z"/><ellipse class="cls-32" cx="403.35" cy="291.93" rx="12" ry="22.85" transform="translate(96.25 683.85) rotate(-87.81)"/><ellipse class="cls-93" cx="403.35" cy="291.93" rx="8.41" ry="16.02" transform="matrix(0.04, -1, 1, 0.04, 96.25, 683.85)"/><path class="cls-94" d="M403.6,285.22c8.3.31,15,3.89,15.64,8.16a3.87,3.87,0,0,0,.12-.84c.18-4.64-6.85-8.68-15.69-9s-16.16,3.16-16.34,7.8a4.85,4.85,0,0,0,.05.85C388.35,288,395.3,284.9,403.6,285.22Z"/><path class="cls-95" d="M426.06,291l.12-2.67-.74,0c-2.36-5.25-11.14-9.4-21.75-9.8s-19.69,3.06-22.44,8.11l-.85,0v3c-.26,6.62,9.76,12.38,22.37,12.86,12.27.47,22.47-4.23,23.25-10.58h0v-.05a3.88,3.88,0,0,0,0-.48C426.07,291.23,426.06,291.11,426.06,291Z"/><ellipse class="cls-32" cx="403.35" cy="287.45" rx="12" ry="22.85" transform="translate(100.72 679.54) rotate(-87.81)"/><ellipse class="cls-96" cx="403.35" cy="287.45" rx="8.41" ry="16.02" transform="translate(100.72 679.54) rotate(-87.81)"/><path class="cls-97" d="M403.6,280.74c8.3.32,15,3.89,15.64,8.17a4.05,4.05,0,0,0,.12-.85c.18-4.64-6.85-8.68-15.69-9s-16.16,3.15-16.34,7.79a4.79,4.79,0,0,0,.05.85C388.35,283.48,395.3,280.42,403.6,280.74Z"/><path class="cls-98" d="M426.06,286.37l.12-2.66-.74,0c-2.36-5.25-11.14-9.39-21.75-9.8S384,276.94,381.25,282l-.85,0v3c-.26,6.62,9.76,12.37,22.37,12.86,12.27.46,22.47-4.24,23.25-10.59h0v0a3.88,3.88,0,0,0,0-.48C426.07,286.62,426.06,286.49,426.06,286.37Z"/><ellipse class="cls-32" cx="403.35" cy="282.84" rx="12" ry="22.85" transform="translate(105.33 675.1) rotate(-87.81)"/><ellipse class="cls-99" cx="403.35" cy="282.84" rx="8.41" ry="16.02" transform="translate(105.33 675.1) rotate(-87.81)"/><path class="cls-100" d="M403.6,276.12c8.3.32,15,3.9,15.64,8.17a4,4,0,0,0,.12-.84c.18-4.64-6.85-8.68-15.69-9s-16.16,3.15-16.34,7.8a4.85,4.85,0,0,0,.05.85C388.35,278.86,395.3,275.81,403.6,276.12Z"/><path class="cls-101" d="M426.06,281.43l.12-2.66-.74,0c-2.36-5.25-11.14-9.39-21.75-9.8S384,272,381.25,277.06l-.85,0v3c-.26,6.62,9.76,12.37,22.37,12.85,12.27.47,22.47-4.23,23.25-10.58h0v-.05a3.88,3.88,0,0,0,0-.48C426.07,281.68,426.06,281.55,426.06,281.43Z"/><ellipse class="cls-32" cx="403.35" cy="277.9" rx="12" ry="22.85" transform="translate(110.27 670.35) rotate(-87.81)"/><path class="cls-102" d="M403,286.3c-8.85-.33-15.87-4.37-15.7-9s7.49-8.14,16.34-7.8,15.87,4.38,15.69,9S411.87,286.64,403,286.3Z"/><path class="cls-103" d="M403.6,271.18c8.3.32,15,3.89,15.64,8.17a4.05,4.05,0,0,0,.12-.84c.18-4.64-6.85-8.68-15.69-9s-16.16,3.15-16.34,7.8a4.74,4.74,0,0,0,.05.84C388.35,273.92,395.3,270.87,403.6,271.18Z"/><path class="cls-104" d="M426.06,276.43l.12-2.66-.74,0c-2.36-5.25-11.14-9.4-21.75-9.8S384,267,381.25,272.05l-.85,0v3c-.26,6.62,9.76,12.38,22.37,12.86,12.27.47,22.47-4.23,23.25-10.58h0v-.05a3.88,3.88,0,0,0,0-.48C426.07,276.67,426.06,276.55,426.06,276.43Z"/><ellipse class="cls-32" cx="403.35" cy="272.89" rx="12" ry="22.85" transform="translate(115.27 665.54) rotate(-87.81)"/><ellipse class="cls-105" cx="403.35" cy="272.89" rx="8.41" ry="16.02" transform="translate(115.27 665.54) rotate(-87.81)"/><path class="cls-106" d="M403.6,266.18c8.3.32,15,3.89,15.64,8.17a4.05,4.05,0,0,0,.12-.85c.18-4.64-6.85-8.67-15.69-9s-16.16,3.15-16.34,7.79a4.79,4.79,0,0,0,.05.85C388.35,268.92,395.3,265.86,403.6,266.18Z"/><path class="cls-107" d="M426.06,271.22l.12-2.66-.74,0c-2.36-5.25-11.14-9.39-21.75-9.8s-19.69,3.06-22.44,8.12l-.85,0v3c-.26,6.62,9.76,12.38,22.37,12.86,12.27.47,22.47-4.23,23.25-10.58h0v-.05a3.89,3.89,0,0,0,0-.49C426.07,271.47,426.06,271.35,426.06,271.22Z"/><ellipse class="cls-32" cx="403.35" cy="267.69" rx="12" ry="22.85" transform="translate(120.47 660.53) rotate(-87.81)"/><path class="cls-108" d="M403,276.1c-8.85-.34-15.87-4.38-15.7-9s7.49-8.13,16.34-7.8,15.87,4.38,15.69,9S411.87,276.43,403,276.1Z"/><path class="cls-109" d="M403.6,261c8.3.31,15,3.89,15.64,8.16a3.87,3.87,0,0,0,.12-.84c.18-4.64-6.85-8.68-15.69-9s-16.16,3.16-16.34,7.8a4.79,4.79,0,0,0,.05.85C388.35,263.71,395.3,260.66,403.6,261Z"/><path class="cls-110" d="M426.06,266.22l.12-2.66-.74,0c-2.36-5.25-11.14-9.39-21.75-9.8s-19.69,3.06-22.44,8.12l-.85,0v3c-.26,6.62,9.76,12.37,22.37,12.86,12.27.46,22.47-4.23,23.25-10.59h0v-.05a3.88,3.88,0,0,0,0-.48C426.07,266.47,426.06,266.34,426.06,266.22Z"/><ellipse class="cls-32" cx="403.35" cy="262.69" rx="12" ry="22.85" transform="translate(125.47 655.72) rotate(-87.81)"/><ellipse class="cls-111" cx="403.35" cy="262.69" rx="8.41" ry="16.02" transform="matrix(0.04, -1, 1, 0.04, 125.47, 655.72)"/><path class="cls-112" d="M403.6,256c8.3.32,15,3.9,15.64,8.17a4,4,0,0,0,.12-.84c.18-4.64-6.85-8.68-15.69-9s-16.16,3.15-16.34,7.8a4.85,4.85,0,0,0,.05.85C388.35,258.71,395.3,255.66,403.6,256Z"/><path class="cls-113" d="M426.06,261.75l.12-2.67-.74,0c-2.36-5.26-11.14-9.4-21.75-9.8s-19.69,3.06-22.44,8.11l-.85,0v3c-.26,6.62,9.76,12.38,22.37,12.86C415,273.7,425.24,269,426,262.65h0v0a3.89,3.89,0,0,0,0-.49C426.07,262,426.06,261.87,426.06,261.75Z"/><ellipse class="cls-32" cx="403.35" cy="258.21" rx="12" ry="22.85" transform="translate(129.94 651.42) rotate(-87.81)"/><ellipse class="cls-114" cx="403.35" cy="258.21" rx="8.41" ry="16.02" transform="translate(129.94 651.42) rotate(-87.81)"/><path class="cls-115" d="M403.6,251.5c8.3.31,15,3.89,15.64,8.17a4.05,4.05,0,0,0,.12-.85c.18-4.64-6.85-8.68-15.69-9s-16.16,3.15-16.34,7.79a4.79,4.79,0,0,0,.05.85C388.35,254.24,395.3,251.18,403.6,251.5Z"/><path class="cls-116" d="M426.06,257.13l.12-2.66-.74,0c-2.36-5.25-11.14-9.4-21.75-9.8s-19.69,3.06-22.44,8.12l-.85,0v3c-.26,6.62,9.76,12.37,22.37,12.85,12.27.47,22.47-4.23,23.25-10.58h0v0a3.88,3.88,0,0,0,0-.48C426.07,257.38,426.06,257.25,426.06,257.13Z"/><ellipse class="cls-32" cx="403.35" cy="253.6" rx="12" ry="22.85" transform="translate(134.55 646.98) rotate(-87.81)"/><ellipse class="cls-117" cx="403.35" cy="253.6" rx="8.41" ry="16.02" transform="translate(134.55 646.98) rotate(-87.81)"/><path class="cls-118" d="M403.6,246.88c8.3.32,15,3.89,15.64,8.17a4.05,4.05,0,0,0,.12-.84c.18-4.65-6.85-8.68-15.69-9s-16.16,3.15-16.34,7.8a4.74,4.74,0,0,0,.05.84C388.35,249.62,395.3,246.57,403.6,246.88Z"/><path class="cls-119" d="M426.06,252.19l.12-2.66-.74,0c-2.36-5.25-11.14-9.4-21.75-9.8s-19.69,3.06-22.44,8.12l-.85,0v3c-.26,6.62,9.76,12.38,22.37,12.86,12.27.47,22.47-4.23,23.25-10.58h0V253a3.88,3.88,0,0,0,0-.48C426.07,252.43,426.06,252.31,426.06,252.19Z"/><ellipse class="cls-32" cx="403.35" cy="248.65" rx="12" ry="22.85" transform="translate(139.49 642.22) rotate(-87.81)"/><path class="cls-120" d="M403,257.06c-8.85-.34-15.87-4.37-15.7-9s7.49-8.13,16.34-7.79,15.87,4.37,15.69,9S411.87,257.4,403,257.06Z"/><path class="cls-121" d="M403.6,241.94c8.3.32,15,3.89,15.64,8.17a4.05,4.05,0,0,0,.12-.84c.18-4.65-6.85-8.68-15.69-9s-16.16,3.15-16.34,7.79a4.79,4.79,0,0,0,.05.85C388.35,244.68,395.3,241.62,403.6,241.94Z"/><path class="cls-122" d="M397.67,340.26l.12-2.67-.74,0c-2.36-5.25-11.13-9.4-21.75-9.8s-19.69,3.06-22.44,8.11l-.85,0v3c-.25,6.62,9.76,12.38,22.37,12.86,12.27.47,22.47-4.23,23.25-10.58h0v-.05c0-.16,0-.32.05-.48S397.67,340.38,397.67,340.26Z"/><ellipse class="cls-32" cx="374.96" cy="336.72" rx="12" ry="22.85" transform="translate(24.18 698.57) rotate(-87.81)"/><ellipse class="cls-123" cx="374.96" cy="336.72" rx="8.41" ry="16.02" transform="matrix(0.04, -1, 1, 0.04, 24.18, 698.57)"/><path class="cls-124" d="M375.21,330c8.3.32,15,3.89,15.65,8.17a4.82,4.82,0,0,0,.11-.85c.18-4.64-6.85-8.68-15.69-9s-16.16,3.15-16.33,7.79a4,4,0,0,0,.05.85C360,332.75,366.92,329.69,375.21,330Z"/><path class="cls-125" d="M397.67,335.32l.12-2.67-.74,0c-2.36-5.25-11.13-9.4-21.75-9.8s-19.69,3.06-22.44,8.11l-.85,0v3c-.25,6.62,9.76,12.38,22.37,12.86,12.27.47,22.47-4.23,23.25-10.58h0v-.05c0-.16,0-.32.05-.49S397.67,335.44,397.67,335.32Z"/><ellipse class="cls-32" cx="374.96" cy="331.78" rx="12" ry="22.85" transform="translate(29.12 693.81) rotate(-87.81)"/><ellipse class="cls-126" cx="374.96" cy="331.78" rx="8.41" ry="16.02" transform="translate(29.12 693.81) rotate(-87.81)"/><path class="cls-127" d="M375.21,325.07c8.3.31,15,3.89,15.65,8.17a4.82,4.82,0,0,0,.11-.85c.18-4.64-6.85-8.68-15.69-9s-16.16,3.15-16.33,7.79a4,4,0,0,0,.05.85C360,327.81,366.92,324.75,375.21,325.07Z"/><path class="cls-128" d="M397.67,330.31l.12-2.66-.74,0c-2.36-5.25-11.13-9.39-21.75-9.8s-19.69,3.06-22.44,8.12l-.85,0v3c-.25,6.62,9.76,12.38,22.37,12.86,12.27.47,22.47-4.23,23.25-10.59h0v0c0-.17,0-.33.05-.49S397.67,330.44,397.67,330.31Z"/><ellipse class="cls-32" cx="374.96" cy="326.78" rx="12" ry="22.85" transform="translate(34.12 689) rotate(-87.81)"/><ellipse class="cls-129" cx="374.96" cy="326.78" rx="8.41" ry="16.02" transform="translate(34.12 689) rotate(-87.81)"/><path class="cls-130" d="M375.21,320.07c8.3.31,15,3.89,15.65,8.16a4.59,4.59,0,0,0,.11-.84c.18-4.64-6.85-8.68-15.69-9s-16.16,3.16-16.33,7.8a4,4,0,0,0,.05.85C360,322.8,366.92,319.75,375.21,320.07Z"/><path class="cls-131" d="M397.67,325.7l.12-2.66-.74,0c-2.36-5.25-11.13-9.4-21.75-9.8s-19.69,3.06-22.44,8.11l-.85,0v3c-.25,6.62,9.76,12.38,22.37,12.86,12.27.47,22.47-4.23,23.25-10.58h0v-.05c0-.16,0-.32.05-.48S397.67,325.82,397.67,325.7Z"/><ellipse class="cls-32" cx="374.96" cy="322.16" rx="12" ry="22.85" transform="translate(38.73 684.56) rotate(-87.81)"/><ellipse class="cls-132" cx="374.96" cy="322.16" rx="8.41" ry="16.02" transform="translate(38.73 684.56) rotate(-87.81)"/><path class="cls-133" d="M375.21,315.45c8.3.32,15,3.89,15.65,8.17a4.82,4.82,0,0,0,.11-.85c.18-4.64-6.85-8.67-15.69-9s-16.16,3.15-16.33,7.79a4,4,0,0,0,.05.85C360,318.19,366.92,315.13,375.21,315.45Z"/><path class="cls-134" d="M397.67,320.76l.12-2.67-.74,0c-2.36-5.25-11.13-9.4-21.75-9.8s-19.69,3.06-22.44,8.11l-.85,0v3c-.25,6.62,9.76,12.38,22.37,12.86,12.27.47,22.47-4.23,23.25-10.58h0v-.05c0-.16,0-.32.05-.49S397.67,320.88,397.67,320.76Z"/><ellipse class="cls-32" cx="374.96" cy="317.22" rx="12" ry="22.85" transform="translate(43.67 679.81) rotate(-87.81)"/><path class="cls-135" d="M374.64,325.63c-8.85-.34-15.87-4.38-15.69-9s7.49-8.13,16.33-7.79,15.87,4.37,15.69,9S383.48,326,374.64,325.63Z"/><path class="cls-136" d="M375.21,310.51c8.3.31,15,3.89,15.65,8.17a4.82,4.82,0,0,0,.11-.85c.18-4.64-6.85-8.68-15.69-9S359.12,312,359,316.61a4,4,0,0,0,.05.85C360,313.25,366.92,310.19,375.21,310.51Z"/><path class="cls-137" d="M397.67,315.75l.12-2.66-.74,0c-2.36-5.25-11.13-9.39-21.75-9.8s-19.69,3.06-22.44,8.12l-.85,0v3c-.25,6.62,9.76,12.38,22.37,12.86,12.27.47,22.47-4.23,23.25-10.59h0v0c0-.16,0-.33.05-.49S397.67,315.88,397.67,315.75Z"/><ellipse class="cls-32" cx="374.96" cy="312.22" rx="12" ry="22.85" transform="translate(48.67 675) rotate(-87.81)"/><ellipse class="cls-138" cx="374.96" cy="312.22" rx="8.41" ry="16.02" transform="matrix(0.04, -1, 1, 0.04, 48.66, 675)"/><path class="cls-139" d="M375.21,305.51c8.3.31,15,3.89,15.65,8.16a4.59,4.59,0,0,0,.11-.84c.18-4.64-6.85-8.68-15.69-9S359.12,307,359,311.61a4,4,0,0,0,.05.85C360,308.24,366.92,305.19,375.21,305.51Z"/><path class="cls-140" d="M397.67,311.28l.12-2.67-.74,0c-2.36-5.25-11.13-9.4-21.75-9.8s-19.69,3.06-22.44,8.11l-.85,0v3c-.25,6.62,9.76,12.38,22.37,12.86,12.27.47,22.47-4.23,23.25-10.58h0v-.05c0-.16,0-.32.05-.48S397.67,311.4,397.67,311.28Z"/><ellipse class="cls-32" cx="374.96" cy="307.74" rx="12" ry="22.85" transform="translate(53.14 670.69) rotate(-87.81)"/><ellipse class="cls-141" cx="374.96" cy="307.74" rx="8.41" ry="16.02" transform="translate(53.14 670.69) rotate(-87.81)"/><path class="cls-142" d="M375.21,301c8.3.32,15,3.89,15.65,8.17a4.82,4.82,0,0,0,.11-.85c.18-4.64-6.85-8.68-15.69-9s-16.16,3.15-16.33,7.79a4,4,0,0,0,.05.85C360,303.77,366.92,300.71,375.21,301Z"/><path class="cls-143" d="M397.67,306.66l.12-2.66-.74,0c-2.36-5.25-11.13-9.39-21.75-9.8s-19.69,3.06-22.44,8.12l-.85,0v3c-.25,6.62,9.76,12.37,22.37,12.86,12.27.46,22.47-4.23,23.25-10.59h0v-.05c0-.16,0-.32.05-.48S397.67,306.78,397.67,306.66Z"/><ellipse class="cls-32" cx="374.96" cy="303.13" rx="12" ry="22.85" transform="translate(57.75 666.25) rotate(-87.81)"/><ellipse class="cls-144" cx="374.96" cy="303.13" rx="8.41" ry="16.02" transform="translate(57.75 666.25) rotate(-87.81)"/><path class="cls-145" d="M375.21,296.41c8.3.32,15,3.9,15.65,8.17a4.71,4.71,0,0,0,.11-.84c.18-4.64-6.85-8.68-15.69-9s-16.16,3.15-16.33,7.8a4,4,0,0,0,.05.85C360,299.15,366.92,296.1,375.21,296.41Z"/><path class="cls-146" d="M397.67,301.72l.12-2.66-.74,0c-2.36-5.25-11.13-9.39-21.75-9.8s-19.69,3.06-22.44,8.12l-.85,0v3c-.25,6.62,9.76,12.37,22.37,12.85,12.27.47,22.47-4.23,23.25-10.58h0v-.05c0-.16,0-.32.05-.48S397.67,301.84,397.67,301.72Z"/><ellipse class="cls-32" cx="374.96" cy="298.19" rx="12" ry="22.85" transform="translate(62.69 661.5) rotate(-87.81)"/><path class="cls-147" d="M374.64,306.59c-8.85-.33-15.87-4.37-15.69-9s7.49-8.14,16.33-7.8,15.87,4.38,15.69,9S383.48,306.93,374.64,306.59Z"/><path class="cls-148" d="M375.21,291.47c8.3.32,15,3.89,15.65,8.17a4.83,4.83,0,0,0,.11-.84c.18-4.64-6.85-8.68-15.69-9s-16.16,3.15-16.33,7.8a4,4,0,0,0,.05.84C360,294.21,366.92,291.16,375.21,291.47Z"/><path class="cls-149" d="M397.67,296.72l.12-2.66-.74,0c-2.36-5.25-11.13-9.4-21.75-9.8s-19.69,3.06-22.44,8.11l-.85,0v3c-.25,6.62,9.76,12.38,22.37,12.86,12.27.47,22.47-4.23,23.25-10.58h0v-.05c0-.16,0-.32.05-.48S397.67,296.84,397.67,296.72Z"/><ellipse class="cls-32" cx="374.96" cy="293.18" rx="12" ry="22.85" transform="translate(67.69 656.69) rotate(-87.81)"/><ellipse class="cls-150" cx="374.96" cy="293.18" rx="8.41" ry="16.02" transform="translate(67.69 656.69) rotate(-87.81)"/><path class="cls-151" d="M375.21,286.47c8.3.32,15,3.89,15.65,8.17a4.83,4.83,0,0,0,.11-.84c.18-4.65-6.85-8.68-15.69-9s-16.16,3.15-16.33,7.79a4,4,0,0,0,.05.85C360,289.21,366.92,286.15,375.21,286.47Z"/><path class="cls-152" d="M397.67,291.52l.12-2.67-.74,0c-2.36-5.25-11.13-9.39-21.75-9.8s-19.69,3.06-22.44,8.12l-.85,0v3c-.25,6.62,9.76,12.38,22.37,12.86,12.27.47,22.47-4.23,23.25-10.58h0v-.05c0-.16,0-.32.05-.49S397.67,291.64,397.67,291.52Z"/><ellipse class="cls-32" cx="374.96" cy="287.98" rx="12" ry="22.85" transform="translate(72.89 651.68) rotate(-87.81)"/><path class="cls-153" d="M374.64,296.39c-8.85-.34-15.87-4.38-15.69-9s7.49-8.13,16.33-7.8,15.87,4.38,15.69,9S383.48,296.72,374.64,296.39Z"/><path class="cls-154" d="M375.21,281.27c8.3.31,15,3.89,15.65,8.16a4.59,4.59,0,0,0,.11-.84c.18-4.64-6.85-8.68-15.69-9s-16.16,3.16-16.33,7.8a4,4,0,0,0,.05.85C360,284,366.92,281,375.21,281.27Z"/><path class="cls-155" d="M397.67,286.51l.12-2.66-.74,0c-2.36-5.25-11.13-9.39-21.75-9.8s-19.69,3.06-22.44,8.12l-.85,0v3c-.25,6.62,9.76,12.37,22.37,12.86,12.27.46,22.47-4.23,23.25-10.59h0v-.05c0-.16,0-.32.05-.48S397.67,286.63,397.67,286.51Z"/><ellipse class="cls-32" cx="374.96" cy="282.98" rx="12" ry="22.85" transform="translate(77.89 646.87) rotate(-87.81)"/><ellipse class="cls-156" cx="374.96" cy="282.98" rx="8.41" ry="16.02" transform="matrix(0.04, -1, 1, 0.04, 77.88, 646.87)"/><path class="cls-157" d="M375.21,276.26c8.3.32,15,3.9,15.65,8.17a4.71,4.71,0,0,0,.11-.84c.18-4.64-6.85-8.68-15.69-9s-16.16,3.15-16.33,7.8a4,4,0,0,0,.05.85C360,279,366.92,276,375.21,276.26Z"/><path class="cls-158" d="M397.67,282l.12-2.67-.74,0c-2.36-5.26-11.13-9.4-21.75-9.8s-19.69,3.06-22.44,8.11l-.85,0v3c-.25,6.62,9.76,12.38,22.37,12.86,12.27.47,22.47-4.23,23.25-10.58h0v-.05c0-.16,0-.32.05-.49S397.67,282.16,397.67,282Z"/><ellipse class="cls-32" cx="374.96" cy="278.5" rx="12" ry="22.85" transform="translate(82.36 642.56) rotate(-87.81)"/><ellipse class="cls-159" cx="374.96" cy="278.5" rx="8.41" ry="16.02" transform="translate(82.36 642.56) rotate(-87.81)"/><path class="cls-160" d="M375.21,271.79c8.3.31,15,3.89,15.65,8.17a4.82,4.82,0,0,0,.11-.85c.18-4.64-6.85-8.68-15.69-9s-16.16,3.15-16.33,7.79a4,4,0,0,0,.05.85C360,274.53,366.92,271.47,375.21,271.79Z"/><path class="cls-161" d="M397.67,277.42l.12-2.66-.74,0c-2.36-5.25-11.13-9.39-21.75-9.8s-19.69,3.06-22.44,8.12l-.85,0v3c-.25,6.62,9.76,12.37,22.37,12.85,12.27.47,22.47-4.23,23.25-10.58h0v-.05c0-.16,0-.32.05-.48S397.67,277.54,397.67,277.42Z"/><ellipse class="cls-32" cx="374.96" cy="273.89" rx="12" ry="22.85" transform="translate(86.97 638.13) rotate(-87.81)"/><ellipse class="cls-162" cx="374.96" cy="273.89" rx="8.41" ry="16.02" transform="translate(86.97 638.13) rotate(-87.81)"/><path class="cls-163" d="M375.21,267.17c8.3.32,15,3.89,15.65,8.17a4.83,4.83,0,0,0,.11-.84c.18-4.65-6.85-8.68-15.69-9s-16.16,3.15-16.33,7.8a4,4,0,0,0,.05.84C360,269.91,366.92,266.86,375.21,267.17Z"/><path class="cls-164" d="M397.67,272.48l.12-2.66-.74,0c-2.36-5.25-11.13-9.4-21.75-9.8s-19.69,3.06-22.44,8.12l-.85,0v3c-.25,6.62,9.76,12.38,22.37,12.86,12.27.47,22.47-4.23,23.25-10.58h0v-.05c0-.16,0-.32.05-.48S397.67,272.6,397.67,272.48Z"/><ellipse class="cls-32" cx="374.96" cy="268.95" rx="12" ry="22.85" transform="translate(91.91 633.37) rotate(-87.81)"/><path class="cls-165" d="M374.64,277.35c-8.85-.34-15.87-4.37-15.69-9s7.49-8.13,16.33-7.79,15.87,4.37,15.69,9S383.48,277.69,374.64,277.35Z"/><path class="cls-166" d="M375.21,262.23c8.3.32,15,3.89,15.65,8.17a4.83,4.83,0,0,0,.11-.84c.18-4.65-6.85-8.68-15.69-9s-16.16,3.15-16.33,7.79a4,4,0,0,0,.05.85C360,265,366.92,261.91,375.21,262.23Z"/><path class="cls-167" d="M397.67,267.48l.12-2.67-.74,0c-2.36-5.25-11.13-9.4-21.75-9.8s-19.69,3.06-22.44,8.11l-.85,0v3c-.25,6.62,9.76,12.38,22.37,12.86,12.27.47,22.47-4.23,23.25-10.58h0v-.05c0-.16,0-.32.05-.49S397.67,267.6,397.67,267.48Z"/><ellipse class="cls-32" cx="374.96" cy="263.94" rx="12" ry="22.85" transform="translate(96.91 628.56) rotate(-87.81)"/><path class="cls-168" d="M374.64,272.35c-8.85-.34-15.87-4.38-15.69-9s7.49-8.13,16.33-7.79,15.87,4.37,15.69,9S383.48,272.69,374.64,272.35Z"/><path class="cls-169" d="M375.21,257.23c8.3.31,15,3.89,15.65,8.17a4.82,4.82,0,0,0,.11-.85c.18-4.64-6.85-8.68-15.69-9s-16.16,3.15-16.33,7.79a4,4,0,0,0,.05.85C360,260,366.92,256.91,375.21,257.23Z"/><path class="cls-170" d="M397.67,262.47l.12-2.66-.74,0c-2.36-5.25-11.13-9.39-21.75-9.8s-19.69,3.06-22.44,8.12l-.85,0v3c-.25,6.62,9.76,12.38,22.37,12.86,12.27.47,22.47-4.23,23.25-10.59h0v0c0-.16,0-.33.05-.49S397.67,262.6,397.67,262.47Z"/><ellipse class="cls-32" cx="374.96" cy="258.94" rx="12" ry="22.85" transform="translate(101.91 623.75) rotate(-87.81)"/><ellipse class="cls-171" cx="374.96" cy="258.94" rx="8.41" ry="16.02" transform="translate(101.91 623.75) rotate(-87.81)"/><path class="cls-172" d="M375.21,252.23c8.3.31,15,3.89,15.65,8.16a4.59,4.59,0,0,0,.11-.84c.18-4.64-6.85-8.68-15.69-9s-16.16,3.16-16.33,7.8a4,4,0,0,0,.05.85C360,255,366.92,251.91,375.21,252.23Z"/><path class="cls-173" d="M397.67,257.27l.12-2.66-.74,0c-2.36-5.25-11.13-9.39-21.75-9.8s-19.69,3.06-22.44,8.12l-.85,0v3c-.25,6.62,9.76,12.37,22.37,12.85,12.27.47,22.47-4.23,23.25-10.58h0v-.05c0-.16,0-.32.05-.48S397.67,257.39,397.67,257.27Z"/><ellipse class="cls-32" cx="374.96" cy="253.74" rx="12" ry="22.85" transform="translate(107.1 618.74) rotate(-87.81)"/><path class="cls-174" d="M374.64,262.14c-8.85-.33-15.87-4.37-15.69-9s7.49-8.14,16.33-7.8,15.87,4.38,15.69,9S383.48,262.48,374.64,262.14Z"/><path class="cls-175" d="M375.21,247c8.3.32,15,3.89,15.65,8.17a4.83,4.83,0,0,0,.11-.84c.18-4.64-6.85-8.68-15.69-9s-16.16,3.15-16.33,7.8a4,4,0,0,0,.05.84C360,249.76,366.92,246.71,375.21,247Z"/><path class="cls-176" d="M397.67,252.27l.12-2.66-.74,0c-2.36-5.25-11.13-9.4-21.75-9.8s-19.69,3.06-22.44,8.11l-.85,0v3c-.25,6.62,9.76,12.38,22.37,12.86,12.27.47,22.47-4.23,23.25-10.58h0v0c0-.16,0-.32.05-.48S397.67,252.39,397.67,252.27Z"/><ellipse class="cls-32" cx="374.96" cy="248.73" rx="12" ry="22.85" transform="translate(112.11 613.93) rotate(-87.81)"/><ellipse class="cls-177" cx="374.96" cy="248.73" rx="8.41" ry="16.02" transform="matrix(0.04, -1, 1, 0.04, 112.1, 613.93)"/><path class="cls-178" d="M375.21,242c8.3.32,15,3.89,15.65,8.17a4.82,4.82,0,0,0,.11-.85c.18-4.64-6.85-8.67-15.69-9s-16.16,3.15-16.33,7.79a4,4,0,0,0,.05.85C360,244.76,366.92,241.7,375.21,242Z"/><path class="cls-179" d="M397.67,247.79l.12-2.66-.74,0c-2.36-5.25-11.13-9.39-21.75-9.8s-19.69,3.06-22.44,8.12l-.85,0v3c-.25,6.62,9.76,12.37,22.37,12.86,12.27.46,22.47-4.24,23.25-10.59h0v-.05c0-.16,0-.32.05-.48S397.67,247.91,397.67,247.79Z"/><ellipse class="cls-32" cx="374.96" cy="244.26" rx="12" ry="22.85" transform="translate(116.58 609.63) rotate(-87.81)"/><ellipse class="cls-180" cx="374.96" cy="244.26" rx="8.41" ry="16.02" transform="translate(116.58 609.63) rotate(-87.81)"/><path class="cls-181" d="M375.21,237.54c8.3.32,15,3.9,15.65,8.17a4.71,4.71,0,0,0,.11-.84c.18-4.64-6.85-8.68-15.69-9S359.12,239,359,243.65a4,4,0,0,0,.05.85C360,240.28,366.92,237.23,375.21,237.54Z"/><path class="cls-182" d="M397.67,243.18l.12-2.67-.74,0c-2.36-5.25-11.13-9.4-21.75-9.8s-19.69,3.06-22.44,8.11l-.85,0v3c-.25,6.62,9.76,12.38,22.37,12.86,12.27.47,22.47-4.23,23.25-10.58h0V244c0-.16,0-.32.05-.49S397.67,243.3,397.67,243.18Z"/><ellipse class="cls-32" cx="374.96" cy="239.64" rx="12" ry="22.85" transform="translate(121.19 605.19) rotate(-87.81)"/><ellipse class="cls-183" cx="374.96" cy="239.64" rx="8.41" ry="16.02" transform="translate(121.19 605.19) rotate(-87.81)"/><path class="cls-184" d="M375.21,232.93c8.3.31,15,3.89,15.65,8.17a4.82,4.82,0,0,0,.11-.85c.18-4.64-6.85-8.68-15.69-9S359.12,234.39,359,239a4,4,0,0,0,.05.85C360,235.67,366.92,232.61,375.21,232.93Z"/><path class="cls-185" d="M397.67,238.23l.12-2.66-.74,0c-2.36-5.25-11.13-9.39-21.75-9.8s-19.69,3.06-22.44,8.12l-.85,0v3c-.25,6.62,9.76,12.38,22.37,12.86,12.27.47,22.47-4.23,23.25-10.58h0v0c0-.16,0-.32.05-.49S397.67,238.36,397.67,238.23Z"/><ellipse class="cls-32" cx="374.96" cy="234.7" rx="12" ry="22.85" transform="translate(126.13 600.43) rotate(-87.81)"/><path class="cls-186" d="M374.64,243.11c-8.85-.34-15.87-4.38-15.69-9s7.49-8.13,16.33-7.8,15.87,4.38,15.69,9S383.48,243.44,374.64,243.11Z"/><path class="cls-187" d="M375.21,228c8.3.31,15,3.89,15.65,8.16a4.59,4.59,0,0,0,.11-.84c.18-4.64-6.85-8.68-15.69-9s-16.16,3.16-16.33,7.8a4,4,0,0,0,.05.85C360,230.72,366.92,227.67,375.21,228Z"/><path class="cls-188" d="M426.17,352.51l.12-2.66-.74,0c-2.36-5.25-11.14-9.39-21.75-9.8s-19.69,3.06-22.44,8.12l-.85,0v3c-.25,6.62,9.76,12.38,22.37,12.86,12.27.47,22.47-4.23,23.25-10.59h0v0a4.22,4.22,0,0,0,0-.49C426.18,352.76,426.17,352.64,426.17,352.51Z"/><ellipse class="cls-32" cx="403.46" cy="348.98" rx="12" ry="22.85" transform="translate(39.35 738.83) rotate(-87.81)"/><ellipse class="cls-189" cx="403.46" cy="348.98" rx="8.41" ry="16.02" transform="matrix(0.04, -1, 1, 0.04, 39.34, 738.83)"/><path class="cls-190" d="M403.71,342.26c8.3.32,15,3.9,15.65,8.17a4.59,4.59,0,0,0,.11-.84c.18-4.64-6.85-8.68-15.69-9s-16.16,3.16-16.33,7.8a4,4,0,0,0,0,.85C388.46,345,395.41,342,403.71,342.26Z"/><path class="cls-191" d="M426.17,347.57l.12-2.66-.74,0c-2.36-5.25-11.14-9.39-21.75-9.8s-19.69,3.06-22.44,8.12l-.85,0v3c-.25,6.62,9.76,12.37,22.37,12.86,12.27.46,22.47-4.24,23.25-10.59h0v-.05a3.88,3.88,0,0,0,0-.48C426.18,347.82,426.17,347.69,426.17,347.57Z"/><ellipse class="cls-32" cx="403.46" cy="344.04" rx="12" ry="22.85" transform="translate(44.28 734.08) rotate(-87.81)"/><ellipse class="cls-192" cx="403.46" cy="344.04" rx="8.41" ry="16.02" transform="translate(44.28 734.08) rotate(-87.81)"/><path class="cls-193" d="M403.71,337.32c8.3.32,15,3.9,15.65,8.17a4.71,4.71,0,0,0,.11-.84c.18-4.64-6.85-8.68-15.69-9s-16.16,3.15-16.33,7.8a4,4,0,0,0,0,.85C388.46,340.06,395.41,337,403.71,337.32Z"/><path class="cls-194" d="M426.17,342.57l.12-2.66-.74,0c-2.36-5.25-11.14-9.4-21.75-9.8s-19.69,3.06-22.44,8.12l-.85,0v3c-.25,6.62,9.76,12.38,22.37,12.86,12.27.47,22.47-4.23,23.25-10.58h0v-.05a3.88,3.88,0,0,0,0-.48C426.18,342.81,426.17,342.69,426.17,342.57Z"/><ellipse class="cls-32" cx="403.46" cy="339.03" rx="12" ry="22.85" transform="translate(49.28 729.27) rotate(-87.81)"/><ellipse class="cls-195" cx="403.46" cy="339.04" rx="8.41" ry="16.02" transform="translate(49.28 729.27) rotate(-87.81)"/><path class="cls-196" d="M403.71,332.32c8.3.32,15,3.89,15.65,8.17a4.83,4.83,0,0,0,.11-.84c.18-4.65-6.85-8.68-15.69-9s-16.16,3.15-16.33,7.79a4,4,0,0,0,0,.85C388.46,335.06,395.41,332,403.71,332.32Z"/><path class="cls-197" d="M426.17,338l.12-2.66-.74,0c-2.36-5.25-11.14-9.39-21.75-9.8s-19.69,3.06-22.44,8.12l-.85,0v3c-.25,6.62,9.76,12.38,22.37,12.86,12.27.47,22.47-4.23,23.25-10.59h0v0a4,4,0,0,0,0-.49C426.18,338.2,426.17,338.08,426.17,338Z"/><ellipse class="cls-32" cx="403.46" cy="334.42" rx="12" ry="22.85" transform="translate(53.89 724.83) rotate(-87.81)"/><ellipse class="cls-198" cx="403.46" cy="334.42" rx="8.41" ry="16.02" transform="translate(53.89 724.83) rotate(-87.81)"/><path class="cls-199" d="M403.71,327.71c8.3.31,15,3.89,15.65,8.16a4.59,4.59,0,0,0,.11-.84c.18-4.64-6.85-8.68-15.69-9s-16.16,3.16-16.33,7.8a4,4,0,0,0,0,.85C388.46,330.44,395.41,327.39,403.71,327.71Z"/><path class="cls-200" d="M426.17,333l.12-2.66-.74,0c-2.36-5.25-11.14-9.39-21.75-9.8s-19.69,3.06-22.44,8.12l-.85,0v3c-.25,6.62,9.76,12.37,22.37,12.86,12.27.46,22.47-4.23,23.25-10.59h0v-.05a3.88,3.88,0,0,0,0-.48C426.18,333.26,426.17,333.14,426.17,333Z"/><ellipse class="cls-32" cx="403.46" cy="329.48" rx="12" ry="22.85" transform="translate(58.83 720.07) rotate(-87.81)"/><path class="cls-201" d="M403.14,337.88c-8.85-.33-15.87-4.37-15.7-9s7.49-8.14,16.34-7.8,15.87,4.38,15.69,9S412,338.22,403.14,337.88Z"/><path class="cls-202" d="M403.71,322.76c8.3.32,15,3.9,15.65,8.17a4.71,4.71,0,0,0,.11-.84c.18-4.64-6.85-8.68-15.69-9s-16.16,3.15-16.33,7.8a4,4,0,0,0,0,.85C388.46,325.5,395.41,322.45,403.71,322.76Z"/><path class="cls-203" d="M426.17,328l.12-2.66-.74,0c-2.36-5.25-11.14-9.4-21.75-9.8s-19.69,3.06-22.44,8.12l-.85,0v3c-.25,6.63,9.76,12.38,22.37,12.86,12.27.47,22.47-4.23,23.25-10.58h0v-.05a3.88,3.88,0,0,0,0-.48C426.18,328.25,426.17,328.13,426.17,328Z"/><ellipse class="cls-32" cx="403.46" cy="324.48" rx="12" ry="22.85" transform="translate(63.83 715.26) rotate(-87.81)"/><ellipse class="cls-204" cx="403.46" cy="324.48" rx="8.41" ry="16.02" transform="matrix(0.04, -1, 1, 0.04, 63.83, 715.26)"/><path class="cls-205" d="M403.71,317.76c8.3.32,15,3.89,15.65,8.17a4.83,4.83,0,0,0,.11-.84c.18-4.65-6.85-8.68-15.69-9s-16.16,3.15-16.33,7.79a4,4,0,0,0,0,.85C388.46,320.5,395.41,317.44,403.71,317.76Z"/><path class="cls-206" d="M426.17,323.53l.12-2.66-.74,0c-2.36-5.25-11.14-9.39-21.75-9.8s-19.69,3.06-22.44,8.12l-.85,0v3c-.25,6.62,9.76,12.38,22.37,12.86,12.27.47,22.47-4.23,23.25-10.59h0v0a4.22,4.22,0,0,0,0-.49C426.18,323.78,426.17,323.66,426.17,323.53Z"/><ellipse class="cls-32" cx="403.46" cy="320" rx="12" ry="22.85" transform="translate(68.3 710.96) rotate(-87.81)"/><ellipse class="cls-207" cx="403.46" cy="320" rx="8.41" ry="16.02" transform="translate(68.3 710.96) rotate(-87.81)"/><path class="cls-208" d="M403.71,313.28c8.3.32,15,3.9,15.65,8.17a4.59,4.59,0,0,0,.11-.84c.18-4.64-6.85-8.68-15.69-9s-16.16,3.16-16.33,7.8a4,4,0,0,0,0,.85C388.46,316,395.41,313,403.71,313.28Z"/><path class="cls-209" d="M426.17,318.92l.12-2.66-.74,0c-2.36-5.25-11.14-9.4-21.75-9.8s-19.69,3.06-22.44,8.11l-.85,0v3c-.25,6.62,9.76,12.38,22.37,12.86,12.27.47,22.47-4.23,23.25-10.58h0v-.05a3.88,3.88,0,0,0,0-.48C426.18,319.16,426.17,319,426.17,318.92Z"/><ellipse class="cls-32" cx="403.46" cy="315.38" rx="12" ry="22.85" transform="translate(72.92 706.52) rotate(-87.81)"/><ellipse class="cls-210" cx="403.46" cy="315.38" rx="8.41" ry="16.02" transform="translate(72.91 706.52) rotate(-87.81)"/><path class="cls-211" d="M403.71,308.67c8.3.32,15,3.89,15.65,8.17a4.82,4.82,0,0,0,.11-.85c.18-4.64-6.85-8.67-15.69-9s-16.16,3.15-16.33,7.79a4,4,0,0,0,0,.85C388.46,311.41,395.41,308.35,403.71,308.67Z"/><path class="cls-212" d="M426.17,314l.12-2.67-.74,0c-2.36-5.25-11.14-9.4-21.75-9.8s-19.69,3.06-22.44,8.11l-.85,0v3c-.25,6.62,9.76,12.38,22.37,12.86,12.27.47,22.47-4.23,23.25-10.58h0v-.05a3.89,3.89,0,0,0,0-.49C426.18,314.22,426.17,314.1,426.17,314Z"/><ellipse class="cls-32" cx="403.46" cy="310.44" rx="12" ry="22.85" transform="translate(77.85 701.77) rotate(-87.81)"/><path class="cls-213" d="M403.14,318.85c-8.85-.34-15.87-4.38-15.7-9s7.49-8.13,16.34-7.79,15.87,4.37,15.69,9S412,319.19,403.14,318.85Z"/><path class="cls-214" d="M403.71,303.73c8.3.31,15,3.89,15.65,8.17a4.82,4.82,0,0,0,.11-.85c.18-4.64-6.85-8.68-15.69-9s-16.16,3.15-16.33,7.79a4,4,0,0,0,0,.85C388.46,306.47,395.41,303.41,403.71,303.73Z"/><path class="cls-215" d="M426.17,309l.12-2.66-.74,0c-2.36-5.25-11.14-9.39-21.75-9.8s-19.69,3.06-22.44,8.12l-.85,0v3c-.25,6.62,9.76,12.38,22.37,12.86,12.27.47,22.47-4.23,23.25-10.59h0v0a4,4,0,0,0,0-.49C426.18,309.22,426.17,309.1,426.17,309Z"/><ellipse class="cls-32" cx="403.46" cy="305.44" rx="12" ry="22.85" transform="translate(82.85 696.95) rotate(-87.81)"/><ellipse class="cls-216" cx="403.46" cy="305.44" rx="8.41" ry="16.02" transform="translate(82.85 696.95) rotate(-87.81)"/><path class="cls-217" d="M403.71,298.73c8.3.31,15,3.89,15.65,8.16a4.59,4.59,0,0,0,.11-.84c.18-4.64-6.85-8.68-15.69-9s-16.16,3.16-16.33,7.8a4,4,0,0,0,0,.85C388.46,301.46,395.41,298.41,403.71,298.73Z"/><path class="cls-218" d="M426.17,303.77l.12-2.66-.74,0c-2.36-5.25-11.14-9.39-21.75-9.8s-19.69,3.06-22.44,8.12l-.85,0v3c-.25,6.62,9.76,12.37,22.37,12.85,12.27.47,22.47-4.23,23.25-10.58h0v-.05a3.88,3.88,0,0,0,0-.48C426.18,304,426.17,303.89,426.17,303.77Z"/><ellipse class="cls-32" cx="403.46" cy="300.24" rx="12" ry="22.85" transform="translate(88.05 691.95) rotate(-87.81)"/><path class="cls-219" d="M403.14,308.64c-8.85-.33-15.87-4.37-15.7-9s7.49-8.14,16.34-7.8,15.87,4.38,15.69,9S412,309,403.14,308.64Z"/><path class="cls-220" d="M403.71,293.52c8.3.32,15,3.89,15.65,8.17a4.83,4.83,0,0,0,.11-.84c.18-4.64-6.85-8.68-15.69-9s-16.16,3.15-16.33,7.8a3.94,3.94,0,0,0,0,.84C388.46,296.26,395.41,293.21,403.71,293.52Z"/><path class="cls-221" d="M426.17,298.77l.12-2.66-.74,0c-2.36-5.25-11.14-9.4-21.75-9.8s-19.69,3.06-22.44,8.11l-.85,0v3c-.25,6.62,9.76,12.38,22.37,12.86,12.27.47,22.47-4.23,23.25-10.58h0v-.05a3.88,3.88,0,0,0,0-.48C426.18,299,426.17,298.89,426.17,298.77Z"/><ellipse class="cls-32" cx="403.46" cy="295.23" rx="12" ry="22.85" transform="translate(93.05 687.14) rotate(-87.81)"/><ellipse class="cls-222" cx="403.46" cy="295.23" rx="8.41" ry="16.02" transform="matrix(0.04, -1, 1, 0.04, 93.05, 687.14)"/><path class="cls-223" d="M403.71,288.52c8.3.32,15,3.89,15.65,8.17a4.82,4.82,0,0,0,.11-.85c.18-4.64-6.85-8.67-15.69-9s-16.16,3.15-16.33,7.79a4,4,0,0,0,0,.85C388.46,291.26,395.41,288.2,403.71,288.52Z"/><path class="cls-224" d="M426.17,294.29l.12-2.66-.74,0c-2.36-5.25-11.14-9.39-21.75-9.8s-19.69,3.06-22.44,8.12l-.85,0v3c-.25,6.62,9.76,12.37,22.37,12.86,12.27.46,22.47-4.24,23.25-10.59h0v-.05a3.88,3.88,0,0,0,0-.48C426.18,294.54,426.17,294.41,426.17,294.29Z"/><ellipse class="cls-32" cx="403.46" cy="290.76" rx="12" ry="22.85" transform="translate(97.52 682.83) rotate(-87.81)"/><ellipse class="cls-225" cx="403.46" cy="290.76" rx="8.41" ry="16.02" transform="translate(97.52 682.83) rotate(-87.81)"/><path class="cls-226" d="M403.71,284c8.3.32,15,3.9,15.65,8.17a4.71,4.71,0,0,0,.11-.84c.18-4.64-6.85-8.68-15.69-9s-16.16,3.15-16.33,7.8a4,4,0,0,0,0,.85C388.46,286.78,395.41,283.73,403.71,284Z"/><path class="cls-227" d="M426.17,289.68l.12-2.67-.74,0c-2.36-5.25-11.14-9.4-21.75-9.8s-19.69,3.06-22.44,8.11l-.85,0v3c-.25,6.62,9.76,12.38,22.37,12.86,12.27.47,22.47-4.23,23.25-10.58h0v-.05a3.89,3.89,0,0,0,0-.49C426.18,289.92,426.17,289.8,426.17,289.68Z"/><ellipse class="cls-32" cx="403.46" cy="286.14" rx="12" ry="22.85" transform="translate(102.14 678.39) rotate(-87.81)"/><ellipse class="cls-228" cx="403.46" cy="286.14" rx="8.41" ry="16.02" transform="translate(102.14 678.39) rotate(-87.81)"/><path class="cls-229" d="M403.71,279.43c8.3.31,15,3.89,15.65,8.17a4.82,4.82,0,0,0,.11-.85c.18-4.64-6.85-8.68-15.69-9s-16.16,3.15-16.33,7.79a4,4,0,0,0,0,.85C388.46,282.17,395.41,279.11,403.71,279.43Z"/><path class="cls-230" d="M426.17,284.73l.12-2.66-.74,0c-2.36-5.25-11.14-9.39-21.75-9.8s-19.69,3.06-22.44,8.12l-.85,0v3c-.25,6.62,9.76,12.38,22.37,12.86,12.27.47,22.47-4.23,23.25-10.58h0v-.05a3.89,3.89,0,0,0,0-.49C426.18,285,426.17,284.86,426.17,284.73Z"/><ellipse class="cls-32" cx="403.46" cy="281.2" rx="12" ry="22.85" transform="translate(107.07 673.64) rotate(-87.81)"/><path class="cls-231" d="M403.14,289.61c-8.85-.34-15.87-4.38-15.7-9s7.49-8.13,16.34-7.8,15.87,4.38,15.69,9S412,289.94,403.14,289.61Z"/><path class="cls-232" d="M403.71,274.49c8.3.31,15,3.89,15.65,8.16a4.59,4.59,0,0,0,.11-.84c.18-4.64-6.85-8.68-15.69-9s-16.16,3.16-16.33,7.8a4,4,0,0,0,0,.85C388.46,277.22,395.41,274.17,403.71,274.49Z"/></g><polygon class="cls-233" points="296.93 178.27 306.69 183.88 306.69 311.48 296.93 316.61 296.93 178.27"/><polygon class="cls-234" points="306.69 311.48 403.4 365.62 403.4 377.94 296.93 316.61 306.69 311.48"/><polygon class="cls-235" points="296.93 178.27 296.93 316.61 403.4 377.94 403.4 239.46 296.93 178.27"/><polygon class="cls-236" points="296.93 188.38 403.4 312.24 403.4 336.99 296.93 209.17 296.93 188.38"/><polygon class="cls-236" points="296.93 237.34 403.4 361.19 403.4 377.94 296.93 250.12 296.93 237.34"/><polygon class="cls-237" points="458.47 138.57 340.8 203.32 328.6 196.47 445.57 130.56 458.47 138.57"/><polygon class="cls-238" points="454.27 69.57 431.02 83 438.26 87.12 418.37 121.44 402.71 112.52 372.28 164.99 381.66 170.34 402.71 134.04 418.37 142.97 447.64 92.47 454.27 96.25 454.27 69.57"/><polygon class="cls-239" points="462.7 74.59 439.46 88.01 446.7 92.14 426.8 126.46 411.14 117.53 380.72 170.01 390.1 175.35 411.14 139.06 426.8 147.99 456.08 97.49 462.7 101.26 462.7 74.59"/><polygon class="cls-240" points="454.27 69.57 462.7 74.59 439.46 88.01 431.02 83 454.27 69.57"/><polygon class="cls-241" points="380.72 170.01 372.28 164.99 402.71 112.52 411.14 117.53 380.72 170.01"/><path class="cls-242" d="M272.11,168.47V142.69H230.89L229,141.6a10.89,10.89,0,0,0-10.9,0l-1.88,1.09h-40.9v25.86h0a3.25,3.25,0,0,0,1.62,2.51L218.44,195a10.93,10.93,0,0,0,10.9,0l41.12-23.75a3.23,3.23,0,0,0,1.64-2.69h0Z"/><path class="cls-243" d="M218.44,169.38,177,145.45a3.3,3.3,0,0,1,0-5.71L218.12,116a10.93,10.93,0,0,1,10.9,0l41.44,23.93a3.3,3.3,0,0,1,0,5.72l-41.12,23.74A10.93,10.93,0,0,1,218.44,169.38Z"/><path class="cls-244" d="M215.05,406.09V384.93H181.23l-1.55-.89a8.93,8.93,0,0,0-8.94,0l-1.54.89H135.64v21.23h0a2.66,2.66,0,0,0,1.34,2l34,19.64a8.93,8.93,0,0,0,8.94,0l33.75-19.48a2.67,2.67,0,0,0,1.34-2.21h0Z"/><path class="cls-243" d="M171,406.83,137,387.2a2.71,2.71,0,0,1,0-4.69L170.74,363a8.93,8.93,0,0,1,8.94,0l34,19.64a2.71,2.71,0,0,1,0,4.69L180,406.83A8.93,8.93,0,0,1,171,406.83Z"/><path class="cls-245" d="M690,279.9V254.11H648.75L646.87,253a10.89,10.89,0,0,0-10.9,0l-1.87,1.08H593.2V280h0a3.26,3.26,0,0,0,1.63,2.5l41.45,23.93a10.89,10.89,0,0,0,10.9,0l41.12-23.74A3.26,3.26,0,0,0,690,280h0Z"/><path class="cls-243" d="M636.3,280.81l-41.45-23.93a3.3,3.3,0,0,1,0-5.72L636,227.42a10.89,10.89,0,0,1,10.9,0l41.45,23.93a3.3,3.3,0,0,1,0,5.71L647.2,280.81A10.93,10.93,0,0,1,636.3,280.81Z"/><path class="cls-246" d="M641.6,277.31a4,4,0,0,1-1.93-.45h0l-37.1-21.43a1.61,1.61,0,0,1-.91-1.38,2.05,2.05,0,0,1,1.19-1.68l36.29-21a4.78,4.78,0,0,1,4.36-.16l37.1,21.42a1.61,1.61,0,0,1,.91,1.38,2.05,2.05,0,0,1-1.19,1.68L644,276.7A5,5,0,0,1,641.6,277.31Zm0-45.56a4,4,0,0,0-2,.49l-36.3,20.95c-.45.26-.71.58-.71.86s.27.47.43.56L640.15,276a3.85,3.85,0,0,0,3.41-.17l36.29-21c.45-.26.71-.58.71-.86s-.27-.47-.43-.56L643,232.08A2.89,2.89,0,0,0,641.58,231.75Z"/><path class="cls-247" d="M175.36,403a3,3,0,0,1-1.5-.35h0L145,386a1.25,1.25,0,0,1-.71-1.08,1.59,1.59,0,0,1,.93-1.3l28.27-16.33a3.7,3.7,0,0,1,3.39-.12l28.91,16.69a1.26,1.26,0,0,1,.71,1.07,1.61,1.61,0,0,1-.93,1.31l-28.27,16.32A3.85,3.85,0,0,1,175.36,403Zm0-35.49a3.15,3.15,0,0,0-1.53.38l-28.27,16.33c-.35.2-.56.45-.56.66s.21.37.34.44l28.91,16.69a3,3,0,0,0,2.65-.13l28.27-16.32c.35-.2.56-.45.56-.67s-.21-.36-.34-.43l-28.91-16.69A2.26,2.26,0,0,0,175.34,367.55Z"/><path class="cls-248" d="M223.74,165.94a3.92,3.92,0,0,1-1.92-.45h0l-37.11-21.43a1.61,1.61,0,0,1-.91-1.38A2.08,2.08,0,0,1,185,141l36.29-21a4.78,4.78,0,0,1,4.36-.16l37.1,21.42a1.61,1.61,0,0,1,.91,1.38,2.06,2.06,0,0,1-1.18,1.68l-36.3,20.95A4.91,4.91,0,0,1,223.74,165.94Zm0-45.56a4,4,0,0,0-2,.49l-36.3,20.95c-.44.26-.71.58-.71.86s.27.47.43.56l37.11,21.42a3.85,3.85,0,0,0,3.41-.16L262,143.55c.45-.26.72-.58.72-.86s-.28-.47-.44-.56l-37.1-21.42A3,3,0,0,0,223.72,120.38Z"/></g></g></svg>