<svg xmlns="http://www.w3.org/2000/svg" xmlns:xlink="http://www.w3.org/1999/xlink" viewBox="0 0 638.07 523.64"><defs><style>.cls-1{fill:url(#linear-gradient);}.cls-2{fill:url(#linear-gradient-2);}.cls-3{fill:url(#linear-gradient-3);}.cls-4{fill:url(#linear-gradient-4);}.cls-5{fill:url(#linear-gradient-5);}.cls-6{fill:url(#linear-gradient-6);}.cls-7{fill:url(#linear-gradient-7);}.cls-8{fill:url(#linear-gradient-8);}.cls-9{fill:url(#linear-gradient-9);}.cls-10{fill:url(#linear-gradient-10);}.cls-11{fill:url(#linear-gradient-11);}.cls-12{fill:url(#linear-gradient-12);}.cls-13{fill:url(#linear-gradient-13);}.cls-14{fill:#f8f8f9;}.cls-15{fill:url(#linear-gradient-14);}.cls-16{fill:url(#linear-gradient-15);}.cls-17{fill:url(#linear-gradient-16);}.cls-18{fill:url(#linear-gradient-17);}.cls-19{fill:url(#linear-gradient-18);}.cls-20{fill:url(#linear-gradient-19);}.cls-21{fill:url(#linear-gradient-20);}.cls-22{fill:url(#linear-gradient-21);}.cls-23{fill:url(#linear-gradient-22);}.cls-24{fill:url(#linear-gradient-23);}.cls-25{fill:url(#linear-gradient-24);}.cls-26{fill:url(#linear-gradient-25);}.cls-27{fill:url(#linear-gradient-26);}.cls-28{fill:url(#linear-gradient-27);}.cls-29{fill:url(#linear-gradient-28);}.cls-30{fill:url(#linear-gradient-29);}.cls-31{fill:url(#linear-gradient-30);}.cls-32{fill:url(#linear-gradient-31);}.cls-33{fill:url(#linear-gradient-32);}.cls-34{fill:url(#linear-gradient-33);}.cls-35{fill:url(#linear-gradient-34);}.cls-36{fill:url(#linear-gradient-35);}.cls-37{fill:url(#linear-gradient-36);}.cls-38{fill:url(#linear-gradient-37);}.cls-39{fill:url(#linear-gradient-38);}.cls-40{fill:url(#linear-gradient-39);}.cls-41{fill:url(#linear-gradient-40);}.cls-42{fill:url(#linear-gradient-41);}.cls-43{fill:url(#linear-gradient-42);}.cls-44{fill:url(#linear-gradient-43);}.cls-45{fill:url(#linear-gradient-44);}.cls-46{fill:url(#linear-gradient-45);}.cls-47{fill:url(#linear-gradient-46);}.cls-48{fill:url(#linear-gradient-47);}.cls-49{fill:url(#linear-gradient-48);}.cls-50{fill:url(#linear-gradient-49);}.cls-51{fill:url(#linear-gradient-50);}.cls-52{fill:url(#linear-gradient-51);}.cls-53{fill:url(#linear-gradient-52);}.cls-54{fill:url(#linear-gradient-53);}.cls-55{fill:url(#linear-gradient-54);}.cls-56{fill:url(#linear-gradient-55);}.cls-57{fill:url(#linear-gradient-56);}.cls-58{fill:url(#linear-gradient-57);}.cls-59{fill:url(#linear-gradient-58);}.cls-60{fill:url(#linear-gradient-59);}.cls-61{fill:url(#linear-gradient-60);}.cls-62{fill:url(#linear-gradient-61);}.cls-63{fill:url(#linear-gradient-62);}.cls-64{fill:url(#linear-gradient-63);}.cls-65{fill:url(#linear-gradient-64);}.cls-66{fill:url(#linear-gradient-65);}.cls-67{fill:url(#linear-gradient-66);}.cls-68{fill:url(#linear-gradient-67);}.cls-69{fill:url(#linear-gradient-68);}.cls-70{fill:url(#linear-gradient-69);}.cls-71{fill:url(#linear-gradient-70);}.cls-72{fill:url(#linear-gradient-71);}.cls-73{fill:url(#linear-gradient-72);}.cls-74{fill:url(#linear-gradient-73);}.cls-75{fill:url(#linear-gradient-74);}.cls-76{fill:url(#linear-gradient-75);}.cls-77{fill:url(#linear-gradient-76);}.cls-78{fill:url(#linear-gradient-77);}.cls-79{fill:url(#linear-gradient-78);}.cls-80{fill:url(#linear-gradient-79);}.cls-81{fill:url(#linear-gradient-80);}.cls-82{fill:url(#linear-gradient-81);}.cls-83{fill:#fff;}.cls-84{fill:url(#linear-gradient-82);}.cls-85{fill:url(#linear-gradient-83);}.cls-86{fill:#f8d247;}.cls-87{fill:url(#linear-gradient-84);}.cls-88{fill:url(#linear-gradient-85);}.cls-89{fill:url(#linear-gradient-86);}.cls-90{fill:url(#linear-gradient-87);}.cls-91{fill:url(#linear-gradient-88);}.cls-92{fill:url(#linear-gradient-89);}.cls-93{fill:url(#linear-gradient-90);}.cls-94{fill:url(#linear-gradient-91);}.cls-95{fill:url(#linear-gradient-92);}.cls-96{fill:url(#linear-gradient-93);}.cls-97{fill:url(#linear-gradient-94);}.cls-98{fill:url(#linear-gradient-95);}.cls-99{fill:url(#linear-gradient-96);}.cls-100{fill:url(#linear-gradient-97);}.cls-101{fill:url(#linear-gradient-98);}.cls-102{fill:url(#linear-gradient-99);}.cls-103{fill:url(#linear-gradient-100);}.cls-104{fill:url(#linear-gradient-101);}.cls-105{fill:url(#linear-gradient-102);}.cls-106{fill:url(#linear-gradient-103);}.cls-107{fill:url(#linear-gradient-104);}.cls-108{fill:url(#linear-gradient-105);}.cls-109{fill:url(#linear-gradient-106);}.cls-110{fill:url(#linear-gradient-107);}.cls-111{fill:url(#linear-gradient-108);}.cls-112{fill:url(#linear-gradient-109);}.cls-113{fill:url(#linear-gradient-110);}.cls-114{fill:url(#linear-gradient-111);}.cls-115{fill:url(#linear-gradient-112);}.cls-116{fill:url(#linear-gradient-113);}.cls-117{fill:url(#linear-gradient-114);}.cls-118{fill:url(#linear-gradient-115);}.cls-119{fill:url(#linear-gradient-116);}.cls-120{fill:url(#linear-gradient-117);}.cls-121{fill:url(#linear-gradient-118);}.cls-122{fill:url(#linear-gradient-119);}.cls-123{fill:url(#linear-gradient-120);}.cls-124{fill:url(#linear-gradient-121);}.cls-125{fill:url(#linear-gradient-122);}.cls-126{fill:url(#linear-gradient-123);}.cls-127{fill:url(#linear-gradient-124);}.cls-128{fill:url(#linear-gradient-125);}.cls-129{fill:url(#linear-gradient-126);}.cls-130{fill:url(#linear-gradient-127);}.cls-131,.cls-132{fill:none;stroke-miterlimit:10;}.cls-131{stroke:url(#linear-gradient-128);}.cls-132{stroke:url(#linear-gradient-129);}</style><linearGradient id="linear-gradient" x1="101.57" y1="58.15" x2="359.91" y2="238.84" gradientUnits="userSpaceOnUse"><stop offset="0" stop-color="#fff" stop-opacity="0"/><stop offset="1" stop-color="#a4b3e1"/></linearGradient><linearGradient id="linear-gradient-2" x1="579.98" y1="37.06" x2="524.92" y2="229.05" xlink:href="#linear-gradient"/><linearGradient id="linear-gradient-3" x1="472.12" y1="356.25" x2="472.12" y2="262.15" gradientUnits="userSpaceOnUse"><stop offset="0" stop-color="#fff"/><stop offset="1" stop-color="#3e60c4"/></linearGradient><linearGradient id="linear-gradient-4" x1="379.01" y1="454.3" x2="379.01" y2="237.11" xlink:href="#linear-gradient-3"/><linearGradient id="linear-gradient-5" x1="570.07" y1="151.53" x2="372.54" y2="276.45" gradientUnits="userSpaceOnUse"><stop offset="0" stop-color="#3e60c4"/><stop offset="1" stop-color="#3e0dc4"/></linearGradient><linearGradient id="linear-gradient-6" x1="1405.19" y1="83.63" x2="1695.28" y2="213.14" gradientTransform="matrix(-1, 0, 0, 1, 1978, 0)" xlink:href="#linear-gradient-5"/><linearGradient id="linear-gradient-7" x1="1502.3" y1="169.75" x2="1686.17" y2="169.75" gradientTransform="matrix(-1, 0, 0, 1, 1978, 0)" xlink:href="#linear-gradient-3"/><linearGradient id="linear-gradient-8" x1="1446.39" y1="201.66" x2="1630.25" y2="201.66" gradientTransform="matrix(-1, 0, 0, 1, 1978, 0)" xlink:href="#linear-gradient-3"/><linearGradient id="linear-gradient-9" x1="105.67" y1="479.04" x2="235.89" y2="326.04" gradientUnits="userSpaceOnUse"><stop offset="0" stop-color="#fff" stop-opacity="0"/><stop offset="1" stop-color="#0042ff"/></linearGradient><linearGradient id="linear-gradient-10" x1="183.68" y1="186.31" x2="254.99" y2="281.39" xlink:href="#linear-gradient-3"/><linearGradient id="linear-gradient-11" x1="69.43" y1="399.45" x2="348.02" y2="399.45" xlink:href="#linear-gradient-3"/><linearGradient id="linear-gradient-12" x1="190.72" y1="151.08" x2="279.94" y2="334.32" xlink:href="#linear-gradient-3"/><linearGradient id="linear-gradient-13" x1="262.58" y1="521.55" x2="262.58" y2="224.61" gradientUnits="userSpaceOnUse"><stop offset="0" stop-color="#3e60c4"/><stop offset="1" stop-color="#00caff"/></linearGradient><linearGradient id="linear-gradient-14" x1="169.23" y1="387.04" x2="187.63" y2="479.32" xlink:href="#linear-gradient-3"/><linearGradient id="linear-gradient-15" x1="125.2" y1="405" x2="223.66" y2="405" xlink:href="#linear-gradient-5"/><linearGradient id="linear-gradient-16" x1="124.83" y1="382.69" x2="327.6" y2="382.69" xlink:href="#linear-gradient-3"/><linearGradient id="linear-gradient-17" x1="177.99" y1="327.18" x2="269.81" y2="447" xlink:href="#linear-gradient-5"/><linearGradient id="linear-gradient-18" x1="181.19" y1="324.72" x2="273.01" y2="444.55" xlink:href="#linear-gradient-5"/><linearGradient id="linear-gradient-19" x1="184.39" y1="322.28" x2="276.21" y2="442.1" xlink:href="#linear-gradient-5"/><linearGradient id="linear-gradient-20" x1="187.78" y1="319.67" x2="279.6" y2="439.5" xlink:href="#linear-gradient-5"/><linearGradient id="linear-gradient-21" x1="191.23" y1="317.03" x2="283.05" y2="436.85" xlink:href="#linear-gradient-5"/><linearGradient id="linear-gradient-22" x1="194.44" y1="314.57" x2="286.26" y2="434.4" xlink:href="#linear-gradient-5"/><linearGradient id="linear-gradient-23" x1="197.63" y1="312.13" x2="289.45" y2="431.95" xlink:href="#linear-gradient-5"/><linearGradient id="linear-gradient-24" x1="201.03" y1="309.52" x2="292.85" y2="429.35" xlink:href="#linear-gradient-5"/><linearGradient id="linear-gradient-25" x1="204.46" y1="306.9" x2="296.27" y2="426.72" xlink:href="#linear-gradient-5"/><linearGradient id="linear-gradient-26" x1="207.66" y1="304.44" x2="299.48" y2="424.27" xlink:href="#linear-gradient-5"/><linearGradient id="linear-gradient-27" x1="210.85" y1="301.99" x2="302.67" y2="421.82" xlink:href="#linear-gradient-5"/><linearGradient id="linear-gradient-28" x1="214.25" y1="299.39" x2="306.07" y2="419.22" xlink:href="#linear-gradient-5"/><linearGradient id="linear-gradient-29" x1="217.7" y1="296.75" x2="309.52" y2="416.57" xlink:href="#linear-gradient-5"/><linearGradient id="linear-gradient-30" x1="220.91" y1="294.29" x2="312.73" y2="414.12" xlink:href="#linear-gradient-5"/><linearGradient id="linear-gradient-31" x1="224.1" y1="291.85" x2="315.92" y2="411.67" xlink:href="#linear-gradient-5"/><linearGradient id="linear-gradient-32" x1="165.78" y1="336.53" x2="257.6" y2="456.36" xlink:href="#linear-gradient-5"/><linearGradient id="linear-gradient-33" x1="168.99" y1="334.07" x2="260.81" y2="453.9" xlink:href="#linear-gradient-5"/><linearGradient id="linear-gradient-34" x1="172.18" y1="331.63" x2="264" y2="451.45" xlink:href="#linear-gradient-5"/><linearGradient id="linear-gradient-35" x1="175.58" y1="329.03" x2="267.4" y2="448.85" xlink:href="#linear-gradient-5"/><linearGradient id="linear-gradient-36" x1="179.03" y1="326.38" x2="270.85" y2="446.2" xlink:href="#linear-gradient-5"/><linearGradient id="linear-gradient-37" x1="182.24" y1="323.92" x2="274.06" y2="443.75" xlink:href="#linear-gradient-5"/><linearGradient id="linear-gradient-38" x1="185.43" y1="321.48" x2="277.25" y2="441.3" xlink:href="#linear-gradient-5"/><linearGradient id="linear-gradient-39" x1="188.83" y1="318.88" x2="280.64" y2="438.7" xlink:href="#linear-gradient-5"/><linearGradient id="linear-gradient-40" x1="192.25" y1="316.25" x2="284.07" y2="436.07" xlink:href="#linear-gradient-5"/><linearGradient id="linear-gradient-41" x1="195.46" y1="313.79" x2="287.28" y2="433.62" xlink:href="#linear-gradient-5"/><linearGradient id="linear-gradient-42" x1="198.65" y1="311.35" x2="290.47" y2="431.17" xlink:href="#linear-gradient-5"/><linearGradient id="linear-gradient-43" x1="202.05" y1="308.74" x2="293.86" y2="428.57" xlink:href="#linear-gradient-5"/><linearGradient id="linear-gradient-44" x1="205.5" y1="306.1" x2="297.32" y2="425.92" xlink:href="#linear-gradient-5"/><linearGradient id="linear-gradient-45" x1="208.7" y1="303.64" x2="300.52" y2="423.47" xlink:href="#linear-gradient-5"/><linearGradient id="linear-gradient-46" x1="211.9" y1="301.2" x2="303.72" y2="421.02" xlink:href="#linear-gradient-5"/><linearGradient id="linear-gradient-47" x1="157.65" y1="342.76" x2="249.47" y2="462.59" xlink:href="#linear-gradient-5"/><linearGradient id="linear-gradient-48" x1="163.39" y1="338.36" x2="255.21" y2="458.19" xlink:href="#linear-gradient-5"/><linearGradient id="linear-gradient-49" x1="166.79" y1="335.76" x2="258.61" y2="455.59" xlink:href="#linear-gradient-5"/><linearGradient id="linear-gradient-50" x1="170.24" y1="333.12" x2="262.06" y2="452.94" xlink:href="#linear-gradient-5"/><linearGradient id="linear-gradient-51" x1="173.45" y1="330.66" x2="265.27" y2="450.48" xlink:href="#linear-gradient-5"/><linearGradient id="linear-gradient-52" x1="176.64" y1="328.21" x2="268.46" y2="448.04" xlink:href="#linear-gradient-5"/><linearGradient id="linear-gradient-53" x1="180.04" y1="325.61" x2="271.85" y2="445.44" xlink:href="#linear-gradient-5"/><linearGradient id="linear-gradient-54" x1="183.46" y1="322.98" x2="275.28" y2="442.81" xlink:href="#linear-gradient-5"/><linearGradient id="linear-gradient-55" x1="186.67" y1="320.53" x2="278.49" y2="440.35" xlink:href="#linear-gradient-5"/><linearGradient id="linear-gradient-56" x1="189.86" y1="318.08" x2="281.68" y2="437.91" xlink:href="#linear-gradient-5"/><linearGradient id="linear-gradient-57" x1="193.26" y1="315.48" x2="285.08" y2="435.3" xlink:href="#linear-gradient-5"/><linearGradient id="linear-gradient-58" x1="196.71" y1="312.83" x2="288.53" y2="432.66" xlink:href="#linear-gradient-5"/><linearGradient id="linear-gradient-59" x1="154.59" y1="345.11" x2="246.41" y2="464.93" xlink:href="#linear-gradient-5"/><linearGradient id="linear-gradient-60" x1="157.99" y1="342.51" x2="249.81" y2="462.33" xlink:href="#linear-gradient-5"/><linearGradient id="linear-gradient-61" x1="161.44" y1="339.86" x2="253.26" y2="459.69" xlink:href="#linear-gradient-5"/><linearGradient id="linear-gradient-62" x1="164.64" y1="337.4" x2="256.46" y2="457.23" xlink:href="#linear-gradient-5"/><linearGradient id="linear-gradient-63" x1="167.84" y1="334.96" x2="259.66" y2="454.78" xlink:href="#linear-gradient-5"/><linearGradient id="linear-gradient-64" x1="171.23" y1="332.35" x2="263.05" y2="452.18" xlink:href="#linear-gradient-5"/><linearGradient id="linear-gradient-65" x1="174.66" y1="329.73" x2="266.48" y2="449.56" xlink:href="#linear-gradient-5"/><linearGradient id="linear-gradient-66" x1="177.87" y1="327.27" x2="269.68" y2="447.1" xlink:href="#linear-gradient-5"/><linearGradient id="linear-gradient-67" x1="181.06" y1="324.83" x2="272.88" y2="444.65" xlink:href="#linear-gradient-5"/><linearGradient id="linear-gradient-68" x1="184.45" y1="322.22" x2="276.27" y2="442.05" xlink:href="#linear-gradient-5"/><linearGradient id="linear-gradient-69" x1="191.11" y1="317.12" x2="282.93" y2="436.95" xlink:href="#linear-gradient-5"/><linearGradient id="linear-gradient-70" x1="139.83" y1="356.42" x2="231.65" y2="476.24" xlink:href="#linear-gradient-5"/><linearGradient id="linear-gradient-71" x1="143.04" y1="353.96" x2="234.86" y2="473.78" xlink:href="#linear-gradient-5"/><linearGradient id="linear-gradient-72" x1="146.23" y1="351.51" x2="238.05" y2="471.34" xlink:href="#linear-gradient-5"/><linearGradient id="linear-gradient-73" x1="169.51" y1="333.68" x2="261.33" y2="453.5" xlink:href="#linear-gradient-5"/><linearGradient id="linear-gradient-74" x1="172.7" y1="331.23" x2="264.52" y2="451.06" xlink:href="#linear-gradient-5"/><linearGradient id="linear-gradient-75" x1="176.1" y1="328.63" x2="267.91" y2="448.45" xlink:href="#linear-gradient-5"/><linearGradient id="linear-gradient-76" x1="179.55" y1="325.98" x2="271.37" y2="445.81" xlink:href="#linear-gradient-5"/><linearGradient id="linear-gradient-77" x1="182.75" y1="323.53" x2="274.57" y2="443.35" xlink:href="#linear-gradient-5"/><linearGradient id="linear-gradient-78" x1="185.95" y1="321.08" x2="277.77" y2="440.91" xlink:href="#linear-gradient-5"/><linearGradient id="linear-gradient-79" x1="157.97" y1="342.52" x2="249.78" y2="462.35" xlink:href="#linear-gradient-5"/><linearGradient id="linear-gradient-80" x1="201.51" y1="309.15" x2="293.33" y2="428.98" xlink:href="#linear-gradient-5"/><linearGradient id="linear-gradient-81" x1="149.8" y1="348.78" x2="241.61" y2="468.61" xlink:href="#linear-gradient-5"/><linearGradient id="linear-gradient-82" x1="416.18" y1="273.32" x2="481.72" y2="193.83" xlink:href="#linear-gradient-9"/><linearGradient id="linear-gradient-83" x1="401.41" y1="231.42" x2="474.95" y2="231.42" gradientUnits="userSpaceOnUse"><stop offset="0" stop-color="#f8d247"/><stop offset="1" stop-color="#f83d47"/></linearGradient><linearGradient id="linear-gradient-84" x1="420.53" y1="209.85" x2="508.04" y2="292.2" xlink:href="#linear-gradient-83"/><linearGradient id="linear-gradient-85" x1="412.56" y1="220.95" x2="464" y2="220.95" xlink:href="#linear-gradient-83"/><linearGradient id="linear-gradient-86" x1="401.41" y1="223.38" x2="474.95" y2="223.38" xlink:href="#linear-gradient-83"/><linearGradient id="linear-gradient-87" x1="420.53" y1="201.81" x2="508.04" y2="284.17" xlink:href="#linear-gradient-83"/><linearGradient id="linear-gradient-88" x1="412.56" y1="212.92" x2="464" y2="212.92" xlink:href="#linear-gradient-83"/><linearGradient id="linear-gradient-89" x1="443.35" y1="233.18" x2="500.89" y2="233.18" gradientTransform="translate(357.51 -280.76) rotate(51.14)" xlink:href="#linear-gradient-83"/><linearGradient id="linear-gradient-90" x1="454.78" y1="229.66" x2="495.13" y2="229.66" gradientTransform="translate(355.83 -284.28) rotate(51.14)" xlink:href="#linear-gradient-83"/><linearGradient id="linear-gradient-91" x1="468.39" y1="196.66" x2="473.31" y2="217.94" xlink:href="#linear-gradient-83"/><linearGradient id="linear-gradient-92" x1="312.19" y1="177.46" x2="375.36" y2="100.84" xlink:href="#linear-gradient-9"/><linearGradient id="linear-gradient-93" x1="295.31" y1="136.75" x2="368.85" y2="136.75" xlink:href="#linear-gradient-83"/><linearGradient id="linear-gradient-94" x1="314.43" y1="115.18" x2="401.94" y2="197.53" gradientTransform="translate(451.3 -205.08) rotate(87.81)" xlink:href="#linear-gradient-83"/><linearGradient id="linear-gradient-95" x1="306.46" y1="126.28" x2="357.9" y2="126.28" xlink:href="#linear-gradient-83"/><linearGradient id="linear-gradient-96" x1="295.31" y1="128.72" x2="368.85" y2="128.72" xlink:href="#linear-gradient-83"/><linearGradient id="linear-gradient-97" x1="314.43" y1="107.14" x2="401.94" y2="189.5" gradientTransform="translate(443.27 -212.81) rotate(87.81)" xlink:href="#linear-gradient-83"/><linearGradient id="linear-gradient-98" x1="306.46" y1="118.25" x2="357.9" y2="118.25" xlink:href="#linear-gradient-83"/><linearGradient id="linear-gradient-99" x1="295.31" y1="120.01" x2="368.85" y2="120.01" xlink:href="#linear-gradient-83"/><linearGradient id="linear-gradient-100" x1="314.43" y1="98.43" x2="401.94" y2="180.79" gradientTransform="translate(434.56 -221.19) rotate(87.81)" xlink:href="#linear-gradient-83"/><linearGradient id="linear-gradient-101" x1="306.46" y1="109.54" x2="357.9" y2="109.54" xlink:href="#linear-gradient-83"/><linearGradient id="linear-gradient-102" x1="295.31" y1="111.97" x2="368.85" y2="111.97" xlink:href="#linear-gradient-83"/><linearGradient id="linear-gradient-103" x1="314.43" y1="90.4" x2="401.94" y2="172.75" xlink:href="#linear-gradient-83"/><linearGradient id="linear-gradient-104" x1="306.46" y1="101.5" x2="357.9" y2="101.5" xlink:href="#linear-gradient-83"/><linearGradient id="linear-gradient-105" x1="-207.32" y1="554.47" x2="-149.78" y2="554.47" gradientTransform="translate(713.76 -336.15) rotate(18.28)" xlink:href="#linear-gradient-83"/><linearGradient id="linear-gradient-106" x1="-195.89" y1="550.96" x2="-155.54" y2="550.96" gradientTransform="translate(713.76 -336.15) rotate(18.28)" xlink:href="#linear-gradient-83"/><linearGradient id="linear-gradient-107" x1="-182.28" y1="517.95" x2="-177.36" y2="539.24" gradientTransform="translate(713.76 -336.15) rotate(18.28)" xlink:href="#linear-gradient-83"/><linearGradient id="linear-gradient-108" x1="399.04" y1="302.29" x2="534.53" y2="341" xlink:href="#linear-gradient-3"/><linearGradient id="linear-gradient-109" x1="401.89" y1="300.59" x2="580.26" y2="356.85" gradientTransform="translate(714.26 -127.37) rotate(87.81)" xlink:href="#linear-gradient-3"/><linearGradient id="linear-gradient-110" x1="401.89" y1="300.59" x2="580.26" y2="356.85" gradientTransform="translate(714.26 -127.37) rotate(87.81)" xlink:href="#linear-gradient-3"/><linearGradient id="linear-gradient-111" x1="404.64" y1="300.16" x2="485.23" y2="325.4" xlink:href="#linear-gradient-3"/><linearGradient id="linear-gradient-112" x1="347.43" y1="334.96" x2="482.93" y2="373.67" xlink:href="#linear-gradient-3"/><linearGradient id="linear-gradient-113" x1="350.29" y1="333.26" x2="528.65" y2="389.52" gradientTransform="translate(697.27 -44.37) rotate(87.81)" xlink:href="#linear-gradient-3"/><linearGradient id="linear-gradient-114" x1="350.29" y1="333.26" x2="528.65" y2="389.52" gradientTransform="translate(697.27 -44.37) rotate(87.81)" xlink:href="#linear-gradient-3"/><linearGradient id="linear-gradient-115" x1="353.03" y1="332.84" x2="433.62" y2="358.07" xlink:href="#linear-gradient-3"/><linearGradient id="linear-gradient-116" x1="449.66" y1="325.33" x2="585.15" y2="364.04" xlink:href="#linear-gradient-3"/><linearGradient id="linear-gradient-117" x1="452.51" y1="323.63" x2="630.88" y2="379.89" gradientTransform="translate(785.97 -155.79) rotate(87.81)" xlink:href="#linear-gradient-3"/><linearGradient id="linear-gradient-118" x1="452.51" y1="323.63" x2="630.88" y2="379.89" gradientTransform="translate(785.97 -155.79) rotate(87.81)" xlink:href="#linear-gradient-3"/><linearGradient id="linear-gradient-119" x1="455.26" y1="323.21" x2="535.85" y2="348.44" xlink:href="#linear-gradient-3"/><linearGradient id="linear-gradient-120" x1="461.51" y1="285.27" x2="597" y2="323.99" xlink:href="#linear-gradient-3"/><linearGradient id="linear-gradient-121" x1="464.36" y1="283.57" x2="642.73" y2="339.83" gradientTransform="translate(757.34 -206.16) rotate(87.81)" xlink:href="#linear-gradient-3"/><linearGradient id="linear-gradient-122" x1="464.36" y1="283.57" x2="642.73" y2="339.83" gradientTransform="translate(757.34 -206.16) rotate(87.81)" xlink:href="#linear-gradient-3"/><linearGradient id="linear-gradient-123" x1="467.1" y1="283.15" x2="547.7" y2="308.38" xlink:href="#linear-gradient-3"/><linearGradient id="linear-gradient-124" x1="439.61" y1="465.56" x2="541.54" y2="345.78" xlink:href="#linear-gradient-9"/><linearGradient id="linear-gradient-125" x1="614.97" y1="147.14" x2="557.2" y2="282.43" xlink:href="#linear-gradient-3"/><linearGradient id="linear-gradient-126" x1="576.31" y1="247.57" x2="494.68" y2="457.06" xlink:href="#linear-gradient-5"/><linearGradient id="linear-gradient-127" x1="547.13" y1="521.55" x2="547.13" y2="224.61" xlink:href="#linear-gradient-13"/><linearGradient id="linear-gradient-128" x1="28.29" y1="1038.02" x2="106.56" y2="1092.77" gradientTransform="matrix(0.87, 0.5, 0, 1.15, 200.99, -961.32)" xlink:href="#linear-gradient-5"/><linearGradient id="linear-gradient-129" x1="362.17" y1="-50.97" x2="422.22" y2="-50.97" gradientTransform="matrix(0.87, -0.5, 0, 1.15, 208.63, 588.06)" xlink:href="#linear-gradient-5"/></defs><g id="Layer_2" data-name="Layer 2"><g id="Layer_1-2" data-name="Layer 1"><polygon class="cls-1" points="335.83 225.44 180.69 134.73 211.78 118.7 79.41 41.23 81.11 38.32 218.78 118.88 187.68 134.92 337.54 222.53 335.83 225.44"/><polygon class="cls-2" points="485.34 247.7 483.67 244.76 619.98 167.17 481.09 88.52 636.4 0 638.07 2.93 487.92 88.51 626.81 167.16 485.34 247.7"/><polygon class="cls-3" points="506.98 356.25 440.71 317.99 481.56 294.4 434.42 267.06 437.27 262.15 492.89 294.42 452.05 317.99 509.82 351.34 506.98 356.25"/><polygon class="cls-4" points="330.29 369.8 327.42 364.91 419.34 310.89 352.48 272.29 401.56 245.53 404.27 250.51 364.07 272.43 430.61 310.85 330.29 369.8"/><path class="cls-5" d="M358.23,238.19v5l7.23-4.18c32.34,18.68,84.81,18.77,117,.22,27.75-16,31.4-40.79,11.06-59.28l-17.86,10.32-.18-32.44,31.37.06v-11h24.81v11H516.15l15.46,0-20.09,11.59c9.23,7.5,15.25,15.91,18.09,24.59h1.9v13h0c-.55,15.43-10.94,30.73-31.23,42.45-41.92,24.2-110.32,24.07-152.5-.28V238.19Z"/><path class="cls-6" d="M311.92,224c-13.64-11.08-20.28-24.15-20-37.14v-11.7h2.18c4.08-11.44,13.76-22.31,29.06-31.15,35.7-20.61,90.62-23.56,132.18-8.94v-1.84h20.31v11.06L458,154.5c-32.35-18.67-84.81-18.76-117-.21-27.75,16-31.4,40.79-11.07,59.27l17.87-10.31.17,32.43-56.17-.1V224.52Z"/><path class="cls-7" d="M323.2,132.94c-37.55,21.68-41.26,55.64-11.28,80l-20.09,11.59,56.17.1-.17-32.43L330,202.51C309.63,184,313.28,159.26,341,143.23c32.14-18.55,84.6-18.46,117,.21l17.71-10.22C433.52,108.87,365.11,108.74,323.2,132.94Z"/><path class="cls-8" d="M511.52,158.48l20.09-11.59-56.18-.1.18,32.43,17.86-10.31c20.34,18.48,16.69,43.24-11.06,59.27-32.14,18.55-84.61,18.46-117-.21l-17.72,10.22c42.18,24.35,110.58,24.48,152.5.28C537.79,216.79,541.49,182.83,511.52,158.48Z"/><polygon class="cls-9" points="266.14 464.33 163.39 523.63 0 429.36 103.12 369.86 266.14 464.33"/><path class="cls-10" d="M347.15,278.84l-158.53-91a4.4,4.4,0,0,0-4.33-.06h0l0,0c-.13.07-.25.15-.37.23l-3.54,2.2,1.58,2.09V310.6l160,92.15,6.1,8,3.61-2.43V286.57A8.92,8.92,0,0,0,347.15,278.84Z"/><path class="cls-11" d="M334.46,409.18,178.29,319,74.84,378.8l-5.41-.63v6.24a4.27,4.27,0,0,0,2.16,3.73L226.71,477.7a16.31,16.31,0,0,0,16.3,0L348,417v-6.24Z"/><path class="cls-12" d="M178.29,194V312.87L348,410.6V288.83a8.89,8.89,0,0,0-4.48-7.72L185,190.1A4.47,4.47,0,0,0,178.29,194Z"/><polygon class="cls-13" points="181.42 193.13 181.42 310.85 343.75 404.54 343.75 286.52 181.42 193.13"/><path class="cls-14" d="M340,406.16,178.29,312.77,71.59,374.44a4.3,4.3,0,0,0,0,7.46l155.12,89.56a16.31,16.31,0,0,0,16.3,0l105-60.69Z"/><path class="cls-15" d="M222,422l-62.2-35.79a11.67,11.67,0,0,0-11.67,0l-21.26,12.31a3.42,3.42,0,0,0-1.43,4.31,3.34,3.34,0,0,0,1.43,1.65l62.48,36a10.45,10.45,0,0,0,10.43,0L222,427.7a3.24,3.24,0,0,0,1.37-1.55A3.3,3.3,0,0,0,222,422Z"/><path class="cls-16" d="M126.89,399.68l21.26-12.3a11.67,11.67,0,0,1,11.67,0L222,423.14a3.2,3.2,0,0,1,1.58,2.26A3.26,3.26,0,0,0,222,422l-62.2-35.79a11.67,11.67,0,0,0-11.67,0l-21.26,12.31a3.37,3.37,0,0,0-1.64,3.55A3.35,3.35,0,0,1,126.89,399.68Z"/><path class="cls-17" d="M325.47,407.08,182.21,324.26a8.09,8.09,0,0,0-8.1,0l-47.74,27.8a3.12,3.12,0,0,0,0,5.39l144.8,83.65a8.1,8.1,0,0,0,8.11,0l46.18-26.66A4.26,4.26,0,0,0,325.47,407.08Z"/><path class="cls-18" d="M180.8,327.61l-6.11,3.53a.53.53,0,0,0,0,.91l5.92,3.42a1.69,1.69,0,0,0,1.71,0l5.85-3.37a.47.47,0,0,0,0-.81l-6.06-3.66A1.3,1.3,0,0,0,180.8,327.61Z"/><path class="cls-19" d="M190.17,333.2l-6.11,3.53a.53.53,0,0,0,0,.91l5.93,3.42a1.67,1.67,0,0,0,1.7,0l5.85-3.37a.47.47,0,0,0,0-.81l-6.06-3.66A1.3,1.3,0,0,0,190.17,333.2Z"/><path class="cls-20" d="M199.47,338.72l-6.11,3.53a.53.53,0,0,0,0,.91l5.92,3.42a1.69,1.69,0,0,0,1.71,0l5.85-3.38a.47.47,0,0,0,0-.81l-6.06-3.66A1.3,1.3,0,0,0,199.47,338.72Z"/><path class="cls-21" d="M209.15,344.31,203,347.84a.53.53,0,0,0,0,.92l5.93,3.41a1.67,1.67,0,0,0,1.7,0l5.85-3.37a.47.47,0,0,0,0-.81l-6.05-3.66A1.3,1.3,0,0,0,209.15,344.31Z"/><path class="cls-22" d="M218.74,349.69l-6.11,3.53a.53.53,0,0,0,0,.91l5.93,3.42a1.67,1.67,0,0,0,1.7,0l5.85-3.38a.47.47,0,0,0,0-.81l-6.06-3.66A1.32,1.32,0,0,0,218.74,349.69Z"/><path class="cls-23" d="M228.12,355.28,222,358.81a.52.52,0,0,0,0,.91l5.92,3.42a1.67,1.67,0,0,0,1.7,0l5.85-3.37a.48.48,0,0,0,0-.82l-6.05-3.65A1.3,1.3,0,0,0,228.12,355.28Z"/><path class="cls-24" d="M237.41,360.8l-6.11,3.53a.53.53,0,0,0,0,.91l5.92,3.42a1.69,1.69,0,0,0,1.71,0l5.85-3.38a.47.47,0,0,0,0-.81l-6.06-3.66A1.3,1.3,0,0,0,237.41,360.8Z"/><path class="cls-25" d="M247.09,366.39,241,369.92a.53.53,0,0,0,0,.91l5.92,3.42a1.69,1.69,0,0,0,1.71,0l5.85-3.37a.47.47,0,0,0,0-.81l-6.05-3.66A1.3,1.3,0,0,0,247.09,366.39Z"/><path class="cls-26" d="M256.79,372l-6.11,3.53a.53.53,0,0,0,0,.92l5.92,3.41a1.69,1.69,0,0,0,1.71,0l5.85-3.37a.47.47,0,0,0,0-.81L258.11,372A1.3,1.3,0,0,0,256.79,372Z"/><path class="cls-27" d="M266.16,377.54l-6.11,3.53a.53.53,0,0,0,0,.92l5.92,3.42a1.74,1.74,0,0,0,1.71,0l5.85-3.38a.47.47,0,0,0,0-.81l-6.06-3.66A1.3,1.3,0,0,0,266.16,377.54Z"/><path class="cls-28" d="M275.46,383.06l-6.11,3.53a.52.52,0,0,0,0,.91l5.92,3.42a1.67,1.67,0,0,0,1.7,0l5.85-3.37a.48.48,0,0,0,0-.82l-6.05-3.65A1.3,1.3,0,0,0,275.46,383.06Z"/><path class="cls-29" d="M285.13,388.66,279,392.18a.53.53,0,0,0,0,.92l5.92,3.42a1.74,1.74,0,0,0,1.71,0l5.85-3.38a.47.47,0,0,0,0-.81l-6.06-3.66A1.28,1.28,0,0,0,285.13,388.66Z"/><path class="cls-30" d="M294.73,394l-6.11,3.53a.53.53,0,0,0,0,.91l5.92,3.42a1.69,1.69,0,0,0,1.71,0l5.85-3.37a.47.47,0,0,0,0-.81l-6.06-3.66A1.3,1.3,0,0,0,294.73,394Z"/><path class="cls-31" d="M304.1,399.62,298,403.15a.53.53,0,0,0,0,.92l5.92,3.41a1.69,1.69,0,0,0,1.71,0l5.85-3.37a.47.47,0,0,0,0-.81l-6.06-3.66A1.3,1.3,0,0,0,304.1,399.62Z"/><path class="cls-32" d="M313.4,405.14l-6.11,3.53a.53.53,0,0,0,0,.91l5.92,3.42a1.69,1.69,0,0,0,1.71,0l5.85-3.38a.47.47,0,0,0,0-.81l-6-3.66A1.32,1.32,0,0,0,313.4,405.14Z"/><path class="cls-33" d="M166.82,334.65l-6.11,3.53a.53.53,0,0,0,0,.91l5.92,3.42a1.74,1.74,0,0,0,1.71,0l5.85-3.38a.47.47,0,0,0,0-.81l-6.06-3.66A1.3,1.3,0,0,0,166.82,334.65Z"/><path class="cls-34" d="M176.2,340.24l-6.11,3.53a.52.52,0,0,0,0,.91L176,348.1a1.72,1.72,0,0,0,1.7,0l5.85-3.38a.47.47,0,0,0,0-.81l-6-3.66A1.3,1.3,0,0,0,176.2,340.24Z"/><path class="cls-35" d="M185.49,345.76l-6.11,3.53a.53.53,0,0,0,0,.91l5.92,3.42a1.74,1.74,0,0,0,1.71,0l5.85-3.38a.47.47,0,0,0,0-.81l-6.06-3.66A1.3,1.3,0,0,0,185.49,345.76Z"/><path class="cls-36" d="M195.17,351.35l-6.11,3.53a.52.52,0,0,0,0,.91l5.92,3.42a1.69,1.69,0,0,0,1.71,0l5.85-3.38a.47.47,0,0,0,0-.81l-6-3.66A1.3,1.3,0,0,0,195.17,351.35Z"/><path class="cls-37" d="M204.77,356.73l-6.11,3.53a.52.52,0,0,0,0,.91l5.92,3.42a1.72,1.72,0,0,0,1.7,0l5.85-3.38a.47.47,0,0,0,0-.81l-6-3.66A1.3,1.3,0,0,0,204.77,356.73Z"/><path class="cls-38" d="M214.14,362.32,208,365.85a.53.53,0,0,0,0,.91l5.92,3.42a1.74,1.74,0,0,0,1.71,0l5.85-3.38a.47.47,0,0,0,0-.81l-6-3.66A1.3,1.3,0,0,0,214.14,362.32Z"/><path class="cls-39" d="M223.44,367.84l-6.12,3.52a.53.53,0,0,0,0,.92l5.93,3.42a1.72,1.72,0,0,0,1.7,0l5.85-3.38a.47.47,0,0,0,0-.81l-6.05-3.66A1.28,1.28,0,0,0,223.44,367.84Z"/><path class="cls-40" d="M233.11,373.43,227,377a.53.53,0,0,0,0,.91l5.92,3.42a1.74,1.74,0,0,0,1.71,0l5.85-3.38a.47.47,0,0,0,0-.81l-6.06-3.66A1.3,1.3,0,0,0,233.11,373.43Z"/><path class="cls-41" d="M242.81,379l-6.11,3.53a.53.53,0,0,0,0,.91l5.92,3.42a1.69,1.69,0,0,0,1.71,0l5.85-3.38a.47.47,0,0,0,0-.81L244.13,379A1.3,1.3,0,0,0,242.81,379Z"/><path class="cls-42" d="M252.18,384.58l-6.11,3.53a.53.53,0,0,0,0,.91l5.92,3.42a1.69,1.69,0,0,0,1.71,0l5.85-3.38a.47.47,0,0,0,0-.81l-6.06-3.66A1.3,1.3,0,0,0,252.18,384.58Z"/><path class="cls-43" d="M261.48,390.1l-6.11,3.53a.53.53,0,0,0,0,.91l5.92,3.42a1.74,1.74,0,0,0,1.71,0l5.85-3.38a.47.47,0,0,0,0-.81l-6.05-3.66A1.3,1.3,0,0,0,261.48,390.1Z"/><path class="cls-44" d="M271.15,395.69,265,399.22a.53.53,0,0,0,0,.91l5.92,3.42a1.69,1.69,0,0,0,1.71,0l5.85-3.38a.47.47,0,0,0,0-.81l-6.06-3.65A1.3,1.3,0,0,0,271.15,395.69Z"/><path class="cls-45" d="M280.75,401.07l-6.11,3.53a.53.53,0,0,0,0,.91l5.92,3.42a1.69,1.69,0,0,0,1.71,0l5.85-3.38a.47.47,0,0,0,0-.81l-6.06-3.66A1.3,1.3,0,0,0,280.75,401.07Z"/><path class="cls-46" d="M290.12,406.66,284,410.19a.53.53,0,0,0,0,.91l5.92,3.42a1.69,1.69,0,0,0,1.71,0l5.85-3.38a.47.47,0,0,0,0-.81l-6.06-3.66A1.3,1.3,0,0,0,290.12,406.66Z"/><path class="cls-47" d="M299.42,412.18l-6.11,3.53a.53.53,0,0,0,0,.91l5.92,3.42a1.74,1.74,0,0,0,1.71,0l5.85-3.38a.47.47,0,0,0,0-.81l-6.06-3.66A1.3,1.3,0,0,0,299.42,412.18Z"/><path class="cls-48" d="M168.3,346.11l-6.05-3.66c-.07,0-.15,0-.22-.06l-3.56-2.15a1.28,1.28,0,0,0-1.32,0L151,343.75a.53.53,0,0,0,0,.92l3.75,2.16s0,0,0,.05l5.92,3.42a1.67,1.67,0,0,0,1.7,0l5.85-3.38A.47.47,0,0,0,168.3,346.11Z"/><path class="cls-49" d="M175.82,351.33l-6.11,3.53a.53.53,0,0,0,0,.92l5.92,3.41a1.67,1.67,0,0,0,1.7,0l5.85-3.37a.47.47,0,0,0,0-.81l-6.05-3.66A1.3,1.3,0,0,0,175.82,351.33Z"/><path class="cls-50" d="M185.49,356.93l-6.11,3.53a.53.53,0,0,0,0,.91l5.92,3.42a1.74,1.74,0,0,0,1.71,0l5.85-3.38a.47.47,0,0,0,0-.81l-6.06-3.66A1.3,1.3,0,0,0,185.49,356.93Z"/><path class="cls-51" d="M195.09,362.31,189,365.83a.53.53,0,0,0,0,.92l5.92,3.42a1.74,1.74,0,0,0,1.71,0l5.85-3.38a.47.47,0,0,0,0-.81l-6.06-3.66A1.28,1.28,0,0,0,195.09,362.31Z"/><path class="cls-52" d="M204.46,367.9l-6.11,3.52a.53.53,0,0,0,0,.92l5.92,3.42a1.74,1.74,0,0,0,1.71,0l5.85-3.38a.47.47,0,0,0,0-.81l-6.06-3.66A1.28,1.28,0,0,0,204.46,367.9Z"/><path class="cls-53" d="M213.76,373.41l-6.11,3.53a.53.53,0,0,0,0,.91l5.92,3.42a1.69,1.69,0,0,0,1.71,0l5.85-3.37a.47.47,0,0,0,0-.81l-6-3.66A1.3,1.3,0,0,0,213.76,373.41Z"/><path class="cls-54" d="M223.43,379l-6.11,3.52a.53.53,0,0,0,0,.92l5.92,3.42a1.74,1.74,0,0,0,1.71,0l5.85-3.38a.47.47,0,0,0,0-.81L224.75,379A1.3,1.3,0,0,0,223.43,379Z"/><path class="cls-55" d="M233.13,384.57,227,388.1a.53.53,0,0,0,0,.91l5.92,3.42a1.74,1.74,0,0,0,1.71,0l5.85-3.38a.47.47,0,0,0,0-.81l-6.06-3.66A1.3,1.3,0,0,0,233.13,384.57Z"/><path class="cls-56" d="M242.51,390.16l-6.12,3.53a.53.53,0,0,0,0,.91l5.93,3.42a1.72,1.72,0,0,0,1.7,0l5.85-3.38a.47.47,0,0,0,0-.81l-6-3.66A1.3,1.3,0,0,0,242.51,390.16Z"/><path class="cls-57" d="M251.8,395.68l-6.11,3.52a.53.53,0,0,0,0,.92l5.92,3.42a1.74,1.74,0,0,0,1.71,0l5.85-3.38a.47.47,0,0,0,0-.81l-6.06-3.66A1.28,1.28,0,0,0,251.8,395.68Z"/><path class="cls-58" d="M261.48,401.27l-6.11,3.53a.52.52,0,0,0,0,.91l5.92,3.42a1.72,1.72,0,0,0,1.7,0l5.85-3.38a.47.47,0,0,0,0-.81l-6.05-3.66A1.3,1.3,0,0,0,261.48,401.27Z"/><path class="cls-59" d="M271.08,406.65,265,410.17a.53.53,0,0,0,0,.92l5.93,3.42a1.72,1.72,0,0,0,1.7,0l5.85-3.38a.47.47,0,0,0,0-.81l-6.05-3.66A1.3,1.3,0,0,0,271.08,406.65Z"/><path class="cls-60" d="M166.13,356.92,160,360.45a.53.53,0,0,0,0,.92l5.92,3.42a1.74,1.74,0,0,0,1.71,0l5.85-3.38a.47.47,0,0,0,0-.81l-6.06-3.66A1.3,1.3,0,0,0,166.13,356.92Z"/><path class="cls-61" d="M175.8,362.52l-6.11,3.53a.53.53,0,0,0,0,.91l5.92,3.42a1.74,1.74,0,0,0,1.71,0l5.85-3.38a.47.47,0,0,0,0-.81l-6.06-3.66A1.3,1.3,0,0,0,175.8,362.52Z"/><path class="cls-62" d="M185.4,367.9l-6.11,3.52a.53.53,0,0,0,0,.92l5.92,3.42a1.74,1.74,0,0,0,1.71,0l5.85-3.38a.47.47,0,0,0,0-.81l-6.06-3.66A1.28,1.28,0,0,0,185.4,367.9Z"/><path class="cls-63" d="M194.78,373.49,188.66,377a.53.53,0,0,0,0,.92l5.93,3.42a1.72,1.72,0,0,0,1.7,0l5.85-3.38a.47.47,0,0,0,0-.81l-6.05-3.66A1.3,1.3,0,0,0,194.78,373.49Z"/><path class="cls-64" d="M204.07,379,198,382.53a.53.53,0,0,0,0,.92l5.92,3.41a1.69,1.69,0,0,0,1.71,0l5.85-3.37a.47.47,0,0,0,0-.81L205.39,379A1.3,1.3,0,0,0,204.07,379Z"/><path class="cls-65" d="M213.75,384.6l-6.11,3.53a.52.52,0,0,0,0,.91l5.92,3.42a1.72,1.72,0,0,0,1.7,0l5.85-3.38a.47.47,0,0,0,0-.81l-6.05-3.66A1.3,1.3,0,0,0,213.75,384.6Z"/><path class="cls-66" d="M223.45,390.16l-6.12,3.53a.53.53,0,0,0,0,.91l5.93,3.42a1.72,1.72,0,0,0,1.7,0l5.85-3.38a.47.47,0,0,0,0-.81l-6-3.66A1.3,1.3,0,0,0,223.45,390.16Z"/><path class="cls-67" d="M232.82,395.75l-6.11,3.53a.53.53,0,0,0,0,.91l5.92,3.42a1.74,1.74,0,0,0,1.71,0l5.85-3.38a.47.47,0,0,0,0-.81l-6.05-3.66A1.3,1.3,0,0,0,232.82,395.75Z"/><path class="cls-68" d="M242.12,401.27,236,404.79a.53.53,0,0,0,0,.92l5.93,3.42a1.72,1.72,0,0,0,1.7,0l5.85-3.38a.47.47,0,0,0,0-.81l-6.05-3.66A1.3,1.3,0,0,0,242.12,401.27Z"/><path class="cls-69" d="M251.79,406.86l-6.11,3.53a.53.53,0,0,0,0,.91l5.92,3.42a1.69,1.69,0,0,0,1.71,0l5.85-3.38a.47.47,0,0,0,0-.81l-6.06-3.66A1.3,1.3,0,0,0,251.79,406.86Z"/><path class="cls-70" d="M270.76,417.83l-6.11,3.53a.53.53,0,0,0,0,.91l5.92,3.42a1.74,1.74,0,0,0,1.71,0l5.85-3.38a.47.47,0,0,0,0-.81l-6.06-3.66A1.3,1.3,0,0,0,270.76,417.83Z"/><path class="cls-71" d="M138.47,351.39l-6.11,3.53a.53.53,0,0,0,0,.92l5.92,3.41a1.69,1.69,0,0,0,1.71,0l5.85-3.37a.47.47,0,0,0,0-.81l-6.05-3.66A1.3,1.3,0,0,0,138.47,351.39Z"/><path class="cls-72" d="M147.84,357l-6.11,3.53a.53.53,0,0,0,0,.92l5.92,3.42a1.74,1.74,0,0,0,1.71,0l5.85-3.38a.47.47,0,0,0,0-.81L149.16,357A1.3,1.3,0,0,0,147.84,357Z"/><path class="cls-73" d="M157.14,362.5,151,366a.52.52,0,0,0,0,.91l5.92,3.42a1.67,1.67,0,0,0,1.7,0L164.5,367a.48.48,0,0,0,0-.82l-6-3.65A1.3,1.3,0,0,0,157.14,362.5Z"/><path class="cls-74" d="M223.83,401.33l-6.12,3.52a.53.53,0,0,0,0,.92l5.93,3.42a1.72,1.72,0,0,0,1.7,0l5.85-3.38a.47.47,0,0,0,0-.81l-6-3.66A1.28,1.28,0,0,0,223.83,401.33Z"/><path class="cls-75" d="M233.12,406.84,227,410.37a.53.53,0,0,0,0,.92l5.92,3.41a1.69,1.69,0,0,0,1.71,0l5.85-3.37a.47.47,0,0,0,0-.81l-6.06-3.66A1.3,1.3,0,0,0,233.12,406.84Z"/><path class="cls-76" d="M242.8,412.44,236.69,416a.52.52,0,0,0,0,.91l5.92,3.42a1.72,1.72,0,0,0,1.7,0l5.85-3.38a.47.47,0,0,0,0-.81l-6-3.66A1.3,1.3,0,0,0,242.8,412.44Z"/><path class="cls-77" d="M252.4,417.81l-6.12,3.53a.53.53,0,0,0,0,.92l5.93,3.42a1.72,1.72,0,0,0,1.7,0l5.85-3.38a.47.47,0,0,0,0-.81l-6-3.66A1.3,1.3,0,0,0,252.4,417.81Z"/><path class="cls-78" d="M261.77,423.41l-6.11,3.52a.53.53,0,0,0,0,.92l5.92,3.42a1.74,1.74,0,0,0,1.71,0l5.85-3.38a.47.47,0,0,0,0-.81l-6.05-3.66A1.28,1.28,0,0,0,261.77,423.41Z"/><path class="cls-79" d="M271.07,428.92,265,432.45a.53.53,0,0,0,0,.91l5.93,3.42a1.67,1.67,0,0,0,1.7,0l5.85-3.37a.47.47,0,0,0,0-.81l-6.05-3.66A1.3,1.3,0,0,0,271.07,428.92Z"/><path class="cls-80" d="M221.83,399.41l-6.06-3.66a1.87,1.87,0,0,0-.22-.07L170,369.26h0l-1.91-1.15a1.28,1.28,0,0,0-1.32,0l-6.11,3.52a.53.53,0,0,0,0,.92l3.37,1.94h0l44.26,25.68v0l3.31,1.9,0,0h0l2.59,1.5a1.74,1.74,0,0,0,1.71,0l5.85-3.38A.47.47,0,0,0,221.83,399.41Z"/><path class="cls-81" d="M297.12,421.43l-6.06-3.66s-.05,0-.08,0l-7.22-4.29-2-1.2a1.3,1.3,0,0,0-1.32,0l-6.11,3.53a.52.52,0,0,0,0,.91l2.24,1.29h0l7,4.17s0,0,0,.06l5.93,3.42a1.72,1.72,0,0,0,1.7,0l5.85-3.38A.47.47,0,0,0,297.12,421.43Z"/><path class="cls-82" d="M164.21,355.08l-2-1.23h0l-4-2.42-.08,0-7.3-4.37h0l-2-1.2a1.3,1.3,0,0,0-1.32,0l-6.11,3.52a.53.53,0,0,0,0,.92l2.22,1.28,7.1,4.23s0,.06.05.08l5.92,3.42a1.74,1.74,0,0,0,1.71,0l5.85-3.38A.47.47,0,0,0,164.21,355.08Z"/><path class="cls-83" d="M180.8,326.34l-6.11,3.53a.53.53,0,0,0,0,.91l5.92,3.42a1.74,1.74,0,0,0,1.71,0l5.85-3.38a.47.47,0,0,0,0-.81l-6.06-3.66A1.3,1.3,0,0,0,180.8,326.34Z"/><path class="cls-83" d="M190.17,331.93l-6.11,3.53a.53.53,0,0,0,0,.91l5.93,3.42a1.72,1.72,0,0,0,1.7,0l5.85-3.38a.47.47,0,0,0,0-.81l-6.06-3.66A1.3,1.3,0,0,0,190.17,331.93Z"/><path class="cls-83" d="M199.47,337.45,193.36,341a.53.53,0,0,0,0,.92l5.92,3.42a1.74,1.74,0,0,0,1.71,0l5.85-3.38a.47.47,0,0,0,0-.81l-6.06-3.66A1.28,1.28,0,0,0,199.47,337.45Z"/><path class="cls-83" d="M209.15,343,203,346.57a.53.53,0,0,0,0,.91L209,350.9a1.72,1.72,0,0,0,1.7,0l5.85-3.38a.47.47,0,0,0,0-.81l-6.05-3.66A1.3,1.3,0,0,0,209.15,343Z"/><path class="cls-83" d="M218.74,348.42l-6.11,3.52a.53.53,0,0,0,0,.92l5.93,3.42a1.72,1.72,0,0,0,1.7,0l5.85-3.38a.47.47,0,0,0,0-.81l-6.06-3.66A1.3,1.3,0,0,0,218.74,348.42Z"/><path class="cls-83" d="M228.12,354,222,357.54a.52.52,0,0,0,0,.91l5.92,3.42a1.72,1.72,0,0,0,1.7,0l5.85-3.38a.47.47,0,0,0,0-.81L229.44,354A1.3,1.3,0,0,0,228.12,354Z"/><path class="cls-83" d="M237.41,359.52l-6.11,3.53a.53.53,0,0,0,0,.92l5.92,3.42a1.74,1.74,0,0,0,1.71,0l5.85-3.38a.47.47,0,0,0,0-.81l-6.06-3.66A1.3,1.3,0,0,0,237.41,359.52Z"/><path class="cls-83" d="M247.09,365.12,241,368.65a.53.53,0,0,0,0,.91L246.9,373a1.74,1.74,0,0,0,1.71,0l5.85-3.38a.47.47,0,0,0,0-.81l-6.05-3.66A1.3,1.3,0,0,0,247.09,365.12Z"/><path class="cls-83" d="M256.79,370.68l-6.11,3.53a.52.52,0,0,0,0,.91l5.92,3.42a1.74,1.74,0,0,0,1.71,0l5.85-3.38a.47.47,0,0,0,0-.81l-6.05-3.66A1.3,1.3,0,0,0,256.79,370.68Z"/><path class="cls-83" d="M266.16,376.27l-6.11,3.53a.53.53,0,0,0,0,.91l5.92,3.42a1.69,1.69,0,0,0,1.71,0l5.85-3.38a.47.47,0,0,0,0-.81l-6.06-3.66A1.3,1.3,0,0,0,266.16,376.27Z"/><path class="cls-83" d="M275.46,381.79l-6.11,3.53a.52.52,0,0,0,0,.91l5.92,3.42a1.72,1.72,0,0,0,1.7,0l5.85-3.38a.47.47,0,0,0,0-.81l-6.05-3.66A1.3,1.3,0,0,0,275.46,381.79Z"/><path class="cls-83" d="M285.13,387.38,279,390.91a.53.53,0,0,0,0,.91l5.92,3.42a1.69,1.69,0,0,0,1.71,0l5.85-3.38a.47.47,0,0,0,0-.81l-6.06-3.66A1.3,1.3,0,0,0,285.13,387.38Z"/><path class="cls-83" d="M294.73,392.76l-6.11,3.53a.53.53,0,0,0,0,.91l5.92,3.42a1.74,1.74,0,0,0,1.71,0l5.85-3.38a.47.47,0,0,0,0-.81l-6.06-3.66A1.3,1.3,0,0,0,294.73,392.76Z"/><path class="cls-83" d="M304.1,398.35,298,401.88a.53.53,0,0,0,0,.91l5.92,3.42a1.74,1.74,0,0,0,1.71,0l5.85-3.38a.47.47,0,0,0,0-.81l-6.06-3.66A1.3,1.3,0,0,0,304.1,398.35Z"/><path class="cls-83" d="M313.4,403.87l-6.11,3.52a.53.53,0,0,0,0,.92l5.92,3.42a1.74,1.74,0,0,0,1.71,0l5.85-3.38a.47.47,0,0,0,0-.81l-6-3.66A1.3,1.3,0,0,0,313.4,403.87Z"/><path class="cls-83" d="M166.82,333.37l-6.11,3.53a.53.53,0,0,0,0,.92l5.92,3.41a1.69,1.69,0,0,0,1.71,0l5.85-3.37a.47.47,0,0,0,0-.81l-6.06-3.66A1.3,1.3,0,0,0,166.82,333.37Z"/><path class="cls-83" d="M176.2,339l-6.11,3.53a.53.53,0,0,0,0,.92l5.92,3.42a1.72,1.72,0,0,0,1.7,0l5.85-3.38a.47.47,0,0,0,0-.81l-6-3.66A1.3,1.3,0,0,0,176.2,339Z"/><path class="cls-83" d="M185.49,344.48,179.38,348a.53.53,0,0,0,0,.91l5.92,3.42a1.69,1.69,0,0,0,1.71,0l5.85-3.38a.47.47,0,0,0,0-.81l-6.06-3.65A1.3,1.3,0,0,0,185.49,344.48Z"/><path class="cls-83" d="M195.17,350.08l-6.11,3.52a.53.53,0,0,0,0,.92l5.92,3.42a1.74,1.74,0,0,0,1.71,0l5.85-3.38a.47.47,0,0,0,0-.81l-6-3.66A1.28,1.28,0,0,0,195.17,350.08Z"/><path class="cls-83" d="M204.77,355.45,198.66,359a.52.52,0,0,0,0,.91l5.92,3.42a1.67,1.67,0,0,0,1.7,0l5.85-3.37a.47.47,0,0,0,0-.81l-6-3.66A1.3,1.3,0,0,0,204.77,355.45Z"/><path class="cls-83" d="M214.14,361,208,364.57a.53.53,0,0,0,0,.92L214,368.9a1.69,1.69,0,0,0,1.71,0l5.85-3.37a.47.47,0,0,0,0-.81l-6-3.66A1.3,1.3,0,0,0,214.14,361Z"/><path class="cls-83" d="M223.44,366.56l-6.12,3.53a.53.53,0,0,0,0,.91l5.93,3.42a1.67,1.67,0,0,0,1.7,0L230.8,371a.47.47,0,0,0,0-.81l-6.05-3.66A1.3,1.3,0,0,0,223.44,366.56Z"/><path class="cls-83" d="M233.11,372.15,227,375.68a.53.53,0,0,0,0,.92l5.92,3.41a1.69,1.69,0,0,0,1.71,0l5.85-3.37a.47.47,0,0,0,0-.81l-6.06-3.66A1.3,1.3,0,0,0,233.11,372.15Z"/><path class="cls-83" d="M242.81,377.72l-6.11,3.52a.53.53,0,0,0,0,.92l5.92,3.42a1.74,1.74,0,0,0,1.71,0l5.85-3.38a.47.47,0,0,0,0-.81l-6.06-3.66A1.28,1.28,0,0,0,242.81,377.72Z"/><path class="cls-83" d="M252.18,383.31l-6.11,3.52a.53.53,0,0,0,0,.92l5.92,3.42a1.74,1.74,0,0,0,1.71,0l5.85-3.38a.47.47,0,0,0,0-.81l-6.06-3.66A1.28,1.28,0,0,0,252.18,383.31Z"/><path class="cls-83" d="M261.48,388.82l-6.11,3.53a.53.53,0,0,0,0,.92l5.92,3.41a1.69,1.69,0,0,0,1.71,0l5.85-3.37a.47.47,0,0,0,0-.81l-6.05-3.66A1.3,1.3,0,0,0,261.48,388.82Z"/><path class="cls-83" d="M271.15,394.42,265,397.94a.53.53,0,0,0,0,.92l5.92,3.42a1.74,1.74,0,0,0,1.71,0l5.85-3.38a.47.47,0,0,0,0-.81l-6.06-3.66A1.3,1.3,0,0,0,271.15,394.42Z"/><path class="cls-83" d="M280.75,399.79l-6.11,3.53a.53.53,0,0,0,0,.92l5.92,3.42a1.74,1.74,0,0,0,1.71,0l5.85-3.38a.47.47,0,0,0,0-.81l-6.06-3.66A1.3,1.3,0,0,0,280.75,399.79Z"/><path class="cls-83" d="M290.12,405.39,284,408.91a.53.53,0,0,0,0,.92l5.92,3.42a1.74,1.74,0,0,0,1.71,0l5.85-3.38a.47.47,0,0,0,0-.81l-6.06-3.66A1.28,1.28,0,0,0,290.12,405.39Z"/><path class="cls-83" d="M299.42,410.9l-6.11,3.53a.53.53,0,0,0,0,.91l5.92,3.42a1.69,1.69,0,0,0,1.71,0l5.85-3.37a.47.47,0,0,0,0-.81l-6.06-3.66A1.3,1.3,0,0,0,299.42,410.9Z"/><path class="cls-83" d="M168.3,344.84l-6.05-3.66a.9.9,0,0,0-.22-.06L158.47,339a1.3,1.3,0,0,0-1.32,0L151,342.48a.52.52,0,0,0,0,.91l3.75,2.17s0,0,0,.05l5.92,3.42a1.72,1.72,0,0,0,1.7,0l5.85-3.38A.47.47,0,0,0,168.3,344.84Z"/><path class="cls-83" d="M175.82,350.06l-6.11,3.53a.52.52,0,0,0,0,.91l5.92,3.42a1.72,1.72,0,0,0,1.7,0l5.85-3.38a.47.47,0,0,0,0-.81l-6.05-3.66A1.3,1.3,0,0,0,175.82,350.06Z"/><path class="cls-83" d="M185.49,355.65l-6.11,3.53a.53.53,0,0,0,0,.91l5.92,3.42a1.69,1.69,0,0,0,1.71,0l5.85-3.37a.48.48,0,0,0,0-.82l-6.06-3.65A1.3,1.3,0,0,0,185.49,355.65Z"/><path class="cls-83" d="M195.09,361,189,364.56a.53.53,0,0,0,0,.91l5.92,3.42a1.69,1.69,0,0,0,1.71,0l5.85-3.38a.47.47,0,0,0,0-.81L196.41,361A1.3,1.3,0,0,0,195.09,361Z"/><path class="cls-83" d="M204.46,366.62l-6.11,3.53a.53.53,0,0,0,0,.91l5.92,3.42a1.69,1.69,0,0,0,1.71,0l5.85-3.38a.47.47,0,0,0,0-.81l-6.06-3.66A1.3,1.3,0,0,0,204.46,366.62Z"/><path class="cls-83" d="M213.76,372.14l-6.11,3.53a.53.53,0,0,0,0,.91l5.92,3.42a1.74,1.74,0,0,0,1.71,0l5.85-3.38a.47.47,0,0,0,0-.81l-6-3.66A1.3,1.3,0,0,0,213.76,372.14Z"/><path class="cls-83" d="M223.43,377.73l-6.11,3.53a.53.53,0,0,0,0,.91l5.92,3.42a1.69,1.69,0,0,0,1.71,0l5.85-3.38a.47.47,0,0,0,0-.81l-6.06-3.66A1.32,1.32,0,0,0,223.43,377.73Z"/><path class="cls-83" d="M233.13,383.29,227,386.82a.53.53,0,0,0,0,.91l5.92,3.42a1.69,1.69,0,0,0,1.71,0l5.85-3.37a.47.47,0,0,0,0-.81l-6.06-3.66A1.3,1.3,0,0,0,233.13,383.29Z"/><path class="cls-83" d="M242.51,388.88l-6.12,3.53a.53.53,0,0,0,0,.91l5.93,3.42a1.67,1.67,0,0,0,1.7,0l5.85-3.37a.47.47,0,0,0,0-.81l-6-3.66A1.3,1.3,0,0,0,242.51,388.88Z"/><path class="cls-83" d="M251.8,394.4l-6.11,3.53a.53.53,0,0,0,0,.91l5.92,3.42a1.69,1.69,0,0,0,1.71,0l5.85-3.38a.47.47,0,0,0,0-.81l-6.06-3.66A1.3,1.3,0,0,0,251.8,394.4Z"/><path class="cls-83" d="M261.48,400l-6.11,3.53a.53.53,0,0,0,0,.92l5.92,3.41a1.67,1.67,0,0,0,1.7,0l5.85-3.37a.47.47,0,0,0,0-.81L262.8,400A1.3,1.3,0,0,0,261.48,400Z"/><path class="cls-83" d="M271.08,405.37,265,408.9a.53.53,0,0,0,0,.91l5.93,3.42a1.67,1.67,0,0,0,1.7,0l5.85-3.38a.47.47,0,0,0,0-.81l-6.05-3.66A1.32,1.32,0,0,0,271.08,405.37Z"/><path class="cls-83" d="M166.13,355.65,160,359.18a.53.53,0,0,0,0,.91l5.92,3.42a1.69,1.69,0,0,0,1.71,0l5.85-3.38a.47.47,0,0,0,0-.81l-6.06-3.66A1.3,1.3,0,0,0,166.13,355.65Z"/><path class="cls-83" d="M175.8,361.24l-6.11,3.53a.53.53,0,0,0,0,.91l5.92,3.42a1.69,1.69,0,0,0,1.71,0l5.85-3.37a.47.47,0,0,0,0-.81l-6.06-3.66A1.3,1.3,0,0,0,175.8,361.24Z"/><path class="cls-83" d="M185.4,366.62l-6.11,3.53a.53.53,0,0,0,0,.91l5.92,3.42a1.69,1.69,0,0,0,1.71,0l5.85-3.38a.47.47,0,0,0,0-.81l-6.06-3.66A1.3,1.3,0,0,0,185.4,366.62Z"/><path class="cls-83" d="M194.78,372.21l-6.12,3.53a.53.53,0,0,0,0,.91l5.93,3.42a1.67,1.67,0,0,0,1.7,0l5.85-3.38a.47.47,0,0,0,0-.81l-6.05-3.66A1.32,1.32,0,0,0,194.78,372.21Z"/><path class="cls-83" d="M204.07,377.73,198,381.26a.53.53,0,0,0,0,.91l5.92,3.42a1.74,1.74,0,0,0,1.71,0l5.85-3.38a.47.47,0,0,0,0-.81l-6.06-3.66A1.3,1.3,0,0,0,204.07,377.73Z"/><path class="cls-83" d="M213.75,383.32l-6.11,3.53a.52.52,0,0,0,0,.91l5.92,3.42a1.67,1.67,0,0,0,1.7,0l5.85-3.37a.48.48,0,0,0,0-.82l-6.05-3.65A1.3,1.3,0,0,0,213.75,383.32Z"/><path class="cls-83" d="M223.45,388.88l-6.12,3.53a.53.53,0,0,0,0,.91l5.93,3.42a1.67,1.67,0,0,0,1.7,0l5.85-3.37a.47.47,0,0,0,0-.81l-6-3.66A1.3,1.3,0,0,0,223.45,388.88Z"/><path class="cls-83" d="M232.82,394.47,226.71,398a.53.53,0,0,0,0,.92l5.92,3.41a1.69,1.69,0,0,0,1.71,0l5.85-3.37a.47.47,0,0,0,0-.81l-6.05-3.66A1.3,1.3,0,0,0,232.82,394.47Z"/><path class="cls-83" d="M242.12,400,236,403.52a.53.53,0,0,0,0,.91l5.93,3.42a1.67,1.67,0,0,0,1.7,0l5.85-3.38a.47.47,0,0,0,0-.81L243.44,400A1.32,1.32,0,0,0,242.12,400Z"/><path class="cls-83" d="M251.79,405.58l-6.11,3.53a.53.53,0,0,0,0,.92l5.92,3.42a1.74,1.74,0,0,0,1.71,0l5.85-3.38a.47.47,0,0,0,0-.81l-6.06-3.66A1.3,1.3,0,0,0,251.79,405.58Z"/><path class="cls-83" d="M270.76,416.55l-6.11,3.53a.53.53,0,0,0,0,.91l5.92,3.42a1.69,1.69,0,0,0,1.71,0l5.85-3.37a.47.47,0,0,0,0-.81l-6.06-3.66A1.3,1.3,0,0,0,270.76,416.55Z"/><path class="cls-83" d="M138.47,350.12l-6.11,3.53a.53.53,0,0,0,0,.91l5.92,3.42a1.74,1.74,0,0,0,1.71,0l5.85-3.38a.47.47,0,0,0,0-.81l-6.05-3.66A1.3,1.3,0,0,0,138.47,350.12Z"/><path class="cls-83" d="M147.84,355.71l-6.11,3.53a.53.53,0,0,0,0,.91l5.92,3.42a1.69,1.69,0,0,0,1.71,0l5.85-3.38a.47.47,0,0,0,0-.81l-6.06-3.66A1.3,1.3,0,0,0,147.84,355.71Z"/><path class="cls-83" d="M157.14,361.23,151,364.76a.52.52,0,0,0,0,.91l5.92,3.42a1.72,1.72,0,0,0,1.7,0l5.85-3.38a.47.47,0,0,0,0-.81l-6-3.66A1.3,1.3,0,0,0,157.14,361.23Z"/><path class="cls-83" d="M223.83,400.05l-6.12,3.53a.53.53,0,0,0,0,.91l5.93,3.42a1.67,1.67,0,0,0,1.7,0l5.85-3.38a.47.47,0,0,0,0-.81l-6-3.66A1.3,1.3,0,0,0,223.83,400.05Z"/><path class="cls-83" d="M233.12,405.57,227,409.1a.53.53,0,0,0,0,.91l5.92,3.42a1.74,1.74,0,0,0,1.71,0l5.85-3.38a.47.47,0,0,0,0-.81l-6.06-3.66A1.3,1.3,0,0,0,233.12,405.57Z"/><path class="cls-83" d="M242.8,411.16l-6.11,3.53a.52.52,0,0,0,0,.91l5.92,3.42a1.67,1.67,0,0,0,1.7,0l5.85-3.38a.47.47,0,0,0,0-.81l-6-3.65A1.3,1.3,0,0,0,242.8,411.16Z"/><path class="cls-83" d="M252.4,416.54l-6.12,3.53a.53.53,0,0,0,0,.91l5.93,3.42a1.67,1.67,0,0,0,1.7,0l5.85-3.38a.47.47,0,0,0,0-.81l-6-3.66A1.3,1.3,0,0,0,252.4,416.54Z"/><path class="cls-83" d="M261.77,422.13l-6.11,3.53a.53.53,0,0,0,0,.91l5.92,3.42a1.69,1.69,0,0,0,1.71,0l5.85-3.38a.47.47,0,0,0,0-.81l-6.05-3.66A1.3,1.3,0,0,0,261.77,422.13Z"/><path class="cls-83" d="M271.07,427.65,265,431.18a.53.53,0,0,0,0,.91l5.93,3.42a1.72,1.72,0,0,0,1.7,0l5.85-3.38a.47.47,0,0,0,0-.81l-6.05-3.66A1.3,1.3,0,0,0,271.07,427.65Z"/><path class="cls-83" d="M222,398.43l-6.06-3.66c-.07,0-.15,0-.22-.06l-45.52-26.43h0l-1.9-1.15a1.3,1.3,0,0,0-1.32,0l-6.11,3.53a.53.53,0,0,0,0,.91l3.37,1.95h0l44.26,25.68h0l3.31,1.91h0l2.59,1.5a1.74,1.74,0,0,0,1.71,0l5.85-3.38A.47.47,0,0,0,222,398.43Z"/><path class="cls-83" d="M297.12,420.15l-6.06-3.66-.08,0-7.22-4.29-2-1.2a1.3,1.3,0,0,0-1.32,0l-6.11,3.53a.52.52,0,0,0,0,.91l2.24,1.3h0l7,4.16s0,.05,0,.06l5.93,3.42a1.67,1.67,0,0,0,1.7,0l5.85-3.38A.47.47,0,0,0,297.12,420.15Z"/><path class="cls-83" d="M164.21,353.8l-2-1.23h0l-4-2.41s-.05,0-.08,0l-7.3-4.36h0l-2-1.21a1.32,1.32,0,0,0-1.32,0l-6.11,3.53a.53.53,0,0,0,0,.91l2.22,1.29,7.1,4.22s0,.07.05.08l5.92,3.42a1.69,1.69,0,0,0,1.71,0l5.85-3.37A.48.48,0,0,0,164.21,353.8Z"/><polygon class="cls-84" points="495.13 257.24 433.2 293.62 365.79 254.77 408.44 228.57 495.13 257.24"/><path class="cls-85" d="M474.76,232.23,475,228l-1.18,0c-3.79-8.44-17.89-15.09-34.94-15.74s-31.62,4.91-36,13l-1.18,0-.19,4.87c-.4,10.63,15.69,19.88,35.94,20.65,19.71.75,36.09-6.79,37.33-17h0v-.08c0-.26.06-.52.07-.78S474.76,232.43,474.76,232.23Z"/><ellipse class="cls-86" cx="438.28" cy="226.55" rx="19.27" ry="36.7" transform="translate(195.18 655.87) rotate(-87.81)"/><path class="cls-87" d="M437.76,240.05c-14.2-.54-25.48-7-25.2-14.48s12-13.06,26.24-12.52,25.48,7,25.2,14.48S452,240.6,437.76,240.05Z"/><path class="cls-88" d="M438.69,215.77c13.33.51,24.09,6.25,25.12,13.12a7,7,0,0,0,.19-1.36c.28-7.45-11-13.94-25.2-14.48s-25.95,5.06-26.24,12.52a7.71,7.71,0,0,0,.08,1.36C414.2,220.17,425.36,215.26,438.69,215.77Z"/><path class="cls-89" d="M474.76,224.19l.19-4.27-1.18,0c-3.79-8.43-17.89-15.09-34.94-15.74s-31.62,4.92-36,13l-1.18,0-.19,4.87c-.4,10.63,15.69,19.87,35.94,20.65,19.71.75,36.09-6.8,37.33-17h0v-.08c0-.26.06-.51.07-.78S474.76,224.39,474.76,224.19Z"/><ellipse class="cls-86" cx="438.28" cy="218.52" rx="19.27" ry="36.7" transform="translate(203.21 648.14) rotate(-87.81)"/><path class="cls-90" d="M437.76,232c-14.2-.54-25.48-7-25.2-14.48s12-13.07,26.24-12.52,25.48,7,25.2,14.48S452,232.56,437.76,232Z"/><path class="cls-91" d="M438.69,207.73c13.33.51,24.09,6.25,25.12,13.12a6.76,6.76,0,0,0,.19-1.35c.28-7.46-11-13.94-25.2-14.48s-25.95,5.06-26.24,12.52a7.76,7.76,0,0,0,.08,1.36C414.2,212.13,425.36,207.22,438.69,207.73Z"/><ellipse class="cls-92" cx="472.12" cy="233.18" rx="17.86" ry="34.02" transform="translate(-5.65 454.54) rotate(-51.14)"/><ellipse class="cls-86" cx="474.95" cy="229.66" rx="17.86" ry="34.02" transform="translate(-1.86 455.44) rotate(-51.14)"/><ellipse class="cls-93" cx="474.95" cy="229.66" rx="12.52" ry="23.85" transform="translate(-1.86 455.44) rotate(-51.14)"/><path class="cls-94" d="M481.23,221.87c9.63,7.76,14.44,18,11.41,23.66a6.31,6.31,0,0,0,.89-.9c4.34-5.39-.46-16.46-10.72-24.72s-22.09-10.6-26.43-5.21a6.61,6.61,0,0,0-.7,1.05C460.59,211.58,471.6,214.12,481.23,221.87Z"/><polygon class="cls-95" points="389.02 162.57 333.55 194.9 262.88 158.97 302.34 133.9 360.69 143.87 389.02 162.57"/><path class="cls-96" d="M368.66,137.56l.19-4.28-1.18,0c-3.8-8.44-17.89-15.09-34.94-15.74s-31.62,4.91-36,13l-1.18-.06-.19,4.87C294.91,146,311,155.23,331.26,156c19.7.76,36.09-6.79,37.33-17h0v-.08q0-.39.06-.78C368.67,138,368.66,137.76,368.66,137.56Z"/><path class="cls-86" d="M331.44,151.14c-20.25-.78-36.34-10-35.93-20.66s17.15-18.62,37.4-17.85,36.35,10,35.94,20.65S351.7,151.91,331.44,151.14Z"/><ellipse class="cls-97" cx="332.18" cy="131.88" rx="13.51" ry="25.74" transform="translate(187.72 458.79) rotate(-87.81)"/><path class="cls-98" d="M332.59,121.1c13.33.51,24.08,6.25,25.12,13.12a7,7,0,0,0,.18-1.36c.29-7.45-11-13.94-25.2-14.48s-25.94,5.06-26.23,12.52a6.86,6.86,0,0,0,.08,1.36C308.1,125.5,319.26,120.59,332.59,121.1Z"/><path class="cls-99" d="M368.66,129.52l.19-4.27-1.18,0c-3.8-8.43-17.89-15.09-34.94-15.74s-31.62,4.92-36,13l-1.18,0-.19,4.87C294.91,138,311,147.2,331.26,148c19.7.75,36.09-6.8,37.33-17h0v-.08c0-.26,0-.51.06-.77S368.66,129.72,368.66,129.52Z"/><ellipse class="cls-86" cx="332.18" cy="123.85" rx="19.27" ry="36.7" transform="translate(195.75 451.06) rotate(-87.81)"/><ellipse class="cls-100" cx="332.18" cy="123.85" rx="13.51" ry="25.74" transform="matrix(0.04, -1, 1, 0.04, 195.75, 451.06)"/><path class="cls-101" d="M332.59,113.06c13.33.51,24.08,6.26,25.12,13.12a6.75,6.75,0,0,0,.18-1.35c.29-7.46-11-13.94-25.2-14.48s-25.94,5.06-26.23,12.52a6.9,6.9,0,0,0,.08,1.36C308.1,117.46,319.26,112.56,332.59,113.06Z"/><path class="cls-102" d="M368.66,120.81l.19-4.27-1.18-.05c-3.8-8.43-17.89-15.09-34.94-15.74s-31.62,4.92-36,13l-1.18-.05-.19,4.87c-.41,10.63,15.68,19.88,35.94,20.65,19.7.75,36.09-6.8,37.33-17h0v-.08c0-.26,0-.51.06-.77S368.66,121,368.66,120.81Z"/><ellipse class="cls-86" cx="332.18" cy="115.14" rx="19.27" ry="36.7" transform="matrix(0.04, -1, 1, 0.04, 204.45, 442.68)"/><ellipse class="cls-103" cx="332.18" cy="115.14" rx="13.51" ry="25.74" transform="translate(204.46 442.68) rotate(-87.81)"/><path class="cls-104" d="M332.59,104.35c13.33.51,24.08,6.26,25.12,13.12a6.75,6.75,0,0,0,.18-1.35c.29-7.46-11-13.94-25.2-14.48s-25.94,5.06-26.23,12.52a6.9,6.9,0,0,0,.08,1.36C308.1,108.75,319.26,103.85,332.59,104.35Z"/><path class="cls-105" d="M368.66,112.78l.19-4.28-1.18,0c-3.8-8.44-17.89-15.09-34.94-15.74s-31.62,4.91-36,13l-1.18-.06-.19,4.87c-.41,10.63,15.68,19.88,35.94,20.65,19.7.76,36.09-6.79,37.33-17h0v-.08q0-.39.06-.78C368.67,113.17,368.66,113,368.66,112.78Z"/><ellipse class="cls-86" cx="332.18" cy="107.1" rx="19.27" ry="36.7" transform="translate(212.48 434.95) rotate(-87.81)"/><path class="cls-106" d="M331.66,120.6c-14.2-.54-25.48-7-25.2-14.48s12-13.06,26.23-12.52,25.49,7,25.2,14.48S345.87,121.15,331.66,120.6Z"/><path class="cls-107" d="M332.59,96.32c13.33.51,24.08,6.25,25.12,13.12a7,7,0,0,0,.18-1.36c.29-7.45-11-13.94-25.2-14.48s-25.94,5.06-26.23,12.52a6.86,6.86,0,0,0,.08,1.36C308.1,100.72,319.26,95.81,332.59,96.32Z"/><path class="cls-108" d="M355.34,144c-10.19-15.78-11.74-32.91-3.46-38.26s23.27,3.1,33.46,18.88,11.75,32.91,3.46,38.27S365.54,159.8,355.34,144Z"/><ellipse class="cls-86" cx="374.14" cy="131.88" rx="17.86" ry="34.02" transform="matrix(0.84, -0.54, 0.54, 0.84, -11.69, 224.14)"/><path class="cls-109" d="M363.62,138.68c-7.15-11.07-8.24-23.08-2.43-26.83s16.32,2.17,23.47,13.24,8.23,23.08,2.42,26.83S370.77,149.74,363.62,138.68Z"/><path class="cls-110" d="M382.54,126.45c6.71,10.39,8.08,21.61,3.42,26.05a7,7,0,0,0,1.12-.58c5.81-3.75,4.72-15.77-2.42-26.83s-17.66-17-23.47-13.24a6.3,6.3,0,0,0-1,.78C366.16,110.21,375.83,116.07,382.54,126.45Z"/><path class="cls-111" d="M437.22,309.5l.07-1.63-.45,0c-1.45-3.21-6.83-5.76-13.34-6s-12.07,1.87-13.76,5l-.45,0-.07,1.86c-.16,4.06,6,7.59,13.72,7.89,7.52.28,13.77-2.6,14.25-6.49h0v0l0-.3Z"/><ellipse class="cls-112" cx="423.29" cy="307.34" rx="7.36" ry="14.01" transform="translate(100.03 718.6) rotate(-87.81)"/><ellipse class="cls-113" cx="423.29" cy="307.34" rx="5.16" ry="9.82" transform="translate(100.03 718.6) rotate(-87.81)"/><path class="cls-114" d="M423.45,303.22c5.09.2,9.19,2.39,9.59,5a3,3,0,0,0,.07-.52c.11-2.84-4.2-5.32-9.62-5.53s-9.91,1.94-10,4.78a4.41,4.41,0,0,0,0,.52C414.1,304.9,418.36,303,423.45,303.22Z"/><path class="cls-115" d="M385.61,342.18l.07-1.64h-.45c-1.45-3.22-6.83-5.76-13.34-6s-12.07,1.87-13.76,5l-.45,0-.07,1.85c-.15,4.06,6,7.59,13.72,7.89,7.52.28,13.78-2.6,14.25-6.49h0v0a1.53,1.53,0,0,0,0-.3Z"/><ellipse class="cls-116" cx="371.68" cy="340.01" rx="7.36" ry="14.01" transform="translate(17.74 698.45) rotate(-87.81)"/><ellipse class="cls-117" cx="371.68" cy="340.01" rx="5.16" ry="9.82" transform="matrix(0.04, -1, 1, 0.04, 17.74, 698.45)"/><path class="cls-118" d="M371.84,335.89c5.09.2,9.19,2.39,9.59,5a3,3,0,0,0,.07-.52c.11-2.84-4.2-5.32-9.62-5.52s-9.91,1.93-10,4.77a4.71,4.71,0,0,0,0,.53C362.49,337.57,366.75,335.7,371.84,335.89Z"/><path class="cls-119" d="M487.84,332.55l.07-1.64h-.45c-1.45-3.22-6.83-5.76-13.34-6s-12.07,1.87-13.76,5l-.45,0-.07,1.86c-.16,4.06,6,7.59,13.72,7.89,7.52.28,13.78-2.6,14.25-6.49h0v0c0-.1,0-.2,0-.3Z"/><ellipse class="cls-120" cx="473.91" cy="330.38" rx="7.36" ry="14.01" transform="translate(125.7 791.34) rotate(-87.81)"/><ellipse class="cls-121" cx="473.91" cy="330.38" rx="5.16" ry="9.82" transform="translate(125.7 791.34) rotate(-87.81)"/><path class="cls-122" d="M474.07,326.26c5.09.2,9.19,2.39,9.59,5a3,3,0,0,0,.07-.52c.11-2.84-4.2-5.32-9.62-5.53s-9.91,1.94-10,4.78a4.41,4.41,0,0,0,0,.52C464.72,327.94,469,326.07,474.07,326.26Z"/><path class="cls-123" d="M499.69,292.49l.07-1.63-.45,0c-1.45-3.22-6.83-5.76-13.34-6s-12.07,1.88-13.76,5l-.45,0-.07,1.86c-.16,4.06,6,7.59,13.72,7.88,7.52.29,13.77-2.59,14.25-6.49h0v0l0-.29Z"/><ellipse class="cls-124" cx="485.76" cy="290.32" rx="7.36" ry="14.01" transform="translate(177.12 764.66) rotate(-87.81)"/><ellipse class="cls-125" cx="485.76" cy="290.32" rx="5.16" ry="9.82" transform="translate(177.12 764.66) rotate(-87.81)"/><path class="cls-126" d="M485.92,286.21c5.09.19,9.19,2.38,9.59,5a3,3,0,0,0,.07-.51c.11-2.85-4.2-5.32-9.62-5.53s-9.91,1.93-10,4.78a4.53,4.53,0,0,0,0,.52C476.57,287.88,480.83,286,485.92,286.21Z"/><polygon class="cls-127" points="517.53 413.45 414.78 472.75 404.59 467.25 508.67 408.31 517.53 413.45"/><path class="cls-128" d="M583.55,229.34,578,226.09a3,3,0,0,0-3.44.09l-66.06,38.14c-2.7,1.55-4.88,5.72-4.88,9.31V408.46c0,1.9.62,3.24,1.59,3.87h0l.23.14,5.7,3.32,6.35-8.85L574.55,374c2.69-1.55,4.87-5.72,4.87-9.31V247.41Z"/><path class="cls-129" d="M580.16,377.29,514.1,415.43c-2.69,1.55-4.87-.1-4.87-3.69V276.92c0-3.59,2.18-7.76,4.87-9.32l66.06-38.14c2.69-1.55,4.88.1,4.88,3.69V368C585,371.56,582.85,375.73,580.16,377.29Z"/><path class="cls-130" d="M577.44,235.17l-12.72,7.35v5a3.14,3.14,0,0,1-1.58,2.73l-31.45,18a1.59,1.59,0,0,1-2.38-1.38V263l-12.49,7.21c-2.47,1.43-4.47,5.25-4.47,8.55V406.85c0,3.3,2,4.81,4.47,3.38l60.62-35c2.47-1.42,4.48-5.25,4.48-8.54V238.55C581.92,235.26,579.91,233.74,577.44,235.17Z"/><path class="cls-83" d="M327.06,308.51c-6.49-5.69-22.69,15.07-28.95,13.12s-8.32-9.55-13.23-15.18S265.37,310,260,302.57s-9.72,4.26-15.74-2.4-17.18,9.56-27.48-3.54-25,.66-25,.66l135.33,78.13Z"/><path class="cls-131" d="M191.73,297.29s14.72-13.75,25-.66,21.45-3.11,27.48,3.54,10.34-5,15.74,2.4,20-1.75,24.92,3.88,7,13.24,13.23,15.18,22.46-18.81,28.95-13.12"/><polygon class="cls-83" points="223.88 240.88 193.06 223.25 193.14 218.07 223.88 235.65 223.88 240.88"/><polygon class="cls-83" points="213.71 247.34 193.06 235.53 193.14 230.35 213.71 242.11 213.71 247.34"/><polygon class="cls-83" points="520.59 287.9 551.41 270.27 551.33 265.09 520.59 282.68 520.59 287.9"/><polygon class="cls-83" points="520.45 301.01 541.09 289.2 541.01 284.01 520.45 295.78 520.45 301.01"/><path class="cls-83" d="M574.17,287.65c-4.69,4.47-12.91,31.43-18.28,27.48S542,352.57,536.32,350.74s-13.65,28-13.65,28L574.17,349Z"/><path class="cls-132" d="M522.67,378.75s8-29.83,13.65-28,14.19-39.55,19.57-35.61,13.59-23,18.28-27.48"/></g></g></svg>