<svg
                        width="25"
                        height="24"
                        viewBox="0 0 25 24"
                        fill="none"
                        xmlns="http://www.w3.org/2000/svg"
                      >
                        <g clip-path="url(#clip0_179:128)">
                          <path
                            d="M6.85596 11V3H12.856L14.856 11"
                            stroke="#3D60C5"
                            stroke-width="2"
                            stroke-miterlimit="10"
                          />
                          <path
                            d="M6.85596 3H4.85596"
                            stroke="#3D60C5"
                            stroke-width="2"
                            stroke-miterlimit="10"
                            stroke-linecap="square"
                          />
                          <path
                            d="M20.856 15V13C20.856 11.9 19.956 11 18.856 11H6.85596"
                            stroke="#3D60C5"
                            stroke-width="2"
                            stroke-miterlimit="10"
                            stroke-linecap="square"
                          />
                          <path
                            d="M11.4561 18H17.8561"
                            stroke="#3D60C5"
                            stroke-width="2"
                            stroke-miterlimit="10"
                          />
                          <path
                            d="M17.856 11V8C17.856 7.4 18.256 7 18.856 7H19.856"
                            stroke="#3D60C5"
                            stroke-width="2"
                            stroke-miterlimit="10"
                            stroke-linecap="square"
                          />
                          <path
                            d="M6.85596 21C9.61738 21 11.856 18.7614 11.856 16C11.856 13.2386 9.61738 11 6.85596 11C4.09453 11 1.85596 13.2386 1.85596 16C1.85596 18.7614 4.09453 21 6.85596 21Z"
                            stroke="#3D60C5"
                            stroke-width="2"
                            stroke-miterlimit="10"
                            stroke-linecap="square"
                          />
                          <path
                            d="M20.856 21C22.5128 21 23.856 19.6569 23.856 18C23.856 16.3431 22.5128 15 20.856 15C19.1991 15 17.856 16.3431 17.856 18C17.856 19.6569 19.1991 21 20.856 21Z"
                            stroke="#3D60C5"
                            stroke-width="2"
                            stroke-miterlimit="10"
                            stroke-linecap="square"
                          />
                        </g>
                        <defs>
                          <clipPath id="clip0_179:128">
                            <rect
                              width="24"
                              height="24"
                              fill="white"
                              transform="translate(0.855957)"
                            />
                          </clipPath>
                        </defs>
                      </svg>