<svg xmlns="http://www.w3.org/2000/svg" xmlns:xlink="http://www.w3.org/1999/xlink" viewBox="0 0 805.21 578.53"><defs><style>.cls-1{fill:url(#linear-gradient);}.cls-2{fill:url(#linear-gradient-2);}.cls-3{fill:url(#linear-gradient-3);}.cls-4{fill:url(#linear-gradient-4);}.cls-5{fill:url(#linear-gradient-5);}.cls-6{fill:url(#linear-gradient-6);}.cls-7{fill:url(#linear-gradient-7);}.cls-8{fill:url(#linear-gradient-8);}.cls-9{fill:url(#linear-gradient-9);}.cls-10{fill:url(#linear-gradient-10);}.cls-11{fill:url(#linear-gradient-11);}.cls-12{fill:url(#linear-gradient-12);}.cls-13{fill:#f8f8f9;}.cls-14{fill:url(#linear-gradient-13);}.cls-15{fill:url(#linear-gradient-14);}.cls-16{fill:url(#linear-gradient-15);}.cls-17{fill:url(#linear-gradient-16);}.cls-18{fill:url(#linear-gradient-17);}.cls-19{fill:url(#linear-gradient-18);}.cls-20{fill:url(#linear-gradient-19);}.cls-21{fill:url(#linear-gradient-20);}.cls-22{fill:url(#linear-gradient-21);}.cls-23{fill:url(#linear-gradient-22);}.cls-24{fill:url(#linear-gradient-23);}.cls-25{fill:url(#linear-gradient-24);}.cls-26{fill:url(#linear-gradient-25);}.cls-27{fill:url(#linear-gradient-26);}.cls-28{fill:url(#linear-gradient-27);}.cls-29{fill:url(#linear-gradient-28);}.cls-30{fill:url(#linear-gradient-29);}.cls-31{fill:url(#linear-gradient-30);}.cls-32{fill:url(#linear-gradient-31);}.cls-33{fill:url(#linear-gradient-32);}.cls-34{fill:url(#linear-gradient-33);}.cls-35{fill:url(#linear-gradient-34);}.cls-36{fill:#f0f4f7;}.cls-37{fill:url(#linear-gradient-35);}.cls-38{fill:url(#linear-gradient-36);}.cls-39{fill:url(#linear-gradient-37);}.cls-40{fill:#fff;opacity:0.55;}.cls-41{fill:url(#linear-gradient-38);}.cls-42{fill:url(#linear-gradient-39);}.cls-43{fill:url(#linear-gradient-40);}.cls-44{fill:url(#linear-gradient-41);}.cls-45{fill:url(#linear-gradient-42);}.cls-46{fill:url(#linear-gradient-43);}.cls-47{fill:url(#linear-gradient-44);}.cls-48{fill:url(#linear-gradient-45);}.cls-49{fill:url(#linear-gradient-46);}.cls-50{fill:url(#linear-gradient-47);}.cls-51{fill:url(#linear-gradient-48);}.cls-52{fill:url(#linear-gradient-49);}.cls-53{fill:url(#linear-gradient-50);}.cls-54{fill:url(#linear-gradient-51);}.cls-55{fill:url(#linear-gradient-52);}.cls-56{fill:url(#linear-gradient-53);}.cls-57{fill:url(#linear-gradient-54);}.cls-58{fill:url(#linear-gradient-55);}.cls-59{fill:url(#linear-gradient-56);}.cls-60{fill:url(#linear-gradient-57);}.cls-61{fill:url(#linear-gradient-58);}.cls-62{fill:url(#linear-gradient-59);}.cls-63{fill:url(#linear-gradient-60);}.cls-64{fill:url(#linear-gradient-61);}.cls-65{fill:url(#linear-gradient-62);}.cls-66{fill:url(#linear-gradient-63);}.cls-67{fill:url(#linear-gradient-64);}.cls-68{fill:url(#linear-gradient-65);}.cls-69{fill:url(#linear-gradient-66);}.cls-70{fill:url(#linear-gradient-67);}.cls-71{fill:url(#linear-gradient-68);}.cls-72{fill:url(#linear-gradient-69);}.cls-73{fill:url(#linear-gradient-70);}.cls-74{fill:url(#linear-gradient-71);}.cls-75{fill:url(#linear-gradient-72);}.cls-76{fill:url(#linear-gradient-73);}.cls-77{fill:url(#linear-gradient-74);}.cls-78{fill:url(#linear-gradient-75);}.cls-79{fill:url(#linear-gradient-76);}.cls-80{fill:url(#linear-gradient-77);}.cls-81{fill:url(#linear-gradient-78);}.cls-82{fill:url(#linear-gradient-79);}.cls-83{fill:url(#linear-gradient-80);}.cls-84{fill:url(#linear-gradient-81);}.cls-85{fill:url(#linear-gradient-82);}.cls-86{fill:url(#linear-gradient-83);}.cls-87{fill:url(#linear-gradient-84);}.cls-88{fill:url(#linear-gradient-85);}.cls-89{fill:url(#linear-gradient-86);}.cls-90{fill:url(#linear-gradient-87);}.cls-91{fill:url(#linear-gradient-88);}.cls-92{fill:#f8d247;}.cls-93{fill:url(#linear-gradient-89);}.cls-94{fill:url(#linear-gradient-90);}.cls-95{fill:url(#linear-gradient-91);}.cls-96{fill:url(#linear-gradient-92);}.cls-97{fill:url(#linear-gradient-93);}.cls-98{fill:url(#linear-gradient-94);}.cls-99{fill:url(#linear-gradient-95);}.cls-100{fill:url(#linear-gradient-96);}.cls-101{fill:url(#linear-gradient-97);}.cls-102{fill:url(#linear-gradient-98);}.cls-103{fill:url(#linear-gradient-99);}.cls-104{fill:url(#linear-gradient-100);}.cls-105{fill:url(#linear-gradient-101);}.cls-106{fill:url(#linear-gradient-102);}.cls-107{fill:url(#linear-gradient-103);}.cls-108{fill:url(#linear-gradient-104);}.cls-109{fill:url(#linear-gradient-105);}.cls-110{fill:url(#linear-gradient-106);}.cls-111{fill:url(#linear-gradient-107);}.cls-112{fill:url(#linear-gradient-108);}.cls-113{fill:url(#linear-gradient-109);}.cls-114{fill:url(#linear-gradient-110);}.cls-115{fill:url(#linear-gradient-111);}.cls-116{fill:url(#linear-gradient-112);}.cls-117{fill:url(#linear-gradient-113);}.cls-118{fill:url(#linear-gradient-114);}.cls-119{fill:url(#linear-gradient-115);}.cls-120{fill:url(#linear-gradient-116);}.cls-121{fill:url(#linear-gradient-117);}.cls-122{fill:url(#linear-gradient-118);}.cls-123{fill:url(#linear-gradient-119);}.cls-124{fill:url(#linear-gradient-120);}.cls-125{fill:url(#linear-gradient-121);}.cls-126{fill:url(#linear-gradient-122);}.cls-127{fill:url(#linear-gradient-123);}.cls-128{fill:url(#linear-gradient-124);}.cls-129{fill:url(#linear-gradient-125);}.cls-130{fill:url(#linear-gradient-126);}.cls-131{fill:url(#linear-gradient-127);}.cls-132{fill:url(#linear-gradient-128);}.cls-133{fill:url(#linear-gradient-129);}.cls-134{fill:url(#linear-gradient-130);}.cls-135{fill:url(#linear-gradient-131);}.cls-136{fill:url(#linear-gradient-132);}.cls-137{fill:url(#linear-gradient-133);}.cls-138{fill:url(#linear-gradient-134);}.cls-139{fill:url(#linear-gradient-135);}.cls-140{fill:url(#linear-gradient-136);}.cls-141{fill:url(#linear-gradient-137);}.cls-142{fill:url(#linear-gradient-138);}.cls-143{fill:url(#linear-gradient-139);}.cls-144{fill:url(#linear-gradient-140);}.cls-145{fill:url(#linear-gradient-141);}.cls-146{fill:url(#linear-gradient-142);}.cls-147{fill:url(#linear-gradient-143);}.cls-148{fill:url(#linear-gradient-144);}.cls-149{fill:url(#linear-gradient-145);}.cls-150{fill:url(#linear-gradient-146);}.cls-151{fill:url(#linear-gradient-147);}.cls-152{fill:url(#linear-gradient-148);}.cls-153{fill:url(#linear-gradient-149);}.cls-154{fill:url(#linear-gradient-150);}.cls-155{fill:url(#linear-gradient-151);}.cls-156{fill:url(#linear-gradient-152);}.cls-157{fill:url(#linear-gradient-153);}.cls-158{fill:url(#linear-gradient-154);}.cls-159{fill:url(#linear-gradient-155);}.cls-160{fill:url(#linear-gradient-156);}.cls-161{fill:url(#linear-gradient-157);}.cls-162{fill:url(#linear-gradient-158);}.cls-163{fill:url(#linear-gradient-159);}.cls-164{fill:url(#linear-gradient-160);}.cls-165{fill:url(#linear-gradient-161);}.cls-166{fill:url(#linear-gradient-162);}.cls-167{fill:url(#linear-gradient-163);}.cls-168{fill:url(#linear-gradient-164);}.cls-169{fill:url(#linear-gradient-165);}.cls-170{fill:url(#linear-gradient-166);}.cls-171{fill:url(#linear-gradient-167);}.cls-172{fill:url(#linear-gradient-168);}.cls-173{fill:url(#linear-gradient-169);}.cls-174{fill:url(#linear-gradient-170);}.cls-175{fill:url(#linear-gradient-171);}.cls-176{fill:url(#linear-gradient-172);}.cls-177{fill:url(#linear-gradient-173);}.cls-178{fill:url(#linear-gradient-174);}.cls-179{fill:url(#linear-gradient-175);}.cls-180{fill:url(#linear-gradient-176);}.cls-181{fill:url(#linear-gradient-177);}.cls-182{fill:url(#linear-gradient-178);}.cls-183{fill:url(#linear-gradient-179);}</style><linearGradient id="linear-gradient" x1="719.72" y1="540.35" x2="499.49" y2="302.71" gradientUnits="userSpaceOnUse"><stop offset="0" stop-color="#fff" stop-opacity="0"/><stop offset="1" stop-color="#a4b3e1"/></linearGradient><linearGradient id="linear-gradient-2" x1="390.68" y1="597.28" x2="403.12" y2="384.52" xlink:href="#linear-gradient"/><linearGradient id="linear-gradient-3" x1="19.53" y1="193.56" x2="247.21" y2="352.82" xlink:href="#linear-gradient"/><linearGradient id="linear-gradient-4" x1="500.73" y1="32.67" x2="452.21" y2="201.88" xlink:href="#linear-gradient"/><linearGradient id="linear-gradient-5" x1="720.67" y1="141.02" x2="545.24" y2="218.16" xlink:href="#linear-gradient"/><linearGradient id="linear-gradient-6" x1="310.17" y1="442.78" x2="384.72" y2="301.14" gradientUnits="userSpaceOnUse"><stop offset="0" stop-color="#fff" stop-opacity="0"/><stop offset="1" stop-color="#0042ff"/></linearGradient><linearGradient id="linear-gradient-7" x1="104.81" y1="477.94" x2="179.35" y2="336.3" xlink:href="#linear-gradient-6"/><linearGradient id="linear-gradient-8" x1="254.37" y1="220.01" x2="614.99" y2="220.01" gradientUnits="userSpaceOnUse"><stop offset="0" stop-color="#fff"/><stop offset="1" stop-color="#3e60c4"/></linearGradient><linearGradient id="linear-gradient-9" x1="522.72" y1="163.66" x2="417.6" y2="638.53" xlink:href="#linear-gradient-8"/><linearGradient id="linear-gradient-10" x1="620.42" y1="276.16" x2="556.56" y2="331.07" xlink:href="#linear-gradient-8"/><linearGradient id="linear-gradient-11" x1="357.78" y1="375.47" x2="404.94" y2="461.76" xlink:href="#linear-gradient-8"/><linearGradient id="linear-gradient-12" x1="577.55" y1="202.65" x2="416.03" y2="395.23" xlink:href="#linear-gradient-8"/><linearGradient id="linear-gradient-13" x1="480.71" y1="339.41" x2="481.27" y2="428.68" gradientUnits="userSpaceOnUse"><stop offset="0" stop-color="#3e60c4"/><stop offset="1" stop-color="#3e0dc4"/></linearGradient><linearGradient id="linear-gradient-14" x1="459.18" y1="105.05" x2="444.73" y2="360.38" xlink:href="#linear-gradient-13"/><linearGradient id="linear-gradient-15" x1="407.18" y1="74.03" x2="433.34" y2="245.94" xlink:href="#linear-gradient-8"/><linearGradient id="linear-gradient-16" x1="349.53" y1="462.72" x2="434.09" y2="287.75" gradientUnits="userSpaceOnUse"><stop offset="0" stop-color="#3e60c4"/><stop offset="1" stop-color="#00caff"/></linearGradient><linearGradient id="linear-gradient-17" x1="387.35" y1="115.59" x2="408.23" y2="252.75" xlink:href="#linear-gradient-8"/><linearGradient id="linear-gradient-18" x1="416.85" y1="156.62" x2="322.42" y2="549.4" xlink:href="#linear-gradient-8"/><linearGradient id="linear-gradient-19" x1="308.21" y1="114.42" x2="382.76" y2="354.46" xlink:href="#linear-gradient-13"/><linearGradient id="linear-gradient-20" x1="258.87" y1="225.51" x2="263.72" y2="241.12" xlink:href="#linear-gradient-8"/><linearGradient id="linear-gradient-21" x1="262.3" y1="93.6" x2="374.86" y2="287.42" xlink:href="#linear-gradient-8"/><linearGradient id="linear-gradient-22" x1="319.82" y1="110.16" x2="329.11" y2="149.08" xlink:href="#linear-gradient-8"/><linearGradient id="linear-gradient-23" x1="283.56" y1="157.64" x2="283.56" y2="273.19" xlink:href="#linear-gradient-13"/><linearGradient id="linear-gradient-24" x1="352.71" y1="157.64" x2="352.71" y2="273.19" xlink:href="#linear-gradient-13"/><linearGradient id="linear-gradient-25" x1="250.29" y1="237.04" x2="291.03" y2="307.48" xlink:href="#linear-gradient-8"/><linearGradient id="linear-gradient-26" x1="251.16" y1="297.37" x2="287.78" y2="297.37" gradientTransform="translate(186.91 -95.35) rotate(30.31)" xlink:href="#linear-gradient-13"/><linearGradient id="linear-gradient-27" x1="246.45" y1="324.26" x2="313.11" y2="244.07" gradientTransform="translate(187.12 -94.6) rotate(30.31)" xlink:href="#linear-gradient-8"/><linearGradient id="linear-gradient-28" x1="267.63" y1="337.74" x2="267.63" y2="284.49" xlink:href="#linear-gradient-8"/><linearGradient id="linear-gradient-29" x1="272.6" y1="260.32" x2="269.53" y2="314.51" gradientTransform="translate(186.74 -95.97) rotate(30.31)" xlink:href="#linear-gradient-8"/><linearGradient id="linear-gradient-30" x1="308.23" y1="264.79" x2="361.47" y2="356.84" xlink:href="#linear-gradient-8"/><linearGradient id="linear-gradient-31" x1="309.36" y1="343.63" x2="357.22" y2="343.63" gradientTransform="translate(218.99 -121.23) rotate(30.31)" xlink:href="#linear-gradient-13"/><linearGradient id="linear-gradient-32" x1="303.21" y1="378.77" x2="390.33" y2="273.98" gradientTransform="translate(219.25 -120.25) rotate(30.31)" xlink:href="#linear-gradient-8"/><linearGradient id="linear-gradient-33" x1="330.88" y1="396.4" x2="330.88" y2="326.8" xlink:href="#linear-gradient-8"/><linearGradient id="linear-gradient-34" x1="337.38" y1="295.21" x2="333.37" y2="366.03" gradientTransform="translate(218.76 -122.05) rotate(30.31)" xlink:href="#linear-gradient-8"/><linearGradient id="linear-gradient-35" x1="451.96" y1="320.17" x2="452.09" y2="340.38" xlink:href="#linear-gradient-13"/><linearGradient id="linear-gradient-36" x1="439.59" y1="330.13" x2="439.66" y2="342.15" xlink:href="#linear-gradient-13"/><linearGradient id="linear-gradient-37" x1="271.87" y1="130.99" x2="391.14" y2="453.77" gradientUnits="userSpaceOnUse"><stop offset="0" stop-color="#f8d247"/><stop offset="1" stop-color="#f83d47"/></linearGradient><linearGradient id="linear-gradient-38" x1="626.59" y1="186.66" x2="521.48" y2="661.52" xlink:href="#linear-gradient-8"/><linearGradient id="linear-gradient-39" x1="397.96" y1="260.99" x2="434.49" y2="475.69" xlink:href="#linear-gradient-8"/><linearGradient id="linear-gradient-40" x1="1021.94" y1="201.75" x2="594.04" y2="424.65" xlink:href="#linear-gradient-8"/><linearGradient id="linear-gradient-41" x1="199.8" y1="456.9" x2="341.9" y2="497.5" gradientTransform="translate(324.35 -61.36) rotate(13.8)" xlink:href="#linear-gradient-8"/><linearGradient id="linear-gradient-42" x1="202.79" y1="455.12" x2="389.85" y2="514.12" gradientTransform="translate(886.08 198.53) rotate(87.81)" xlink:href="#linear-gradient-8"/><linearGradient id="linear-gradient-43" x1="202.79" y1="455.12" x2="389.85" y2="514.12" gradientTransform="translate(886.08 198.53) rotate(87.81)" xlink:href="#linear-gradient-8"/><linearGradient id="linear-gradient-44" x1="205.67" y1="454.68" x2="290.18" y2="481.14" gradientTransform="translate(324.35 -61.36) rotate(13.8)" xlink:href="#linear-gradient-8"/><linearGradient id="linear-gradient-45" x1="615.47" y1="446.05" x2="757.56" y2="486.65" gradientTransform="translate(-251.42 121.92) rotate(-11.67)" xlink:href="#linear-gradient-8"/><linearGradient id="linear-gradient-46" x1="618.46" y1="444.27" x2="805.51" y2="503.27" gradientTransform="translate(-190.14 7.76) rotate(-2.19)" xlink:href="#linear-gradient-8"/><linearGradient id="linear-gradient-47" x1="618.46" y1="444.27" x2="805.51" y2="503.27" gradientTransform="translate(-190.14 7.77) rotate(-2.19)" xlink:href="#linear-gradient-8"/><linearGradient id="linear-gradient-48" x1="621.33" y1="443.82" x2="705.85" y2="470.29" gradientTransform="translate(-251.42 121.92) rotate(-11.67)" xlink:href="#linear-gradient-8"/><linearGradient id="linear-gradient-49" x1="831.35" y1="297.65" x2="973.44" y2="338.25" gradientTransform="translate(-251.42 121.92) rotate(-11.67)" xlink:href="#linear-gradient-8"/><linearGradient id="linear-gradient-50" x1="834.34" y1="295.87" x2="1021.4" y2="354.87" gradientTransform="translate(-218.79 -24.7) rotate(-2.19)" xlink:href="#linear-gradient-8"/><linearGradient id="linear-gradient-51" x1="834.34" y1="295.87" x2="1021.4" y2="354.87" gradientTransform="translate(-218.79 -24.7) rotate(-2.19)" xlink:href="#linear-gradient-8"/><linearGradient id="linear-gradient-52" x1="837.22" y1="295.43" x2="921.73" y2="321.89" gradientTransform="translate(-251.42 121.92) rotate(-11.67)" xlink:href="#linear-gradient-8"/><linearGradient id="linear-gradient-53" x1="71.31" y1="132.55" x2="213.41" y2="173.14" gradientTransform="translate(213.25 -58.52) rotate(12.37)" xlink:href="#linear-gradient-8"/><linearGradient id="linear-gradient-54" x1="74.31" y1="130.76" x2="261.36" y2="189.76" gradientTransform="matrix(0.04, 1, -1, 0.04, 412.26, -5.08)" xlink:href="#linear-gradient-8"/><linearGradient id="linear-gradient-55" x1="74.31" y1="130.76" x2="261.36" y2="189.76" gradientTransform="matrix(0.04, 1, -1, 0.04, 412.26, -5.08)" xlink:href="#linear-gradient-8"/><linearGradient id="linear-gradient-56" x1="77.18" y1="130.32" x2="161.7" y2="156.78" gradientTransform="translate(213.25 -58.52) rotate(12.37)" xlink:href="#linear-gradient-8"/><linearGradient id="linear-gradient-57" x1="212.76" y1="301.21" x2="354.85" y2="341.81" gradientTransform="matrix(0.95, 0.31, -0.31, 0.95, 402.79, -141.38)" xlink:href="#linear-gradient-8"/><linearGradient id="linear-gradient-58" x1="215.75" y1="299.43" x2="402.8" y2="358.43" gradientTransform="translate(830.85 -25.63) rotate(87.81)" xlink:href="#linear-gradient-8"/><linearGradient id="linear-gradient-59" x1="215.75" y1="299.43" x2="402.8" y2="358.43" gradientTransform="translate(830.85 -25.63) rotate(87.81)" xlink:href="#linear-gradient-8"/><linearGradient id="linear-gradient-60" x1="218.62" y1="298.98" x2="303.14" y2="325.45" gradientTransform="matrix(0.95, 0.31, -0.31, 0.95, 402.79, -141.38)" xlink:href="#linear-gradient-8"/><linearGradient id="linear-gradient-61" x1="93.09" y1="465.95" x2="235.18" y2="506.55" gradientTransform="translate(641.32 -86.35) rotate(27.63)" xlink:href="#linear-gradient-8"/><linearGradient id="linear-gradient-62" x1="96.08" y1="464.17" x2="283.14" y2="523.17" gradientTransform="translate(994.16 249.71) rotate(87.81)" xlink:href="#linear-gradient-8"/><linearGradient id="linear-gradient-63" x1="96.08" y1="464.17" x2="283.14" y2="523.17" gradientTransform="translate(994.16 249.71) rotate(87.81)" xlink:href="#linear-gradient-8"/><linearGradient id="linear-gradient-64" x1="98.96" y1="463.73" x2="183.47" y2="490.19" gradientTransform="translate(641.32 -86.35) rotate(27.63)" xlink:href="#linear-gradient-8"/><linearGradient id="linear-gradient-65" x1="752.41" y1="377.94" x2="894.51" y2="418.53" gradientTransform="translate(-232.28 157.36) rotate(-11.62)" xlink:href="#linear-gradient-8"/><linearGradient id="linear-gradient-66" x1="755.4" y1="376.15" x2="942.46" y2="435.15" gradientTransform="translate(-185.09 22.81) rotate(-2.19)" xlink:href="#linear-gradient-8"/><linearGradient id="linear-gradient-67" x1="755.4" y1="376.15" x2="942.46" y2="435.15" gradientTransform="matrix(1, -0.04, 0.04, 1, -185.09, 22.81)" xlink:href="#linear-gradient-8"/><linearGradient id="linear-gradient-68" x1="758.28" y1="375.71" x2="842.8" y2="402.17" gradientTransform="translate(-232.28 157.36) rotate(-11.62)" xlink:href="#linear-gradient-8"/><linearGradient id="linear-gradient-69" x1="566.9" y1="193.4" x2="708.99" y2="233.99" gradientTransform="matrix(1, 0.03, -0.03, 1, 22.03, 1.79)" xlink:href="#linear-gradient-8"/><linearGradient id="linear-gradient-70" x1="569.89" y1="191.61" x2="756.94" y2="250.61" gradientTransform="translate(783.02 -378.43) rotate(87.81)" xlink:href="#linear-gradient-8"/><linearGradient id="linear-gradient-71" x1="569.89" y1="191.61" x2="756.94" y2="250.61" gradientTransform="translate(783.02 -378.43) rotate(87.81)" xlink:href="#linear-gradient-8"/><linearGradient id="linear-gradient-72" x1="572.76" y1="191.17" x2="657.28" y2="217.63" gradientTransform="matrix(1, 0.03, -0.03, 1, 22.03, 1.79)" xlink:href="#linear-gradient-8"/><linearGradient id="linear-gradient-73" x1="691.36" y1="236.12" x2="833.46" y2="276.72" gradientTransform="translate(-232.28 157.36) rotate(-11.62)" xlink:href="#linear-gradient-8"/><linearGradient id="linear-gradient-74" x1="694.36" y1="234.34" x2="881.41" y2="293.34" gradientTransform="translate(-207.03 35.58) rotate(-2.19)" xlink:href="#linear-gradient-8"/><linearGradient id="linear-gradient-75" x1="694.36" y1="234.34" x2="881.41" y2="293.34" gradientTransform="translate(-207.03 35.58) rotate(-2.19)" xlink:href="#linear-gradient-8"/><linearGradient id="linear-gradient-76" x1="697.23" y1="233.89" x2="781.75" y2="260.36" gradientTransform="translate(-232.28 157.36) rotate(-11.62)" xlink:href="#linear-gradient-8"/><linearGradient id="linear-gradient-77" x1="848.67" y1="338.14" x2="990.77" y2="378.73" gradientTransform="translate(-232.28 157.36) rotate(-11.62)" xlink:href="#linear-gradient-8"/><linearGradient id="linear-gradient-78" x1="851.67" y1="336.35" x2="1038.72" y2="395.35" gradientTransform="translate(-193.49 7.88) rotate(-2.19)" xlink:href="#linear-gradient-8"/><linearGradient id="linear-gradient-79" x1="851.67" y1="336.35" x2="1038.72" y2="395.35" gradientTransform="translate(-193.49 7.88) rotate(-2.19)" xlink:href="#linear-gradient-8"/><linearGradient id="linear-gradient-80" x1="854.54" y1="335.91" x2="939.06" y2="362.37" gradientTransform="translate(-232.28 157.36) rotate(-11.62)" xlink:href="#linear-gradient-8"/><linearGradient id="linear-gradient-81" x1="385.58" y1="83.44" x2="527.67" y2="124.04" gradientTransform="translate(46.53 10.97) rotate(4.37)" xlink:href="#linear-gradient-8"/><linearGradient id="linear-gradient-82" x1="388.57" y1="81.66" x2="575.62" y2="140.66" gradientTransform="translate(522.57 -283.34) rotate(87.81)" xlink:href="#linear-gradient-8"/><linearGradient id="linear-gradient-83" x1="388.57" y1="81.66" x2="575.63" y2="140.66" gradientTransform="translate(522.57 -283.34) rotate(87.81)" xlink:href="#linear-gradient-8"/><linearGradient id="linear-gradient-84" x1="391.44" y1="81.21" x2="475.96" y2="107.68" gradientTransform="translate(46.53 10.97) rotate(4.37)" xlink:href="#linear-gradient-8"/><linearGradient id="linear-gradient-85" x1="386.3" y1="16.11" x2="281.86" y2="237.19" xlink:href="#linear-gradient-8"/><linearGradient id="linear-gradient-86" x1="277.31" y1="2.25" x2="187.85" y2="191.6" xlink:href="#linear-gradient-8"/><linearGradient id="linear-gradient-87" x1="208.37" y1="124.63" x2="183.48" y2="237.05" xlink:href="#linear-gradient-13"/><linearGradient id="linear-gradient-88" x1="184.04" y1="337.31" x2="214.31" y2="337.31" gradientTransform="translate(554.28 -115.02) rotate(25.18)" xlink:href="#linear-gradient-37"/><linearGradient id="linear-gradient-89" x1="191.91" y1="328.43" x2="227.93" y2="362.32" gradientTransform="translate(554.28 -115.02) rotate(25.18)" xlink:href="#linear-gradient-37"/><linearGradient id="linear-gradient-90" x1="188.63" y1="333" x2="209.8" y2="333" gradientTransform="translate(554.28 -115.02) rotate(25.18)" xlink:href="#linear-gradient-37"/><linearGradient id="linear-gradient-91" x1="508.54" y1="213.66" x2="538.81" y2="213.66" gradientTransform="translate(-72.9 -5.97) rotate(-5.13)" xlink:href="#linear-gradient-37"/><linearGradient id="linear-gradient-92" x1="516.41" y1="204.78" x2="552.43" y2="238.67" gradientTransform="translate(-72.9 -5.97) rotate(-5.13)" xlink:href="#linear-gradient-37"/><linearGradient id="linear-gradient-93" x1="513.13" y1="209.35" x2="534.3" y2="209.35" gradientTransform="translate(-72.9 -5.97) rotate(-5.13)" xlink:href="#linear-gradient-37"/><linearGradient id="linear-gradient-94" x1="177.16" y1="517.64" x2="207.42" y2="517.64" gradientTransform="translate(554.28 -115.02) rotate(25.18)" xlink:href="#linear-gradient-37"/><linearGradient id="linear-gradient-95" x1="185.03" y1="508.76" x2="221.04" y2="542.65" gradientTransform="translate(554.28 -115.02) rotate(25.18)" xlink:href="#linear-gradient-37"/><linearGradient id="linear-gradient-96" x1="181.74" y1="513.33" x2="202.92" y2="513.33" gradientTransform="translate(554.28 -115.02) rotate(25.18)" xlink:href="#linear-gradient-37"/><linearGradient id="linear-gradient-97" x1="757.56" y1="412.82" x2="787.83" y2="412.82" gradientTransform="translate(-265.99 128.56) rotate(-10.83)" xlink:href="#linear-gradient-37"/><linearGradient id="linear-gradient-98" x1="765.43" y1="403.94" x2="801.45" y2="437.83" gradientTransform="translate(-265.99 128.56) rotate(-10.83)" xlink:href="#linear-gradient-37"/><linearGradient id="linear-gradient-99" x1="762.15" y1="408.51" x2="783.32" y2="408.51" gradientTransform="translate(-265.99 128.56) rotate(-10.83)" xlink:href="#linear-gradient-37"/><linearGradient id="linear-gradient-100" x1="573.86" y1="80.03" x2="604.13" y2="80.03" gradientTransform="translate(-265.99 128.56) rotate(-10.83)" xlink:href="#linear-gradient-37"/><linearGradient id="linear-gradient-101" x1="581.73" y1="71.16" x2="617.74" y2="105.05" gradientTransform="translate(-265.99 128.56) rotate(-10.83)" xlink:href="#linear-gradient-37"/><linearGradient id="linear-gradient-102" x1="578.45" y1="75.72" x2="599.62" y2="75.72" gradientTransform="translate(-265.99 128.56) rotate(-10.83)" xlink:href="#linear-gradient-37"/><linearGradient id="linear-gradient-103" x1="926.21" y1="392.26" x2="956.47" y2="392.26" gradientTransform="translate(-376.05 273.52) rotate(-18.67)" xlink:href="#linear-gradient-37"/><linearGradient id="linear-gradient-104" x1="934.07" y1="383.38" x2="970.09" y2="417.28" gradientTransform="translate(-376.05 273.52) rotate(-18.67)" xlink:href="#linear-gradient-37"/><linearGradient id="linear-gradient-105" x1="930.79" y1="387.95" x2="951.96" y2="387.95" gradientTransform="translate(-376.05 273.52) rotate(-18.67)" xlink:href="#linear-gradient-37"/><linearGradient id="linear-gradient-106" x1="313.34" y1="330.13" x2="343.61" y2="330.13" gradientTransform="translate(503.02 -138.69) rotate(23.78)" xlink:href="#linear-gradient-37"/><linearGradient id="linear-gradient-107" x1="321.21" y1="321.26" x2="357.23" y2="355.15" gradientTransform="translate(503.02 -138.69) rotate(23.78)" xlink:href="#linear-gradient-37"/><linearGradient id="linear-gradient-108" x1="317.93" y1="325.82" x2="339.1" y2="325.82" gradientTransform="translate(503.02 -138.69) rotate(23.78)" xlink:href="#linear-gradient-37"/><linearGradient id="linear-gradient-109" x1="-8.69" y1="280.41" x2="21.57" y2="280.41" gradientTransform="translate(503.02 -138.69) rotate(23.78)" xlink:href="#linear-gradient-37"/><linearGradient id="linear-gradient-110" x1="-0.83" y1="271.53" x2="35.19" y2="305.42" gradientTransform="translate(503.02 -138.69) rotate(23.78)" xlink:href="#linear-gradient-37"/><linearGradient id="linear-gradient-111" x1="-4.11" y1="276.1" x2="17.06" y2="276.1" gradientTransform="translate(503.02 -138.69) rotate(23.78)" xlink:href="#linear-gradient-37"/><linearGradient id="linear-gradient-112" x1="408.12" y1="253.62" x2="380.41" y2="315.13" xlink:href="#linear-gradient-37"/><linearGradient id="linear-gradient-113" x1="239.5" y1="260.68" x2="50.15" y2="559.02" xlink:href="#linear-gradient-8"/><linearGradient id="linear-gradient-114" x1="316.03" y1="320.67" x2="182.3" y2="320.67" xlink:href="#linear-gradient-8"/><linearGradient id="linear-gradient-115" x1="279.88" y1="328.96" x2="-75.11" y2="410.32" xlink:href="#linear-gradient-13"/><linearGradient id="linear-gradient-116" x1="-198.01" y1="460.49" x2="-167.74" y2="460.49" gradientTransform="translate(554.28 -115.02) rotate(25.18)" xlink:href="#linear-gradient-37"/><linearGradient id="linear-gradient-117" x1="-190.14" y1="451.61" x2="-154.12" y2="485.5" gradientTransform="translate(554.28 -115.02) rotate(25.18)" xlink:href="#linear-gradient-37"/><linearGradient id="linear-gradient-118" x1="-193.42" y1="456.18" x2="-172.25" y2="456.18" gradientTransform="translate(554.28 -115.02) rotate(25.18)" xlink:href="#linear-gradient-37"/><linearGradient id="linear-gradient-119" x1="1186.99" y1="1033.28" x2="1217.25" y2="1033.28" gradientTransform="translate(-1126.93 1146.71) rotate(-74.25)" xlink:href="#linear-gradient-37"/><linearGradient id="linear-gradient-120" x1="1194.86" y1="1024.4" x2="1230.87" y2="1058.29" gradientTransform="translate(-1126.93 1146.71) rotate(-74.25)" xlink:href="#linear-gradient-37"/><linearGradient id="linear-gradient-121" x1="1191.58" y1="1028.97" x2="1212.75" y2="1028.97" gradientTransform="translate(-1126.93 1146.71) rotate(-74.25)" xlink:href="#linear-gradient-37"/><linearGradient id="linear-gradient-122" x1="1.58" y1="428.19" x2="31.84" y2="428.19" gradientTransform="translate(261.92 -105.79) rotate(12.8)" xlink:href="#linear-gradient-37"/><linearGradient id="linear-gradient-123" x1="9.44" y1="419.31" x2="45.46" y2="453.21" gradientTransform="translate(261.92 -105.79) rotate(12.8)" xlink:href="#linear-gradient-37"/><linearGradient id="linear-gradient-124" x1="6.16" y1="423.88" x2="27.33" y2="423.88" gradientTransform="translate(261.92 -105.79) rotate(12.8)" xlink:href="#linear-gradient-37"/><linearGradient id="linear-gradient-125" x1="279.8" y1="328.95" x2="-75.2" y2="410.32" xlink:href="#linear-gradient-13"/><linearGradient id="linear-gradient-126" x1="-140.86" y1="518.2" x2="-110.6" y2="518.2" gradientTransform="translate(519.14 -106.59) rotate(22.8)" xlink:href="#linear-gradient-37"/><linearGradient id="linear-gradient-127" x1="-133" y1="509.33" x2="-96.98" y2="543.22" gradientTransform="translate(519.14 -106.59) rotate(22.8)" xlink:href="#linear-gradient-37"/><linearGradient id="linear-gradient-128" x1="-136.28" y1="513.9" x2="-115.11" y2="513.9" gradientTransform="translate(519.14 -106.59) rotate(22.8)" xlink:href="#linear-gradient-37"/><linearGradient id="linear-gradient-129" x1="1121.43" y1="1051.9" x2="1151.69" y2="1051.9" gradientTransform="translate(-1126.93 1146.71) rotate(-74.25)" xlink:href="#linear-gradient-37"/><linearGradient id="linear-gradient-130" x1="1129.29" y1="1043.02" x2="1165.31" y2="1076.91" gradientTransform="translate(-1126.93 1146.71) rotate(-74.25)" xlink:href="#linear-gradient-37"/><linearGradient id="linear-gradient-131" x1="1126.01" y1="1047.59" x2="1147.19" y2="1047.59" gradientTransform="translate(-1126.93 1146.71) rotate(-74.25)" xlink:href="#linear-gradient-37"/><linearGradient id="linear-gradient-132" x1="15.23" y1="472.35" x2="45.5" y2="472.35" gradientTransform="translate(261.92 -105.79) rotate(12.8)" xlink:href="#linear-gradient-37"/><linearGradient id="linear-gradient-133" x1="23.1" y1="463.47" x2="59.12" y2="497.36" gradientTransform="translate(261.92 -105.79) rotate(12.8)" xlink:href="#linear-gradient-37"/><linearGradient id="linear-gradient-134" x1="19.82" y1="468.04" x2="40.99" y2="468.04" gradientTransform="translate(261.92 -105.79) rotate(12.8)" xlink:href="#linear-gradient-37"/><linearGradient id="linear-gradient-135" x1="219.16" y1="337.32" x2="237.26" y2="337.32" xlink:href="#linear-gradient-37"/><linearGradient id="linear-gradient-136" x1="-566.22" y1="1015.9" x2="-530.2" y2="1049.79" gradientTransform="translate(1387.78 472.11) rotate(67.99)" xlink:href="#linear-gradient-37"/><linearGradient id="linear-gradient-137" x1="-569.5" y1="1020.46" x2="-548.33" y2="1020.46" gradientTransform="translate(1387.78 472.11) rotate(67.99)" xlink:href="#linear-gradient-37"/><linearGradient id="linear-gradient-138" x1="714.14" y1="541.36" x2="744.41" y2="541.36" gradientTransform="translate(-757.26 298.8) rotate(-34.85)" xlink:href="#linear-gradient-37"/><linearGradient id="linear-gradient-139" x1="722.01" y1="532.48" x2="758.02" y2="566.38" gradientTransform="translate(-757.26 298.8) rotate(-34.85)" xlink:href="#linear-gradient-37"/><linearGradient id="linear-gradient-140" x1="718.73" y1="537.05" x2="739.9" y2="537.05" gradientTransform="translate(-757.26 298.8) rotate(-34.85)" xlink:href="#linear-gradient-37"/><linearGradient id="linear-gradient-141" x1="-633.98" y1="1043.34" x2="-603.72" y2="1043.34" gradientTransform="translate(1363.75 516.54) rotate(68.44)" xlink:href="#linear-gradient-37"/><linearGradient id="linear-gradient-142" x1="-626.11" y1="1034.46" x2="-590.1" y2="1068.36" gradientTransform="translate(1363.75 516.54) rotate(68.44)" xlink:href="#linear-gradient-37"/><linearGradient id="linear-gradient-143" x1="-629.39" y1="1039.03" x2="-608.22" y2="1039.03" gradientTransform="translate(1363.75 516.54) rotate(68.44)" xlink:href="#linear-gradient-37"/><linearGradient id="linear-gradient-144" x1="895.92" y1="637.82" x2="926.19" y2="637.82" gradientTransform="translate(-883.33 513.35) rotate(-44.33)" xlink:href="#linear-gradient-37"/><linearGradient id="linear-gradient-145" x1="903.79" y1="628.94" x2="939.8" y2="662.84" gradientTransform="translate(-883.33 513.35) rotate(-44.33)" xlink:href="#linear-gradient-37"/><linearGradient id="linear-gradient-146" x1="900.51" y1="633.51" x2="921.68" y2="633.51" gradientTransform="translate(-883.33 513.35) rotate(-44.33)" xlink:href="#linear-gradient-37"/><linearGradient id="linear-gradient-147" x1="209.42" y1="347.77" x2="237.06" y2="347.77" xlink:href="#linear-gradient-37"/><linearGradient id="linear-gradient-148" x1="762.23" y1="533.61" x2="798.25" y2="567.5" gradientTransform="translate(-717.19 308.16) rotate(-32.77)" xlink:href="#linear-gradient-37"/><linearGradient id="linear-gradient-149" x1="758.95" y1="538.18" x2="780.12" y2="538.18" gradientTransform="translate(-717.19 308.16) rotate(-32.77)" xlink:href="#linear-gradient-37"/><linearGradient id="linear-gradient-150" x1="34.18" y1="448.84" x2="64.44" y2="448.84" gradientTransform="translate(261.92 -105.79) rotate(12.8)" xlink:href="#linear-gradient-37"/><linearGradient id="linear-gradient-151" x1="42.04" y1="439.96" x2="78.06" y2="473.85" gradientTransform="translate(261.92 -105.79) rotate(12.8)" xlink:href="#linear-gradient-37"/><linearGradient id="linear-gradient-152" x1="38.76" y1="444.53" x2="59.94" y2="444.53" gradientTransform="translate(261.92 -105.79) rotate(12.8)" xlink:href="#linear-gradient-37"/><linearGradient id="linear-gradient-153" x1="788.69" y1="598.84" x2="818.96" y2="598.84" gradientTransform="translate(-844.52 396.54) rotate(-40.01)" xlink:href="#linear-gradient-37"/><linearGradient id="linear-gradient-154" x1="796.56" y1="589.96" x2="832.58" y2="623.85" gradientTransform="translate(-844.52 396.54) rotate(-40.01)" xlink:href="#linear-gradient-37"/><linearGradient id="linear-gradient-155" x1="793.28" y1="594.53" x2="814.45" y2="594.53" gradientTransform="translate(-844.52 396.54) rotate(-40.01)" xlink:href="#linear-gradient-37"/><linearGradient id="linear-gradient-156" x1="-0.7" y1="457.75" x2="29.57" y2="457.75" gradientTransform="translate(261.92 -105.79) rotate(12.8)" xlink:href="#linear-gradient-37"/><linearGradient id="linear-gradient-157" x1="7.17" y1="448.87" x2="43.19" y2="482.77" gradientTransform="translate(261.92 -105.79) rotate(12.8)" xlink:href="#linear-gradient-37"/><linearGradient id="linear-gradient-158" x1="3.89" y1="453.44" x2="25.06" y2="453.44" gradientTransform="translate(261.92 -105.79) rotate(12.8)" xlink:href="#linear-gradient-37"/><linearGradient id="linear-gradient-159" x1="139.2" y1="353.83" x2="168.91" y2="353.83" xlink:href="#linear-gradient-37"/><linearGradient id="linear-gradient-160" x1="251.1" y1="425.43" x2="287.12" y2="459.32" gradientTransform="translate(-132.41 -62.57) rotate(-3.76)" xlink:href="#linear-gradient-37"/><linearGradient id="linear-gradient-161" x1="247.82" y1="429.99" x2="268.99" y2="429.99" gradientTransform="translate(-132.41 -62.57) rotate(-3.76)" xlink:href="#linear-gradient-37"/><linearGradient id="linear-gradient-162" x1="123.54" y1="342.84" x2="153.78" y2="342.84" xlink:href="#linear-gradient-37"/><linearGradient id="linear-gradient-163" x1="236.73" y1="413.42" x2="272.75" y2="447.32" gradientTransform="translate(-132.41 -62.57) rotate(-3.76)" xlink:href="#linear-gradient-37"/><linearGradient id="linear-gradient-164" x1="233.45" y1="417.99" x2="254.62" y2="417.99" gradientTransform="translate(-132.41 -62.57) rotate(-3.76)" xlink:href="#linear-gradient-37"/><linearGradient id="linear-gradient-165" x1="165.84" y1="369.73" x2="194.31" y2="369.73" xlink:href="#linear-gradient-37"/><linearGradient id="linear-gradient-166" x1="172.8" y1="362.28" x2="212.56" y2="399.69" xlink:href="#linear-gradient-37"/><linearGradient id="linear-gradient-167" x1="15.74" y1="479.51" x2="36.92" y2="479.51" gradientTransform="translate(261.92 -105.79) rotate(12.8)" xlink:href="#linear-gradient-37"/><linearGradient id="linear-gradient-168" x1="190.8" y1="354.53" x2="220.64" y2="354.53" xlink:href="#linear-gradient-37"/><linearGradient id="linear-gradient-169" x1="39.77" y1="452.51" x2="75.79" y2="486.4" gradientTransform="translate(261.92 -105.79) rotate(12.8)" xlink:href="#linear-gradient-37"/><linearGradient id="linear-gradient-170" x1="36.49" y1="457.08" x2="57.66" y2="457.08" gradientTransform="translate(261.92 -105.79) rotate(12.8)" xlink:href="#linear-gradient-37"/><linearGradient id="linear-gradient-171" x1="191.32" y1="362.78" x2="214.81" y2="362.78" xlink:href="#linear-gradient-37"/><linearGradient id="linear-gradient-172" x1="196.98" y1="358.85" x2="219.03" y2="379.59" xlink:href="#linear-gradient-37"/><linearGradient id="linear-gradient-173" x1="957.04" y1="723.81" x2="978.21" y2="723.81" gradientTransform="translate(-977.41 634.31) rotate(-49.84)" xlink:href="#linear-gradient-37"/><linearGradient id="linear-gradient-174" x1="-222.94" y1="556.18" x2="-192.68" y2="556.18" gradientTransform="translate(642.87 -44.55) rotate(30.68)" xlink:href="#linear-gradient-37"/><linearGradient id="linear-gradient-175" x1="-215.08" y1="547.31" x2="-179.06" y2="581.2" gradientTransform="translate(642.87 -44.55) rotate(30.68)" xlink:href="#linear-gradient-37"/><linearGradient id="linear-gradient-176" x1="-218.36" y1="551.88" x2="-197.19" y2="551.88" gradientTransform="translate(642.87 -44.55) rotate(30.68)" xlink:href="#linear-gradient-37"/><linearGradient id="linear-gradient-177" x1="157.1" y1="355.98" x2="180.52" y2="355.98" xlink:href="#linear-gradient-37"/><linearGradient id="linear-gradient-178" x1="944.31" y1="687.89" x2="980.32" y2="721.78" gradientTransform="translate(-977.41 634.31) rotate(-49.84)" xlink:href="#linear-gradient-37"/><linearGradient id="linear-gradient-179" x1="941.02" y1="692.46" x2="962.2" y2="692.46" gradientTransform="translate(-977.41 634.31) rotate(-49.84)" xlink:href="#linear-gradient-37"/></defs><g id="Layer_2" data-name="Layer 2"><g id="Layer_1-2" data-name="Layer 1"><polygon class="cls-1" points="803.72 578.53 587.1 453.91 627.3 430.7 508.82 361.93 510.31 359.36 633.23 430.71 593.05 453.9 805.21 575.95 803.72 578.53"/><polygon class="cls-2" points="254.88 568.97 253.36 566.41 359.93 503.32 414.62 534.87 531.49 467 427.05 406.7 428.54 404.12 537.42 466.99 414.62 538.3 359.95 506.76 254.88 568.97"/><polygon class="cls-3" points="226 341.01 89.26 261.06 116.66 246.93 0 178.66 1.5 176.09 122.83 247.09 95.43 261.22 227.5 338.44 226 341.01"/><polygon class="cls-4" points="417.32 218.31 415.85 215.72 535.98 147.34 413.57 78.02 550.45 0 551.92 2.58 419.59 78.01 542 147.33 417.32 218.31"/><polygon class="cls-5" points="499.21 249.24 497.72 246.66 631.67 169.33 644.52 177.18 724.33 131.28 725.81 133.85 644.47 180.63 631.63 172.78 499.21 249.24"/><polygon class="cls-6" points="549.82 376.09 370.51 489.02 150.08 358.32 280.1 284.55 549.82 376.09"/><polygon class="cls-7" points="283.56 379.2 104.25 492.13 9.81 417.55 139.83 343.77 283.56 379.2"/><polygon class="cls-8" points="254.79 136.97 590.94 331.04 614.99 317.17 254.37 108.97 254.79 136.97"/><polygon class="cls-9" points="254.37 108.97 338.51 60.38 770.79 309.96 614.99 317.17 254.37 108.97"/><polygon class="cls-10" points="552.84 294.07 577.07 322.49 589.09 343.3 543.77 337.43 552.84 294.07"/><polygon class="cls-11" points="408.59 447.64 366.47 423.04 366.47 381.34 372.62 385.02 372.72 398.83 402.81 426.21 408.59 447.64"/><polygon class="cls-12" points="372.62 385.02 553.03 280.85 552.84 294.07 372.72 398.83 372.62 385.02"/><polygon class="cls-13" points="366.47 381.34 546.49 277.07 553.03 280.85 372.62 385.02 366.47 381.34"/><polygon class="cls-14" points="565.05 322.49 552.84 294.07 372.72 398.83 396.76 426.59 408.59 447.64 432.82 447.41 420.9 440.52 421.09 440.42 444.94 440.42 432.93 433.57 433.4 433.3 456.87 433.53 445.04 426.57 445.34 426.4 468.89 426.59 456.88 419.72 457.27 419.5 480.91 419.65 468.81 412.83 469.2 412.6 492.93 412.6 481.08 405.73 481.45 405.52 504.51 405.52 492.93 398.89 516.97 398.83 516.85 385.06 516.88 385.04 528.99 391.89 529.02 378.02 529.02 378.02 541.01 384.95 541.01 371.09 541.21 370.98 553.03 378.01 553.03 364.14 553.05 364.14 565.05 371.07 565.05 357.2 565.06 357.19 577.07 364.13 577.07 350.25 589.09 357.19 589.09 343.3 565.05 322.49"/><path class="cls-15" d="M481.12,286.06c0-15.17-10.72-33.65-23.93-41.28-6.58-3.8-12.54-4.19-16.87-1.76h0l-.05,0h0l-15.37,8.79-.12.07-.17.09h0c-4.2,2.52-6.79,7.78-6.79,15.23,0,15.16,10.71,33.64,23.93,41.28,6.85,4,13,4.21,17.39,1.43l14.9-8.5.13-.08.17-.09h0C478.53,298.75,481.12,293.5,481.12,286.06Z"/><polygon class="cls-13" points="386.6 213.07 434.68 185.31 340.16 130.74 292.01 158.46 386.6 213.07"/><polygon class="cls-16" points="470.74 192.25 470.74 303.29 422.66 331.05 398.62 317.17 398.62 303.29 386.6 213.07 386.6 199.19 422.66 220.01 470.74 192.25"/><polygon class="cls-17" points="422.66 233.89 422.66 317.17 470.74 289.41 470.74 206.13 422.66 233.89"/><polygon class="cls-18" points="422.66 233.89 386.6 213.07 398.62 303.29 422.66 317.17 422.66 233.89"/><polygon class="cls-13" points="470.74 192.25 434.68 171.43 386.6 199.19 422.66 220.01 470.74 192.25"/><polygon class="cls-13" points="422.66 331.05 398.62 344.93 386.6 337.99 410.64 324.11 422.66 331.05"/><polygon class="cls-19" points="410.64 324.11 410.6 310.21 388.31 225.96 362.55 240.83 386.6 324.11 386.6 337.99 410.64 324.11"/><polygon class="cls-20" points="470.74 303.29 470.74 317.17 398.62 358.81 254.37 275.53 254.37 233.89 266.41 240.89 266.41 185.31 362.55 240.83 386.6 324.11 386.6 337.99 398.62 344.93 470.74 303.29"/><polygon class="cls-21" points="254.37 233.89 266.41 226.93 266.41 240.89 254.37 233.89"/><polygon class="cls-22" points="388.31 225.96 292.01 170.51 266.41 185.31 362.55 240.83 388.31 225.96"/><polygon class="cls-23" points="388.31 225.96 386.6 213.07 292.01 158.46 292.01 170.51 388.31 225.96"/><path class="cls-24" d="M305.78,303.44c0-14.08-9.95-31.24-22.22-38.33s-22.22-1.41-22.22,12.67c0,.6,0,1.21.07,1.81l44.29,25.57C305.73,304.6,305.78,304,305.78,303.44Z"/><path class="cls-25" d="M380,345.86c0-17.33-12.23-38.44-27.33-47.16s-27.34-1.74-27.34,15.59c0,.73.05,1.48.09,2.23L380,348C380,347.28,380,346.59,380,345.86Z"/><path class="cls-26" d="M299.59,301.19c0-11.61-8.2-25.75-18.31-31.59-5-2.9-9.6-3.2-12.91-1.34h0l0,0h0l-12,6.85,8.14,14.12a43.69,43.69,0,0,0,9.33,16.21l8.28,14.39L294.17,313l.1-.05.13-.08h0C297.61,310.9,299.59,306.88,299.59,301.19Z"/><ellipse class="cls-27" cx="269.47" cy="297.37" rx="14.9" ry="25.81" transform="translate(-113.24 176.65) rotate(-30.31)"/><ellipse class="cls-28" cx="268.18" cy="298.12" rx="8.6" ry="14.9" transform="translate(-113.8 176.1) rotate(-30.31)"/><path class="cls-29" d="M273.49,307.53c-5.83-3.37-10.57-11.53-10.57-18.23a9.42,9.42,0,0,1,1.11-4.73c-3.78-.33-6.42,2.44-6.42,7.45,0,6.7,4.73,14.86,10.57,18.23,4.15,2.4,7.74,1.71,9.47-1.3A10.2,10.2,0,0,1,273.49,307.53Z"/><ellipse class="cls-30" cx="270.54" cy="296.74" rx="4.8" ry="8.31" transform="translate(-112.78 177.1) rotate(-30.31)"/><path class="cls-31" d="M372.65,348.62c0-15.17-10.71-33.65-23.93-41.28-6.58-3.79-12.54-4.19-16.86-1.75h0l-.06,0h0l-15.65,9L326.76,333A57.25,57.25,0,0,0,339,354.22L349.79,373l15.78-9,.14-.08.17-.1h0C370.06,361.32,372.65,356.06,372.65,348.62Z"/><ellipse class="cls-32" cx="333.29" cy="343.63" rx="19.48" ry="33.74" transform="translate(-127.87 215.18) rotate(-30.31)"/><ellipse class="cls-33" cx="331.61" cy="344.61" rx="11.24" ry="19.47" transform="translate(-128.59 214.47) rotate(-30.31)"/><path class="cls-34" d="M338.55,356.91c-7.63-4.4-13.82-15.07-13.82-23.82a12.29,12.29,0,0,1,1.45-6.19c-4.93-.42-8.39,3.2-8.39,9.74,0,8.75,6.18,19.42,13.81,23.82,5.43,3.14,10.12,2.24,12.37-1.69A13.23,13.23,0,0,1,338.55,356.91Z"/><ellipse class="cls-35" cx="334.69" cy="342.81" rx="6.27" ry="10.86" transform="translate(-127.26 215.77) rotate(-30.31)"/><polygon class="cls-36" points="424.75 318.19 424.75 327.49 432.81 322.84 432.81 313.54 424.75 318.19"/><polygon class="cls-36" points="461.28 297.41 461.28 306.71 469.34 302.06 469.34 292.76 461.28 297.41"/><polygon class="cls-37" points="459.14 309.96 469.34 330.24 444.64 344.61 434.68 324.11 459.14 309.96"/><polygon class="cls-38" points="434.68 324.11 434.68 338.54 444.64 344.61 434.68 324.11"/><polygon class="cls-39" points="266.41 226.93 302.01 247.59 302.01 233.63 326.49 261.65 376.98 290.8 381.79 307.45 326.11 275.43 302.01 275.18 302.01 262.06 266.41 240.89 266.41 226.93"/><polygon class="cls-40" points="470.74 220.01 422.61 275.47 422.65 289.4 470.74 233.89 470.74 220.01"/><polygon class="cls-40" points="470.74 237.36 422.61 292.83 422.65 300.08 470.74 244.56 470.74 237.36"/><polygon class="cls-41" points="614.99 317.17 398.62 441.81 470.74 483.74 770.79 309.96 659.84 299.73 614.99 317.17"/><polygon class="cls-42" points="398.62 441.81 398.62 469.86 470.74 511.5 470.74 483.74 398.62 441.81"/><polygon class="cls-43" points="470.74 511.5 770.79 337.72 770.79 309.96 470.74 483.74 470.74 511.5"/><path class="cls-44" d="M446.45,446.91l.49-1.64-.46-.13c-.67-3.64-5.51-7.58-12.08-9.46s-12.76-1.11-15.26,1.63l-.45-.13-.54,1.87c-1.17,4.1,4.2,9.23,12,11.46,7.59,2.18,14.68.81,16.14-3h0v0c0-.1.07-.2.1-.3A1.55,1.55,0,0,0,446.45,446.91Z"/><ellipse class="cls-45" cx="432.81" cy="441.22" rx="7.71" ry="14.69" transform="matrix(0.28, -0.96, 0.96, 0.28, -110.55, 735.77)"/><ellipse class="cls-46" cx="432.81" cy="441.22" rx="5.41" ry="10.3" transform="translate(-110.55 735.77) rotate(-74.01)"/><path class="cls-47" d="M434,437.07c5.14,1.47,8.77,4.73,8.52,7.5a2.85,2.85,0,0,0,.2-.51c.82-2.87-3-6.47-8.42-8s-10.57-.51-11.39,2.36a2.56,2.56,0,0,0-.1.54C424.06,436.44,428.87,435.6,434,437.07Z"/><path class="cls-48" d="M482.27,433.61l-.27-1.69-.47.07c-2.17-3-8.23-4.46-15-3.34s-12,4.49-13.08,8l-.46.08.32,1.92c.7,4.2,7.76,6.52,15.76,5.19,7.79-1.3,13.6-5.59,13.26-9.69h0v0c0-.1,0-.21,0-.31A1.55,1.55,0,0,0,482.27,433.61Z"/><ellipse class="cls-49" cx="467.51" cy="434.34" rx="14.69" ry="7.71" transform="translate(-65.16 82.95) rotate(-9.48)"/><ellipse class="cls-50" cx="467.51" cy="434.34" rx="10.3" ry="5.41" transform="translate(-65.16 82.94) rotate(-9.48)"/><path class="cls-51" d="M466.8,430.07c5.26-.88,9.95.51,10.91,3.11a3.27,3.27,0,0,0,0-.54c-.49-2.95-5.44-4.58-11.05-3.64s-9.77,4.09-9.27,7a2.44,2.44,0,0,0,.14.53C457.55,433.78,461.53,431,466.8,430.07Z"/><path class="cls-52" d="M663.69,244.62l-.28-1.69L663,243c-2.17-3-8.24-4.47-15-3.35s-12,4.49-13.07,8l-.47.08.32,1.92c.7,4.2,7.76,6.53,15.76,5.19,7.79-1.3,13.6-5.59,13.27-9.69h0v0l0-.31A1.89,1.89,0,0,1,663.69,244.62Z"/><ellipse class="cls-53" cx="648.92" cy="245.35" rx="14.69" ry="7.71" transform="translate(-31.55 110.25) rotate(-9.48)"/><ellipse class="cls-54" cx="648.92" cy="245.35" rx="10.3" ry="5.41" transform="translate(-31.55 110.25) rotate(-9.48)"/><path class="cls-55" d="M648.21,241.09c5.27-.88,9.95.5,10.91,3.11a2.51,2.51,0,0,0,0-.55c-.5-3-5.45-4.57-11.06-3.64s-9.76,4.09-9.27,7a3.07,3.07,0,0,0,.14.52C639,244.79,642.94,242,648.21,241.09Z"/><path class="cls-56" d="M292,102.2l.44-1.66-.46-.11c-.76-3.63-5.7-7.44-12.31-9.16s-12.79-.79-15.21,2l-.46-.12L263.5,95c-1.07,4.13,4.43,9.12,12.28,11.16,7.64,2,14.7.44,16.06-3.44h0v0l.09-.3C292,102.36,292,102.28,292,102.2Z"/><ellipse class="cls-57" cx="278.21" cy="96.85" rx="7.71" ry="14.69" transform="translate(114.53 341.78) rotate(-75.44)"/><ellipse class="cls-58" cx="278.21" cy="96.85" rx="5.41" ry="10.3" transform="translate(114.53 341.78) rotate(-75.44)"/><path class="cls-59" d="M279.3,92.67c5.17,1.34,8.88,4.51,8.7,7.28a2.8,2.8,0,0,0,.18-.51c.75-2.89-3.1-6.39-8.61-7.82s-10.58-.25-11.33,2.64a2.54,2.54,0,0,0-.09.54C269.34,92.29,274.13,91.33,279.3,92.67Z"/><path class="cls-60" d="M546.82,230.78l.61-1.6L547,229c-.4-3.68-4.93-8-11.33-10.34s-12.65-2.08-15.34.46l-.44-.16-.68,1.82c-1.48,4,3.49,9.52,11.1,12.34,7.4,2.75,14.57,1.92,16.32-1.81h0v0c0-.09.09-.19.12-.28A2,2,0,0,0,546.82,230.78Z"/><ellipse class="cls-61" cx="533.65" cy="224.07" rx="7.71" ry="14.69" transform="translate(138.1 646.6) rotate(-69.67)"/><ellipse class="cls-62" cx="533.65" cy="224.07" rx="5.41" ry="10.3" transform="translate(138.1 646.6) rotate(-69.66)"/><path class="cls-63" d="M535.16,220c5,1.86,8.38,5.38,7.92,8.12a2.75,2.75,0,0,0,.23-.49c1-2.8-2.44-6.67-7.78-8.65S525,217.69,524,220.49a3.18,3.18,0,0,0-.14.53C525.29,218.64,530.15,218.16,535.16,220Z"/><path class="cls-64" d="M539.66,394.9l.86-1.48-.41-.23c.22-3.7-3.55-8.68-9.47-12.07s-12.13-4.13-15.21-2.07l-.41-.24-1,1.69c-2.11,3.7,1.88,10,8.92,14,6.85,3.93,14.06,4.29,16.39.9h0l0,0c.06-.09.12-.18.17-.27S539.62,395,539.66,394.9Z"/><ellipse class="cls-65" cx="527.77" cy="386.12" rx="7.71" ry="14.69" transform="translate(-69.65 652.04) rotate(-60.18)"/><ellipse class="cls-66" cx="527.77" cy="386.12" rx="5.41" ry="10.3" transform="translate(-69.65 652.04) rotate(-60.18)"/><path class="cls-67" d="M529.92,382.37c4.63,2.65,7.38,6.69,6.47,9.32a2.83,2.83,0,0,0,.32-.45c1.49-2.59-1.31-7-6.25-9.82s-10.14-3-11.63-.43a3.16,3.16,0,0,0-.22.5C520.42,379.38,525.29,379.71,529.92,382.37Z"/><path class="cls-68" d="M621.57,375.38l-.27-1.69-.47.07c-2.17-3-8.23-4.47-15-3.35s-12,4.48-13.08,8l-.47.07.32,1.93c.7,4.2,7.75,6.53,15.76,5.2,7.79-1.3,13.6-5.58,13.27-9.68h0v0l0-.31A1.89,1.89,0,0,1,621.57,375.38Z"/><ellipse class="cls-69" cx="606.8" cy="376.09" rx="14.69" ry="7.71" transform="translate(-53.43 104.52) rotate(-9.43)"/><ellipse class="cls-70" cx="606.8" cy="376.09" rx="10.3" ry="5.41" transform="translate(-53.43 104.52) rotate(-9.43)"/><path class="cls-71" d="M606.1,371.83c5.26-.87,9.94.51,10.91,3.12a3.27,3.27,0,0,0,0-.54c-.49-3-5.44-4.58-11.05-3.65s-9.77,4.08-9.28,7a3.18,3.18,0,0,0,.14.53C596.85,375.53,600.83,372.71,606.1,371.83Z"/><path class="cls-72" d="M621.58,223.82l.14-1.71-.48,0c-1.4-3.43-6.94-6.29-13.76-6.79s-12.72,1.53-14.6,4.72l-.47,0-.14,1.94c-.31,4.25,6,8.18,14.09,8.77,7.87.57,14.53-2.22,15.17-6.28h0v0c0-.1,0-.21,0-.31A1.93,1.93,0,0,0,621.58,223.82Z"/><ellipse class="cls-73" cx="607.06" cy="221.04" rx="7.71" ry="14.69" transform="translate(342.29 810.35) rotate(-85.81)"/><ellipse class="cls-74" cx="607.06" cy="221.04" rx="5.41" ry="10.3" transform="translate(342.29 810.35) rotate(-85.81)"/><path class="cls-75" d="M607.38,216.73c5.32.39,9.55,2.84,9.87,5.6a3,3,0,0,0,.09-.54c.22-3-4.21-5.73-9.88-6.14s-10.45,1.66-10.67,4.64a2.54,2.54,0,0,0,0,.55C597.52,218.15,602.05,216.34,607.38,216.73Z"/><path class="cls-76" d="M533.21,248.76l-.27-1.69-.47.08c-2.16-3-8.23-4.48-15-3.36s-12,4.48-13.08,8l-.47.08.32,1.92C505,258,512,260.34,520,259c7.79-1.29,13.61-5.57,13.27-9.67h0v0c0-.1,0-.2,0-.31S533.23,248.84,533.21,248.76Z"/><ellipse class="cls-77" cx="518.45" cy="249.48" rx="14.69" ry="7.71" transform="translate(-33.87 88.33) rotate(-9.43)"/><ellipse class="cls-78" cx="518.45" cy="249.48" rx="10.3" ry="5.41" transform="translate(-33.87 88.33) rotate(-9.43)"/><path class="cls-79" d="M517.74,245.22c5.27-.88,10,.51,10.91,3.11a3.27,3.27,0,0,0,0-.54c-.49-2.95-5.44-4.58-11.05-3.65s-9.77,4.08-9.28,7a3.07,3.07,0,0,0,.14.52C508.49,248.91,512.47,246.09,517.74,245.22Z"/><path class="cls-80" d="M707.84,317l-.27-1.69-.47.07c-2.16-3-8.23-4.47-15-3.35s-12,4.47-13.08,8l-.46.07.31,1.93c.7,4.2,7.76,6.53,15.76,5.2,7.79-1.3,13.61-5.58,13.27-9.68h0v0c0-.1,0-.21,0-.31A1.89,1.89,0,0,0,707.84,317Z"/><ellipse class="cls-81" cx="693.08" cy="317.72" rx="14.69" ry="7.71" transform="translate(-42.7 117.87) rotate(-9.43)"/><ellipse class="cls-82" cx="693.08" cy="317.72" rx="10.3" ry="5.41" transform="translate(-42.7 117.87) rotate(-9.43)"/><path class="cls-83" d="M692.37,313.46c5.27-.87,10,.51,10.91,3.12a3.27,3.27,0,0,0,0-.54c-.49-3-5.43-4.59-11-3.65s-9.76,4.07-9.28,7a3.21,3.21,0,0,0,.15.53C683.12,317.16,687.1,314.34,692.37,313.46Z"/><path class="cls-84" d="M464,134.13l.21-1.7-.47-.05c-1.26-3.48-6.69-6.57-13.47-7.35s-12.77,1-14.79,4.11l-.47-.06-.22,1.94c-.48,4.23,5.66,8.41,13.72,9.34,7.84.9,14.61-1.62,15.42-5.65h0v0c0-.1,0-.21.05-.31A1.94,1.94,0,0,0,464,134.13Z"/><ellipse class="cls-85" cx="449.58" cy="130.76" rx="7.71" ry="14.69" transform="translate(268.35 562.47) rotate(-83.44)"/><ellipse class="cls-86" cx="449.58" cy="130.76" rx="5.41" ry="10.3" transform="translate(268.35 562.47) rotate(-83.44)"/><path class="cls-87" d="M450.07,126.46c5.31.61,9.43,3.23,9.63,6a2.62,2.62,0,0,0,.12-.54c.34-3-4-5.9-9.62-6.55s-10.51,1.23-10.86,4.2a3.35,3.35,0,0,0,0,.55C440.16,127.47,444.77,125.85,450.07,126.46Z"/><polygon class="cls-13" points="372.32 154.06 188.83 158.99 218.59 176.17 404.5 172.54 372.32 154.06"/><polygon class="cls-88" points="404.5 172.54 366.24 194.84 218.59 199.08 218.59 176.17 404.5 172.54"/><polygon class="cls-89" points="188.83 158.99 168.98 181.9 198.75 199.25 218.59 176.17 188.83 158.99"/><polygon class="cls-90" points="168.98 181.9 168.98 193.35 198.75 210.54 218.59 199.08 218.59 176.17 198.75 199.25 168.98 181.9"/><path class="cls-91" d="M604.5,281.68l.82-1.56-.43-.23c.07-3.8-4-8.75-10.26-12s-12.63-3.7-15.7-1.45l-.43-.23-.92,1.78c-2,3.89,2.36,10.15,9.76,14,7.21,3.73,14.64,3.79,16.89.2h0v0l.16-.28A2.14,2.14,0,0,0,604.5,281.68Z"/><ellipse class="cls-92" cx="591.91" cy="273.18" rx="7.93" ry="15.1" transform="translate(77.23 673.29) rotate(-62.64)"/><path class="cls-93" d="M589.36,278.11c-5.2-2.69-8.27-7.08-6.86-9.8s6.77-2.76,12-.07,8.26,7.08,6.85,9.8S594.55,280.8,589.36,278.11Z"/><path class="cls-94" d="M594,269.23c4.88,2.52,7.88,6.55,7.06,9.29a3,3,0,0,0,.31-.48c1.41-2.72-1.66-7.11-6.85-9.8s-10.55-2.66-12,.07a3,3,0,0,0-.2.52C584.06,266.58,589.08,266.71,594,269.23Z"/><path class="cls-95" d="M482.81,159l-.08-1.76-.49,0c-1.86-3.32-7.89-5.53-14.9-5.17s-12.78,3.18-14.29,6.67l-.49,0,.1,2c.23,4.37,7.17,7.57,15.5,7.14,8.1-.42,14.54-4.12,14.67-8.34h0v0a1.71,1.71,0,0,0,0-.32A1.94,1.94,0,0,0,482.81,159Z"/><ellipse class="cls-92" cx="467.65" cy="157.99" rx="15.1" ry="7.93" transform="translate(-7.5 24.25) rotate(-2.95)"/><path class="cls-96" d="M467.93,163.54c-5.84.3-10.7-1.94-10.86-5s4.45-5.79,10.29-6.1,10.7,1.95,10.86,5S473.77,163.24,467.93,163.54Z"/><path class="cls-97" d="M467.42,153.55c5.48-.28,10.1,1.68,10.78,4.46a3.62,3.62,0,0,0,0-.57c-.16-3.06-5-5.31-10.86-5s-10.45,3-10.29,6.1a3.43,3.43,0,0,0,.08.56C457.54,156.26,461.93,153.83,467.42,153.55Z"/><path class="cls-98" d="M521.56,442l.82-1.56-.44-.23c.07-3.8-4-8.75-10.25-12s-12.64-3.7-15.71-1.45l-.43-.23-.92,1.78c-2,3.89,2.36,10.15,9.77,14,7.2,3.73,14.63,3.79,16.88.2h0v0c.06-.09.11-.19.16-.28Z"/><ellipse class="cls-92" cx="508.96" cy="433.45" rx="7.93" ry="15.1" transform="translate(-109.92 686.23) rotate(-62.64)"/><path class="cls-99" d="M506.41,438.38c-5.2-2.68-8.27-7.07-6.85-9.8s6.76-2.76,12-.07,8.26,7.08,6.85,9.8S511.6,441.07,506.41,438.38Z"/><path class="cls-100" d="M511,429.5c4.88,2.53,7.88,6.55,7.06,9.29a3,3,0,0,0,.31-.48c1.41-2.72-1.66-7.11-6.85-9.8s-10.55-2.66-12,.07a2.57,2.57,0,0,0-.21.52C501.11,426.85,506.13,427,511,429.5Z"/><path class="cls-101" d="M585.37,386.29l-.25-1.74-.48.07c-2.19-3.11-8.4-4.71-15.34-3.66s-12.4,4.43-13.56,8.06l-.48.07.3,2c.66,4.33,7.87,6.82,16.12,5.57,8-1.22,14.06-5.54,13.78-9.76h0v0a1.73,1.73,0,0,0,0-.32A2,2,0,0,0,585.37,386.29Z"/><ellipse class="cls-92" cx="570.19" cy="386.82" rx="15.1" ry="7.93" transform="translate(-51.68 90.13) rotate(-8.65)"/><path class="cls-102" d="M571,392.32c-5.78.87-10.84-.87-11.3-3.91s3.85-6.21,9.63-7.09,10.85.87,11.31,3.91S576.81,391.44,571,392.32Z"/><path class="cls-103" d="M569.52,382.43c5.43-.83,10.22.66,11.17,3.36a2.6,2.6,0,0,0,0-.56c-.46-3-5.53-4.79-11.31-3.91s-10.1,4.05-9.63,7.09a2.59,2.59,0,0,0,.13.55C560,386.1,564.09,383.25,569.52,382.43Z"/><path class="cls-104" d="M342.4,94l-.25-1.74-.49.07c-2.18-3.11-8.39-4.71-15.34-3.66s-12.4,4.44-13.56,8.06l-.48.07.3,2c.66,4.33,7.88,6.83,16.13,5.57,8-1.22,14.06-5.54,13.77-9.76h0v0l0-.32C342.43,94.12,342.42,94,342.4,94Z"/><ellipse class="cls-92" cx="327.21" cy="94.49" rx="15.1" ry="7.93" transform="translate(-10.49 50.27) rotate(-8.65)"/><path class="cls-105" d="M328.05,100c-5.78.88-10.85-.87-11.31-3.91s3.85-6.21,9.64-7.09,10.84.87,11.3,3.91S333.83,99.11,328.05,100Z"/><path class="cls-106" d="M326.55,90.1c5.42-.83,10.21.66,11.17,3.36a3.43,3.43,0,0,0,0-.56c-.46-3-5.52-4.79-11.3-3.91s-10.1,4.06-9.64,7.09a3.41,3.41,0,0,0,.14.55C317,93.77,321.12,90.93,326.55,90.1Z"/><path class="cls-107" d="M655.7,339.26l-.49-1.7-.47.14c-2.59-2.79-9-3.52-15.7-1.53s-11.68,6.08-12.33,9.83l-.47.14.57,1.92c1.24,4.2,8.74,5.68,16.73,3.32,7.79-2.31,13.18-7.41,12.32-11.55h0v0a2.82,2.82,0,0,0-.07-.31C655.75,339.41,655.72,339.33,655.7,339.26Z"/><ellipse class="cls-92" cx="640.73" cy="341.85" rx="15.1" ry="7.93" transform="translate(-70.67 195.88) rotate(-16.49)"/><path class="cls-108" d="M642.3,347.18c-5.61,1.66-10.86.62-11.73-2.32s3-6.68,8.58-8.34,10.86-.62,11.73,2.32S647.91,345.52,642.3,347.18Z"/><path class="cls-109" d="M639.46,337.59c5.27-1.56,10.22-.73,11.53,1.81a3.69,3.69,0,0,0-.11-.56c-.87-2.94-6.12-4-11.73-2.32s-9.45,5.39-8.58,8.34a2.57,2.57,0,0,0,.21.52C630.5,342.53,634.2,339.15,639.46,337.59Z"/><path class="cls-110" d="M684.13,302.24l.78-1.58-.44-.21c0-3.81-4.23-8.65-10.54-11.73s-12.73-3.4-15.74-1.07l-.44-.21-.88,1.8C655,293.17,659.48,299.33,667,303c7.3,3.55,14.72,3.43,16.88-.21h0l0,0a2.49,2.49,0,0,0,.15-.28A2.14,2.14,0,0,0,684.13,302.24Z"/><ellipse class="cls-92" cx="671.33" cy="294.05" rx="7.93" ry="15.1" transform="translate(113.03 768.87) rotate(-64.03)"/><path class="cls-111" d="M668.9,299.05c-5.26-2.56-8.44-6.88-7.09-9.64s6.7-2.92,12-.36,8.43,6.87,7.08,9.64S674.16,301.61,668.9,299.05Z"/><path class="cls-112" d="M673.28,290.05c4.93,2.41,8,6.36,7.28,9.11a2.83,2.83,0,0,0,.29-.47c1.35-2.77-1.82-7.08-7.08-9.64s-10.62-2.4-12,.36a3.39,3.39,0,0,0-.2.53C663.32,287.65,668.34,287.65,673.28,290.05Z"/><path class="cls-113" d="M409.48,126.88l.78-1.58-.44-.21c0-3.81-4.23-8.65-10.54-11.73s-12.73-3.39-15.74-1.07l-.43-.21-.88,1.8c-1.92,3.94,2.61,10.09,10.1,13.74,7.3,3.55,14.72,3.43,16.89-.21h0v0l.16-.29Z"/><ellipse class="cls-92" cx="396.68" cy="118.69" rx="7.93" ry="15.1" transform="translate(116.29 423.36) rotate(-64.03)"/><path class="cls-114" d="M394.25,123.69c-5.26-2.56-8.43-6.88-7.09-9.64s6.7-2.92,12-.36,8.43,6.88,7.09,9.64S399.51,126.25,394.25,123.69Z"/><path class="cls-115" d="M398.63,114.7c4.93,2.4,8,6.35,7.28,9.11a3,3,0,0,0,.3-.48c1.34-2.76-1.83-7.08-7.09-9.64s-10.61-2.4-12,.36a2.58,2.58,0,0,0-.19.53C388.68,112.29,393.69,112.29,398.63,114.7Z"/><polygon class="cls-116" points="376.98 290.8 401.27 274.96 405.57 291.2 381.79 307.45 376.98 290.8"/><path class="cls-117" d="M287.81,375.48V320H199.08l-4-2.34a23.46,23.46,0,0,0-23.46,0L167.53,320h-88v55.69h.05a7,7,0,0,0,3.5,5.39l89.23,51.51a23.43,23.43,0,0,0,23.47,0l88.53-51.11a7,7,0,0,0,3.53-5.79h0Z"/><path class="cls-13" d="M172.27,377.43,83,325.92a7.1,7.1,0,0,1,0-12.3l88.54-51.12a23.46,23.46,0,0,1,23.46,0L284.27,314a7.1,7.1,0,0,1,0,12.3l-88.53,51.11A23.48,23.48,0,0,1,172.27,377.43Z"/><path class="cls-118" d="M183.7,376.23a9.43,9.43,0,0,1-4.61-1.08h0L90.44,324a3.86,3.86,0,0,1-2.17-3.31c0-1.51,1-3,2.83-4l86.72-50.07c3.11-1.79,7.68-2,10.41-.38l88.66,51.19a3.85,3.85,0,0,1,2.17,3.3c0,1.51-1,3-2.84,4L189.5,374.77A11.87,11.87,0,0,1,183.7,376.23Z"/><path class="cls-119" d="M189.5,374.77l40.85-23.59-42.12-24.31c-2.73-1.58-7.3-1.41-10.41.38L137,350.83l42.12,24.32h0a9.43,9.43,0,0,0,4.61,1.08A11.87,11.87,0,0,0,189.5,374.77Z"/><path class="cls-120" d="M206.35,230.61l.82-1.55-.43-.23c.06-3.8-4-8.75-10.26-12s-12.64-3.7-15.7-1.45l-.44-.23-.92,1.78c-2,3.89,2.36,10.15,9.77,14,7.21,3.73,14.63,3.78,16.88.2h0l0,0c.06-.09.11-.18.16-.27A2.29,2.29,0,0,0,206.35,230.61Z"/><ellipse class="cls-92" cx="193.76" cy="222.11" rx="7.93" ry="15.1" transform="translate(-92.56 292.1) rotate(-62.64)"/><path class="cls-121" d="M191.2,227.05c-5.19-2.69-8.26-7.08-6.85-9.8s6.77-2.76,12-.07,8.27,7.07,6.85,9.8S196.4,229.74,191.2,227.05Z"/><path class="cls-122" d="M195.8,218.17c4.87,2.52,7.88,6.54,7.06,9.28a2.09,2.09,0,0,0,.3-.47c1.42-2.73-1.65-7.12-6.85-9.8s-10.55-2.66-12,.07a3,3,0,0,0-.21.52C185.91,215.52,190.92,215.65,195.8,218.17Z"/><path class="cls-123" d="M198.21,255.71l-1.67-.55-.15.46c-3.76.56-8,5.4-10.14,12.08s-1.58,13.08,1.14,15.74l-.15.46,1.91.61c4.16,1.35,9.62-4,12.19-11.92,2.5-7.73,1.34-15.06-2.56-16.69h0l-.3-.11Z"/><ellipse class="cls-92" cx="191.89" cy="269.53" rx="15.1" ry="7.93" transform="translate(-123.63 369.11) rotate(-72.07)"/><path class="cls-124" d="M197.18,271.24c-1.8,5.57-5.63,9.31-8.55,8.36s-3.83-6.22-2-11.78,5.63-9.31,8.55-8.37S199,265.67,197.18,271.24Z"/><path class="cls-125" d="M187.66,268.16c1.69-5.22,5.17-8.84,8-8.49a3.38,3.38,0,0,0-.52-.22c-2.92-.94-6.75,2.8-8.55,8.37s-.89,10.84,2,11.78a3.39,3.39,0,0,0,.55.13C186.67,278.35,186,273.38,187.66,268.16Z"/><path class="cls-126" d="M198,319.12l.47-1.69-.47-.13c-.75-3.73-5.8-7.69-12.59-9.5s-13.14-.91-15.65,1.94l-.47-.13-.52,1.94c-1.13,4.23,4.48,9.41,12.54,11.57,7.84,2.1,15.1.56,16.53-3.42h0v0a2.81,2.81,0,0,0,.1-.31A2,2,0,0,0,198,319.12Z"/><ellipse class="cls-92" cx="183.83" cy="313.52" rx="7.93" ry="15.1" transform="matrix(0.26, -0.97, 0.97, 0.26, -166.56, 410.03)"/><path class="cls-127" d="M182.39,318.89c-5.65-1.51-9.58-5.14-8.79-8.11s6-4.14,11.67-2.63,9.59,5.14,8.79,8.11S188,320.4,182.39,318.89Z"/><path class="cls-128" d="M185,309.23c5.3,1.42,9.09,4.7,8.88,7.56a2.62,2.62,0,0,0,.2-.53c.8-3-3.14-6.6-8.79-8.11s-10.88-.33-11.67,2.63a2.62,2.62,0,0,0-.09.56C174.75,308.76,179.68,307.81,185,309.23Z"/><path class="cls-129" d="M230.27,351.18l-.9.52-8.81,5.09,0,0h0l-1.83,1.06h0l-4.28,2.46h0l-1.28.74h0l-1.15.66-2.38,1.37-1.8,1-12.41,7.16-.24.15-.83.47-2.72,1.59-.62.34-1.55.9a12,12,0,0,1-5.81,1.46,9.3,9.3,0,0,1-4.59-1.07l0,0-7.06-4.08-5.45-3.14-.31-.19-.33-.19-1.35-.77-7.39-4.28-1.39-.78-.13-.08v0l-3.15-1.81h0l-13.21-7.63-.53-.31-1.78-1,.14-.08,2.72-1.57.91-.52,3-1.7.12-.08,3.52-2,.74-.44,5.69-3.28.06,0,7.12-4.11h0l2.22-1.28s0,0,0,0l.28-.16,1.64-1,1.82-1,0,0,.5-.29.36-.2,1.29-.75,2.55-1.47L173,330l.35-.2.73-.42.86-.49.65-.38,1.22-.7,1-.55c3.11-1.79,7.68-2,10.4-.39l.56.32.28.17h0l1.36.79.11.07h0l1.71,1,.48.28,2,1.17h0l3.46,2,1.53.88,1.09.65.29.16.55.32h0l1,.58h0l.67.41.67.38.41.23h0l.35.21,5.09,2.94,2.92,1.68,1.65,1h0l.31.17h0l1.51.88.43.24,1,.59,2.41,1.39,3.62,2.1.84.48.41.24,2.3,1.32,2.24,1.29Z"/><path class="cls-130" d="M216.15,328.53l.75-1.6-.44-.2c-.09-3.81-4.38-8.58-10.75-11.55s-12.78-3.18-15.75-.8l-.44-.21-.84,1.82c-1.85,4,2.77,10,10.34,13.57,7.35,3.43,14.77,3.18,16.87-.5h0l0,0a2.44,2.44,0,0,0,.14-.28A2.14,2.14,0,0,0,216.15,328.53Z"/><ellipse class="cls-92" cx="203.21" cy="320.55" rx="7.93" ry="15.1" transform="translate(-173.18 369.33) rotate(-65.01)"/><path class="cls-131" d="M200.86,325.59c-5.3-2.47-8.55-6.73-7.25-9.51s6.65-3,11.95-.57,8.55,6.73,7.25,9.52S206.16,328.06,200.86,325.59Z"/><path class="cls-132" d="M205.09,316.53c5,2.32,8.14,6.21,7.44,9a2.87,2.87,0,0,0,.28-.48c1.3-2.79-1.95-7-7.25-9.52s-10.65-2.21-11.95.57a3.35,3.35,0,0,0-.19.53C195.1,314.29,200.11,314.21,205.09,316.53Z"/><path class="cls-133" d="M198.34,323.87l-1.67-.56-.15.47c-3.77.56-8,5.4-10.14,12.08s-1.58,13.07,1.14,15.73l-.15.46,1.91.62c4.16,1.35,9.62-4,12.19-11.93,2.5-7.72,1.34-15.05-2.56-16.68h0l-.3-.11Z"/><ellipse class="cls-92" cx="192.02" cy="337.68" rx="15.1" ry="7.93" transform="translate(-188.38 416.4) rotate(-72.07)"/><path class="cls-134" d="M197.31,339.39c-1.8,5.57-5.63,9.32-8.55,8.37s-3.83-6.22-2-11.79,5.63-9.31,8.55-8.36S199.11,333.83,197.31,339.39Z"/><path class="cls-135" d="M187.79,336.32c1.69-5.23,5.17-8.85,8-8.49a2.31,2.31,0,0,0-.51-.22c-2.92-.95-6.75,2.8-8.55,8.36s-.89,10.84,2,11.79a2.57,2.57,0,0,0,.55.12C186.8,346.51,186.1,341.54,187.79,336.32Z"/><path class="cls-136" d="M201.49,365.21l.47-1.7-.47-.12c-.76-3.73-5.81-7.69-12.59-9.51s-13.14-.91-15.65,1.95l-.47-.13-.52,1.94c-1.13,4.23,4.48,9.41,12.54,11.56,7.84,2.1,15.1.57,16.53-3.41h0v0c0-.11.07-.21.1-.31S201.47,365.29,201.49,365.21Z"/><ellipse class="cls-92" cx="187.37" cy="359.61" rx="7.93" ry="15.1" transform="translate(-208.46 447.62) rotate(-75.01)"/><path class="cls-137" d="M185.93,365c-5.65-1.51-9.59-5.14-8.79-8.11s6-4.15,11.66-2.63,9.59,5.14,8.8,8.11S191.58,366.49,185.93,365Z"/><path class="cls-138" d="M188.52,355.32c5.3,1.42,9.09,4.7,8.88,7.55a3.28,3.28,0,0,0,.2-.52c.79-3-3.14-6.6-8.8-8.11s-10.87-.34-11.66,2.63a3.53,3.53,0,0,0-.1.55C178.29,354.85,183.21,353.9,188.52,355.32Z"/><path class="cls-139" d="M236.81,347.4l-2.53,1.47-3.4,2-.61.35-.9.52a6.65,6.65,0,0,1-.65-.33,11.2,11.2,0,0,1-2-1.47,15.92,15.92,0,0,1-1.71-1.76c-.1-.12-.21-.26-.3-.39h0a8.19,8.19,0,0,1-.53-.67,25.27,25.27,0,0,1-3-5.41,4.27,4.27,0,0,1-.18-.43.12.12,0,0,1,0-.07c-.07-.17-.14-.36-.2-.54a.42.42,0,0,1,0-.1,1.33,1.33,0,0,1-.1-.28c-.21-.6-.4-1.2-.56-1.79,0-.05,0-.1,0-.14a.54.54,0,0,1,0-.1c-.21-.77-.37-1.55-.5-2.29v0a.13.13,0,0,1,0-.08,20.38,20.38,0,0,1-.33-3.3c-.08-3.12.57-5.75,1.88-7.38a4.53,4.53,0,0,1,2-1.51l1.73-.63L225,323l.16.45a4.08,4.08,0,0,1,.59.11h0c3.63.83,7.67,5.37,9.92,11.63C237.32,339.71,237.65,344.17,236.81,347.4Z"/><path class="cls-92" d="M238.83,346.24l-2,1.16-2.53,1.47-3.4,2a7.3,7.3,0,0,1-.84-.49,12.17,12.17,0,0,1-1.92-1.56,18.3,18.3,0,0,1-2.67-3.29h0s0,0-.06-.05a25.8,25.8,0,0,1-2.32-4.48s0,0,0,0a.36.36,0,0,1,0-.11c-.13-.32-.27-.65-.39-1,0,0,0,0,0,0a3.52,3.52,0,0,1-.15-.42c-.23-.65-.41-1.29-.59-1.93v0c-.09-.31-.16-.63-.22-.94-.2-.87-.35-1.72-.46-2.55-.65-5.34.66-9.75,3.62-10.93L225,323a1,1,0,0,1,.28-.08c4.09-1.18,9.54,3.92,12.3,11.59A22.58,22.58,0,0,1,238.83,346.24Z"/><path class="cls-140" d="M224.87,339c-2-5.51-1.25-10.81,1.64-11.85s6.83,2.57,8.82,8.08,1.25,10.8-1.64,11.85S226.85,344.54,224.87,339Z"/><path class="cls-141" d="M234.27,335.65c1.87,5.16,1.33,10.15-1.13,11.6a3.39,3.39,0,0,0,.55-.13c2.89-1.05,3.62-6.35,1.64-11.85s-5.94-9.12-8.82-8.08a2.38,2.38,0,0,0-.51.24C228.82,327,232.41,330.48,234.27,335.65Z"/><path class="cls-142" d="M163.12,318l-.94-1.49-.42.26c-3.26-2-9.59-.89-15.5,2.9s-9.52,9.1-9.1,12.88l-.41.26,1.08,1.69c2.36,3.68,10,3,17-1.48,6.83-4.38,10.59-10.78,8.61-14.52h0v0l-.16-.28Z"/><ellipse class="cls-92" cx="149.46" cy="324.67" rx="15.1" ry="7.93" transform="translate(-151.59 132.01) rotate(-32.66)"/><path class="cls-143" d="M152.46,329.35c-4.92,3.16-10.26,3.62-11.92,1s1-7.24,5.92-10.39,10.26-3.62,11.92-1S157.39,326.19,152.46,329.35Z"/><path class="cls-144" d="M147.06,320.93c4.62-3,9.61-3.55,11.57-1.48a3.33,3.33,0,0,0-.25-.5c-1.66-2.58-7-2.12-11.92,1s-7.57,7.81-5.92,10.39a3.87,3.87,0,0,0,.35.45C139.83,328.17,142.44,323.89,147.06,320.93Z"/><path class="cls-145" d="M171.2,338.6l1.67-.57-.16-.46c2.65-2.73,3.07-9.13.74-15.76S166.78,310.45,163,310l-.15-.46-1.9.67c-4.13,1.45-5.23,9-2.46,16.88,2.69,7.65,8.06,12.78,12.15,11.71h0a1.81,1.81,0,0,0,.31-.09Z"/><ellipse class="cls-92" cx="167.86" cy="323.78" rx="7.93" ry="15.1" transform="translate(-97.92 74.04) rotate(-19.38)"/><path class="cls-146" d="M162.61,325.62c-1.94-5.51-1.16-10.81,1.73-11.83s6.82,2.63,8.76,8.14,1.17,10.82-1.73,11.84S164.55,331.14,162.61,325.62Z"/><path class="cls-147" d="M172.05,322.31c1.82,5.17,1.25,10.16-1.22,11.6a3.58,3.58,0,0,0,.54-.14c2.9-1,3.67-6.32,1.73-11.84s-5.86-9.16-8.76-8.14a3.32,3.32,0,0,0-.51.23C166.66,313.6,170.23,317.13,172.05,322.31Z"/><path class="cls-148" d="M225.06,322.65l-1.17-1.31-.36.33c-3.54-1.39-9.61.7-14.81,5.41s-7.9,10.54-6.86,14.21l-.37.32,1.35,1.49c2.94,3.24,10.33,1.34,16.52-4.26,6-5.45,8.67-12.38,6.1-15.74h0l0,0-.2-.24Z"/><ellipse class="cls-92" cx="212.69" cy="331.47" rx="15.1" ry="7.93" transform="translate(-167.43 228.43) rotate(-42.15)"/><path class="cls-149" d="M216.42,335.6c-4.33,3.92-9.52,5.26-11.58,3s-.22-7.3,4.12-11.23,9.53-5.26,11.59-3S220.76,331.67,216.42,335.6Z"/><path class="cls-150" d="M209.71,328.18c4.07-3.68,8.89-5.08,11.17-3.36a3.72,3.72,0,0,0-.33-.45c-2.06-2.28-7.25-.94-11.59,3s-6.18,8.95-4.12,11.23a3,3,0,0,0,.42.38C203.77,336.52,205.64,331.87,209.71,328.18Z"/><path class="cls-151" d="M234.28,348.87l-3.4,2-.61.35-.9.52-8.81,5.09,0,0h0l-1.83,1.06h0a14.3,14.3,0,0,1-3.9.07,7.43,7.43,0,0,1-.82-.16h0a5.9,5.9,0,0,1-.72-.2,5,5,0,0,1-2.79-2.12l-.83-1.41-.2-.32.43-.25a5.36,5.36,0,0,1,.06-1.32,5.3,5.3,0,0,1,.24-1.07,1.87,1.87,0,0,1,.07-.22,8.39,8.39,0,0,1,.49-1.24,4.76,4.76,0,0,1,.34-.62,1.45,1.45,0,0,1,.19-.34c.06-.13.16-.28.25-.43a12.94,12.94,0,0,1,1-1.45c0-.07.1-.12.16-.19a22.58,22.58,0,0,1,3.59-3.5,28,28,0,0,1,3.14-2.16l.27-.16.8-.44.17-.1c.38-.2.75-.37,1.12-.54a7.4,7.4,0,0,1,.71-.32c.35-.17.71-.31,1.06-.45s.76-.28,1.15-.4c4.2-1.4,8.05-1.4,10.32.07l.07,0,.34-.2.9,1.52a.3.3,0,0,0,.07.1l.06.1c.06.1.1.19.15.28v0C237.71,342.67,236.73,345.83,234.28,348.87Z"/><ellipse class="cls-92" cx="222.43" cy="346.04" rx="15.1" ry="7.93" transform="translate(-145.14 161.33) rotate(-30.59)"/><path class="cls-152" d="M225.26,350.83c-5,3-10.39,3.25-11.95.6s1.25-7.2,6.29-10.17,10.38-3.25,11.94-.61S230.29,347.85,225.26,350.83Z"/><path class="cls-153" d="M220.17,342.22c4.72-2.79,9.72-3.2,11.61-1.06a2.93,2.93,0,0,0-.24-.51c-1.56-2.64-6.91-2.37-11.94.61s-7.85,7.53-6.29,10.17a3.83,3.83,0,0,0,.33.46C212.67,349.2,215.44,345,220.17,342.22Z"/><path class="cls-154" d="M225.17,346.48l.47-1.7-.47-.13c-.76-3.73-5.81-7.68-12.59-9.5s-13.14-.91-15.65,2l-.47-.13-.52,1.94c-1.13,4.23,4.48,9.4,12.54,11.56,7.84,2.1,15.1.56,16.53-3.42h0v0c0-.1.07-.2.1-.3S225.15,346.56,225.17,346.48Z"/><ellipse class="cls-92" cx="211.05" cy="340.88" rx="7.93" ry="15.1" transform="translate(-172.81 456.6) rotate(-75.01)"/><path class="cls-155" d="M209.61,346.25c-5.65-1.52-9.59-5.15-8.79-8.11s6-4.15,11.67-2.64,9.58,5.15,8.79,8.11S215.26,347.76,209.61,346.25Z"/><path class="cls-156" d="M212.2,336.58c5.3,1.42,9.09,4.71,8.88,7.56a3.05,3.05,0,0,0,.2-.53c.79-3-3.14-6.59-8.79-8.11s-10.88-.33-11.67,2.64a3.33,3.33,0,0,0-.1.55C202,336.12,206.89,335.17,212.2,336.58Z"/><path class="cls-157" d="M167.91,329l-1.07-1.4-.39.3c-3.42-1.66-9.63,0-15.17,4.28s-8.67,9.92-7.92,13.65l-.38.29,1.23,1.59c2.68,3.46,10.2,2.11,16.79-3,6.41-5,9.58-11.69,7.27-15.24h0l0,0-.18-.27Z"/><ellipse class="cls-92" cx="154.91" cy="336.89" rx="15.1" ry="7.93" transform="translate(-174.04 165.77) rotate(-37.82)"/><path class="cls-158" d="M158.32,341.28c-4.62,3.59-9.89,4.53-11.78,2.11s.34-7.3,5-10.89,9.89-4.53,11.78-2.1S162.94,337.7,158.32,341.28Z"/><path class="cls-159" d="M152.19,333.38c4.33-3.36,9.24-4.4,11.39-2.51a3.76,3.76,0,0,0-.3-.47c-1.89-2.43-7.16-1.49-11.78,2.1s-6.84,8.46-5,10.89a3.68,3.68,0,0,0,.39.4C145.63,341.25,147.85,336.75,152.19,333.38Z"/><path class="cls-160" d="M189.19,347.45l.47-1.7-.48-.13c-.75-3.73-5.8-7.68-12.58-9.5s-13.14-.91-15.65,1.95l-.47-.13-.52,1.93c-1.13,4.23,4.48,9.41,12.54,11.57,7.84,2.1,15.1.56,16.53-3.42h0v0c0-.1.07-.2.1-.3S189.17,347.53,189.19,347.45Z"/><ellipse class="cls-92" cx="175.07" cy="341.84" rx="7.93" ry="15.1" transform="translate(-200.42 422.56) rotate(-75.01)"/><path class="cls-161" d="M173.63,347.21c-5.65-1.51-9.59-5.14-8.79-8.11s6-4.14,11.66-2.63,9.59,5.15,8.8,8.11S179.28,348.73,173.63,347.21Z"/><path class="cls-162" d="M176.21,337.55c5.31,1.42,9.1,4.71,8.89,7.56a3.39,3.39,0,0,0,.2-.53c.79-3-3.15-6.6-8.8-8.11s-10.87-.33-11.66,2.63a3.66,3.66,0,0,0-.1.56C166,337.08,170.91,336.13,176.21,337.55Z"/><path class="cls-163" d="M168.91,353.47c0,.1,0,.21,0,.32v0c-.18,3.14-3.81,5.91-9,7.2-.24.07-.5.12-.75.18-.62.14-1.26.25-1.92.34-.5.07-1,.14-1.53.18h-.14a.22.22,0,0,1,0-.09v0l-3.15-1.81h0l-13.21-7.63h0a5.52,5.52,0,0,1,1-1.46,11.16,11.16,0,0,1,3.43-2.48l.7-.34c.22-.09.45-.18.69-.26a19.47,19.47,0,0,1,3.74-1.11,26.94,26.94,0,0,1,3.49-.48c.42,0,.88-.06,1.32-.07h1.78a28.9,28.9,0,0,1,3.43.33,20.71,20.71,0,0,1,4.86,1.38,12.61,12.61,0,0,1,1.9,1,2.8,2.8,0,0,1,.4.27,5.83,5.83,0,0,1,.91.71,6.49,6.49,0,0,1,1.49,1.83l.5,0v.12l0,1.65C168.9,353.31,168.91,353.39,168.91,353.47Z"/><path class="cls-92" d="M168.86,351.46v.12c0,3.17-3.56,6-8.71,7.35l-1,.25c-.42.1-.86.18-1.3.24-.62.11-1.28.2-1.95.27s-1.25.09-1.89.11h-1.57l-13.21-7.63-.53-.31h0a4.63,4.63,0,0,1,.23-1.08,5.13,5.13,0,0,1,.85-1.59l.4-.48a11.48,11.48,0,0,1,3-2.29h0a19.44,19.44,0,0,1,4-1.54c.38-.12.78-.21,1.2-.3a27.29,27.29,0,0,1,3.78-.54c.42,0,.87,0,1.31-.06h.09a28.12,28.12,0,0,1,4.66.26,23.67,23.67,0,0,1,2.69.55l.36.09a17.61,17.61,0,0,1,3.82,1.58,10.72,10.72,0,0,1,1.67,1.22,4.18,4.18,0,0,1,.44.4,6.68,6.68,0,0,1,.69.84,4.67,4.67,0,0,1,.62,1.19A4.35,4.35,0,0,1,168.86,351.46Z"/><path class="cls-164" d="M153.91,357.43c-5.85.16-10.66-2.19-10.74-5.26s4.59-5.69,10.43-5.85,10.66,2.2,10.74,5.27S159.75,357.27,153.91,357.43Z"/><path class="cls-165" d="M153.63,347.44c5.49-.15,10.06,1.91,10.67,4.71a2.69,2.69,0,0,0,0-.56c-.08-3.07-4.89-5.43-10.74-5.27s-10.52,2.78-10.43,5.85a2.59,2.59,0,0,0,.07.55C143.69,349.9,148.15,347.59,153.63,347.44Z"/><path class="cls-166" d="M153.78,342.43c0,.11,0,.22,0,.32v0a5.35,5.35,0,0,1-.23,1.18h0v0a6.35,6.35,0,0,1-1.27,2,5.14,5.14,0,0,1-.4.41h0a11,11,0,0,1-1.84,1.41l-.08,0a16.33,16.33,0,0,1-3.17,1.48c-.46.17-1,.32-1.46.45l0,0c-.48.13-1,.25-1.49.34a23.79,23.79,0,0,1-3.57.51l-1.32.07c-.63,0-1.26,0-1.87,0h-.28l-4.46-2.58-8.06-4.63h0l-.63-.37,0-1.89.48,0c1.56-3.4,7.25-6.05,14.13-6.31l.32,0c.48,0,1,0,1.43,0a24.44,24.44,0,0,1,3.27.27,19,19,0,0,1,2,.36,19.71,19.71,0,0,1,2.05.58l.47.16.13.05a10.21,10.21,0,0,1,1,.43,9.07,9.07,0,0,1,4.45,3.68h.48v.12l0,.56,0,1.08A1,1,0,0,1,153.78,342.43Z"/><path class="cls-92" d="M153.72,340.43v.12a3.81,3.81,0,0,1,0,.59,5.5,5.5,0,0,1-1.45,2.88,4.72,4.72,0,0,1-.5.5,12.18,12.18,0,0,1-2.95,2,18.94,18.94,0,0,1-3.28,1.25c-.34.11-.67.19-1,.27l-.83.19a27.91,27.91,0,0,1-3,.44l-.51,0c-.44,0-.87.05-1.31.06a26.83,26.83,0,0,1-6.55-.6l-8.06-4.63h0a4.65,4.65,0,0,1-.68-2.26c-.11-4.1,5.71-7.65,13.31-8.27h0c.51,0,1-.07,1.54-.08a25.83,25.83,0,0,1,8.08,1c.38.12.76.24,1.12.38l.89.36.46.2c.35.17.68.34,1,.53l.13.08C152.32,336.77,153.67,338.51,153.72,340.43Z"/><path class="cls-167" d="M138.78,346.4c-5.85.16-10.65-2.2-10.74-5.27s4.59-5.69,10.44-5.85,10.65,2.2,10.74,5.27S144.63,346.24,138.78,346.4Z"/><path class="cls-168" d="M138.51,336.4c5.49-.15,10.06,1.92,10.67,4.71a3.43,3.43,0,0,0,0-.56c-.09-3.07-4.9-5.43-10.74-5.27S128,338.06,128,341.13a3.43,3.43,0,0,0,.07.56C128.57,338.87,133,336.55,138.51,336.4Z"/><path class="cls-169" d="M194.31,371.94l-2.72,1.59-.62.34-1.55.9a12,12,0,0,1-5.81,1.46,9.3,9.3,0,0,1-4.59-1.07l0,0-7.06-4.08-5.45-3.14-.31-.19-.33-.19.42-1.56.47.13c1.3-1.46,3.59-2.41,6.47-2.75.32,0,.64-.06,1-.08a20.92,20.92,0,0,1,2.63,0,26,26,0,0,1,5.59.89,25.5,25.5,0,0,1,7.77,3.48l.75.53c.28.22.53.42.77.64a10,10,0,0,1,1.32,1.27A8.43,8.43,0,0,1,194.31,371.94Z"/><path class="cls-92" d="M195.14,371.47l-.83.47-2.72,1.59-.62.34-1.55.9a12,12,0,0,1-5.81,1.46,9.3,9.3,0,0,1-4.59-1.07l0,0-7.06-4.08-5.45-3.14-.31-.19a4.49,4.49,0,0,1,.09-1.75l0,0c.57-2.12,2.74-3.59,5.77-4.26l.87-.17a15.81,15.81,0,0,1,1.76-.19l.47,0a22.8,22.8,0,0,1,4,.18,26.66,26.66,0,0,1,3.77.74,25.38,25.38,0,0,1,7.61,3.39h0a.91.91,0,0,1,.16.11,16.59,16.59,0,0,1,1.55,1.19c.39.35.75.69,1.07,1l.19.19c.23.27.45.53.64.8a.1.1,0,0,0,0,0,9.24,9.24,0,0,1,.59.9,4.17,4.17,0,0,1,.6,1.43S195.14,371.47,195.14,371.47Z"/><path class="cls-170" d="M191.08,372.62a3.75,3.75,0,0,1-.17.47.13.13,0,0,1,0,.05h0a2.9,2.9,0,0,1-.19.34c-1.49,2.32-6.22,3.12-11.28,1.77l-.39-.1,0,0-7.06-4.08a4.71,4.71,0,0,1-1.4-3.36,2.83,2.83,0,0,1,.09-.56,2,2,0,0,1,.23-.56,1.82,1.82,0,0,1,.2-.36.18.18,0,0,1,0-.08,1.37,1.37,0,0,1,.19-.23,1.48,1.48,0,0,1,.33-.33,2,2,0,0,1,.21-.2h0l.24-.19a4.79,4.79,0,0,1,.84-.46l.25-.11a2.85,2.85,0,0,1,.31-.12,5.2,5.2,0,0,1,1-.31l.48-.11h0l.34-.05a6.6,6.6,0,0,1,.68-.09l.36,0c.16,0,.32,0,.49,0h.8a16.3,16.3,0,0,1,2.05.14l.49.07a1.55,1.55,0,0,1,.35.07c.28,0,.56.09.85.16l.91.21a19.13,19.13,0,0,1,4.26,1.71,2.36,2.36,0,0,1,.38.22,12.27,12.27,0,0,1,2.16,1.57,6.13,6.13,0,0,1,.51.51c.12.12.21.24.32.36h0l.31.38a4.17,4.17,0,0,1,.29.44,4,4,0,0,1,.23.41c.05.12.1.23.14.35a3.44,3.44,0,0,1,.14.37v0a1.25,1.25,0,0,1,.08.32v0a.76.76,0,0,1,0,.16A3.05,3.05,0,0,1,191.08,372.62Z"/><path class="cls-171" d="M182,365.6c5.3,1.42,9.09,4.7,8.89,7.55a3.24,3.24,0,0,0,.19-.52c.8-3-3.14-6.6-8.79-8.11s-10.88-.34-11.67,2.63a2.63,2.63,0,0,0-.09.55C171.77,365.13,176.7,364.18,182,365.6Z"/><path class="cls-172" d="M220.64,356.51l-.08.28,0,0h0l-1.83,1.06h0l-4.28,2.46h0l-1.28.74h0l-1.15.66-2.38,1.37c-.37,0-.77,0-1.16-.06a26.28,26.28,0,0,1-4.94-.86c-.5-.13-1-.27-1.44-.43s-1-.32-1.42-.49h0a23.09,23.09,0,0,1-2.35-1l-1-.54a.6.6,0,0,0-.11-.06,1.91,1.91,0,0,1-.21-.14,18.41,18.41,0,0,1-1.7-1.11,13.81,13.81,0,0,1-3-2.88c-.17-.23-.32-.47-.47-.69a6.6,6.6,0,0,1-.83-2,4.53,4.53,0,0,1-.08-.49,2.56,2.56,0,0,1,0-.55,4.36,4.36,0,0,1,.15-1.19l.52-1.93.47.13a8.61,8.61,0,0,1,4.68-2.44h0a14.53,14.53,0,0,1,2.51-.38h.22a21.54,21.54,0,0,1,3.4,0h0a0,0,0,0,1,0,0,26.6,26.6,0,0,1,4.8.84c.77.22,1.52.44,2.26.71.56.2,1.1.41,1.64.65s1,.44,1.47.7q.38.18.72.39s0,0,.09.05h0a18.64,18.64,0,0,1,2.88,2,12.83,12.83,0,0,1,1.85,1.83,7.9,7.9,0,0,1,1.44,2.47,7.27,7.27,0,0,1,.2.73Z"/><path class="cls-92" d="M220.79,355.42a4.47,4.47,0,0,1-.15,1.09c0,.09-.06.2-.1.3h0l-1.83,1.06h0l-4.28,2.46h0l-1.28.74h0c-.3,0-.59.06-.9.07a20.87,20.87,0,0,1-3,0,27.6,27.6,0,0,1-5.26-.9,24.27,24.27,0,0,1-2.88-.93c-.46-.17-.93-.37-1.37-.57l-1.08-.51a3.13,3.13,0,0,0-.36-.19c-.63-.35-1.23-.69-1.79-1.07a13.7,13.7,0,0,1-4.24-4.11c-.05-.08-.09-.16-.13-.24a6.4,6.4,0,0,1-.55-1.2,4.69,4.69,0,0,1-.13-2.74,4.35,4.35,0,0,1,1.07-1.9,6.63,6.63,0,0,0,.66-.55,4,4,0,0,0,.3-.29h0a10.67,10.67,0,0,1,4.15-1.62l.17,0q1-.17,2-.24h.28a23.82,23.82,0,0,1,4.33.18l.43.07c.69.09,1.39.23,2.08.39h0l1.09.26c1,.27,1.91.57,2.8.91.62.24,1.2.48,1.78.75l.51.25h0s0,0,0,0a4.25,4.25,0,0,1,.43.21c.29.15.57.31.84.47a19.82,19.82,0,0,1,2.73,1.88h0a13.91,13.91,0,0,1,1.68,1.66,8.45,8.45,0,0,1,1.24,1.83A5.54,5.54,0,0,1,220.79,355.42Z"/><path class="cls-173" d="M204.61,358c-5.65-1.51-9.58-5.14-8.79-8.11s6-4.14,11.67-2.63,9.59,5.14,8.79,8.11S210.26,359.49,204.61,358Z"/><path class="cls-174" d="M207.2,348.32c5.3,1.42,9.1,4.7,8.89,7.55a2.92,2.92,0,0,0,.19-.52c.8-3-3.14-6.6-8.79-8.11s-10.88-.34-11.67,2.63a2.63,2.63,0,0,0-.09.55C197,347.85,201.9,346.9,207.2,348.32Z"/><path class="cls-175" d="M214.8,357.3c0,.2,0,.43,0,.64a11.07,11.07,0,0,1-.38,2.39h0l-1.28.74h0l-1.15.66-2.38,1.37-1.8,1-12.41,7.16-.24.15-.83.47-2.72,1.59a7.91,7.91,0,0,1-.16-3.4,11.68,11.68,0,0,1,.25-1.32c.06-.2.11-.4.18-.6.12-.43.26-.85.42-1.28s.39-1,.63-1.46a26.15,26.15,0,0,1,3.53-5.41c.17-.18.33-.37.49-.56,0,0,0-.06.09-.09a1.9,1.9,0,0,1,.19-.21c.27-.3.52-.57.79-.85.11-.09.21-.2.31-.29.33-.33.66-.64,1-.93s.67-.59,1-.87a17.35,17.35,0,0,1,8.57-4.06,6.11,6.11,0,0,1,1,0,6.35,6.35,0,0,1,1.53.22l.32-.36,1.29,1.19.19.16a2.5,2.5,0,0,1,.23.23h0a4.92,4.92,0,0,1,1.22,2.69A7.91,7.91,0,0,1,214.8,357.3Z"/><path class="cls-92" d="M213.33,356.14h0c0,.45,0,.92-.09,1.43,0,.16-.05.33-.09.51a15.62,15.62,0,0,1-.93,3.07c-.08.19-.16.39-.25.59l-2.38,1.37-1.8,1-12.41,7.16-.24.15-.83.47-2.72,1.59-.62.34c-.09-.12-.2-.25-.28-.38a5.93,5.93,0,0,1-.85-3.26v-.16c0-.38,0-.78.08-1.18h0c0-.25.08-.49.13-.76s.07-.32.11-.48a16.31,16.31,0,0,1,.57-1.9.49.49,0,0,0,0-.11,24.58,24.58,0,0,1,4.29-7c.05-.06.12-.13.17-.2s.32-.37.49-.54v0l.64-.68a1.14,1.14,0,0,0,.15-.16c.41-.4.82-.8,1.24-1.16s.53-.48.81-.71c3.57-3,7.39-4.54,10.26-4.29a6.05,6.05,0,0,1,1.32.26,4.88,4.88,0,0,1,1.61.93A5.43,5.43,0,0,1,213.33,356.14Z"/><path class="cls-176" d="M209.81,358.62a9,9,0,0,1-.55,2.54,13.9,13.9,0,0,1-.83,1.9,12.5,12.5,0,0,1-.64,1.1l-12.41,7.16-.24.15a1.28,1.28,0,0,1-.25-.15l-.19-.12a1.16,1.16,0,0,1-.25-.2,1.45,1.45,0,0,1-.22-.21,2,2,0,0,1-.17-.23.38.38,0,0,1-.09-.13,1.61,1.61,0,0,1-.19-.31.9.9,0,0,0-.05-.09,3.4,3.4,0,0,1-.19-.54,1.14,1.14,0,0,1-.08-.33,2.79,2.79,0,0,1-.07-.4,3.65,3.65,0,0,1,0-.59V368a.45.45,0,0,1,0-.11,1.94,1.94,0,0,1,0-.33,3.9,3.9,0,0,1,.08-.57,1.13,1.13,0,0,1,0-.32.6.6,0,0,1,0-.22,9.48,9.48,0,0,1,.35-1.16h0a8.78,8.78,0,0,1,.47-1.18c.09-.2.18-.4.29-.61a4.4,4.4,0,0,1,.31-.56c0-.08.08-.16.13-.24a12.12,12.12,0,0,1,.66-1.05l.44-.6a5.13,5.13,0,0,1,.46-.61c.18-.23.35-.44.55-.66l0,0c.07-.09.15-.17.23-.26.27-.3.53-.58.81-.85a3.07,3.07,0,0,1,.38-.34c.3-.3.61-.56.93-.83a14.71,14.71,0,0,1,1.22-.9,11.27,11.27,0,0,1,1.55-.92l.6-.29a9.22,9.22,0,0,1,1.71-.6l.49-.11.48-.07a5.36,5.36,0,0,1,1.27,0,2.88,2.88,0,0,1,.51.1,3.18,3.18,0,0,1,1.29.7,3.42,3.42,0,0,1,.36.4h0A4.27,4.27,0,0,1,209.81,358.62Z"/><path class="cls-177" d="M198.3,360.19c3.7-4.06,8.36-5.92,10.8-4.42a3.79,3.79,0,0,0-.38-.42c-2.27-2.07-7.3-.24-11.24,4.08s-5.3,9.51-3,11.58a3,3,0,0,0,.45.34C193.18,369.06,194.6,364.25,198.3,360.19Z"/><path class="cls-178" d="M193.12,335.7l1-1.47-.41-.27c.43-3.78-3.16-9.1-9.06-12.91s-12.22-4.9-15.49-2.95l-.41-.27-1.08,1.69c-2.38,3.67,1.37,10.33,8.38,14.85,6.81,4.41,14.2,5.18,16.78,1.83h0l0,0,.19-.26Z"/><ellipse class="cls-92" cx="181.4" cy="326.03" rx="7.93" ry="15.1" transform="translate(-190.89 301.45) rotate(-57.13)"/><path class="cls-179" d="M178.38,330.7c-4.91-3.18-7.54-7.84-5.88-10.42s7-2.1,11.92,1.08,7.54,7.84,5.88,10.42S183.29,333.87,178.38,330.7Z"/><path class="cls-180" d="M183.81,322.3c4.61,3,7.21,7.27,6.14,9.92a3.75,3.75,0,0,0,.35-.44c1.66-2.58-1-7.25-5.88-10.42s-10.25-3.66-11.92-1.08a4.74,4.74,0,0,0-.26.5C174.22,318.71,179.2,319.32,183.81,322.3Z"/><path class="cls-181" d="M180.46,350.43a5.78,5.78,0,0,1-.08.7,11.67,11.67,0,0,1-.25,1.23c-.06.22-.12.45-.19.69-.15.46-.31.91-.49,1.39h0a11,11,0,0,1-.52,1.19,24.41,24.41,0,0,1-1.72,3,27.2,27.2,0,0,1-2,2.65,2.85,2.85,0,0,1-.23.26l-.28.32c-.28.31-.58.62-.87.91l-.57.56a23.47,23.47,0,0,1-6.72,4.56l-.31-.19-.33-.19-1.35-.77-7.39-4.28c0-.3.08-.64.14-1a15.2,15.2,0,0,1,.58-2.11,20.1,20.1,0,0,1,1.27-2.86,27.18,27.18,0,0,1,3.82-5.35l.58-.62.44-.44c.53-.53,1.08-1,1.63-1.48a.41.41,0,0,1,.1-.09c.39-.34.78-.63,1.17-.92a3.31,3.31,0,0,1,.5-.36,18.77,18.77,0,0,1,2.5-1.54c2.73-1.42,5.33-1.92,7.31-1.36l.33-.36,1.3,1.2a1.19,1.19,0,0,1,.18.15l.23.22,0,0a4.92,4.92,0,0,1,1.11,2.11A7.58,7.58,0,0,1,180.46,350.43Z"/><path class="cls-92" d="M179,347.86a10.15,10.15,0,0,1-.23,2.56c-.08.32-.16.67-.25,1s-.19.62-.29.92-.26.71-.42,1.07a25,25,0,0,1-4.17,6.56c-.16.2-.33.39-.5.57l-.48.53-.63.62a23.91,23.91,0,0,1-5.77,4.26,13.49,13.49,0,0,1-1.79.82l-7.39-4.28-1.39-.78h-.14a.22.22,0,0,1,0-.09v0a10.52,10.52,0,0,1,.29-1.92,16,16,0,0,1,.82-2.52,25,25,0,0,1,4.74-7.31l.52-.56.65-.66c.35-.34.7-.66,1.06-1,.09-.09.2-.17.29-.25.4-.35.81-.67,1.21-1l.32-.25a23.36,23.36,0,0,1,2.45-1.57h0c3.83-2.09,7.46-2.45,9.52-.58A5.17,5.17,0,0,1,179,347.86Z"/><path class="cls-182" d="M171.4,358.94c-3.94,4.33-9,6.16-11.24,4.09s-.91-7.25,3-11.58,9-6.15,11.24-4.08S175.35,354.62,171.4,358.94Z"/><path class="cls-183" d="M164,352.21c3.7-4.06,8.36-5.92,10.8-4.42a3.79,3.79,0,0,0-.38-.42c-2.27-2.07-7.3-.24-11.24,4.08s-5.3,9.51-3,11.58a2.89,2.89,0,0,0,.45.33C158.89,361.08,160.31,356.26,164,352.21Z"/></g></g></svg>