<?xml version="1.0" encoding="UTF-8"?>
<svg width="192px" height="150px" viewBox="0 0 192 150" version="1.1" xmlns="http://www.w3.org/2000/svg" xmlns:xlink="http://www.w3.org/1999/xlink">
    <title>编组 23 4</title>
    <defs>
        <linearGradient x1="24.3900655%" y1="39.3841418%" x2="70.8009397%" y2="55.0126422%" id="linearGradient-1">
            <stop stop-color="#797979" stop-opacity="0" offset="0%"></stop>
            <stop stop-color="#7D7D7D" offset="100%"></stop>
        </linearGradient>
        <path d="M43.1875864,4.40536496e-13 L86.3751728,20.2218675 L86.3751728,70.0905968 L43.1875864,95.0249615 L0,70.0905968 L0,20.2218675 L43.1875864,4.40536496e-13 Z M82.501,26.493 L44.674,44.45 L45.107,89.442 L82.5015749,67.8537664 L82.501,26.493 Z M3.872,26.492 L3.87262957,67.8537664 L41.234,89.423 L40.797,44.021 L3.872,26.492 Z M43.1875864,4.27646238 L4.38196843,22.4461097 L43.033,40.795 L43.345,40.792 L81.9922361,22.4461097 L43.1875864,4.27646238 Z" id="path-2"></path>
    </defs>
    <g id="页面-2" stroke="none" stroke-width="1" fill="none" fill-rule="evenodd">
        <g id="Apple-TV备份-16" transform="translate(-462.000000, -1887.000000)">
            <g id="编组-23备份" transform="translate(462.000000, 1887.000000)">
                <path d="M138.119073,119.587529 C131.754811,113.77758 125.363933,110.872606 118.946441,110.872606 C112.528948,110.872606 106.138071,116.15966 99.7738091,126.733767 L138.119073,119.587529 Z" id="椭圆形" fill="#111F2C" opacity="0.383449009"></path>
                <path d="M92.5108886,131.207428 C104.453884,121.378447 110.425382,114.277398 110.425382,109.904281 C110.425382,101.704152 87.9329269,92.0209034 42.9480161,80.8545359 L1.14760213,100.210923 L92.5108886,131.207428 Z" id="椭圆形" fill="url(#linearGradient-1)" opacity="0.669634138"></path>
                <polygon id="路径-28" fill="#272727" points="92.5113728 129.330995 51.429374 104.456301 51.429374 58.5830645 92.5113728 38.7324053 134.633503 58.5830645 134.633503 106.4967"></polygon>
                <g id="路径-26" transform="translate(49.323786, 36.182466)">
                    <mask id="mask-3" fill="white">
                        <use xlink:href="#path-2"></use>
                    </mask>
                    <use id="形状结合" fill="#FFFFFF" fill-rule="nonzero" xlink:href="#path-2"></use>
                    <polygon fill="#FFFFFF" mask="url(#mask-3)" points="-1.11022302e-13 20.2218675 43.1875864 40.7801685 43.1875864 98.3969222 -1.83951867 69.4185748"></polygon>
                </g>
                <polygon id="路径-9备份" fill="#FFFFFF" points="92.5831805 129.071531 92.5831805 80.1669722 50.9452124 60.3204669 50.9452124 105.631601"></polygon>
                <ellipse id="椭圆形" fill="#C7C7C7" opacity="0.383449009" cx="87.1855861" cy="58.0989021" rx="17.4298471" ry="4.35746178"></ellipse>
                <circle id="椭圆形备份-3" stroke="#1A1A1A" stroke-width="2" fill="#1DA2B4" cx="93.4796976" cy="36.0856507" r="21.8189841"></circle>
                <polyline id="路径-13备份-2" stroke="#FFFFFF" stroke-width="3" points="91.0256867 28.1981332 85.8629961 33.2759342 104.14308 33.2759342"></polyline>
                <polyline id="路径-13备份-3" stroke="#FFFFFF" stroke-width="3" transform="translate(91.956357, 41.908196) scale(-1, -1) translate(-91.956357, -41.908196) " points="87.9790061 39.3692954 82.8163155 44.4470964 101.096399 44.4470964"></polyline>
                <path d="M127.129646,98.9691227 C126.336616,98.9691227 121.414078,97.544748 112.362032,94.6959987 L99.7738091,101.431934 L99.7738091,114.243299 C118.804064,104.060515 127.922676,98.9691227 127.129646,98.9691227 Z" id="路径-22备份" fill="#DCDCDC"></path>
                <line x1="112.362032" y1="97.2412836" x2="112.362032" y2="78.9701862" id="路径-24备份" stroke="#DCDCDC" stroke-width="2"></line>
                <polygon id="路径-11备份" stroke="#FFFFFF" stroke-width="2" points="99.7738091 85.0983439 99.7738091 114.243299 126.161321 99.9374476 126.161321 72.5212272"></polygon>
                <g id="编组-9" transform="translate(115.267007, 80.854536)">
                    <circle id="椭圆形备份-2" stroke="#1A1A1A" stroke-width="2" fill="#1DA2B4" cx="19.3664968" cy="19.3664968" r="20.3664968"></circle>
                    <path d="M26.7713338,11.6198981 L26.7713338,15.3444045 L21.1540708,15.3444045 L21.1539076,17.4081235 C25.6479687,17.6057664 29.0497452,18.5349866 29.0497452,19.6514217 C29.0497452,20.7670264 25.6529017,21.6954332 21.1639064,21.8940887 L21.1639064,21.8940887 L21.1639064,30.0180701 L17.4995153,30.0180701 L17.4995153,21.8908873 C13.0449854,21.685829 9.68324841,20.7611291 9.68324841,19.6514217 C9.68324841,18.5350693 13.0846467,17.605904 17.5782418,17.4081675 L17.5789228,15.3444045 L11.9616598,15.3444045 L11.9616598,11.6198981 L26.7713338,11.6198981 Z M21.153874,17.6247474 L21.1540708,20.8189841 L17.5789228,20.8189841 L17.5782298,17.6247905 C13.6736189,17.7937852 10.7426981,18.5049312 10.7426981,19.3563871 C10.7426981,20.333826 14.6037823,21.126089 19.366577,21.126089 C24.1292113,21.126089 27.9902955,20.333826 27.9902955,19.3563871 C27.9902955,18.5048589 25.0588763,17.7936643 21.153874,17.6247474 Z" id="形状结合备份-3" fill="#FFFFFF" fill-rule="nonzero"></path>
                </g>
                <polygon id="路径-9" fill="#111F2C" fill-rule="nonzero" points="73.9843078 79.9626305 73.9843078 106.999307 70.1110084 104.986237 70.1110084 77.9495613"></polygon>
                <polygon id="路径-9" fill="#111F2C" fill-rule="nonzero" transform="translate(72.176551, 92.474434) scale(-1, 1) rotate(-120.000000) translate(-72.176551, -92.474434) " points="74.5973632 80.2089202 73.4093245 106.999307 69.755739 104.739948 70.9437777 77.9495613"></polygon>
            </g>
        </g>
    </g>
</svg>