<?xml version="1.0" encoding="UTF-8"?>
<svg width="560px" height="390px" viewBox="0 0 560 390" version="1.1" xmlns="http://www.w3.org/2000/svg" xmlns:xlink="http://www.w3.org/1999/xlink">
    <title>编组 32备份</title>
    <defs>
        <polygon id="path-1" points="102 154 -4.52970994e-14 95.1630811 -4.52970994e-14 0 102 59.2492146"></polygon>
        <path d="M52.339909,64.4232474 C53.0402912,64.8261297 53.7093182,65.5099476 54.1869755,66.3111757 L64.3217283,83.3113392 C65.2260906,84.8283356 65.2260906,86.3742661 64.3217283,86.8508263 L54.1869755,92.1913208 C53.7093182,92.4430214 53.0402912,92.3571478 52.339909,91.9542655 L47.8069361,89.3467544 C47.2346164,89.0175378 46.9377634,88.1452932 47.328086,87.9396251 L56.2928085,83.2157102 L51.3387543,80.3659795 L46.3013699,71.962076 L56.2928085,77.7094715 L46.3013699,60.9496863 L52.339909,64.4232474 Z M47.1929821,51.3195635 C47.7653005,51.6487794 48.0621528,52.5210166 47.6719164,52.7267061 L38.7072143,57.4506678 L43.6612572,60.300392 L48.6986301,68.7042889 L38.7072143,62.9569065 L48.6986301,79.7166786 L42.6601048,76.2431255 C41.9596389,75.8401951 41.2906135,75.156378 40.8129573,74.3551506 L30.6782923,57.3550376 C29.7739014,55.8380247 29.7739031,54.2920952 30.678294,53.8155515 L40.8129573,48.4749949 C41.2906135,48.2232867 41.9596389,48.3091769 42.6601048,48.7121073 L47.1929821,51.3195635 Z" id="path-3"></path>
        <filter x="-1.4%" y="-3.4%" width="105.7%" height="104.5%" filterUnits="objectBoundingBox" id="filter-4">
            <feOffset dx="1" dy="-1" in="SourceAlpha" result="shadowOffsetOuter1"></feOffset>
            <feColorMatrix values="0 0 0 0 0.117647059   0 0 0 0 0.117647059   0 0 0 0 0.117647059  0 0 0 1 0" type="matrix" in="shadowOffsetOuter1"></feColorMatrix>
        </filter>
        <polygon id="path-5" points="0 0 0 97.3247869 142.380269 180.713419 142.380269 81.7570165"></polygon>
        <polygon id="path-7" points="0 0 10.0148805 0 149.948467 80.3885271 150.377196 178.35159 144.341879 184.180277 143.37707 183.029322 143.37707 84.1247156 1.44778883e-13 0.457818857"></polygon>
    </defs>
    <g id="页面-2" stroke="none" stroke-width="1" fill="none" fill-rule="evenodd">
        <g id="画板" transform="translate(-151.000000, -517.000000)">
            <g id="编组-32备份" transform="translate(151.000000, 517.000000)">
                <rect id="蒙版" fill="#1DA2B4" x="0" y="0" width="560" height="390" rx="16"></rect>
                <g id="编组-6" transform="translate(338.000000, 72.666841)">
                    <path d="M3.04456801,-1 L104,57.264046 L104,155.071928 L-0.167244139,93.7498472 L-0.167244139,-1 L3.04456801,-1 Z" id="蒙版" stroke="#1E1E1E" stroke-width="2" fill="#1E1E1E"></path>
                    <path d="M65,131.022753 L65,134.445496 C65,137.556425 63.5521866,140.490162 61.0830251,142.382548 L52.0139579,149.333159 L52.0139579,149.333159 L28,134.819081 L37.8121629,131.486576 C41.8681159,130.109053 44.5962762,126.301276 44.5962762,122.017781 L44.5962762,121.333159 L44.5962762,121.333159 L65,131.022753 Z" id="路径-75" stroke="#1E1E1E" fill="#D8D8D8"></path>
                    <path d="M64,130.261238 L64,133.60841 C64,136.761961 62.512454,139.730747 59.9864031,141.618589 L52.3399536,147.333159 L52.3399536,147.333159 L29,132.819081 L38.4292405,129.524149 C42.4425475,128.121748 45.1304654,124.335189 45.1304654,120.083911 L45.1304654,119.333159 L45.1304654,119.333159 L64,130.261238 Z" id="路径-75" stroke="#1E1E1E" fill="#D8D8D8"></path>
                    <g id="路径-65" transform="translate(0.000000, 0.333159)">
                        <mask id="mask-2" fill="white">
                            <use xlink:href="#path-1"></use>
                        </mask>
                        <path stroke="#1E1E1E" d="M-0.5,-0.868670705 L102.5,58.9614185 L102.5,154.865637 L-0.5,95.4518857 L-0.5,-0.868670705 Z"></path>
                        <polygon fill="#E5E5E5" mask="url(#mask-2)" points="103.450237 138.270971 -1.93364929 75.785489 -1.93364929 101.675227 101.981269 158.37224"></polygon>
                    </g>
                    <polygon id="路径-64" fill="#1DA2B4" points="100 133.333159 2 76.1300373 2 3.33315892 100 60.9032771"></polygon>
                    <g id="形状结合备份-4" fill-rule="nonzero">
                        <use fill="black" fill-opacity="1" filter="url(#filter-4)" xlink:href="#path-3"></use>
                        <use fill="#FFFFFF" xlink:href="#path-3"></use>
                    </g>
                </g>
                <polygon id="蒙版" fill="#FFFFFF" points="220.048334 85.0936124 220.048334 182.418399 362.428603 265.807031 362.428603 166.850629"></polygon>
                <g id="编组-28" transform="translate(219.051533, 83.325490)">
                    <g id="路径-30" transform="translate(0.996800, 1.768122)">
                        <mask id="mask-6" fill="white">
                            <use xlink:href="#path-5"></use>
                        </mask>
                        <path stroke="#1E1E1E" d="M-0.5,-0.863676235 L142.880269,81.4675562 L142.880269,181.585699 L-0.5,97.6113919 L-0.5,-0.863676235 Z"></path>
                        <path d="M-5.53030324,38.4220854 C-4.19696991,38.4220854 31.4682504,58.0887521 101.465358,97.4220854 L101.465358,162.906388 L71.7106815,157.412902 L-18.3063124,95.4220854 C-11.1223063,57.4220854 -6.86363658,38.4220854 -5.53030324,38.4220854 Z" fill="#A6A6A6" mask="url(#mask-6)"></path>
                        <polyline id="路径" stroke="#1E1E1E" mask="url(#mask-6)" points="67.5459366 65.7987683 117.465358 93.4220854 117.465358 125.906388"></polyline>
                        <polyline id="路径" stroke="#1E1E1E" mask="url(#mask-6)" points="67.5459366 55.9063876 125.465358 88.4220854 125.465358 131.422085"></polyline>
                    </g>
                    <line x1="83.542737" y1="241.852102" x2="113.030622" y2="215.449984" id="路径-76" stroke="#1E1E1E"></line>
                    <line x1="76.542737" y1="242.852102" x2="106.030622" y2="216.449984" id="路径-76备份" stroke="#1E1E1E"></line>
                    <line x1="79.485427" y1="234.56899" x2="99.0306219" y2="217.449984" id="路径-76备份-2" stroke="#1E1E1E"></line>
                    <line x1="76.7640974" y1="231.640496" x2="91.0306219" y2="219.449984" id="路径-76备份-3" stroke="#1E1E1E"></line>
                    <g id="路径-24">
                        <mask id="mask-8" fill="white">
                            <use xlink:href="#path-7"></use>
                        </mask>
                        <use id="蒙版" fill="#1E1E1E" xlink:href="#path-7"></use>
                        <line x1="150.948467" y1="80.3885271" x2="141.984884" y2="84.646961" stroke="#FFFFFF" mask="url(#mask-8)"></line>
                    </g>
                </g>
                <polygon id="路径-66备份-2" stroke="#1E1E1E" fill="#1E1E1E" points="101 87 101 218.946886 294 332 294 197.841072"></polygon>
                <g id="编组-31" transform="translate(127.809001, 125.265945)">
                    <polygon id="路径-66备份-2" stroke="#FFFFFF" points="4.69549926 0 5.95822162e-13 1.55344008 5.95822162e-13 14.7474423 100.170808 76.5343655 103.709029 73.257595 103.709029 56.196508"></polygon>
                    <polygon id="路径-66备份-2" stroke="#FFFFFF" fill="#1DA2B4" points="2.26992231e-13 2.24975272 2.27373675e-13 18.679183 99.7090291 76.257595 99.7090291 59.196508"></polygon>
                    <polygon id="路径-66备份-2" fill="#FFFFFF" points="3 7.24975272 3 16.8232003 9.87398227 20.6264355 9.87398227 11.3752765"></polygon>
                    <polygon id="路径-66备份-7" fill="#FFFFFF" points="13 13.2497527 13 22.8232003 19.8739823 26.6264355 19.8739823 17.3752765"></polygon>
                    <polygon id="路径-66备份-8" fill="#FFFFFF" points="23 19.2497527 23 28.8232003 29.8739823 32.6264355 29.8739823 23.3752765"></polygon>
                    <polygon id="路径-66备份-9" fill="#FFFFFF" points="33 25.2497527 33 34.8232003 39.8739823 38.6264355 39.8739823 29.3752765"></polygon>
                    <line x1="99.7090291" y1="59.196508" x2="103.709029" y2="56.196508" id="路径-79" stroke="#FFFFFF"></line>
                </g>
                <g id="编组-31备份" transform="translate(127.809001, 161.265945)">
                    <polygon id="路径-66备份-2" stroke="#FFFFFF" points="4.69549926 0 5.95822162e-13 1.55344008 5.95822162e-13 14.7474423 100.170808 76.5343655 103.709029 73.257595 103.709029 56.196508"></polygon>
                    <polygon id="路径-66备份-2" stroke="#FFFFFF" fill="#1DA2B4" points="2.26992231e-13 2.24975272 2.27373675e-13 18.679183 99.7090291 76.257595 99.7090291 59.196508"></polygon>
                    <polygon id="路径-66备份-2" fill="#FFFFFF" points="3 7.24975272 3 16.8232003 9.87398227 20.6264355 9.87398227 11.3752765"></polygon>
                    <polygon id="路径-66备份-7" fill="#FFFFFF" points="13 13.2497527 13 22.8232003 19.8739823 26.6264355 19.8739823 17.3752765"></polygon>
                    <polygon id="路径-66备份-8" fill="#FFFFFF" points="23 19.2497527 23 28.8232003 29.8739823 32.6264355 29.8739823 23.3752765"></polygon>
                    <polygon id="路径-66备份-9" fill="#FFFFFF" points="33 25.2497527 33 34.8232003 39.8739823 38.6264355 39.8739823 29.3752765"></polygon>
                    <line x1="99.7090291" y1="59.196508" x2="103.709029" y2="56.196508" id="路径-79" stroke="#FFFFFF"></line>
                </g>
                <g id="编组-31备份-2" transform="translate(127.809001, 197.265945)">
                    <polygon id="路径-66备份-2" stroke="#FFFFFF" points="4.69549926 0 5.95822162e-13 1.55344008 5.95822162e-13 14.7474423 100.170808 76.5343655 103.709029 73.257595 103.709029 56.196508"></polygon>
                    <polygon id="路径-66备份-2" stroke="#FFFFFF" fill="#1DA2B4" points="2.26992231e-13 2.24975272 2.27373675e-13 18.679183 99.7090291 76.257595 99.7090291 59.196508"></polygon>
                    <polygon id="路径-66备份-2" fill="#FFFFFF" points="3 7.24975272 3 16.8232003 9.87398227 20.6264355 9.87398227 11.3752765"></polygon>
                    <polygon id="路径-66备份-7" fill="#FFFFFF" points="13 13.2497527 13 22.8232003 19.8739823 26.6264355 19.8739823 17.3752765"></polygon>
                    <polygon id="路径-66备份-8" fill="#FFFFFF" points="23 19.2497527 23 28.8232003 29.8739823 32.6264355 29.8739823 23.3752765"></polygon>
                    <polygon id="路径-66备份-9" fill="#FFFFFF" points="33 25.2497527 33 34.8232003 39.8739823 38.6264355 39.8739823 29.3752765"></polygon>
                    <line x1="99.7090291" y1="59.196508" x2="103.709029" y2="56.196508" id="路径-79" stroke="#FFFFFF"></line>
                </g>
                <g id="编组-30" transform="translate(244.000000, 196.000000)" stroke="#FFFFFF">
                    <path d="M7.44482185,0.846031304 C9.4187164,0.0975742748 11.9108121,0.551781829 14.4569146,2.29169891 C17.1050768,4.10135998 19.3080947,6.9555013 20.7365494,10.1006173 C22.1610282,13.2369794 22.8184663,16.6676032 22.3519319,19.6511154 C22.1297113,21.0722283 21.6722218,22.2587586 21.0252831,23.1855877 C20.3744353,24.1180173 19.532332,24.7834536 18.5551781,25.1539687 C16.5812836,25.9024257 14.0891879,25.4482182 11.5430854,23.7083011 C8.89492321,21.89864 6.69190525,19.0444987 5.26345056,15.8993827 C3.83897176,12.7630206 3.18153367,9.33239677 3.64806806,6.34888456 C3.8702887,4.92777174 4.32777821,3.74124139 4.97471688,2.81441226 C5.62556469,1.88198275 6.46766803,1.21654636 7.44482185,0.846031304 Z" id="椭圆形备份-3" fill="#1E1E1E"></path>
                    <path d="M4.44482185,1.8460313 C6.4187164,1.09757427 8.91081212,1.55178183 11.4569146,3.29169891 C14.1050768,5.10135998 16.3080947,7.9555013 17.7365494,11.1006173 C19.1610282,14.2369794 19.8184663,17.6676032 19.3519319,20.6511154 C19.1297113,22.0722283 18.6722218,23.2587586 18.0252831,24.1855877 C17.3744353,25.1180173 16.532332,25.7834536 15.5551781,26.1539687 C13.5812836,26.9024257 11.0891879,26.4482182 8.54308538,24.7083011 C5.89492321,22.89864 3.69190525,20.0444987 2.26345056,16.8993827 C0.83897176,13.7630206 0.181533666,10.3323968 0.648068058,7.34888456 C0.870288701,5.92777174 1.32777821,4.74124139 1.97471688,3.81441226 C2.62556469,2.88198275 3.46766803,2.21654636 4.44482185,1.8460313 Z" id="椭圆形" fill="#FB8E0C"></path>
                    <polyline id="路径-69" stroke-width="3" points="7 15 9.7669676 18 14 12"></polyline>
                </g>
                <g id="编组-30备份" transform="translate(244.000000, 230.000000)" stroke="#FFFFFF">
                    <path d="M7.44482185,0.846031304 C9.4187164,0.0975742748 11.9108121,0.551781829 14.4569146,2.29169891 C17.1050768,4.10135998 19.3080947,6.9555013 20.7365494,10.1006173 C22.1610282,13.2369794 22.8184663,16.6676032 22.3519319,19.6511154 C22.1297113,21.0722283 21.6722218,22.2587586 21.0252831,23.1855877 C20.3744353,24.1180173 19.532332,24.7834536 18.5551781,25.1539687 C16.5812836,25.9024257 14.0891879,25.4482182 11.5430854,23.7083011 C8.89492321,21.89864 6.69190525,19.0444987 5.26345056,15.8993827 C3.83897176,12.7630206 3.18153367,9.33239677 3.64806806,6.34888456 C3.8702887,4.92777174 4.32777821,3.74124139 4.97471688,2.81441226 C5.62556469,1.88198275 6.46766803,1.21654636 7.44482185,0.846031304 Z" id="椭圆形备份-3" fill="#1E1E1E"></path>
                    <path d="M4.44482185,1.8460313 C6.4187164,1.09757427 8.91081212,1.55178183 11.4569146,3.29169891 C14.1050768,5.10135998 16.3080947,7.9555013 17.7365494,11.1006173 C19.1610282,14.2369794 19.8184663,17.6676032 19.3519319,20.6511154 C19.1297113,22.0722283 18.6722218,23.2587586 18.0252831,24.1855877 C17.3744353,25.1180173 16.532332,25.7834536 15.5551781,26.1539687 C13.5812836,26.9024257 11.0891879,26.4482182 8.54308538,24.7083011 C5.89492321,22.89864 3.69190525,20.0444987 2.26345056,16.8993827 C0.83897176,13.7630206 0.181533666,10.3323968 0.648068058,7.34888456 C0.870288701,5.92777174 1.32777821,4.74124139 1.97471688,3.81441226 C2.62556469,2.88198275 3.46766803,2.21654636 4.44482185,1.8460313 Z" id="椭圆形" fill="#FB8E0C"></path>
                    <polyline id="路径-69" stroke-width="3" points="7 14 9.7669676 17 14 11"></polyline>
                </g>
                <g id="编组-30备份-2" transform="translate(244.000000, 266.000000)" stroke="#FFFFFF">
                    <path d="M7.44482185,0.846031304 C9.4187164,0.0975742748 11.9108121,0.551781829 14.4569146,2.29169891 C17.1050768,4.10135998 19.3080947,6.9555013 20.7365494,10.1006173 C22.1610282,13.2369794 22.8184663,16.6676032 22.3519319,19.6511154 C22.1297113,21.0722283 21.6722218,22.2587586 21.0252831,23.1855877 C20.3744353,24.1180173 19.532332,24.7834536 18.5551781,25.1539687 C16.5812836,25.9024257 14.0891879,25.4482182 11.5430854,23.7083011 C8.89492321,21.89864 6.69190525,19.0444987 5.26345056,15.8993827 C3.83897176,12.7630206 3.18153367,9.33239677 3.64806806,6.34888456 C3.8702887,4.92777174 4.32777821,3.74124139 4.97471688,2.81441226 C5.62556469,1.88198275 6.46766803,1.21654636 7.44482185,0.846031304 Z" id="椭圆形备份-3" fill="#1E1E1E"></path>
                    <path d="M4.44482185,1.8460313 C6.4187164,1.09757427 8.91081212,1.55178183 11.4569146,3.29169891 C14.1050768,5.10135998 16.3080947,7.9555013 17.7365494,11.1006173 C19.1610282,14.2369794 19.8184663,17.6676032 19.3519319,20.6511154 C19.1297113,22.0722283 18.6722218,23.2587586 18.0252831,24.1855877 C17.3744353,25.1180173 16.532332,25.7834536 15.5551781,26.1539687 C13.5812836,26.9024257 11.0891879,26.4482182 8.54308538,24.7083011 C5.89492321,22.89864 3.69190525,20.0444987 2.26345056,16.8993827 C0.83897176,13.7630206 0.181533666,10.3323968 0.648068058,7.34888456 C0.870288701,5.92777174 1.32777821,4.74124139 1.97471688,3.81441226 C2.62556469,2.88198275 3.46766803,2.21654636 4.44482185,1.8460313 Z" id="椭圆形" fill="#FB8E0C"></path>
                    <polyline id="路径-69" stroke-width="3" points="7 14 9.7669676 17 14 11"></polyline>
                </g>
                <polygon id="路径-30备份" stroke="#1E1E1E" fill="#FFFFFF" points="101 86.4299558 115.34518 87 303 192.828464 303 325.383284 294.47926 332.443274 294 332 294.606236 197.722509 101 87"></polygon>
                <polyline id="路径-76备份-4" stroke="#1E1E1E" points="297.546809 329.863247 302.248307 332.852905 422.526025 227 422.526025 217.861338"></polyline>
                <line x1="366.5" y1="276.5" x2="366.5" y2="261.5" id="路径-77" stroke="#1E1E1E"></line>
                <line x1="294.240131" y1="197.519619" x2="303" y2="192.828464" id="路径-78" stroke="#1E1E1E"></line>
            </g>
        </g>
    </g>
</svg>