<?xml version="1.0" encoding="UTF-8"?>
<svg width="192px" height="150px" viewBox="0 0 192 150" version="1.1" xmlns="http://www.w3.org/2000/svg" xmlns:xlink="http://www.w3.org/1999/xlink">
    <title>编组 23 5</title>
    <defs>
        <linearGradient x1="27.2082161%" y1="41.6278838%" x2="72.1904588%" y2="55.0051034%" id="linearGradient-1">
            <stop stop-color="#274257" stop-opacity="0" offset="0%"></stop>
            <stop stop-color="#7C7C7C" offset="100%"></stop>
        </linearGradient>
        <path d="M9.44805081,17.326114 C10.4784775,16.2105426 11.3417589,15.3385536 12.0378951,14.7101467 C12.7340314,14.0817399 14.064247,13.6589474 16.0285421,13.4417692 C14.3284198,10.1552028 12.7448584,7.69709845 11.2778579,6.0674563 C9.81085743,4.43781415 7.05615052,2.04664705 2.95523536,0 C1.12179863,2.6067614 0.639297068,3.47185562 0.146687097,6.0674563 C-0.345922873,8.66305698 0.510491761,11.5593843 1.11675883,14.7101467 C3.3565053,14.658228 3.63958364,14.658228 5.0285573,15.0703205 C6.41753096,15.4824131 7.74385447,16.2259002 9.44805081,17.326114 Z" id="path-2"></path>
    </defs>
    <g id="页面-2" stroke="none" stroke-width="1" fill="none" fill-rule="evenodd">
        <g id="Apple-TV备份-16" transform="translate(-861.000000, -1887.000000)">
            <g id="编组-41备份" transform="translate(861.000000, 1887.000000)">
                <polygon id="矩形备份-23" fill="#FFFFFF" points="61 43.1481107 118 75.1499599 118 120.19437 114.725496 122.148111 61 88.4376463"></polygon>
                <polygon id="椭圆形" fill="url(#linearGradient-1)" opacity="0.383449009" points="102.989203 133.727817 102.989203 99.4614986 50.1677596 81.1481107 7 101.13767"></polygon>
                <polygon id="路径" fill="#1A1A1A" points="111.842687 77.4013629 111.842687 123.36726 99.2776033 130.4282 99.2776033 83.5562926"></polygon>
                <polyline id="路径" stroke="#FFFFFF" stroke-width="4" fill="#FFFFFF" points="101 82.140503 101 130.148111 46 95.8272402 46 50.1481107"></polyline>
                <path d="M60.2836443,44.416847 L112.779508,75.2847885 L100.239687,81.4203174 L48.1944773,50.3244301 L60.2836443,44.416847 Z" id="矩形" stroke="#FFFFFF" stroke-width="4" fill="#1A1A1A"></path>
                <ellipse id="椭圆形" fill="#616161" cx="81.5" cy="59.1481107" rx="12.5" ry="3"></ellipse>
                <path d="M87.2353389,59.9101885 C87.981973,60.2895759 90.23686,61.03555 94,62.1481107 C99.0599518,58.3877135 102.854916,55.5674156 105.384892,53.687217 C105.505247,53.597773 105.640998,53.4968864 105.792147,53.3845573 C106.981367,52.5329295 107.945721,51.4048175 108.602443,50.097825 C108.880164,49.5433144 109.091923,49.0662518 109.237719,48.6666374 C111.527612,42.3902252 110.509459,34.1996232 106.749003,27.8875671 C102.978242,21.5582152 99.0624317,18.260423 91.5742875,16.1223659 C90.9990796,15.9581293 90.2019071,15.758692 89.1827702,15.5240539 C87.5577621,15.1498477 85.8565055,15.2936001 84.3152374,15.9301496 C83.8835388,16.0909823 83.5121442,16.2293482 83.2010539,16.3452473 C81.0851496,17.1335439 77.9112932,18.3159886 73.6794847,19.8925817 C72.7040473,23.5988532 71.9905499,26.8440239 71.5389924,29.628094 C69.6930012,41.0095222 76.7204949,54.5672778 87.2353389,59.9101885 Z" id="椭圆形" fill="#FFFFFF"></path>
                <path d="M72.6807918,20.2494117 C76.6680102,18.3015751 81.7275929,18.3623722 86.918731,21.0001467 C91.955801,23.5596346 96.1674471,28.0786542 98.8900952,33.3313089 C101.616753,38.5916991 102.844016,44.5772987 101.958523,50.0367917 C101.044193,55.6740785 98.0730462,59.6690695 94.0728267,61.6232575 C90.0856083,63.5710941 85.0260256,63.510297 79.8348875,60.8725225 C74.7978175,58.3130346 70.5861714,53.794015 67.8635233,48.5413604 C65.1368655,43.2809701 63.9096024,37.2953705 64.7950955,31.8358776 C65.7094256,26.1985908 68.6805724,22.2035997 72.6807918,20.2494117 Z" id="椭圆形" stroke="#1A1A1A" stroke-width="2" fill="#1DA2B4"></path>
                <path d="M76.4233393,32.2114874 L83.4514064,35.2091045 C85.9629615,36.2803351 88.0825874,39.1250889 88.1857234,41.5630399 C88.2330088,42.6807835 87.8482168,43.5189589 87.1755588,43.9957296 C88.4716534,45.3209592 89.364778,47.0429373 89.4304763,48.5959287 C89.5336122,51.0338797 87.5585803,52.1321766 85.019119,51.0490434 L77.0769438,47.6615401 L76.4233393,32.2114874 Z M84.5488162,44.3789932 L78.8924212,42.0626698 L79.0640601,46.1199111 L84.7204552,48.4362345 C85.9219708,48.9282614 86.857569,48.4188837 86.8101722,47.2985075 C86.7646713,46.2229463 85.8297833,44.9752903 84.6920409,44.4418847 L84.5488162,44.3789932 Z M83.2807721,37.3980738 L78.6122182,35.4391685 L78.7844659,39.5107993 L83.4530198,41.4697046 C84.6250067,41.9614653 85.5365308,41.4486505 85.4889659,40.3243007 C85.4433036,39.2449249 84.5303446,37.9943466 83.420482,37.4609489 L83.2807721,37.3980738 Z" id="形状结合" fill="#FFFFFF" fill-rule="nonzero"></path>
                <g id="12+" transform="translate(55.000000, 72.398300)" fill="#1A1A1A" fill-rule="nonzero">
                    <path d="M8.18181818,20.8921696 L8.18181818,2.74999085 L3.93555811,0 L0,0.814665628 L0,5.27376855 L3.93555811,4.45910293 L3.93555811,18.1421788 L8.18181818,20.8921696 Z M22.9090909,30.4299428 L22.9090909,26.6903293 L16.4565304,22.5114796 L20.7082175,20.7168067 C22.1337832,20.1239814 22.9090909,19.6153849 22.9090909,17.7203106 C22.9090909,14.3344443 20.5081382,10.7328432 17.2068281,8.59482708 C14.1055975,6.58638771 11.4545455,6.81510569 11.4545455,10.3525779 L15.5561731,13.0089009 C15.5561731,11.6191797 16.4565304,11.8485278 17.2068281,12.3344405 C18.2572449,13.0147184 18.8074633,14.0532812 18.8074633,15.0387199 C18.8074633,15.7967496 18.557364,16.0895965 17.907106,16.3759666 L11.4545455,19.2720613 L11.4545455,23.0116748 L22.9090909,30.4299428 Z M36,33.4271384 L36,29.5451875 L32.1984915,27.0832295 L32.1984915,23.2516936 L28.3469631,20.7573414 L28.3469631,24.5888774 L24.5454545,22.1269195 L24.5454545,26.0088704 L28.3469631,28.4708283 L28.3469631,32.3023643 L32.1984915,34.7967164 L32.1984915,30.9651804 L36,33.4271384 Z" id="形状结合"></path>
                </g>
                <polygon id="路径-29" fill="#A4A9AE" points="60.2441904 46.6156769 60.2441904 55.1604659 52.2860323 50.3873452"></polygon>
                <polygon id="路径-30" fill="#A4A9AE" points="111.842687 77.9695505 114.725496 76.5741018 114.725496 122.148111 111.842687 120.38061"></polygon>
                <g id="编组-40" transform="translate(125.750834, 113.619428) scale(-1, -1) translate(-125.750834, -113.619428) translate(107.501669, 94.148111)">
                    <path d="M16.8716789,36.7145652 C17.773179,37.1678505 18.2243289,37.9105406 18.2251284,38.9426355 L33.1702491,31.7188683 C36.6476743,26.5936298 37.5009595,19.8727958 35.2510675,13.5625493 C33.0011756,7.25230287 26.9891444,1.13136314 18.2491656,0 L5.95994915,4.83968191 C5.1747748,7.79180676 4.60044796,10.376655 4.23696862,12.5942265 C2.75104551,21.6597786 8.407798,32.458822 16.8716789,36.7145652 Z" id="椭圆形备份-5" stroke="#1A1A1A" stroke-width="2" fill="#FFFFFF"></path>
                    <path d="M5.51292719,4.06363293 C8.6957132,2.46064105 12.7361147,2.49859608 16.8844639,4.67175639 C20.8670472,6.75807837 24.2005982,10.4391264 26.3536834,14.721553 C28.5066568,19.0037571 29.4738202,23.8763727 28.7746689,28.3204301 C28.0464702,32.9491232 25.6694793,36.2188374 22.4870728,37.8216382 C19.3042868,39.42463 15.2638853,39.386675 11.1155361,37.2135147 C7.1329528,35.1271927 3.79940177,31.4461447 1.64631657,27.1637181 C-0.506656797,22.881514 -1.47382018,18.0088984 -0.774668897,13.5648409 C-0.046470238,8.93614786 2.33052068,5.66643368 5.51292719,4.06363293 Z" id="椭圆形备份-6" stroke="#1A1A1A" stroke-width="2" fill="#1DA2B4"></path>
                    <g id="路径-32" transform="translate(6.124811, 12.942636)">
                        <mask id="mask-3" fill="white">
                            <use xlink:href="#path-2"></use>
                        </mask>
                        <use id="蒙版" fill="#FFFFFF" xlink:href="#path-2"></use>
                    </g>
                </g>
            </g>
        </g>
    </g>
</svg>