<?xml version="1.0" encoding="UTF-8"?>
<svg width="560px" height="390px" viewBox="0 0 560 390" version="1.1" xmlns="http://www.w3.org/2000/svg" xmlns:xlink="http://www.w3.org/1999/xlink">
    <title>编组 41</title>
    <g id="页面-2" stroke="none" stroke-width="1" fill="none" fill-rule="evenodd">
        <g id="画板" transform="translate(-151.000000, -962.000000)">
            <g id="编组-41" transform="translate(151.000000, 962.000000)">
                <rect id="蒙版" fill="#1DA2B4" x="0" y="0" width="560" height="390" rx="16"></rect>
                <path d="M316.380918,300.887332 L316.380918,306.788871 L315.380918,306.681323 L315.38,301.779686 L306,300.77089 L306,299.77089 L316.380918,300.887332 Z M321.562605,298.444609 L321.562605,304.346148 L320.562605,304.238601 L320.562,299.336997 L311.181687,298.328168 L311.181687,297.328168 L321.562605,298.444609 Z M326.744293,296.001887 L326.744293,301.903426 L325.744293,301.795878 L325.744,296.894308 L316.363375,295.885445 L316.363375,294.885445 L326.744293,296.001887 Z M331.92598,293.559164 L331.92598,299.460703 L330.92598,299.353155 L330.925,294.451511 L321.545062,293.442723 L321.545062,292.442723 L331.92598,293.559164 Z M337.107667,291.116442 L337.107667,297.01798 L336.107667,296.910433 L336.107,292.008822 L326.72675,291 L326.72675,290 L337.107667,291.116442 Z" id="形状结合" fill="#1E1E1E" fill-rule="nonzero"></path>
                <path d="M314.380918,205.887332 L314.380918,211.788871 L313.380918,211.681323 L313.38,206.779686 L304,205.77089 L304,204.77089 L314.380918,205.887332 Z M319.562605,203.444609 L319.562605,209.346148 L318.562605,209.238601 L318.562,204.336997 L309.181687,203.328168 L309.181687,202.328168 L319.562605,203.444609 Z M324.744293,201.001887 L324.744293,206.903426 L323.744293,206.795878 L323.744,201.894308 L314.363375,200.885445 L314.363375,199.885445 L324.744293,201.001887 Z M329.92598,198.559164 L329.92598,204.460703 L328.92598,204.353155 L328.925,199.451511 L319.545062,198.442723 L319.545062,197.442723 L329.92598,198.559164 Z M335.107667,196.116442 L335.107667,202.01798 L334.107667,201.910433 L334.107,197.008822 L324.72675,196 L324.72675,195 L335.107667,196.116442 Z" id="形状结合" fill="#1E1E1E" fill-rule="nonzero" transform="translate(319.553834, 203.394435) scale(1, -1) translate(-319.553834, -203.394435) "></path>
                <path d="M228.380918,205.887332 L228.380918,211.788871 L227.380918,211.681323 L227.38,206.779686 L218,205.77089 L218,204.77089 L228.380918,205.887332 Z M233.562605,203.444609 L233.562605,209.346148 L232.562605,209.238601 L232.562,204.336997 L223.181687,203.328168 L223.181687,202.328168 L233.562605,203.444609 Z M238.744293,201.001887 L238.744293,206.903426 L237.744293,206.795878 L237.744,201.894308 L228.363375,200.885445 L228.363375,199.885445 L238.744293,201.001887 Z M243.92598,198.559164 L243.92598,204.460703 L242.92598,204.353155 L242.925,199.451511 L233.545062,198.442723 L233.545062,197.442723 L243.92598,198.559164 Z M249.107667,196.116442 L249.107667,202.01798 L248.107667,201.910433 L248.107,197.008822 L238.72675,196 L238.72675,195 L249.107667,196.116442 Z" id="形状结合" fill="#1E1E1E" fill-rule="nonzero"></path>
                <path d="M497.898208,232.852406 L497.898208,233.852406 L484,242.480852 L484,241.480852 L497.898208,232.852406 Z M505.422118,222.083615 L505.422118,223.083615 L484,236.480852 L484,235.480852 L505.422118,222.083615 Z M511.796415,212.480852 L511.796415,213.480852 L484,230.480852 L484,229.480852 L511.796415,212.480852 Z M518.334241,202.242366 L518.334241,203.242366 L484,224.480852 L484,223.480852 L518.334241,202.242366 Z M528,191 L528,192 L484,218.480852 L484,217.480852 L528,191 Z" id="形状结合" fill="#1E1E1E"></path>
                <path d="M46.8982077,228.852406 L46.8982077,229.852406 L33,238.480852 L33,237.480852 L46.8982077,228.852406 Z M54.4221177,218.083615 L54.4221177,219.083615 L33,232.480852 L33,231.480852 L54.4221177,218.083615 Z M60.7964154,208.480852 L60.7964154,209.480852 L33,226.480852 L33,225.480852 L60.7964154,208.480852 Z M67.3342414,198.242366 L67.3342414,199.242366 L33,220.480852 L33,219.480852 L67.3342414,198.242366 Z M77,187 L77,188 L33,214.480852 L33,213.480852 L77,187 Z" id="形状结合" fill="#1E1E1E" transform="translate(55.000000, 212.740426) scale(-1, 1) translate(-55.000000, -212.740426) "></path>
                <polygon id="路径-80" stroke="#1E1E1E" points="278.81716 343.417027 444.688089 247.915456 278.81716 158 112 247.915456"></polygon>
                <g id="编组-40" transform="translate(247.760553, 286.292111)">
                    <path d="M51.6224626,9.66179878 L51.9851802,10.0245165 L43.0955541,42.6017565 L9.706,51.706 L19.0203715,19.2185092 L51.6224626,9.66179878 Z" id="矩形" stroke="#1E1E1E" fill="#FFFFFF" transform="translate(30.720509, 30.720509) rotate(45.000000) translate(-30.720509, -30.720509) "></path>
                    <path d="M60.3651976,31.2049889 L60.3846346,40.2244139 L31.5493396,56.8192074 L31.5493396,47.6282665 L60.3651976,31.2049889 Z" id="路径-81" stroke="#1E1E1E" fill="#1DA2B4"></path>
                    <polygon id="路径-81" fill="#1E1E1E" transform="translate(15.647933, 43.846955) scale(-1, 1) translate(-15.647933, -43.846955) " points="0.22624745 48.1403963 0.22624745 57.2550672 31.0696182 39.237057 31.0696182 30.4388424"></polygon>
                </g>
                <g id="编组-34备份" transform="translate(82.000000, 151.000000)">
                    <g id="编组-33" transform="translate(0.000000, 43.048557)" stroke="#1E1E1E">
                        <path d="M111.012956,19.9889574 L112.028648,21.0040711 L91.7948234,92.0013195 L20.1948932,111.759762 L19.7182178,111.283087 L39.491554,39.7016808 L111.012956,19.9889574 Z" id="矩形" fill="#FFFFFF" transform="translate(65.874410, 65.874410) rotate(45.000000) translate(-65.874410, -65.874410) "></path>
                        <polygon id="路径-81" fill="#1DA2B4" points="65.7259919 103.250953 65.7259919 118.329652 130.239359 80.9712141 130.239359 65.8919522"></polygon>
                        <polygon id="路径-81" fill="#1E1E1E" transform="translate(33.352658, 92.110802) scale(-1, 1) translate(-33.352658, -92.110802) " points="1.09597474 103.250953 1.09597474 118.329652 65.6093416 80.9712141 65.6093416 65.8919522"></polygon>
                    </g>
                    <g id="编组-33" transform="translate(0.104421, 21.878235)" stroke="#1E1E1E">
                        <path d="M111.030312,19.9684459 L111.873363,20.811496 L91.8801428,92.0987908 L19.9584438,111.590397 L39.5773811,39.7998363 L111.030312,19.9684459 Z" id="矩形" fill="#FFFFFF" transform="translate(65.778703, 65.778703) rotate(45.000000) translate(-65.778703, -65.778703) "></path>
                        <polygon id="路径-81" fill="#1DA2B4" points="65.6215714 103.421275 65.6215714 117.946805 130.134938 80.5883668 130.134938 66.0622743"></polygon>
                        <polygon id="路径-81" fill="#1E1E1E" transform="translate(33.248238, 92.004540) scale(-1, 1) translate(-33.248238, -92.004540) " points="0.991554201 103.421275 0.991554201 117.946805 65.504921 80.5883668 65.504921 66.0622743"></polygon>
                    </g>
                    <g id="编组-33" transform="translate(0.020011, 0.000000)">
                        <path d="M110.982012,20.0960645 L112.250988,21.3650403 L91.7503173,92.0994744 L20.0591624,111.817863 L19.6598682,111.418569 L39.5097439,39.8647554 L110.982012,20.0960645 Z" id="矩形" stroke="#1E1E1E" fill="#FFFFFF" transform="translate(65.956794, 65.956794) rotate(45.000000) translate(-65.956794, -65.956794) "></path>
                        <ellipse id="椭圆形" fill="#1E1E1E" opacity="0.542308989" cx="65.7193481" cy="67.9405095" rx="29.5" ry="10"></ellipse>
                        <polygon id="路径-81" stroke="#1E1E1E" fill="#1DA2B4" points="65.7059813 103.254174 65.7059813 121.289683 130.219348 83.9765801 130.219348 65.9405095"></polygon>
                        <polygon id="路径-81" stroke="#1E1E1E" fill="#1E1E1E" transform="translate(33.332647, 93.615096) scale(-1, 1) translate(-33.332647, -93.615096) " points="1.07596407 103.254174 1.07596407 121.289683 65.5893309 83.9765801 65.5893309 65.9405095"></polygon>
                    </g>
                </g>
                <g id="编组-34备份-2" transform="translate(347.000000, 151.000000)">
                    <g id="编组-33" transform="translate(0.000000, 43.048557)" stroke="#1E1E1E">
                        <path d="M111.012956,19.9889574 L112.028648,21.0040711 L91.7948234,92.0013195 L20.1948932,111.759762 L19.7182178,111.283087 L39.491554,39.7016808 L111.012956,19.9889574 Z" id="矩形" fill="#FFFFFF" transform="translate(65.874410, 65.874410) rotate(45.000000) translate(-65.874410, -65.874410) "></path>
                        <polygon id="路径-81" fill="#1DA2B4" points="65.7259919 103.250953 65.7259919 118.329652 130.239359 80.9712141 130.239359 65.8919522"></polygon>
                        <polygon id="路径-81" fill="#1E1E1E" transform="translate(33.352658, 92.110802) scale(-1, 1) translate(-33.352658, -92.110802) " points="1.09597474 103.250953 1.09597474 118.329652 65.6093416 80.9712141 65.6093416 65.8919522"></polygon>
                    </g>
                    <g id="编组-33" transform="translate(0.104421, 21.878235)" stroke="#1E1E1E">
                        <path d="M111.030312,19.9684459 L111.873363,20.811496 L91.8801428,92.0987908 L19.9584438,111.590397 L39.5773811,39.7998363 L111.030312,19.9684459 Z" id="矩形" fill="#FFFFFF" transform="translate(65.778703, 65.778703) rotate(45.000000) translate(-65.778703, -65.778703) "></path>
                        <polygon id="路径-81" fill="#1DA2B4" points="65.6215714 103.421275 65.6215714 117.946805 130.134938 80.5883668 130.134938 66.0622743"></polygon>
                        <polygon id="路径-81" fill="#1E1E1E" transform="translate(33.248238, 92.004540) scale(-1, 1) translate(-33.248238, -92.004540) " points="0.991554201 103.421275 0.991554201 117.946805 65.504921 80.5883668 65.504921 66.0622743"></polygon>
                    </g>
                    <g id="编组-33" transform="translate(0.020011, 0.000000)">
                        <path d="M110.982012,20.0960645 L112.250988,21.3650403 L91.7503173,92.0994744 L20.0591624,111.817863 L19.6598682,111.418569 L39.5097439,39.8647554 L110.982012,20.0960645 Z" id="矩形" stroke="#1E1E1E" fill="#FFFFFF" transform="translate(65.956794, 65.956794) rotate(45.000000) translate(-65.956794, -65.956794) "></path>
                        <ellipse id="椭圆形" fill="#1E1E1E" opacity="0.542308989" cx="65.7193481" cy="67.9405095" rx="29.5" ry="10"></ellipse>
                        <polygon id="路径-81" stroke="#1E1E1E" fill="#1DA2B4" points="65.7059813 103.254174 65.7059813 121.289683 130.219348 83.9765801 130.219348 65.9405095"></polygon>
                        <polygon id="路径-81" stroke="#1E1E1E" fill="#1E1E1E" transform="translate(33.332647, 93.615096) scale(-1, 1) translate(-33.332647, -93.615096) " points="1.07596407 103.254174 1.07596407 121.289683 65.5893309 83.9765801 65.5893309 65.9405095"></polygon>
                    </g>
                </g>
                <g id="编组-34备份-3" transform="translate(225.000000, 73.000000)">
                    <g id="编组-33" transform="translate(0.000000, 34.238739)" stroke="#1E1E1E">
                        <path d="M88.2642552,16.0121927 L88.9875187,16.7354562 L72.9267415,73.0901491 L16.0924894,88.7739121 L31.4930692,31.6601033 L88.2642552,16.0121927 Z" id="矩形" fill="#FFFFFF" transform="translate(52.393546, 52.393088) rotate(45.000000) translate(-52.393546, -52.393088) "></path>
                        <polygon id="路径-81" fill="#1DA2B4" points="52.2752727 82.1208106 52.2752727 94.1136779 103.586082 64.4005845 103.586082 52.4072694"></polygon>
                        <polygon id="路径-81" fill="#1E1E1E" transform="translate(26.527090, 73.260474) scale(-1, 1) translate(-26.527090, -73.260474) " points="0.871685259 82.1208106 0.871685259 94.1136779 52.1824946 64.4005845 52.1824946 52.4072694"></polygon>
                    </g>
                    <g id="编组-33" transform="translate(0.083051, 17.400889)" stroke="#1E1E1E">
                        <path d="M88.2779878,15.9964951 L88.8639666,16.5824739 L72.9941829,73.1673543 L15.9044228,88.6393351 L31.5610173,31.737996 L88.2779878,15.9964951 Z" id="矩形" fill="#FFFFFF" transform="translate(52.317197, 52.317197) rotate(45.000000) translate(-52.317197, -52.317197) "></path>
                        <polygon id="路径-81" fill="#1DA2B4" points="52.1922216 82.2562765 52.1922216 93.8091797 103.503031 64.0960862 103.503031 52.5427353"></polygon>
                        <polygon id="路径-81" fill="#1E1E1E" transform="translate(26.444039, 73.175958) scale(-1, 1) translate(-26.444039, -73.175958) " points="0.788634217 82.2562765 0.788634217 93.8091797 52.0994436 64.0960862 52.0994436 52.5427353"></polygon>
                    </g>
                    <g id="编组-33" transform="translate(0.015916, 0.000000)">
                        <path d="M88.2395292,16.0979538 L89.1638899,17.0223145 L72.8914199,73.1679877 L15.9843479,88.8200688 L31.507252,31.7896743 L88.2395292,16.0979538 Z" id="矩形" stroke="#1E1E1E" fill="#FFFFFF" transform="translate(52.458841, 52.458841) rotate(45.000000) translate(-52.458841, -52.458841) "></path>
                        <ellipse id="椭圆形" fill="#1E1E1E" opacity="0.542308989" cx="52.7340845" cy="52" rx="14.75" ry="5"></ellipse>
                        <polygon id="路径-81" stroke="#1E1E1E" fill="#1DA2B4" points="52.2593571 82.1233725 52.2593571 96.4679429 103.570166 66.7909071 103.570166 52.4458895"></polygon>
                        <polygon id="路径-81" stroke="#1E1E1E" fill="#1E1E1E" transform="translate(26.511174, 74.456916) scale(-1, 1) translate(-26.511174, -74.456916) " points="0.855769739 82.1233725 0.855769739 96.4679429 52.1665791 66.7909071 52.1665791 52.4458895"></polygon>
                    </g>
                </g>
                <g id="编组-32" transform="translate(224.536585, 55.000000)">
                    <rect id="矩形" stroke="#1E1E1E" fill="#1DA2B4" x="0.5" y="0.5" width="104.04878" height="58"></rect>
                    <rect id="矩形" stroke="#FFFFFF" x="3.37804878" y="3.37804878" width="98.2926829" height="50.804878"></rect>
                    <circle id="椭圆形" fill="#FFFFFF" cx="52.4634146" cy="29" r="18"></circle>
                    <g id="$" transform="translate(45.671415, 17.744000)" fill="#1E1E1E" fill-rule="nonzero">
                        <path d="M5.43212955,21.869247 L5.43212955,24.4023644 L8.02153846,24.4023644 L8.02153846,21.869247 C9.95421323,21.6628448 11.4177922,21.0999298 12.4122753,20.180502 C13.4067584,19.2610742 13.904,17.8444049 13.904,15.9304939 C13.904,14.7108448 13.6929069,13.7351255 13.2707206,13.003336 C12.8485344,12.2715466 12.3184561,11.6804858 11.6804858,11.2301538 C11.0425155,10.7798219 10.3576356,10.428 9.62584615,10.1746883 C8.89405668,9.92137652 8.20917679,9.65868286 7.57120648,9.38660729 C6.93323617,9.11453171 6.40315789,8.7908556 5.98097166,8.41557895 C5.55878543,8.04030229 5.34769231,7.5242969 5.34769231,6.86756275 C5.34769231,6.4359946 5.47903914,6.03726316 5.74173279,5.67136842 C6.00442645,5.30547368 6.41723077,5.12252632 6.98014575,5.12252632 C7.48676923,5.12252632 7.86204588,5.33361943 8.10597571,5.75580567 C8.34990553,6.1779919 8.47187045,6.67054251 8.47187045,7.23345749 L8.47187045,7.65564372 L13.3692308,7.65564372 C13.3692308,5.72296896 12.9470445,4.2828448 12.1026721,3.33527126 C11.2582996,2.38769771 9.89792173,1.82009177 8.02153846,1.63245344 L8.02153846,0 L5.43212955,0 L5.43212955,1.63245344 C1.99834818,2.19536842 0.28145749,4.23124426 0.28145749,7.74008097 C0.28145749,8.88467476 0.483168691,9.81348448 0.886591093,10.5265101 C1.2900135,11.2395358 1.79663698,11.8165236 2.40646154,12.2574737 C3.0162861,12.6984238 3.6777112,13.0549366 4.39073684,13.3270121 C5.10376248,13.5990877 5.76518758,13.8711633 6.37501215,14.1432389 C6.98483671,14.4153144 7.49146019,14.7389906 7.89488259,15.1142672 C8.29830499,15.4895439 8.50001619,15.9961673 8.50001619,16.6341377 C8.50001619,17.1407611 8.35459649,17.5723293 8.06375709,17.9288421 C7.77291768,18.2853549 7.3554224,18.4636113 6.81127126,18.4636113 C6.28588394,18.4636113 5.86369771,18.3041188 5.54471255,17.9851336 C5.2257274,17.6661484 5.06623482,17.0844696 5.06623482,16.2400972 L5.06623482,15.7053279 L3.41060513e-13,15.7053279 L3.41060513e-13,16.4652632 C3.41060513e-13,18.2478273 0.4597139,19.5472227 1.3791417,20.3634494 C2.2985695,21.1796761 3.64956545,21.6816086 5.43212955,21.869247 Z" id="路径"></path>
                    </g>
                </g>
                <g id="编组-43备份" transform="translate(103.000000, 126.573486)">
                    <polygon id="路径-2" fill="#A4A9AE" points="65.1375958 78.5327326 72.5865076 78.5327326 81.591854 69.7933716 85 42.3090877 81.591854 31.5327326 59.9758003 42.3090877 55 39.2322706"></polygon>
                    <path d="M38.427866,7.483464 C42.599707,6.22739068 47.042052,6.16609248 51.2425646,7.32182812 C54.2313407,8.14403036 56.5535974,8.92658526 58.2044106,9.68219188 C66.4430507,13.4531643 72.9104182,19.6281907 78.2508053,29.3710162 C84.4935659,40.7601022 84.4057086,53.8431054 81.5551491,64.9230823 C81.3130684,65.8640377 80.9946264,66.8839318 80.600752,67.9835704 C79.711913,70.4671196 78.1395187,72.6490323 76.0651723,74.2775771 C72.8559662,76.7956217 70.361883,78.571657 68.5760549,79.5930007 L68.5760549,79.5930007 L67.9121594,79.9722211 C63.7388988,82.3531798 57.7207213,85.7359349 49.8576543,90.1205353 L49.8576543,90.1205353 L41.8115671,87.3623992 C20.1192119,63.9097205 10.019032,45.1157681 12.3262738,30.8912141 C12.7143128,28.4988851 13.5389666,27.1082727 14.453699,25.5142446 C15.5211977,23.6540034 16.7113434,21.5686705 17.7004987,17.9494212 C20.2072008,14.1772595 22.0599716,11.8201578 23.5133398,11.4350861 L23.5133398,11.4350861 L34.8478357,8.43199746 Z" id="椭圆形" stroke="#1E1E1E" stroke-width="4" fill="#FFFFFF" transform="translate(47.715627, 48.000000) rotate(-6.000000) translate(-47.715627, -48.000000) "></path>
                    <path d="M14.256136,14.0496326 C21.727347,10.4119071 31.202991,10.5686522 40.9164151,15.4879583 C50.4770277,20.329874 58.4619118,28.8860811 63.6285221,38.8206598 C68.7996149,48.7638577 71.1414652,60.0772839 69.4616774,70.3996193 C67.753082,80.8989784 62.2295377,88.3710652 54.743864,92.0158327 C47.272653,95.6535582 37.797009,95.4968131 28.0835849,90.577507 C18.5229723,85.7355913 10.5380882,77.1793842 5.37147792,67.2448055 C0.200385073,57.3016075 -2.14146521,45.9881814 -0.461677449,35.665846 C1.24691797,25.1664869 6.77046227,17.6944 14.256136,14.0496326 Z" id="椭圆形" stroke="#FFFFFF" stroke-width="2" fill="#FB8E0C"></path>
                    <path d="M21,32.5327326 L36.662257,38.9156719 C42.2593324,41.1966836 46.8062529,47.2541251 46.8180882,52.4453461 C46.8235144,54.8253997 45.8747198,56.6101582 44.3061373,57.625364 C47.1241825,60.4472252 48.9924151,64.1138983 48.9999772,67.4207414 C49.0117896,72.6119624 44.4336431,74.9506072 38.774378,72.6442509 L21.0750039,65.4311124 L21,32.5327326 Z M38.5512423,57.984547 L25.796503,53.0327326 L25.8190223,61.7062649 L38.5737615,66.6580793 C41.2830877,67.7099299 43.4743894,66.620987 43.468184,64.2258572 C43.4622011,61.9265325 41.4331669,59.2593053 38.8738153,58.1189959 L38.5512423,57.984547 Z M35.8225059,44.1647323 L25.2155765,40.0853642 L25.2507364,48.5644269 L35.8576659,52.6437951 C38.5204138,53.6678736 40.6711266,52.5999504 40.6614502,50.2585219 C40.6520967,48.0107506 38.6551194,45.4064545 36.1395472,44.2956681 L35.8225059,44.1647323 Z" id="形状结合" fill="#FFFFFF" fill-rule="nonzero"></path>
                </g>
                <g id="编组-43备份-2" transform="translate(368.000000, 126.573486)">
                    <polygon id="路径-2" fill="#A4A9AE" points="65.1375958 78.5327326 72.5865076 78.5327326 81.591854 69.7933716 85 42.3090877 81.591854 31.5327326 59.9758003 42.3090877 55 39.2322706"></polygon>
                    <path d="M38.427866,7.483464 C42.599707,6.22739068 47.042052,6.16609248 51.2425646,7.32182812 C54.2313407,8.14403036 56.5535974,8.92658526 58.2044106,9.68219188 C66.4430507,13.4531643 72.9104182,19.6281907 78.2508053,29.3710162 C84.4935659,40.7601022 84.4057086,53.8431054 81.5551491,64.9230823 C81.3130684,65.8640377 80.9946264,66.8839318 80.600752,67.9835704 C79.711913,70.4671196 78.1395187,72.6490323 76.0651723,74.2775771 C72.8559662,76.7956217 70.361883,78.571657 68.5760549,79.5930007 L68.5760549,79.5930007 L67.9121594,79.9722211 C63.7388988,82.3531798 57.7207213,85.7359349 49.8576543,90.1205353 L49.8576543,90.1205353 L41.8115671,87.3623992 C20.1192119,63.9097205 10.019032,45.1157681 12.3262738,30.8912141 C12.7143128,28.4988851 13.5389666,27.1082727 14.453699,25.5142446 C15.5211977,23.6540034 16.7113434,21.5686705 17.7004987,17.9494212 C20.2072008,14.1772595 22.0599716,11.8201578 23.5133398,11.4350861 L23.5133398,11.4350861 L34.8478357,8.43199746 Z" id="椭圆形" stroke="#1E1E1E" stroke-width="4" fill="#FFFFFF" transform="translate(47.715627, 48.000000) rotate(-6.000000) translate(-47.715627, -48.000000) "></path>
                    <path d="M14.256136,14.0496326 C21.727347,10.4119071 31.202991,10.5686522 40.9164151,15.4879583 C50.4770277,20.329874 58.4619118,28.8860811 63.6285221,38.8206598 C68.7996149,48.7638577 71.1414652,60.0772839 69.4616774,70.3996193 C67.753082,80.8989784 62.2295377,88.3710652 54.743864,92.0158327 C47.272653,95.6535582 37.797009,95.4968131 28.0835849,90.577507 C18.5229723,85.7355913 10.5380882,77.1793842 5.37147792,67.2448055 C0.200385073,57.3016075 -2.14146521,45.9881814 -0.461677449,35.665846 C1.24691797,25.1664869 6.77046227,17.6944 14.256136,14.0496326 Z" id="椭圆形" stroke="#FFFFFF" stroke-width="2" fill="#1DA2B4"></path>
                    <path d="M21,32.5327326 L36.662257,38.9156719 C42.2593324,41.1966836 46.8062529,47.2541251 46.8180882,52.4453461 C46.8235144,54.8253997 45.8747198,56.6101582 44.3061373,57.625364 C47.1241825,60.4472252 48.9924151,64.1138983 48.9999772,67.4207414 C49.0117896,72.6119624 44.4336431,74.9506072 38.774378,72.6442509 L21.0750039,65.4311124 L21,32.5327326 Z M38.5512423,57.984547 L25.796503,53.0327326 L25.8190223,61.7062649 L38.5737615,66.6580793 C41.2830877,67.7099299 43.4743894,66.620987 43.468184,64.2258572 C43.4622011,61.9265325 41.4331669,59.2593053 38.8738153,58.1189959 L38.5512423,57.984547 Z M35.8225059,44.1647323 L25.2155765,40.0853642 L25.2507364,48.5644269 L35.8576659,52.6437951 C38.5204138,53.6678736 40.6711266,52.5999504 40.6614502,50.2585219 C40.6520967,48.0107506 38.6551194,45.4064545 36.1395472,44.2956681 L35.8225059,44.1647323 Z" id="形状结合" fill="#FFFFFF" fill-rule="nonzero"></path>
                </g>
                <path d="M277.475609,311.153659 L277.475609,309.153659 L280.763857,310.125044 L292.793937,313.493649 L292.793937,315.493649 L263.67372,315.493649 L263.67372,313.493649 L266.132989,313.020859 L280.763857,313.020859 L277.475609,311.153659 Z M279.517066,322.668979 L275.664152,324.559914 L261.705077,318.328988 L261.705077,316.328988 L294.762581,316.328988 L294.762581,318.328988 L292.470023,320.801779 L276.077328,320.801779 L279.517066,320.801779 L279.517066,322.668979 Z" id="形状结合" fill="#1E1E1E" fill-rule="nonzero"></path>
                <path d="M277.475609,309.153659 L280.763857,308.125044 L292.793937,313.493649 L263.67372,313.493649 L266.132989,311.020859 L280.763857,311.020859 L277.475609,309.153659 Z M279.517066,320.668979 L275.664152,322.559914 L261.705077,316.328988 L294.762581,316.328988 L292.470023,318.801779 L276.077328,318.801779 L279.517066,320.668979 Z" id="形状结合备份" fill="#FB8E0C" fill-rule="nonzero"></path>
            </g>
        </g>
    </g>
</svg>