<?xml version="1.0" encoding="UTF-8"?>
<svg width="16px" height="16px" viewBox="0 0 16 16" version="1.1" xmlns="http://www.w3.org/2000/svg" xmlns:xlink="http://www.w3.org/1999/xlink">
    <title>喇叭公告</title>
    <g id="页面-2" stroke="none" stroke-width="1" fill="none" fill-rule="evenodd">
        <g id="Apple-TV备份-11" transform="translate(-361.000000, -631.000000)" fill-rule="nonzero">
            <g id="喇叭公告" transform="translate(361.000000, 631.000000)">
                <rect id="矩形" fill="#000000" opacity="0" x="0" y="0" width="16" height="16"></rect>
                <path d="M10.1333333,1.78 C9.80391461,1.60729667 9.4058622,1.63169343 9.1,1.84333333 L4.46,5.01666667 L2.33333333,5.01666667 C1.78104858,5.01666667 1.33333333,5.46438192 1.33333333,6.01666667 L1.33333333,10 C1.33333333,10.5522847 1.78104858,11 2.33333333,11 L4.46,11 L9.1,14.1566667 C9.40591457,14.3670584 9.80321179,14.390644 10.1318698,14.2179237 C10.4605279,14.0452034 10.6664388,13.7046127 10.6666692,13.3333333 L10.6666692,2.66666667 C10.6674964,2.29495915 10.4620851,1.95346301 10.1333333,1.78 Z M4,9.66666667 L3,9.66666667 C2.9115945,9.66666667 2.82680986,9.63154772 2.76429774,9.56903559 C2.70178561,9.50652347 2.66666667,9.42173883 2.66666667,9.33333333 L2.66666667,6.66666667 C2.66666667,6.57826117 2.70178561,6.49347653 2.76429774,6.43096441 C2.82680986,6.36845228 2.9115945,6.33333333 3,6.33333333 L4,6.33333333 L4,9.66666667 Z M9.33333333,12.7166667 L5.33333333,9.98333333 L5.33333333,6.02666667 L9.33333333,3.29333333 L9.33333333,12.7166667 Z M12,5.66666667 C11.6318102,5.66666667 11.3333333,5.9651435 11.3333333,6.33333333 L11.3333333,9.66666667 C11.3333333,10.0348565 11.6318102,10.3333333 12,10.3333333 C12.3681898,10.3333333 12.6666667,10.0348565 12.6666667,9.66666667 L12.6666667,6.33333333 C12.6666667,5.9651435 12.3681898,5.66666667 12,5.66666667 L12,5.66666667 Z M14,4.33333333 C13.6318102,4.33333333 13.3333333,4.63181016 13.3333333,5 L13.3333333,11 C13.3333333,11.3681898 13.6318102,11.6666666 14,11.6666666 C14.3681898,11.6666666 14.6666667,11.3681898 14.6666667,11 L14.6666667,5 C14.6666667,4.63181016 14.3681898,4.33333333 14,4.33333333 L14,4.33333333 Z" id="形状" fill="#919899"></path>
            </g>
        </g>
    </g>
</svg>