<?xml version="1.0" encoding="UTF-8"?>
<svg width="560px" height="390px" viewBox="0 0 560 390" version="1.1" xmlns="http://www.w3.org/2000/svg" xmlns:xlink="http://www.w3.org/1999/xlink">
    <title>编组 39</title>
    <defs>
        <rect id="path-1" x="0" y="0" width="560" height="390" rx="16"></rect>
    </defs>
    <g id="页面-2" stroke="none" stroke-width="1" fill="none" fill-rule="evenodd">
        <g id="画板" transform="translate(-793.000000, -517.000000)">
            <g id="编组-39" transform="translate(793.000000, 517.000000)">
                <mask id="mask-2" fill="white">
                    <use xlink:href="#path-1"></use>
                </mask>
                <use id="蒙版" fill="#1DA2B4" xlink:href="#path-1"></use>
                <g mask="url(#mask-2)">
                    <g transform="translate(88.000000, -8.000000)">
                        <g id="编组-37" stroke-width="1" fill="none" transform="translate(11.721456, 0.000000)">
                            <polygon id="路径-80" stroke="#1E1E1E" points="166.81716 345.948858 332.688089 250.447286 166.81716 160.531831 2.21614786e-13 250.447286"></polygon>
                            <g id="编组-34" transform="translate(193.062071, 0.000000)">
                                <g id="编组-33" transform="translate(-0.000000, 131.178474)" stroke="#1E1E1E">
                                    <path d="M111.794886,20.2497523 L113.086538,21.5414043 L93.5044272,93.6439213 L20.1536519,112.625831 L19.7865355,112.258714 L39.7722617,40.0967781 L111.794886,20.2497523 Z" id="矩形" fill="#FFFFFF" transform="translate(66.435946, 66.435946) rotate(45.000000) translate(-66.435946, -66.435946) "></path>
                                    <polygon id="路径-81" fill="#1DA2B4" points="66.2068495 104.074124 66.2068495 119.268813 131.216473 81.6230018 131.216473 66.4277455"></polygon>
                                    <polygon id="路径-81" fill="#1E1E1E" transform="translate(33.584490, 92.848279) scale(-1, 1) translate(-33.584490, -92.848279) " points="1.07967834 104.074124 1.07967834 119.268813 1.63377944 118.947943 66.0893018 81.6230018 66.0893018 66.4277455"></polygon>
                                </g>
                                <g id="编组-33" transform="translate(0.216473, 110.427645)" stroke="#1E1E1E">
                                    <path d="M111.583932,19.8815039 L112.272557,20.5701286 L94.0220175,93.7567729 L20.1119612,112.22161 L39.5774701,39.7542798 L111.583932,19.8815039 Z" id="矩形" fill="#FFFFFF" transform="translate(66.117377, 66.117377) rotate(45.000000) translate(-66.117377, -66.117377) "></path>
                                    <polygon id="路径-81" fill="#1DA2B4" points="65.9903765 103.824952 65.9903765 118.462217 131 80.8164059 131 66.1785742"></polygon>
                                    <polygon id="路径-81" fill="#1E1E1E" transform="translate(33.368017, 92.320395) scale(-1, 1) translate(-33.368017, -92.320395) " points="0.863205317 103.824952 0.863205317 118.462217 65.8728288 80.8164059 65.8728288 66.1785742"></polygon>
                                </g>
                                <g id="编组-33" transform="translate(0.224936, 0.000000)">
                                    <polygon id="路径-81" stroke="#1E1E1E" fill="#1DA2B4" points="65.9819136 103.786115 65.9819136 210.106219 130.991537 172.659555 130.991537 66.3388859"></polygon>
                                    <path d="M99.5563328,114.640249 C99.9869567,114.358273 101.408188,113.907036 103.820028,113.286538 L110.606708,121.783087 C111.440767,122.431726 111.440767,124.284752 110.606708,126.025686 L101.259812,145.535391 C100.819287,146.454895 100.202269,147.217285 99.5563328,147.640249 L98.1118945,149.471961 L96.5922147,146.462679 L103.201941,132.0531 L101.633006,134.04487 L98.633006,135.04487 L93.9872184,131.486922 L103.201941,125.453058 L93.9872184,118.286943 L99.5563328,114.640249 Z M96.7046515,104.4893 C97.2324789,104.143675 95.9521149,105.923138 95.5922147,106.674421 L87.0218688,123.047881 L91.5907937,120.056118 L94.5907937,119.056118 L96.2365706,123.614073 L87.0218688,129.647923 L96.2365706,136.814052 L93.1325339,139.814494 L88.5398438,139.814494 L79.6171002,133.317896 C78.783015,132.669274 78.7830166,130.816246 79.6171017,129.075295 L88.9639153,109.565632 C89.4044394,108.64612 90.021456,107.883752 90.667469,107.460738 L96.7046515,104.4893 Z" id="形状结合" fill="#1E1E1E" fill-rule="nonzero"></path>
                                    <path d="M102.556333,113.640249 C103.202269,113.217285 103.819287,113.17162 104.259812,113.514207 L113.606708,120.783087 C114.440767,121.431726 114.440767,123.284752 113.606708,125.025686 L104.259812,144.535391 C103.819287,145.454895 103.202269,146.217285 102.556333,146.640249 L98.3757448,149.377727 C97.8479162,149.723352 97.57414,149.061789 97.9341195,148.310421 L106.201941,131.0531 L101.633006,134.04487 L96.9872184,130.486922 L106.201941,124.453058 L96.9872184,117.286943 L102.556333,113.640249 Z M97.8479689,103.723318 C98.3757963,103.377693 98.6495719,104.039248 98.2896717,104.790531 L90.0218688,122.047881 L94.5907937,119.056118 L99.2365706,122.614073 L90.0218688,128.647923 L99.2365706,135.814052 L93.667469,139.460738 C93.021456,139.883752 92.4044394,139.929416 91.9639153,139.586829 L82.6171002,132.317896 C81.783015,131.669274 81.7830166,129.816246 82.6171017,128.075295 L91.9639153,108.565632 C92.4044394,107.64612 93.021456,106.883752 93.667469,106.460738 L97.8479689,103.723318 Z" id="形状结合" fill="#FFFFFF" fill-rule="nonzero"></path>
                                    <polygon id="路径-81" stroke="#1E1E1E" fill="#1E1E1E" transform="translate(33.418328, 138.222552) scale(-1, 1) translate(-33.418328, -138.222552) " points="0.854742382 102.046788 0.972290063 210.106219 65.9819136 172.659555 65.9819136 66.3388859"></polygon>
                                    <line x1="73.7493772" y1="169.406296" x2="125.690785" y2="141.432359" id="路径-31" stroke="#FFFFFF" stroke-width="0.5"></line>
                                    <line x1="73.7493772" y1="174.406296" x2="97.4915371" y2="161.606219" id="路径-31备份" stroke="#FFFFFF" stroke-width="0.5"></line>
                                    <line x1="73.7493772" y1="179.406296" x2="91.4915371" y2="169.606219" id="路径-31备份-2" stroke="#FFFFFF" stroke-width="0.5"></line>
                                    <line x1="73.7493772" y1="184.406296" x2="91.4915371" y2="174.606219" id="路径-31备份-3" stroke="#FFFFFF" stroke-width="0.5"></line>
                                    <line x1="95.7493772" y1="172.406296" x2="113.491537" y2="162.606219" id="路径-31备份-4" stroke="#FFFFFF" stroke-width="0.5"></line>
                                    <line x1="107.749377" y1="160.406296" x2="125.491537" y2="150.606219" id="路径-31备份-9" stroke="#FFFFFF" stroke-width="0.5"></line>
                                    <line x1="88.6615362" y1="181.49678" x2="106.403696" y2="171.696703" id="路径-31备份-7" stroke="#FFFFFF" stroke-width="0.5"></line>
                                    <line x1="108.661536" y1="170.49678" x2="125.690785" y2="160.894449" id="路径-31备份-7" stroke="#FFFFFF" stroke-width="0.5"></line>
                                    <line x1="116.738358" y1="160.894449" x2="122.363389" y2="157.871106" id="路径-31备份-6" stroke="#FFFFFF" stroke-width="0.5"></line>
                                    <line x1="102.749377" y1="159.406296" x2="113.491537" y2="153.606219" id="路径-31备份-5" stroke="#FFFFFF" stroke-width="0.5"></line>
                                    <line x1="73.7493772" y1="189.406296" x2="84.4915371" y2="183.606219" id="路径-31备份-8" stroke="#FFFFFF" stroke-width="0.5"></line>
                                    <path d="M111.741542,19.9772839 L112.236448,20.4721904 L92.2883265,92.3528102 L20.0044458,112.081206 L39.8610809,39.9276371 L111.741542,19.9772839 Z" id="矩形" stroke="#1E1E1E" fill="#FFFFFF" transform="translate(66.028737, 66.028737) rotate(45.000000) translate(-66.028737, -66.028737) "></path>
                                </g>
                            </g>
                            <g id="编组-35" transform="translate(200.278544, 102.106219)" stroke="#FFFFFF">
                                <polygon id="路径-66备份-2" points="4.69549926 0 4.82135324e-13 1.55344008 4.82135324e-13 14.7474423 45.4775084 45.9534266 49.0157295 42.6766561 49.0157295 25.6155692"></polygon>
                                <polygon id="路径-66备份-2" fill="#1DA2B4" points="-1.70911701e-13 2.24975272 -1.70530257e-13 18.679183 45.0157295 45.6766561 45.0157295 28.6155692"></polygon>
                                <line x1="45.0157295" y1="28.6155692" x2="49.0157295" y2="25.6155692" id="路径-79"></line>
                            </g>
                            <g id="编组-35备份" transform="translate(200.278544, 133.106219)" stroke="#FFFFFF">
                                <polygon id="路径-66备份-2" points="4.69549926 0 4.82135324e-13 1.55344008 4.82135324e-13 14.7474423 45.4775084 45.9534266 49.0157295 42.6766561 49.0157295 25.6155692"></polygon>
                                <polygon id="路径-66备份-2" fill="#1DA2B4" points="-1.70911701e-13 2.24975272 -1.70530257e-13 18.679183 45.0157295 45.6766561 45.0157295 28.6155692"></polygon>
                                <line x1="45.0157295" y1="28.6155692" x2="49.0157295" y2="25.6155692" id="路径-79"></line>
                            </g>
                            <g id="编组-34备份" transform="translate(30.039185, 188.165710)">
                                <g id="编组-33" transform="translate(0.000000, 43.048557)" stroke="#1E1E1E">
                                    <path d="M111.012956,19.9889574 L112.028648,21.0040711 L91.7948234,92.0013195 L20.1948932,111.759762 L19.7182178,111.283087 L39.491554,39.7016808 L111.012956,19.9889574 Z" id="矩形" fill="#FFFFFF" transform="translate(65.874410, 65.874410) rotate(45.000000) translate(-65.874410, -65.874410) "></path>
                                    <polygon id="路径-81" fill="#1DA2B4" points="65.7259919 103.250953 65.7259919 118.329652 130.239359 80.9712141 130.239359 65.8919522"></polygon>
                                    <polygon id="路径-81" fill="#1E1E1E" transform="translate(33.352658, 92.110802) scale(-1, 1) translate(-33.352658, -92.110802) " points="1.09597474 103.250953 1.09597474 118.329652 65.6093416 80.9712141 65.6093416 65.8919522"></polygon>
                                </g>
                                <g id="编组-33" transform="translate(0.104421, 21.878235)" stroke="#1E1E1E">
                                    <path d="M111.030312,19.9684459 L111.873363,20.811496 L91.8801428,92.0987908 L19.9584438,111.590397 L39.5773811,39.7998363 L111.030312,19.9684459 Z" id="矩形" fill="#FFFFFF" transform="translate(65.778703, 65.778703) rotate(45.000000) translate(-65.778703, -65.778703) "></path>
                                    <polygon id="路径-81" fill="#1DA2B4" points="65.6215714 103.421275 65.6215714 117.946805 130.134938 80.5883668 130.134938 66.0622743"></polygon>
                                    <polygon id="路径-81" fill="#1E1E1E" transform="translate(33.248238, 92.004540) scale(-1, 1) translate(-33.248238, -92.004540) " points="0.991554201 103.421275 0.991554201 117.946805 65.504921 80.5883668 65.504921 66.0622743"></polygon>
                                </g>
                                <g id="编组-33" transform="translate(0.020011, 0.000000)">
                                    <path d="M110.982012,20.0960645 L112.250988,21.3650403 L91.7503173,92.0994744 L20.0591624,111.817863 L19.6598682,111.418569 L39.5097439,39.8647554 L110.982012,20.0960645 Z" id="矩形" stroke="#1E1E1E" fill="#FFFFFF" transform="translate(65.956794, 65.956794) rotate(45.000000) translate(-65.956794, -65.956794) "></path>
                                    <ellipse id="椭圆形" fill="#1E1E1E" opacity="0.542308989" cx="65.7193481" cy="67.9405095" rx="29.5" ry="10"></ellipse>
                                    <polygon id="路径-81" stroke="#1E1E1E" fill="#1DA2B4" points="65.7059813 103.254174 65.7059813 121.289683 130.219348 83.9765801 130.219348 65.9405095"></polygon>
                                    <polygon id="路径-81" stroke="#1E1E1E" fill="#1E1E1E" transform="translate(33.332647, 93.615096) scale(-1, 1) translate(-33.332647, -93.615096) " points="1.07596407 103.254174 1.07596407 121.289683 65.5893309 83.9765801 65.5893309 65.9405095"></polygon>
                                </g>
                            </g>
                            <g id="编组-43备份" transform="translate(50.278544, 161.573486)">
                                <polygon id="路径-2" fill="#A4A9AE" points="65.1375958 78.5327326 72.5865076 78.5327326 81.591854 69.7933716 85 42.3090877 81.591854 31.5327326 59.9758003 42.3090877 55 39.2322706"></polygon>
                                <path d="M38.427866,7.483464 C42.599707,6.22739068 47.042052,6.16609248 51.2425646,7.32182812 C54.2313407,8.14403036 56.5535974,8.92658526 58.2044106,9.68219188 C66.4430507,13.4531643 72.9104182,19.6281907 78.2508053,29.3710162 C84.4935659,40.7601022 84.4057086,53.8431054 81.5551491,64.9230823 C81.3130684,65.8640377 80.9946264,66.8839318 80.600752,67.9835704 C79.711913,70.4671196 78.1395187,72.6490323 76.0651723,74.2775771 C72.8559662,76.7956217 70.361883,78.571657 68.5760549,79.5930007 L68.5760549,79.5930007 L67.9121594,79.9722211 C63.7388988,82.3531798 57.7207213,85.7359349 49.8576543,90.1205353 L49.8576543,90.1205353 L41.8115671,87.3623992 C20.1192119,63.9097205 10.019032,45.1157681 12.3262738,30.8912141 C12.7143128,28.4988851 13.5389666,27.1082727 14.453699,25.5142446 C15.5211977,23.6540034 16.7113434,21.5686705 17.7004987,17.9494212 C20.2072008,14.1772595 22.0599716,11.8201578 23.5133398,11.4350861 L23.5133398,11.4350861 L34.8478357,8.43199746 Z" id="椭圆形" stroke="#1E1E1E" stroke-width="4" fill="#FFFFFF" transform="translate(47.715627, 48.000000) rotate(-6.000000) translate(-47.715627, -48.000000) "></path>
                                <path d="M14.256136,14.0496326 C21.727347,10.4119071 31.202991,10.5686522 40.9164151,15.4879583 C50.4770277,20.329874 58.4619118,28.8860811 63.6285221,38.8206598 C68.7996149,48.7638577 71.1414652,60.0772839 69.4616774,70.3996193 C67.753082,80.8989784 62.2295377,88.3710652 54.743864,92.0158327 C47.272653,95.6535582 37.797009,95.4968131 28.0835849,90.577507 C18.5229723,85.7355913 10.5380882,77.1793842 5.37147792,67.2448055 C0.200385073,57.3016075 -2.14146521,45.9881814 -0.461677449,35.665846 C1.24691797,25.1664869 6.77046227,17.6944 14.256136,14.0496326 Z" id="椭圆形" stroke="#FFFFFF" stroke-width="2" fill="#1DA2B4"></path>
                                <path d="M21,32.5327326 L36.662257,38.9156719 C42.2593324,41.1966836 46.8062529,47.2541251 46.8180882,52.4453461 C46.8235144,54.8253997 45.8747198,56.6101582 44.3061373,57.625364 C47.1241825,60.4472252 48.9924151,64.1138983 48.9999772,67.4207414 C49.0117896,72.6119624 44.4336431,74.9506072 38.774378,72.6442509 L21.0750039,65.4311124 L21,32.5327326 Z M38.5512423,57.984547 L25.796503,53.0327326 L25.8190223,61.7062649 L38.5737615,66.6580793 C41.2830877,67.7099299 43.4743894,66.620987 43.468184,64.2258572 C43.4622011,61.9265325 41.4331669,59.2593053 38.8738153,58.1189959 L38.5512423,57.984547 Z M35.8225059,44.1647323 L25.2155765,40.0853642 L25.2507364,48.5644269 L35.8576659,52.6437951 C38.5204138,53.6678736 40.6711266,52.5999504 40.6614502,50.2585219 C40.6520967,48.0107506 38.6551194,45.4064545 36.1395472,44.2956681 L35.8225059,44.1647323 Z" id="形状结合" fill="#FFFFFF" fill-rule="nonzero"></path>
                            </g>
                            <g id="编组-36" transform="translate(227.431079, 298.713086)" stroke="#1E1E1E">
                                <polygon id="路径-83" fill="#FFFFFF" points="21.3511381 0 21.3511381 4.33539841 15.063285 15.2985737 -1.13686838e-13 6.92625898 -1.13686838e-13 3.82908993"></polygon>
                                <polygon id="路径-82" fill="#FB8E0C" points="0.643223201 4.19880789 14.2154819 12 21.3511381 9.09494702e-13 0.688078565 3.70569066"></polygon>
                            </g>
                            <g id="编组-36备份" transform="translate(249.431079, 285.713086)" stroke="#1E1E1E">
                                <polygon id="路径-83" fill="#FFFFFF" points="21.3511381 0 21.3511381 4.33539841 15.063285 15.2985737 -1.13686838e-13 6.92625898 -1.13686838e-13 3.82908993"></polygon>
                                <polygon id="路径-82" fill="#FB8E0C" points="0.643223201 4.19880789 14.2154819 12 21.3511381 9.09494702e-13 0.688078565 3.70569066"></polygon>
                            </g>
                            <g id="编组-36备份-2" transform="translate(272.431079, 272.713086)" stroke="#1E1E1E">
                                <polygon id="路径-83" fill="#FFFFFF" points="21.3511381 0 21.3511381 4.33539841 15.063285 15.2985737 -1.13686838e-13 6.92625898 -1.13686838e-13 3.82908993"></polygon>
                                <polygon id="路径-82" fill="#FB8E0C" points="0.643223201 4.19880789 14.2154819 12 21.3511381 9.09494702e-13 0.688078565 3.70569066"></polygon>
                            </g>
                            <polygon id="路径-32" fill="#1E1E1E" points="245.294274 52.2424224 245.294274 56.1425972 277.875231 75.2137078 277.875231 71.313533 273.579218 56.2424066 267.619797 49.6055977 267.619797 53.1682071 270.278544 64.2483812"></polygon>
                            <path d="M266.868457,48.5613317 L274.017486,52.9241128 L278.632235,72.336001 L244.341482,52.2640697 L249.556578,48.8844038 L269.538117,60.2519027 L266.868457,48.5613317 Z" id="路径-32" stroke="#FFFFFF" fill="#1DA2B4"></path>
                            <polygon id="路径-32" fill="#1E1E1E" transform="translate(255.584752, 69.391400) scale(-1, -1) translate(-255.584752, -69.391400) " points="243.573476 56.4692664 239.294274 59.2424224 239.294274 63.2424224 271.875231 82.313533 271.875231 78.313533 267.579218 60.2424066 261.354639 56.9021603 261.619797 60.6055977 264.278544 68.2483812"></polygon>
                            <path d="M260.868457,55.5613317 L268.017486,59.9241128 L272.632235,79.336001 L238.341482,59.2640697 L243.556578,55.8844038 L263.538117,67.2519027 L260.868457,55.5613317 Z" id="路径-32备份" stroke="#FFFFFF" fill="#1DA2B4" transform="translate(255.584752, 67.391400) scale(-1, -1) translate(-255.584752, -67.391400) "></path>
                        </g>
                        <path d="M353.898208,85.4777737 L353.898208,86.4777737 L340,95.1062191 L340,94.1062191 L353.898208,85.4777737 Z M361.422118,74.7089825 L361.422118,75.7089825 L340,89.1062191 L340,88.1062191 L361.422118,74.7089825 Z M367.796415,65.1062191 L367.796415,66.1062191 L340,83.1062191 L340,82.1062191 L367.796415,65.1062191 Z M374.334241,54.8677331 L374.334241,55.8677331 L340,77.1062191 L340,76.1062191 L374.334241,54.8677331 Z M384,43.6253674 L384,44.6253674 L340,71.1062191 L340,70.1062191 L384,43.6253674 Z" id="形状结合" fill="#1E1E1E"></path>
                        <g id="编组-38" stroke-width="1" fill="none" transform="translate(195.000000, 252.122394)">
                            <path d="M10.3809178,10.8873318 L10.3809178,16.7888707 L9.3809178,16.6813232 L9.38,11.7796857 L0,10.7708903 L0,9.77089027 L10.3809178,10.8873318 Z M15.5626052,8.44460928 L15.5626052,14.3461481 L14.5626052,14.2386006 L14.562,9.33699671 L5.18168738,8.32816771 L5.18168738,7.32816771 L15.5626052,8.44460928 Z M20.7442926,6.00188671 L20.7442926,11.9034255 L19.7442926,11.795878 L19.744,6.89430776 L10.3633748,5.88544514 L10.3633748,4.88544514 L20.7442926,6.00188671 Z M25.9259799,3.55916414 L25.9259799,9.46070296 L24.9259799,9.35315548 L24.925,4.45151127 L15.5450621,3.44272257 L15.5450621,2.44272257 L25.9259799,3.55916414 Z M31.1076673,1.11644157 L31.1076673,7.01798039 L30.1076673,6.91043291 L30.107,2.00882232 L20.7267495,1 L20.7267495,0 L31.1076673,1.11644157 Z" id="形状结合" fill="#1E1E1E" fill-rule="nonzero"></path>
                        </g>
                        <g id="编组-38备份" stroke-width="1" fill="none" transform="translate(15.553834, 232.844054) scale(-1, -1) translate(-15.553834, -232.844054) translate(0.000000, 223.893284)">
                            <path d="M10.3809178,13.1164416 L10.3809178,19.0179804 L9.3809178,18.9104329 L9.38,14.0087954 L0,13 L0,12 L10.3809178,13.1164416 Z M15.5626052,10.673719 L15.5626052,16.5752578 L14.5626052,16.4677103 L14.562,11.5661064 L5.18168738,10.5572774 L5.18168738,9.55727743 L15.5626052,10.673719 Z M20.7442926,8.23099644 L20.7442926,14.1325353 L19.7442926,14.0249878 L19.744,9.12341749 L10.3633748,8.11455486 L10.3633748,7.11455486 L20.7442926,8.23099644 Z M25.9259799,5.78827387 L25.9259799,11.6898127 L24.9259799,11.5822652 L24.925,6.68062099 L15.5450621,5.67183229 L15.5450621,4.67183229 L25.9259799,5.78827387 Z M31.1076673,3.3455513 L31.1076673,9.24709012 L30.1076673,9.13954264 L30.107,4.23793205 L20.7267495,3.22910973 L20.7267495,2.22910973 L31.1076673,3.3455513 Z" id="形状结合" fill="#1E1E1E" fill-rule="nonzero"></path>
                        </g>
                    </g>
                </g>
            </g>
        </g>
    </g>
</svg>