<?xml version="1.0" encoding="UTF-8"?>
<svg width="36px" height="36px" viewBox="0 0 36 36" version="1.1" xmlns="http://www.w3.org/2000/svg" xmlns:xlink="http://www.w3.org/1999/xlink">
    <title>otc-黑</title>
    <g id="首页-导航" stroke="none" stroke-width="1" fill="none" fill-rule="evenodd">
        <g id="画板备份-15" transform="translate(-129.000000, -259.000000)">
            <g id="编组-48" transform="translate(129.000000, 259.000000)">
                <path d="M20,3.15470054 L29.8564065,8.84529946 C31.0940108,9.55983064 31.8564065,10.8803387 31.8564065,12.3094011 L31.8564065,23.6905989 C31.8564065,25.1196613 31.0940108,26.4401694 29.8564065,27.1547005 L20,32.8452995 C18.7623957,33.5598306 17.2376043,33.5598306 16,32.8452995 L6.14359354,27.1547005 C4.90598923,26.4401694 4.14359354,25.1196613 4.14359354,23.6905989 L4.14359354,12.3094011 C4.14359354,10.8803387 4.90598923,9.55983064 6.14359354,8.84529946 L16,3.15470054 C17.2376043,2.44016936 18.7623957,2.44016936 20,3.15470054 Z" id="多边形" fill="#1A90A2"></path>
                <g id="USDT" transform="translate(10.494523, 11.733558)" fill="#FFFFFF">
                    <polygon id="Fill-694" points="13 0 2 0 2 3.23902301 6.06578978 3.23902301 6.06578978 7.58123249 8.95706083 7.58123249 8.95706083 3.23902301 13 3.23902301"></polygon>
                    <path d="M0.820579252,6.86710238 C0.820579252,6.17174212 3.81111819,5.60790085 7.50006208,5.60790085 C11.1888818,5.60790085 14.1794207,6.17174212 14.1794207,6.86710238 C14.1794207,7.56258254 11.1888818,8.12630392 7.50006208,8.12630392 C3.81111819,8.12630392 0.820579252,7.56258254 0.820579252,6.86710238 Z M7.50006208,5.45324313 C3.35793098,5.45324313 -4.54747351e-13,6.18025428 -4.54747351e-13,7.07702925 C-4.54747351e-13,7.86662283 2.6037778,8.52457751 6.05396032,8.67048327 L6.05396032,13.4532431 L8.89215386,13.4532431 L8.89215386,8.67276118 C12.369031,8.53141122 15,7.87081896 15,7.07702925 C15,6.18025428 11.6421932,5.45324313 7.50006208,5.45324313 Z" id="Fill-696"></path>
                </g>
            </g>
        </g>
    </g>
</svg>