<?xml version="1.0" encoding="UTF-8"?>
<svg width="36px" height="36px" viewBox="0 0 36 36" version="1.1" xmlns="http://www.w3.org/2000/svg" xmlns:xlink="http://www.w3.org/1999/xlink">
    <title>listing Application-黑</title>
    <g id="首页-行情-买币" stroke="none" stroke-width="1" fill="none" fill-rule="evenodd">
        <g id="画板备份-16" transform="translate(-966.000000, -974.000000)">
            <g id="编组-15" transform="translate(966.000000, 974.000000)">
                <g id="编组-17" transform="translate(5.000000, 5.000000)">
                    <path d="M2.16666667,9.97045035 L2.16666667,2 C2.16666667,0.8954305 3.06209717,6.46995335e-16 4.16666667,0 L21.8333333,0 C22.9379028,-2.02906125e-16 23.8333333,0.8954305 23.8333333,2 L23.8333333,9.97045035 L23.8333333,9.97045035 L19.1143466,9.97045035 L12.9506559,16.25 L6.79681971,9.97045035 L2.16666667,9.97045035 Z" id="路径-8备份" fill="#FFFFFF"></path>
                    <line x1="8.66666667" y1="4.875" x2="16.7916667" y2="4.875" id="路径-93备份" stroke="#1DA2B4" stroke-width="3" stroke-linecap="round"></line>
                    <path d="M0,11.9166667 L5.3991806,11.9166667 L13,18.9583333 L20.463947,11.9166667 L26,11.9166667 L26,24 C26,25.1045695 25.1045695,26 24,26 L2,26 C0.8954305,26 1.11632554e-15,25.1045695 0,24 L0,11.9166667 L0,11.9166667 Z" id="矩形备份-7" fill="#1DA2B4"></path>
                </g>
            </g>
        </g>
    </g>
</svg>