<?xml version="1.0" encoding="UTF-8"?>
<svg width="36px" height="36px" viewBox="0 0 36 36" version="1.1" xmlns="http://www.w3.org/2000/svg" xmlns:xlink="http://www.w3.org/1999/xlink">
    <title>Futures tutorial-黑</title>
    <g id="首页-行情-买币" stroke="none" stroke-width="1" fill="none" fill-rule="evenodd">
        <g id="画板备份-16" transform="translate(-966.000000, -739.000000)">
            <g id="编组-55备份-2" transform="translate(966.000000, 739.000000)">
                <path d="M26,4 C27.1045695,4 28,4.8954305 28,6 L28,17 L19,17 C17.9456382,17 17.0818349,17.8158778 17.0054857,18.8507377 L17,19 L16.999,31 L8,31 C6.8954305,31 6,30.1045695 6,29 L6,6 C6,4.8954305 6.8954305,4 8,4 L26,4 Z" id="形状结合" fill="#1A90A2"></path>
                <line x1="10" y1="9.5" x2="19.5833333" y2="9.5" id="路径-93" stroke="#FFFFFF" stroke-width="3" stroke-linecap="round"></line>
                <line x1="10" y1="15.5" x2="16.5" y2="15.5" id="路径-93备份-2" stroke="#FFFFFF" stroke-width="3" stroke-linecap="round"></line>
                <path d="M20.8578644,19 L28.8578644,19 C29.9624339,19 30.8578644,19.8954305 30.8578644,21 L30.8578644,29 C30.8578644,30.1045695 29.9624339,31 28.8578644,31 L20.8578644,31 C19.7532949,31 18.8578644,30.1045695 18.8578644,29 L18.8578644,21 C18.8578644,19.8954305 19.7532949,19 20.8578644,19 Z" id="矩形" fill="#FFFFFF" transform="translate(24.857864, 25.000000) rotate(-360.000000) translate(-24.857864, -25.000000) "></path>
                <path d="M26.8320503,23.2480754 L28.9635332,26.4452998 C29.2698857,26.9048285 29.1457118,27.5256978 28.6861831,27.8320503 C28.5219156,27.941562 28.3289079,28 28.1314829,28 L23.8685171,28 C23.3162323,28 22.8685171,27.5522847 22.8685171,27 C22.8685171,26.802575 22.9269551,26.6095673 23.0364668,26.4452998 L25.1679497,23.2480754 C25.4743022,22.7885468 26.0951715,22.6643729 26.5547002,22.9707253 C26.6645525,23.0439602 26.7588154,23.1382232 26.8320503,23.2480754 Z" id="三角形" fill="#1A90A2" transform="translate(26.000000, 25.000000) rotate(-270.000000) translate(-26.000000, -25.000000) "></path>
            </g>
        </g>
    </g>
</svg>