<?xml version="1.0" encoding="UTF-8"?>
<svg width="36px" height="36px" viewBox="0 0 36 36" version="1.1" xmlns="http://www.w3.org/2000/svg" xmlns:xlink="http://www.w3.org/1999/xlink">
    <title>模拟盘-B</title>
    <g id="首页-行情-买币" stroke="none" stroke-width="1" fill="none" fill-rule="evenodd">
        <g id="画板备份-16" transform="translate(-93.000000, -879.000000)">
            <g id="编组-45备份-2" transform="translate(93.000000, 879.000000)">
                <path d="M20,3.15470054 L29.8564065,8.84529946 C31.0940108,9.55983064 31.8564065,10.8803387 31.8564065,12.3094011 L31.8564065,23.6905989 C31.8564065,25.1196613 31.0940108,26.4401694 29.8564065,27.1547005 L20,32.8452995 C18.7623957,33.5598306 17.2376043,33.5598306 16,32.8452995 L6.14359354,27.1547005 C4.90598923,26.4401694 4.14359354,25.1196613 4.14359354,23.6905989 L4.14359354,12.3094011 C4.14359354,10.8803387 4.90598923,9.55983064 6.14359354,8.84529946 L16,3.15470054 C17.2376043,2.44016936 18.7623957,2.44016936 20,3.15470054 Z" id="多边形" fill="#1A90A2"></path>
                <path d="M14.5,13 L19.5,13 C20.8807119,13 22,14.1192881 22,15.5 C22,16.8807119 20.8807119,18 19.5,18 L14,18 L14,18 L14,13.5 C14,13.2238576 14.2238576,13 14.5,13 Z" id="矩形" stroke="#FFFFFF" stroke-width="3"></path>
                <path d="M14,18 L19.5,18 C20.8807119,18 22,19.1192881 22,20.5 C22,21.8807119 20.8807119,23 19.5,23 L14.5,23 C14.2238576,23 14,22.7761424 14,22.5 L14,18 L14,18 Z" id="矩形备份-94" stroke="#FFFFFF" stroke-width="3"></path>
            </g>
        </g>
    </g>
</svg>