<?xml version="1.0" encoding="UTF-8"?>
<svg width="36px" height="36px" viewBox="0 0 36 36" version="1.1" xmlns="http://www.w3.org/2000/svg" xmlns:xlink="http://www.w3.org/1999/xlink">
    <title>Spot-白</title>
    <g id="首页-行情-买币" stroke="none" stroke-width="1" fill="none" fill-rule="evenodd">
        <g id="画板备份-16" transform="translate(-966.000000, -897.000000)">
            <g id="编组-58备份-3" transform="translate(966.000000, 897.000000)">
                <rect id="矩形备份-89" fill="#1A90A2" x="5" y="4" width="22" height="27" rx="2"></rect>
                <g id="编组-21" transform="translate(19.000000, 17.000000)">
                    <circle id="椭圆形备份-12" fill="#FFFFFF" cx="7" cy="7" r="7"></circle>
                    <path d="M7.53511305,8.11861013 L7.53511305,7.96393842 C7.53511305,7.6987869 7.5896982,7.46677932 7.69886851,7.24581973 C7.79712178,7.04695609 7.93904318,6.85914044 8.13554973,6.69342074 C8.6595672,6.22940559 8.97616108,5.93111013 9.07441436,5.82063033 C9.33642309,5.46709498 9.47834449,5.01412781 9.47834449,4.46172882 C9.47834449,3.78780205 9.26000388,3.25749902 8.82332265,2.87081973 C8.38664143,2.47309246 7.80803881,2.2852768 7.09843182,2.2852768 C6.29057156,2.2852768 5.65738379,2.51728437 5.18795147,2.98129953 C4.70760213,3.44531468 4.47834449,4.08609751 4.47834449,4.90364801 L5.72288597,4.90364801 C5.72288597,4.43963286 5.81022222,4.07504953 5.99581174,3.82094599 C6.20323532,3.51160256 6.54166326,3.36797882 7.02201261,3.36797882 C7.39319165,3.36797882 7.68795147,3.46741064 7.89537506,3.67732225 C8.09188161,3.88723387 8.20105191,4.17448134 8.20105191,4.53906468 C8.20105191,4.81526417 8.10279864,5.08041569 7.90629209,5.32347124 L7.77528772,5.47814296 C7.06568073,6.11892579 6.63991654,6.58294094 6.49799514,6.88123639 C6.34515671,7.17953185 6.27965453,7.54411518 6.27965453,7.96393842 L6.27965453,8.11861013 L7.53511305,8.11861013 Z M6.97296814,10.6186101 C7.20952728,10.6186101 7.40307567,10.5413474 7.56436599,10.3868221 C7.72565632,10.2322967 7.81167782,10.0225836 7.81167782,9.77975804 C7.81167782,9.53693243 7.72565632,9.33825693 7.57511868,9.18373155 C7.41382836,9.02920616 7.20952728,8.95194347 6.97296814,8.95194347 C6.736409,8.95194347 6.54286062,9.02920616 6.38157029,9.18373155 C6.22027997,9.33825693 6.14501115,9.53693243 6.14501115,9.77975804 C6.14501115,10.0225836 6.22027997,10.2212591 6.38157029,10.3757845 C6.54286062,10.5303099 6.736409,10.6186101 6.97296814,10.6186101 Z" id="？" stroke="#1DA2B4" stroke-width="0.5" fill="#1DA2B4" fill-rule="nonzero"></path>
                </g>
                <g id="编组-22" transform="translate(12.000000, 10.000000)" stroke="#FFFFFF" stroke-width="3">
                    <path d="M0.5,1.93622895e-13 L5.36309554,1.93622895e-13 C6.58272443,1.93398853e-13 7.571429,0.988704567 7.571429,2.20833346 C7.571429,3.42796235 6.58272443,4.41666692 5.36309554,4.41666692 L-1.87405647e-13,4.41666692 L-1.87405647e-13,4.41666692 L-1.87405647e-13,0.5 C-1.87439464e-13,0.223857625 0.223857625,1.93673622e-13 0.5,1.93622895e-13 Z" id="矩形"></path>
                    <path d="M-1.87405647e-13,4.41666692 L5.36309554,4.41666692 C6.58272443,4.41666692 7.571429,5.40537148 7.571429,6.62500038 C7.571429,7.84462927 6.58272443,8.83333383 5.36309554,8.83333383 L0.5,8.83333383 C0.223857625,8.83333383 -1.87126565e-13,8.60947621 -1.87405647e-13,8.33333383 L-1.87405647e-13,4.41666692 L-1.87405647e-13,4.41666692 Z" id="矩形备份-94"></path>
                </g>
            </g>
        </g>
    </g>
</svg>