<?xml version="1.0" encoding="UTF-8"?>
<svg width="36px" height="36px" viewBox="0 0 36 36" version="1.1" xmlns="http://www.w3.org/2000/svg" xmlns:xlink="http://www.w3.org/1999/xlink">
    <title>Copy Trade Tutorial-黑</title>
    <g id="首页-行情-买币" stroke="none" stroke-width="1" fill="none" fill-rule="evenodd">
        <g id="画板备份-16" transform="translate(-961.000000, -812.000000)">
            <g id="编组-47备份-3" transform="translate(961.000000, 812.000000)">
                <g id="编组-61" transform="translate(3.000000, 6.000000)">
                    <path d="M10.9230769,0 L28.0769231,0 C29.1814926,-2.16501571e-15 30.0769231,0.8954305 30.0769231,2 L30.0769231,23 C30.0769231,24.1045695 29.1814926,25 28.0769231,25 L7,25 L7,25 L8.92307692,18.9815541 L8.92307692,2 C8.92307692,0.8954305 9.81850742,2.02906125e-16 10.9230769,0 Z" id="矩形" fill="#1A90A2"></path>
                    <rect id="矩形备份-89" fill="#FFFFFF" x="0" y="11" width="14" height="14" rx="7"></rect>
                    <path d="M8.83205029,16.2480754 L10.9635332,19.4452998 C11.2698857,19.9048285 11.1457118,20.5256978 10.6861831,20.8320503 C10.5219156,20.941562 10.3289079,21 10.1314829,21 L5.86851709,21 C5.31623234,21 4.86851709,20.5522847 4.86851709,20 C4.86851709,19.802575 4.92695512,19.6095673 5.0364668,19.4452998 L7.16794971,16.2480754 C7.47430216,15.7885468 8.09517151,15.6643729 8.5547002,15.9707253 C8.66455248,16.0439602 8.75881544,16.1382232 8.83205029,16.2480754 Z" id="三角形" fill="#1A90A2" transform="translate(8.000000, 18.000000) rotate(-270.000000) translate(-8.000000, -18.000000) "></path>
                    <line x1="15" y1="5.5" x2="24.5833333" y2="5.5" id="路径-93" stroke="#FFFFFF" stroke-width="3" stroke-linecap="round"></line>
                    <line x1="15" y1="11.5" x2="24.5833333" y2="11.5" id="路径-93备份-2" stroke="#FFFFFF" stroke-width="3" stroke-linecap="round"></line>
                    <line x1="19.5" y1="17.5" x2="24.5454545" y2="17.5" id="路径-93备份-3" stroke="#FFFFFF" stroke-width="3" stroke-linecap="round"></line>
                </g>
            </g>
        </g>
    </g>
</svg>