<?xml version="1.0" encoding="UTF-8"?>
<svg width="36px" height="36px" viewBox="0 0 36 36" version="1.1" xmlns="http://www.w3.org/2000/svg" xmlns:xlink="http://www.w3.org/1999/xlink">
    <title>编组 44备份 6</title>
    <g id="首页-行情-买币" stroke="none" stroke-width="1" fill="none" fill-rule="evenodd">
        <g id="画板备份-16" transform="translate(-1231.000000, -903.000000)">
            <g id="编组-44备份-6" transform="translate(1231.000000, 903.000000)">
                <g id="编组-60" transform="translate(2.000000, 2.000000)">
                    <rect id="矩形备份-89" fill="#1A90A2" x="0" y="0" width="32" height="32" rx="16"></rect>
                    <g id="编组-7" transform="translate(6.153846, 6.153846)" fill="#FFFFFF" fill-rule="nonzero">
                        <path d="M5.98827704,0.421723569 C6.25280239,0.152740431 6.62328691,-2.04281037e-13 7.01120015,-2.04281037e-13 L9.52154663,-2.04281037e-13 C9.83850304,-2.04281037e-13 10.002896,0.358396062 9.78675505,0.578176 L4.82207411,5.62640738 L7.56563841,5.62640738 L10.355393,8.43961108 L4.82207411,8.43961108 L10.355393,14.0660185 L7.01120015,14.0660185 C6.62328691,14.0660185 6.25280239,13.9133046 5.98827704,13.6443077 L0.375640949,7.93720123 C-0.12521434,7.42791877 -0.125213305,6.63809969 0.375641984,6.12881723 L5.98827704,0.421723569 Z" id="路径"></path>
                        <path d="M13.7041085,19.2705969 C13.4395728,19.5395938 13.0690573,19.6923077 12.6811544,19.6923077 L10.1707872,19.6923077 C9.85383079,19.6923077 9.68943779,19.3339077 9.90558912,19.1141415 L14.8703011,14.06592 L12.1267265,14.06592 L9.33697192,11.2526769 L14.8703011,11.2526769 L9.33697192,5.62628923 L12.6811544,5.62628923 C13.0690573,5.62628923 13.4395728,5.77903262 13.7041085,6.04800985 L19.3166949,11.7551262 C19.8175119,12.2643692 19.8175119,13.0542277 19.3166949,13.5634708 L13.7041085,19.2705969 Z" id="路径"></path>
                    </g>
                </g>
            </g>
        </g>
    </g>
</svg>