<?xml version="1.0" encoding="UTF-8"?>
<svg width="36px" height="36px" viewBox="0 0 36 36" version="1.1" xmlns="http://www.w3.org/2000/svg" xmlns:xlink="http://www.w3.org/1999/xlink">
    <title>币本位合约-黑</title>
    <g id="首页-导航" stroke="none" stroke-width="1" fill="none" fill-rule="evenodd">
        <g id="画板备份-15" transform="translate(-129.000000, -443.000000)">
            <g id="编组-44" transform="translate(128.000000, 442.000000)">
                <g id="编组-60" transform="translate(-0.000000, 0.000000)">
                    <path d="M30.5163497,27.4582322 L33.8750839,31.322014 C34.2374153,31.7388285 34.193248,32.3704512 33.7764334,32.7327826 L29.9603918,36.0500169 C29.5435772,36.4123483 28.9119546,36.368181 28.5496232,35.9513664 C28.3770382,35.7528301 28.2896356,35.4942846 28.3063543,35.2317533 L28.7636617,28.0507371 C28.7987616,27.4995689 29.2740259,27.0812128 29.8251942,27.1163128 C30.0920249,27.1333053 30.3409384,27.2564445 30.5163497,27.4582322 Z" id="路径" fill="#FFFFFF" transform="translate(31.342701, 31.620063) rotate(-319.000000) translate(-31.342701, -31.620063) "></path>
                    <path d="M5.51634966,2.45823216 L8.87508393,6.32201395 C9.23741532,6.73882855 9.19324797,7.37045117 8.77643338,7.73278256 L4.96039177,11.0500169 C4.54357717,11.4123483 3.91195455,11.368181 3.54962316,10.9513664 C3.37703824,10.7528301 3.28963561,10.4942846 3.30635434,10.2317533 L3.76366168,3.05073711 C3.79876163,2.49956886 4.2740259,2.08121285 4.82519415,2.11631279 C5.09202485,2.13330532 5.34093835,2.25644454 5.51634966,2.45823216 Z" id="路径备份" fill="#FFFFFF" transform="translate(6.342701, 6.620063) scale(-1, -1) rotate(-319.000000) translate(-6.342701, -6.620063) "></path>
                    <rect id="矩形备份-89" fill="#1A90A2" x="5.20317366" y="6.74230655" width="26" height="26" rx="13"></rect>
                    <path d="M14.7031737,14.7423065 L19.7031737,14.7423065 C21.0838855,14.7423065 22.2031737,15.8615947 22.2031737,17.2423065 C22.2031737,18.6230184 21.0838855,19.7423065 19.7031737,19.7423065 L14.2031737,19.7423065 L14.2031737,19.7423065 L14.2031737,15.2423065 C14.2031737,14.9661642 14.4270313,14.7423065 14.7031737,14.7423065 Z" id="矩形" stroke="#FFFFFF" stroke-width="3"></path>
                    <path d="M14.2031737,19.7423065 L19.7031737,19.7423065 C21.0838855,19.7423065 22.2031737,20.8615947 22.2031737,22.2423065 C22.2031737,23.6230184 21.0838855,24.7423065 19.7031737,24.7423065 L14.7031737,24.7423065 C14.4270313,24.7423065 14.2031737,24.5184489 14.2031737,24.2423065 L14.2031737,19.7423065 L14.2031737,19.7423065 Z" id="矩形备份-94" stroke="#FFFFFF" stroke-width="3"></path>
                </g>
            </g>
        </g>
    </g>
</svg>