<?xml version="1.0" encoding="UTF-8"?>
<svg width="36px" height="36px" viewBox="0 0 36 36" version="1.1" xmlns="http://www.w3.org/2000/svg" xmlns:xlink="http://www.w3.org/1999/xlink">
    <title>USDT合约-黑</title>
    <g id="首页-导航" stroke="none" stroke-width="1" fill="none" fill-rule="evenodd">
        <g id="画板备份-15" transform="translate(-129.000000, -353.000000)">
            <g id="编组-52" transform="translate(129.000000, 353.000000)">
                <g id="编组-59" transform="translate(4.000000, 5.000000)">
                    <path d="M2,17 L16,17 C18.209139,17 20,18.790861 20,21 L20,22 C20,24.209139 18.209139,26 16,26 L4,26 C1.790861,26 2.705415e-16,24.209139 0,22 L0,19 C-1.3527075e-16,17.8954305 0.8954305,17 2,17 Z" id="矩形" fill="#FFFFFF"></path>
                    <path d="M8,0 L26,0 C27.1045695,-2.02906125e-16 28,0.8954305 28,2 L28,24 C28,25.1045695 27.1045695,26 26,26 L6,26 L6,26 L6,2 C6,0.8954305 6.8954305,2.02906125e-16 8,0 Z" id="矩形" fill="#1A90A2"></path>
                    <path d="M21,9 L21,14.04 C21,16.2270476 19.209139,18 17,18 C14.790861,18 13,16.2270476 13,14.04 L13,9" id="路径" stroke="#FFFFFF" stroke-width="3" stroke-linecap="round"></path>
                </g>
            </g>
        </g>
    </g>
</svg>