<?xml version="1.0" encoding="UTF-8"?>
<svg width="36px" height="36px" viewBox="0 0 36 36" version="1.1" xmlns="http://www.w3.org/2000/svg" xmlns:xlink="http://www.w3.org/1999/xlink">
    <title>Help-黑</title>
    <g id="首页-行情-买币" stroke="none" stroke-width="1" fill="none" fill-rule="evenodd">
        <g id="画板备份-16" transform="translate(-966.000000, -672.000000)">
            <g id="编组-13" transform="translate(966.000000, 672.000000)">
                <g id="编组-12" transform="translate(5.000000, 5.000000)">
                    <path d="M20,0 L1.11111111,0 C0.496527778,0 0,0.502734375 0,1.125 L0,25.875 C0,26.4972656 0.496527778,27 1.11111111,27 L20,27 L20,7.21757813 L20,0 Z" id="路径" fill="#1A90A2"></path>
                    <rect id="矩形" fill="#FFFFFF" x="22" y="0" width="3" height="27"></rect>
                    <path d="M11.5021834,16 L11.5021834,15.7083333 C11.5021834,15.2083333 11.6004367,14.7708333 11.7969432,14.3541667 C11.9737991,13.9791667 12.2292576,13.625 12.5829694,13.3125 C13.5262009,12.4375 14.0960699,11.875 14.2729258,11.6666667 C14.7445415,11 15,10.1458333 15,9.10416667 C15,7.83333333 14.6069869,6.83333333 13.8209607,6.10416667 C13.0349345,5.35416667 11.9934498,5 10.7161572,5 C9.26200873,5 8.12227074,5.4375 7.27729258,6.3125 C6.41266376,7.1875 6,8.39583333 6,9.9375 L8.24017467,9.9375 C8.24017467,9.0625 8.39737991,8.375 8.73144105,7.89583333 C9.10480349,7.3125 9.7139738,7.04166667 10.5786026,7.04166667 C11.2467249,7.04166667 11.7772926,7.22916667 12.150655,7.625 C12.5043668,8.02083333 12.7008734,8.5625 12.7008734,9.25 C12.7008734,9.77083333 12.5240175,10.2708333 12.1703057,10.7291667 L11.9344978,11.0208333 C10.6572052,12.2291667 9.89082969,13.1041667 9.63537118,13.6666667 C9.36026201,14.2291667 9.24235808,14.9166667 9.24235808,15.7083333 L9.24235808,16 L11.5021834,16 Z M10.4903226,20 C10.916129,20 11.2645161,19.8609272 11.5548387,19.5827815 C11.8451613,19.3046358 12,18.9271523 12,18.4900662 C12,18.0529801 11.8451613,17.6953642 11.5741935,17.4172185 C11.283871,17.1390728 10.916129,17 10.4903226,17 C10.0645161,17 9.71612903,17.1390728 9.42580645,17.4172185 C9.13548387,17.6953642 9,18.0529801 9,18.4900662 C9,18.9271523 9.13548387,19.2847682 9.42580645,19.5629139 C9.71612903,19.8410596 10.0645161,20 10.4903226,20 Z" id="？" stroke="#FFFFFF" stroke-width="0.5" fill="#FFFFFF" fill-rule="nonzero"></path>
                </g>
            </g>
        </g>
    </g>
</svg>