<?xml version="1.0" encoding="UTF-8"?>
<svg width="192px" height="150px" viewBox="0 0 192 150" version="1.1" xmlns="http://www.w3.org/2000/svg" xmlns:xlink="http://www.w3.org/1999/xlink">
    <title>编组 23 6</title>
    <defs>
        <linearGradient x1="38.9733214%" y1="29.5154404%" x2="72.1904588%" y2="58.3803926%" id="linearGradient-1">
            <stop stop-color="#274257" stop-opacity="0" offset="0%"></stop>
            <stop stop-color="#ABABAB" offset="100%"></stop>
        </linearGradient>
        <linearGradient x1="41.1755729%" y1="33.8860713%" x2="72.1904588%" y2="58.8897279%" id="linearGradient-2">
            <stop stop-color="#274257" stop-opacity="0" offset="0%"></stop>
            <stop stop-color="#858585" offset="100%"></stop>
        </linearGradient>
        <linearGradient x1="37.7846879%" y1="23.6385051%" x2="72.1904588%" y2="58.7947103%" id="linearGradient-3">
            <stop stop-color="#274257" stop-opacity="0" offset="0%"></stop>
            <stop stop-color="#858585" offset="100%"></stop>
        </linearGradient>
    </defs>
    <g id="页面-2" stroke="none" stroke-width="1" fill="none" fill-rule="evenodd">
        <g id="Apple-TV备份-16" transform="translate(-1261.000000, -1887.000000)">
            <g id="编组-45备份" transform="translate(1256.000000, 1887.000000)">
                <polygon id="椭圆形" fill="url(#linearGradient-1)" opacity="0.383449009" points="91.156963 104.97346 91.156963 70.7071414 43.1677596 40.361744 -6.47709179e-13 60.3513036"></polygon>
                <polygon id="椭圆形" fill="url(#linearGradient-2)" opacity="0.383449009" points="40.0284539 122.97346 40.0284539 109.287711 20.8597156 96.3937535 3.61878725 104.377456"></polygon>
                <polygon id="椭圆形" fill="url(#linearGradient-3)" opacity="0.383449009" points="144.863816 112.97346 144.863816 101.242818 126.054245 90.12359 113.394759 94.978552"></polygon>
                <line x1="146.106728" y1="87.3937535" x2="146.106728" y2="64.3937535" id="路径-31" stroke="#1DA2B4" stroke-dasharray="2"></line>
                <g id="编组-43" transform="translate(52.167760, 18.000000)">
                    <polygon id="路径-2" fill="#A4A9AE" points="58.6223295 72.12359 65.5 72.12359 73.8147455 64.1782396 76.961528 39.1910278 73.8147455 29.3937535 53.8563812 39.1910278 49.2621645 36.3937535"></polygon>
                    <path d="M34.5156998,7.13378675 C38.7218862,5.88616525 43.1968799,5.85692082 47.4157366,7.05940492 C49.7576304,7.72708415 51.6060962,8.36488853 52.9570649,8.983251 C60.4309145,12.4041652 66.2955259,18.008183 71.1397845,26.8458881 C76.8050862,37.1814772 76.7207694,49.0542156 74.1341538,59.1082563 C73.9587214,59.7901528 73.7388951,60.5179627 73.475407,61.2920294 C72.5965069,63.874561 70.9822494,66.1440541 68.8316693,67.8210911 C66.0901066,69.9571677 63.9461009,71.4757718 62.3917334,72.3647392 C58.5876792,74.540338 52.9267,77.724244 45.4088317,81.9165204 L45.4088317,81.9165204 L38.1953063,79.44378 C18.511351,58.1554098 9.31031435,41.0952065 11.4061541,28.1739835 C11.7554549,26.0204823 12.4999163,24.7696146 13.3231986,23.3349489 C14.298944,21.6345986 15.3860441,19.7288974 16.2911771,16.4284248 C18.5257314,13.0654486 20.1675075,10.935358 21.4689405,10.5905418 L21.4689405,10.5905418 L31.7959965,7.85437551 Z" id="椭圆形" stroke="#FFFFFF" stroke-width="4" transform="translate(43.474537, 43.733634) rotate(-6.000000) translate(-43.474537, -43.733634) "></path>
                    <path d="M12.9781974,12.7019656 C19.8210305,9.36823795 28.5001873,9.50772398 37.3979648,14.0165999 C46.142709,18.4479275 53.4470494,26.2778814 58.1728654,35.3702241 C62.9030799,44.4710296 65.0439028,54.8260306 63.507374,64.2735869 C61.9420323,73.8983035 56.87884,80.7448936 50.0218026,84.0855414 C43.1789695,87.419269 34.4998127,87.279783 25.6020352,82.770907 C16.857291,78.3395795 9.55295062,70.5096256 4.82713464,61.4172829 C0.0969200687,52.3164774 -2.04390281,41.9614764 -0.507374042,32.5139201 C1.05796765,22.8892035 6.12116001,16.0426134 12.9781974,12.7019656 Z" id="椭圆形" stroke="#1A1A1A" stroke-width="2" fill="#FFFFFF"></path>
                    <path d="M19,29.3937535 L32.8036667,35.3096484 C37.7365549,37.4237568 41.7439068,43.0379709 41.7543377,47.8493464 C41.7591199,50.0552498 40.9229158,51.7094162 39.540472,52.6503387 C42.0241087,55.2657223 43.6706441,58.6641022 43.6773088,61.7289811 C43.6877194,66.5403566 39.6528471,68.7078812 34.665149,66.5702826 L19.0661034,59.8849347 L19,29.3937535 Z M34.4684921,52.98324 L23.2273172,48.3937535 L23.2471642,56.4326371 L34.488339,61.0221236 C36.8761581,61.9970095 38.8074249,60.9877453 38.801956,58.7678689 C38.796683,56.6367876 37.0084278,54.1647233 34.7527864,53.1078512 L34.4684921,52.98324 Z M32.0635662,40.1746313 L22.7153274,36.3937535 L22.746315,44.252397 L32.0945538,48.0332748 C34.4413219,48.9824207 36.3368165,47.9926383 36.3282883,45.8225338 C36.3200448,43.7392335 34.5600424,41.3254957 32.3429852,40.2959864 L32.0635662,40.1746313 Z" id="形状结合" fill="#1A1A1A" fill-rule="nonzero"></path>
                </g>
                <g id="编组-44" transform="translate(26.167760, 87.393753)">
                    <polygon id="路径-28" stroke="#1DA2B4" stroke-width="2" points="16.7874836 37 0 26.8413023 0 8.10690752 16.7874836 0 34 8.10690752 34 27.6745907"></polygon>
                    <polygon id="路径-28" stroke="#1DA2B4" stroke-width="2" fill="#FFFFFF" points="16.7874836 18 0 8.51848796 0 7.95536326 16.7874836 0 34 7.95536326 34 8.99024463"></polygon>
                    <polygon id="路径-33" fill="#1DA2B4" points="0 9 17 19.095046 17 37 0 25.4965204"></polygon>
                </g>
                <g id="编组-44备份" transform="translate(135.167760, 86.955941)">
                    <polygon id="路径-28" stroke="#1DA2B4" stroke-width="2" points="11.7897195 26 0 18.8614557 0 5.69674583 11.7897195 0 23.8779363 5.69674583 23.8779363 19.4470097"></polygon>
                    <polygon id="路径-28" stroke="#1DA2B4" stroke-width="2" fill="#FFFFFF" points="11.7897195 12.8895968 0 6.09999307 0 5.69674583 11.7897195 0 23.8779363 5.69674583 23.8779363 6.43781269"></polygon>
                    <polygon id="路径-33" fill="#1DA2B4" points="0 6.43781269 11.7897195 13.4970284 11.7897195 26.0175192 0 17.9734208"></polygon>
                </g>
                <path d="M52.0284539,113.246963 L94.2074016,133.400739 L140.028454,105.400739" id="路径-34" stroke="#1DA2B4" stroke-dasharray="3"></path>
                <circle id="椭圆形" fill="#1DA2B4" cx="116.66776" cy="119.893753" r="2.5"></circle>
                <line x1="43.1067278" y1="87.3937535" x2="43.1067278" y2="64.3937535" id="路径-31备份" stroke="#1DA2B4" stroke-dasharray="2"></line>
            </g>
        </g>
    </g>
</svg>