<?xml version="1.0" encoding="UTF-8"?>
<svg width="560px" height="390px" viewBox="0 0 560 390" version="1.1" xmlns="http://www.w3.org/2000/svg" xmlns:xlink="http://www.w3.org/1999/xlink">
    <title>编组 44</title>
    <defs>
        <polygon id="path-1" points="225.646316 228 395.222534 131.68232 395.222534 104.68232 168.766989 0 0 71.5634263 1.80998877e-13 98.5634263"></polygon>
        <polygon id="path-3" points="-2.84217094e-14 60.6611164 -2.84217094e-14 70.2558348 31.3879546 86.8983018 182.152399 8.99833189 182.152399 0"></polygon>
        <polygon id="path-5" points="0 25.1305278 0 29.1054025 13.0960919 36 76 3.72780528 76 0"></polygon>
    </defs>
    <g id="页面-2" stroke="none" stroke-width="1" fill="none" fill-rule="evenodd">
        <g id="画板" transform="translate(-797.000000, -952.000000)">
            <g id="编组-44" transform="translate(797.000000, 952.000000)">
                <rect id="蒙版" fill="#1DA2B4" x="0" y="0" width="560" height="390" rx="16"></rect>
                <path d="M216.380918,326.887332 L216.380918,332.788871 L215.380918,332.681323 L215.38,327.779686 L206,326.77089 L206,325.77089 L216.380918,326.887332 Z M221.562605,324.444609 L221.562605,330.346148 L220.562605,330.238601 L220.562,325.336997 L211.181687,324.328168 L211.181687,323.328168 L221.562605,324.444609 Z M226.744293,322.001887 L226.744293,327.903426 L225.744293,327.795878 L225.744,322.894308 L216.363375,321.885445 L216.363375,320.885445 L226.744293,322.001887 Z M231.92598,319.559164 L231.92598,325.460703 L230.92598,325.353155 L230.925,320.451511 L221.545062,319.442723 L221.545062,318.442723 L231.92598,319.559164 Z M237.107667,317.116442 L237.107667,323.01798 L236.107667,322.910433 L236.107,318.008822 L226.72675,317 L226.72675,316 L237.107667,317.116442 Z" id="形状结合" fill="#1E1E1E" fill-rule="nonzero"></path>
                <path d="M383.380918,298.887332 L383.380918,304.788871 L382.380918,304.681323 L382.38,299.779686 L373,298.77089 L373,297.77089 L383.380918,298.887332 Z M388.562605,296.444609 L388.562605,302.346148 L387.562605,302.238601 L387.562,297.336997 L378.181687,296.328168 L378.181687,295.328168 L388.562605,296.444609 Z M393.744293,294.001887 L393.744293,299.903426 L392.744293,299.795878 L392.744,294.894308 L383.363375,293.885445 L383.363375,292.885445 L393.744293,294.001887 Z M398.92598,291.559164 L398.92598,297.460703 L397.92598,297.353155 L397.925,292.451511 L388.545062,291.442723 L388.545062,290.442723 L398.92598,291.559164 Z M404.107667,289.116442 L404.107667,295.01798 L403.107667,294.910433 L403.107,290.008822 L393.72675,289 L393.72675,288 L404.107667,289.116442 Z" id="形状结合" fill="#1E1E1E" fill-rule="nonzero"></path>
                <path d="M56.8982077,172.852406 L56.8982077,173.852406 L43,182.480852 L43,181.480852 L56.8982077,172.852406 Z M64.4221177,162.083615 L64.4221177,163.083615 L43,176.480852 L43,175.480852 L64.4221177,162.083615 Z M70.7964154,152.480852 L70.7964154,153.480852 L43,170.480852 L43,169.480852 L70.7964154,152.480852 Z M77.3342414,142.242366 L77.3342414,143.242366 L43,164.480852 L43,163.480852 L77.3342414,142.242366 Z M87,131 L87,132 L43,158.480852 L43,157.480852 L87,131 Z" id="形状结合" fill="#1E1E1E" transform="translate(65.000000, 156.740426) scale(-1, 1) translate(-65.000000, -156.740426) "></path>
                <path d="M458.898208,172.852406 L458.898208,173.852406 L445,182.480852 L445,181.480852 L458.898208,172.852406 Z M466.422118,162.083615 L466.422118,163.083615 L445,176.480852 L445,175.480852 L466.422118,162.083615 Z M472.796415,152.480852 L472.796415,153.480852 L445,170.480852 L445,169.480852 L472.796415,152.480852 Z M479.334241,142.242366 L479.334241,143.242366 L445,164.480852 L445,163.480852 L479.334241,142.242366 Z M489,131 L489,132 L445,158.480852 L445,157.480852 L489,131 Z" id="形状结合" fill="#1E1E1E" transform="translate(467.000000, 156.740426) scale(-1, 1) translate(-467.000000, -156.740426) "></path>
                <polygon id="蒙版" fill="#1E1E1E" points="318.646316 314.737754 488.222534 218.420073 488.222534 191.420073 261.766989 86.7377538 93 158.30118 93 185.30118"></polygon>
                <g id="编组-42" transform="translate(93.000000, 74.737754)">
                    <g id="路径-87" transform="translate(0.000000, 12.000000)">
                        <mask id="mask-2" fill="white">
                            <use xlink:href="#path-1"></use>
                        </mask>
                        <path stroke="#1E1E1E" d="M168.775725,-0.546799158 L395.722534,104.362614 L395.722534,131.973349 L225.645093,228.57572 L-0.5,98.8530348 L-0.5,71.2323501 L168.775725,-0.546799158 Z"></path>
                        <polygon fill="#1DA2B4" mask="url(#mask-2)" points="225.646316 228 225.646316 201 395.222534 100.560443 398.680887 140.317405"></polygon>
                        <line x1="225.646316" y1="229.042851" x2="225.646316" y2="201" id="路径-33" stroke="#1E1E1E" mask="url(#mask-2)"></line>
                    </g>
                    <polygon id="路径-86" stroke="#1E1E1E" fill="#FFFFFF" points="225.646316 213 395.222534 116.026484 170.961946 0 2.61295306e-13 82.8690626"></polygon>
                </g>
                <polygon id="路径-86" stroke="#1E1E1E" fill="#1DA2B4" points="318.646316 277.901852 474.091182 189.009462 264.441667 81.3581258 108 157.451061"></polygon>
                <polygon id="路径-86" stroke="#1E1E1E" fill="#FFFFFF" points="318.570176 273.53128 467.236948 188.514997 265.152282 84.3841034 115 157.539158"></polygon>
                <path d="M165.71525,140.289593 C165.757396,140.267518 165.803695,140.257604 165.854149,140.259851 C165.904419,140.262218 165.952679,140.276378 165.998745,140.302451 L166.896998,140.810856 C166.943064,140.836929 166.967204,140.863746 166.969578,140.891176 C166.971769,140.918725 166.95178,140.943531 166.909634,140.965606 L166.187216,141.343985 L169.756333,143.36408 C169.8024,143.390153 169.826518,143.416958 169.828891,143.444388 C169.831083,143.471937 169.811094,143.496743 169.768948,143.518818 L168.685422,144.086333 C168.643276,144.108408 168.596977,144.118322 168.546501,144.116062 C168.496253,144.113708 168.447993,144.099548 168.401927,144.073475 L164.832809,142.05338 L164.11039,142.431759 C164.068244,142.453834 164.021944,142.463748 163.971469,142.461488 C163.921221,142.459134 163.872939,142.444961 163.826872,142.418888 L162.92862,141.910484 C162.882554,141.88441 162.858436,141.857605 162.85604,141.830163 C162.853871,141.802627 162.87386,141.777821 162.916006,141.755746 L163.638424,141.377367 L162.380609,140.665453 C162.334543,140.639379 162.310421,140.612572 162.308036,140.585136 C162.305856,140.557593 162.325838,140.532784 162.367984,140.510709 L163.451509,139.943193 C163.493656,139.921118 163.539962,139.911208 163.590426,139.913462 C163.640685,139.915822 163.68895,139.929985 163.735016,139.956058 L164.992831,140.667972 L165.71525,140.289593 Z M164.760138,143.251264 C164.982045,143.376862 165.123164,143.478824 165.183494,143.55715 C165.237102,143.631672 165.20034,143.702227 165.072813,143.769021 L162.493154,145.120163 C162.825899,145.239008 163.155391,145.289956 163.482001,145.272789 C163.807574,145.248815 164.115129,145.161027 164.404623,145.0094 C164.549468,144.933534 164.665269,144.850882 164.752246,144.761351 C164.838405,144.664923 164.900013,144.54838 164.937265,144.411618 C164.939308,144.381248 164.957746,144.356941 164.992383,144.338799 C165.021509,144.323544 165.073359,144.318361 165.148546,144.322956 L166.104558,144.371854 C166.154667,144.374909 166.199909,144.387862 166.240262,144.410702 C166.280593,144.433528 166.30343,144.465542 166.309146,144.506523 C166.342633,144.752809 166.290616,144.98523 166.152943,145.203913 C166.01443,145.415688 165.791582,145.602033 165.48477,145.762731 C165.050432,145.990224 164.545272,146.130235 163.969268,146.182752 C163.398993,146.232292 162.823191,146.196778 162.242057,146.076107 C161.660946,145.955448 161.135104,145.761841 160.664381,145.495415 C160.193657,145.228988 159.855782,144.936955 159.651127,144.619096 C159.45218,144.298247 159.406781,143.9886 159.514908,143.690141 C159.616291,143.387864 159.869796,143.130511 160.275008,142.918274 C160.67471,142.708923 161.138931,142.586704 161.66765,142.551604 C162.196566,142.516401 162.733171,142.56147 163.277616,142.686683 C163.822061,142.811896 164.316301,143.000056 164.760138,143.251264 Z M161.564906,143.638696 C161.338979,143.757029 161.218918,143.900538 161.2047,144.06921 C161.183935,144.233962 161.288117,144.406595 161.517572,144.586864 L163.272048,143.667927 C162.955803,143.533115 162.648917,143.466652 162.351259,143.468679 C162.047054,143.466787 161.784929,143.523455 161.564906,143.638696 Z M157.804774,144.330769 C157.847525,144.308377 157.89413,144.298344 157.945003,144.300451 C157.995898,144.30257 158.044432,144.316697 158.090627,144.342843 L162.75285,146.981627 C163.234589,147.254289 163.501704,147.53868 163.554379,147.834681 C163.619899,148.131167 163.532003,148.410929 163.291107,148.673751 C163.056208,148.933408 162.74639,149.164005 162.36163,149.365529 C161.976871,149.567054 161.548082,149.726922 161.07524,149.845121 C160.614828,149.964022 160.166906,150.033228 159.731268,150.052846 C159.668358,150.057043 159.613805,150.046069 159.56761,150.019923 C159.528011,149.99751 159.504336,149.977551 159.49677,149.959926 L159.161044,149.380691 C159.144986,149.331573 159.155104,149.297496 159.191837,149.278256 C159.222344,149.262278 159.253428,149.253185 159.284883,149.251087 C159.624402,149.217094 159.933834,149.159289 160.213017,149.077804 C160.498403,148.993046 160.775472,148.880286 161.044015,148.739632 C161.355516,148.576477 161.566836,148.3867 161.67816,148.170179 C161.796081,147.957391 161.690071,147.757625 161.360109,147.570869 L160.904776,147.313154 C160.986069,147.745215 160.764283,148.098687 160.239027,148.373799 C159.829987,148.588041 159.348406,148.718029 158.794263,148.763752 C158.240142,148.809486 157.676968,148.773656 157.104948,148.656152 C156.538968,148.535509 156.031692,148.348129 155.582955,148.094147 C155.13424,147.840178 154.810004,147.556928 154.610521,147.244325 C154.417034,146.928558 154.373098,146.620768 154.478504,146.321063 C154.583888,146.021346 154.841112,145.764373 155.250152,145.550131 C155.750919,145.287845 156.392904,145.18532 157.175875,145.242652 L156.817436,145.0097 C156.730694,144.947261 156.726868,144.895341 156.806351,144.85371 L157.804774,144.330769 Z M159.05705,147.515063 C159.337837,147.367995 159.460593,147.177846 159.424902,146.944832 C159.389441,146.711721 159.219921,146.509254 158.916366,146.337444 C158.612811,146.165634 158.251086,146.06742 157.831236,146.042828 C157.404975,146.014382 157.051266,146.073813 156.770479,146.22088 C156.483466,146.371208 156.354496,146.561007 156.383361,146.790384 C156.40586,147.015932 156.575357,147.218386 156.892127,147.397675 C157.215471,147.580685 157.583966,147.686123 157.997612,147.713989 C158.410865,147.734847 158.763811,147.668652 159.05705,147.515063 Z M152.876585,147.01407 C152.918732,146.991995 152.96499,146.982103 153.015382,146.984382 C153.065714,146.986717 153.113974,147.000877 153.16004,147.02695 L154.058293,147.535354 C154.104359,147.561428 154.128499,147.588245 154.130811,147.615707 C154.133064,147.643224 154.113116,147.668008 154.07097,147.690083 L153.348572,148.068452 L156.91769,150.088546 C156.963756,150.11462 156.987915,150.141403 156.990145,150.168908 C156.992398,150.196425 156.97245,150.221209 156.930304,150.243284 L155.846717,150.810832 C155.804571,150.832907 155.758312,150.842799 155.707899,150.840507 C155.657507,150.838228 155.609268,150.824057 155.563201,150.797984 L151.994083,148.777889 L151.271685,149.156258 C151.229559,149.178322 151.18328,149.188225 151.132887,149.185923 C151.082495,149.183643 151.034234,149.16946 150.988167,149.143387 L150.089915,148.634982 C150.043849,148.608909 150.01971,148.582115 150.017458,148.554598 C150.015207,148.527104 150.035175,148.502309 150.077301,148.480245 L150.799699,148.101876 L149.541884,147.389962 C149.495817,147.363889 149.471675,147.337092 149.469433,147.309581 C149.467192,147.28207 149.487133,147.257282 149.529279,147.235207 L150.612866,146.66766 C150.655012,146.645585 150.701277,146.635696 150.75168,146.637982 C150.802083,146.640267 150.850306,146.654451 150.896372,146.680525 L152.154187,147.392439 L152.876585,147.01407 Z M148.271751,148.97461 C148.074058,149.078156 147.832463,149.122009 147.546988,149.106161 C147.254892,149.086587 146.99998,149.015184 146.782249,148.89195 C146.55792,148.764981 146.43675,148.623525 146.418744,148.467583 C146.394121,148.307918 146.480665,148.176307 146.678358,148.072761 C146.876051,147.969216 147.120946,147.927231 147.41304,147.946803 C147.698517,147.962653 147.953431,148.034057 148.177761,148.161026 C148.395491,148.28426 148.516658,148.425715 148.541284,148.585381 C148.559288,148.741322 148.469444,148.871065 148.271751,148.97461 Z M148.167333,149.628369 C148.121146,149.602227 148.096502,149.575595 148.093381,149.548481 C148.090238,149.521356 148.109022,149.497143 148.14973,149.475821 L149.196354,148.927634 C149.237063,148.906312 149.282227,148.89703 149.331888,148.899791 C149.381527,148.90254 149.42943,148.91699 149.475618,148.943132 L154.103157,151.562285 C154.149344,151.588427 154.174008,151.615049 154.177151,151.642175 C154.180271,151.669288 154.161487,151.693501 154.120779,151.714823 L153.074155,152.26301 C153.033447,152.284332 152.988283,152.293613 152.938644,152.290865 C152.888982,152.288104 152.841059,152.273664 152.794872,152.247522 L148.167333,149.628369 Z M147.678544,151.060452 C148.116741,150.938655 148.608589,150.900077 149.154105,150.944683 C149.705675,150.986118 150.195606,151.12804 150.623942,151.370474 C151.289487,151.747168 151.593355,152.133776 151.535545,152.530298 C151.477202,152.919898 151.048102,153.324192 150.24822,153.743144 L148.012215,154.914291 C147.969791,154.936511 147.923274,154.946495 147.872688,154.944279 C147.822079,154.94205 147.773711,154.927893 147.727582,154.901784 L141.105026,151.153466 C141.058899,151.127358 141.034787,151.100492 141.032668,151.072878 C141.03055,151.045264 141.050692,151.020351 141.093116,150.998131 L143.320038,149.831741 C143.719979,149.622265 144.141435,149.487693 144.584383,149.428037 C145.033388,149.36521 145.465704,149.372161 145.881316,149.448903 C146.302982,149.522473 146.681842,149.65436 147.017919,149.844578 C147.360583,150.038523 147.584654,150.24789 147.690155,150.472692 C147.801732,150.694336 147.797854,150.890244 147.678544,151.060452 Z M145.897636,150.64678 C145.47591,150.408086 145.025666,150.414104 144.546952,150.664839 L143.719803,151.098073 L145.04432,151.84774 L145.871469,151.414506 C146.095679,151.297072 146.21539,151.173323 146.230624,151.043271 C146.239271,150.909491 146.128282,150.777324 145.897636,150.64678 Z M148.948597,152.948116 C149.227341,152.802119 149.379309,152.647118 149.404565,152.483105 C149.429779,152.31909 149.304019,152.158745 149.027267,152.002105 C148.757079,151.849181 148.477568,151.780145 148.188776,151.794977 C147.893354,151.806078 147.606302,151.884623 147.327558,152.03062 L146.309521,152.563835 L147.930559,153.481331 L148.948597,152.948116 Z M137.784524,154.698062 C137.951791,154.610454 138.186707,154.569294 138.433093,154.584433 L143.660819,154.905634 C144.127311,154.934297 144.515834,155.154199 144.550363,155.40911 L144.937294,158.265764 C144.955531,158.4004 144.87089,158.526614 144.703624,158.614222 L143.621052,159.181238 C143.48437,159.252828 143.237177,159.190178 143.222278,159.08016 L142.880026,156.553304 L141.696891,157.172992 L139.110026,157.019867 L141.496198,155.770067 L136.342391,155.453405 L137.784524,154.698062 Z M133.833541,153.816962 C133.970223,153.745373 134.217413,153.808022 134.232325,153.918025 L134.574591,156.444883 L135.757724,155.825197 L138.344586,155.978324 L135.95842,157.22812 L141.112221,157.544785 L139.670091,158.300126 C139.502805,158.387746 139.267889,158.428905 139.021503,158.413766 L133.793798,158.092554 C133.327299,158.063894 132.938776,157.843992 132.904254,157.589078 L132.517299,154.732434 C132.499061,154.597797 132.583705,154.471586 132.750992,154.383966 L133.833541,153.816962 Z" id="形状结合" fill="#1DA2B4" fill-rule="nonzero"></path>
                <path d="M227.974992,136.394205 C229.913392,136.399864 231.65549,136.506417 233.197747,136.712838 C236.75355,137.163136 240.227443,137.886702 243.61912,138.883441 C246.998034,139.876281 250.088048,140.893533 252.89273,141.936413 C256.02556,143.12988 259.082011,144.397039 262.061941,145.737735 C262.749605,145.747137 263.476089,145.835727 264.241326,146.004855 C264.95285,146.145647 265.778533,146.370876 266.718079,146.681702 C267.661998,146.993964 268.688117,147.44414 269.788536,148.030021 C271.287495,148.796999 272.352911,149.477797 272.991929,150.063043 C273.69143,150.703775 274.105029,151.270242 274.266136,151.73599 C274.430077,152.188696 274.446145,152.590671 274.334853,152.945996 C275.215111,153.537844 276.038418,154.104052 276.804787,154.644608 C277.552704,155.210462 278.233135,155.775928 278.85981,156.350834 C279.5584,156.991807 279.970974,157.55849 280.133515,158.031149 C280.365327,158.999577 280.579363,159.767676 280.790366,160.382672 C280.985376,160.95142 281.88291,161.60785 283.349449,162.427449 C284.299146,162.987314 285.347197,163.503268 286.503392,163.981688 C287.65892,164.459825 288.961508,164.86279 290.410844,165.191764 C291.865044,165.521813 293.44696,165.734977 295.15653,165.832209 C296.866588,165.929455 298.752622,165.833211 300.816765,165.545083 C302.689985,165.291304 304.593975,164.952391 306.528751,164.528417 C308.487931,164.099153 310.504593,163.728994 312.578804,163.417988 C314.666978,163.104937 316.788905,162.952344 318.944627,162.960331 C321.117106,162.968379 323.425444,163.317719 325.873022,164.012398 C327.289575,164.426691 328.925311,164.995017 330.780028,165.71791 C332.627294,166.437874 334.434882,167.195532 336.202751,167.990871 C337.977911,168.789491 339.560211,169.579707 340.949782,170.36117 C342.392284,171.172449 343.359015,171.86099 343.863108,172.41216 C344.112597,172.719381 344.201847,173.087648 344.077774,173.560981 C343.991672,173.88946 343.788929,174.285186 343.452156,174.740923 C342.859387,175.542835 341.987181,176.46995 340.832191,177.519488 C339.694732,178.55287 338.314088,179.656249 336.689713,180.829003 C335.075374,181.994342 333.394053,183.140721 331.645765,184.268126 C329.898814,185.394562 328.178245,186.455029 326.484119,187.449552 C324.785411,188.446715 323.258412,189.286854 321.903313,189.970201 C320.549123,190.65309 318.899822,191.414789 316.955356,192.255031 C315.016432,193.092915 312.964575,193.935354 310.799841,194.782315 C308.637026,195.628587 306.449514,196.452467 304.23735,197.253947 C302.023042,198.056278 299.965273,198.762231 298.064062,199.371858 C296.158452,199.982954 294.486302,200.476223 293.047643,200.851879 C291.549593,201.243077 290.46445,201.417168 289.797829,201.391747 C288.726712,201.361258 286.53128,200.733896 283.214886,199.478964 C279.961435,198.247755 276.191762,196.43653 271.910591,194.04617 C269.256507,192.601313 267.853619,191.188828 267.549488,189.888416 C267.234959,188.546005 267.440219,187.244681 268.174544,185.985844 C268.854047,184.820269 269.684738,183.666647 270.667367,182.525579 C271.539128,181.512892 271.993186,180.468676 272.000891,179.374789 C272.020746,178.555663 271.874863,177.852682 271.54794,177.270226 C271.211343,176.670771 270.746356,176.137012 270.155867,175.666612 C269.540402,175.176366 268.778988,174.727873 267.873609,174.318064 C266.930099,173.890994 265.854765,173.426332 264.653008,172.926222 C262.936566,172.235217 261.288298,171.830794 259.707491,171.716702 C258.084744,171.599568 256.375237,171.509237 254.571901,171.445372 C253.669138,171.400548 252.607622,171.239611 251.387669,170.96007 C250.195585,170.686895 249.008397,170.39367 247.816809,170.077836 C246.527854,169.709581 245.169909,169.310039 243.742925,168.879237 C243.27159,168.966409 242.703373,169.010987 242.037922,169.009983 C241.367006,168.984677 240.542465,168.904874 239.546057,168.769207 C238.548762,168.63341 237.300863,168.340304 235.80275,167.887278 C234.25417,167.456441 232.994111,166.984515 232.020847,166.475393 C231.038239,165.961395 230.266485,165.483925 229.713302,165.05327 C229.089619,164.591876 228.609197,164.089177 228.266354,163.549691 C225.493925,162.332402 222.855001,161.046896 220.350902,159.694097 C218.190991,158.537531 215.997397,157.221471 213.770039,155.745778 C211.503765,154.244591 209.784111,152.749547 208.604418,151.267407 C207.36655,149.818345 206.65632,148.49139 206.442501,147.299344 C206.220539,146.064651 206.329262,144.954168 206.754519,143.966042 C207.174136,142.990349 207.846684,142.128021 208.778253,141.38349 C209.665848,140.674027 210.649429,140.041792 211.729433,139.487342 C213.082308,138.792808 214.665809,138.212669 216.481075,137.749395 C218.277554,137.290967 220.159796,136.948992 222.127941,136.723769 C224.092617,136.498978 226.041575,136.389266 227.974992,136.394205 Z" id="路径" stroke="#1E1E1E" fill="#006370" fill-rule="nonzero"></path>
                <path d="M227.974992,130.394205 C229.913392,130.399864 231.65549,130.506417 233.197747,130.712838 C236.75355,131.163136 240.227443,131.886702 243.61912,132.883441 C246.998034,133.876281 250.088048,134.893533 252.89273,135.936413 C256.02556,137.12988 259.082011,138.397039 262.061941,139.737735 C262.749605,139.747137 263.476089,139.835727 264.241326,140.004855 C264.95285,140.145647 265.778533,140.370876 266.718079,140.681702 C267.661998,140.993964 268.688117,141.44414 269.788536,142.030021 C271.287495,142.796999 272.352911,143.477797 272.991929,144.063043 C273.69143,144.703775 274.105029,145.270242 274.266136,145.73599 C274.430077,146.188696 274.446145,146.590671 274.334853,146.945996 C275.215111,147.537844 276.038418,148.104052 276.804787,148.644608 C277.552704,149.210462 278.233135,149.775928 278.85981,150.350834 C279.5584,150.991807 279.970974,151.55849 280.133515,152.031149 C280.365327,152.999577 280.579363,153.767676 280.790366,154.382672 C280.985376,154.95142 281.88291,155.60785 283.349449,156.427449 C284.299146,156.987314 285.347197,157.503268 286.503392,157.981688 C287.65892,158.459825 288.961508,158.86279 290.410844,159.191764 C291.865044,159.521813 293.44696,159.734977 295.15653,159.832209 C296.866588,159.929455 298.752622,159.833211 300.816765,159.545083 C302.689985,159.291304 304.593975,158.952391 306.528751,158.528417 C308.487931,158.099153 310.504593,157.728994 312.578804,157.417988 C314.666978,157.104937 316.788905,156.952344 318.944627,156.960331 C321.117106,156.968379 323.425444,157.317719 325.873022,158.012398 C327.289575,158.426691 328.925311,158.995017 330.780028,159.71791 C332.627294,160.437874 334.434882,161.195532 336.202751,161.990871 C337.977911,162.789491 339.560211,163.579707 340.949782,164.36117 C342.392284,165.172449 343.359015,165.86099 343.863108,166.41216 C344.112597,166.719381 344.201847,167.087648 344.077774,167.560981 C343.991672,167.88946 343.788929,168.285186 343.452156,168.740923 C342.859387,169.542835 341.987181,170.46995 340.832191,171.519488 C339.694732,172.55287 338.314088,173.656249 336.689713,174.829003 C335.075374,175.994342 333.394053,177.140721 331.645765,178.268126 C329.898814,179.394562 328.178245,180.455029 326.484119,181.449552 C324.785411,182.446715 323.258412,183.286854 321.903313,183.970201 C320.549123,184.65309 318.899822,185.414789 316.955356,186.255031 C315.016432,187.092915 312.964575,187.935354 310.799841,188.782315 C308.637026,189.628587 306.449514,190.452467 304.23735,191.253947 C302.023042,192.056278 299.965273,192.762231 298.064062,193.371858 C296.158452,193.982954 294.486302,194.476223 293.047643,194.851879 C291.549593,195.243077 290.46445,195.417168 289.797829,195.391747 C288.726712,195.361258 286.53128,194.733896 283.214886,193.478964 C279.961435,192.247755 276.191762,190.43653 271.910591,188.04617 C269.256507,186.601313 267.853619,185.188828 267.549488,183.888416 C267.234959,182.546005 267.440219,181.244681 268.174544,179.985844 C268.854047,178.820269 269.684738,177.666647 270.667367,176.525579 C271.539128,175.512892 271.993186,174.468676 272.000891,173.374789 C272.020746,172.555663 271.874863,171.852682 271.54794,171.270226 C271.211343,170.670771 270.746356,170.137012 270.155867,169.666612 C269.540402,169.176366 268.778988,168.727873 267.873609,168.318064 C266.930099,167.890994 265.854765,167.426332 264.653008,166.926222 C262.936566,166.235217 261.288298,165.830794 259.707491,165.716702 C258.084744,165.599568 256.375237,165.509237 254.571901,165.445372 C253.669138,165.400548 252.607622,165.239611 251.387669,164.96007 C250.195585,164.686895 249.008397,164.39367 247.816809,164.077836 C246.527854,163.709581 245.169909,163.310039 243.742925,162.879237 C243.27159,162.966409 242.703373,163.010987 242.037922,163.009983 C241.367006,162.984677 240.542465,162.904874 239.546057,162.769207 C238.548762,162.63341 237.300863,162.340304 235.80275,161.887278 C234.25417,161.456441 232.994111,160.984515 232.020847,160.475393 C231.038239,159.961395 230.266485,159.483925 229.713302,159.05327 C229.089619,158.591876 228.609197,158.089177 228.266354,157.549691 C225.493925,156.332402 222.855001,155.046896 220.350902,153.694097 C218.190991,152.537531 215.997397,151.221471 213.770039,149.745778 C211.503765,148.244591 209.784111,146.749547 208.604418,145.267407 C207.36655,143.818345 206.65632,142.49139 206.442501,141.299344 C206.220539,140.064651 206.329262,138.954168 206.754519,137.966042 C207.174136,136.990349 207.846684,136.128021 208.778253,135.38349 C209.665848,134.674027 210.649429,134.041792 211.729433,133.487342 C213.082308,132.792808 214.665809,132.212669 216.481075,131.749395 C218.277554,131.290967 220.159796,130.948992 222.127941,130.723769 C224.092617,130.498978 226.041575,130.389266 227.974992,130.394205 Z" id="路径备份" stroke="#1E1E1E" fill="#1DA2B4" fill-rule="nonzero"></path>
                <path d="M227.974992,124.394205 C229.913392,124.399864 231.65549,124.506417 233.197747,124.712838 C236.75355,125.163136 240.227443,125.886702 243.61912,126.883441 C246.998034,127.876281 250.088048,128.893533 252.89273,129.936413 C256.02556,131.12988 259.082011,132.397039 262.061941,133.737735 C262.749605,133.747137 263.476089,133.835727 264.241326,134.004855 C264.95285,134.145647 265.778533,134.370876 266.718079,134.681702 C267.661998,134.993964 268.688117,135.44414 269.788536,136.030021 C271.287495,136.796999 272.352911,137.477797 272.991929,138.063043 C273.69143,138.703775 274.105029,139.270242 274.266136,139.73599 C274.430077,140.188696 274.446145,140.590671 274.334853,140.945996 C275.215111,141.537844 276.038418,142.104052 276.804787,142.644608 C277.552704,143.210462 278.233135,143.775928 278.85981,144.350834 C279.5584,144.991807 279.970974,145.55849 280.133515,146.031149 C280.365327,146.999577 280.579363,147.767676 280.790366,148.382672 C280.985376,148.95142 281.88291,149.60785 283.349449,150.427449 C284.299146,150.987314 285.347197,151.503268 286.503392,151.981688 C287.65892,152.459825 288.961508,152.86279 290.410844,153.191764 C291.865044,153.521813 293.44696,153.734977 295.15653,153.832209 C296.866588,153.929455 298.752622,153.833211 300.816765,153.545083 C302.689985,153.291304 304.593975,152.952391 306.528751,152.528417 C308.487931,152.099153 310.504593,151.728994 312.578804,151.417988 C314.666978,151.104937 316.788905,150.952344 318.944627,150.960331 C321.117106,150.968379 323.425444,151.317719 325.873022,152.012398 C327.289575,152.426691 328.925311,152.995017 330.780028,153.71791 C332.627294,154.437874 334.434882,155.195532 336.202751,155.990871 C337.977911,156.789491 339.560211,157.579707 340.949782,158.36117 C342.392284,159.172449 343.359015,159.86099 343.863108,160.41216 C344.112597,160.719381 344.201847,161.087648 344.077774,161.560981 C343.991672,161.88946 343.788929,162.285186 343.452156,162.740923 C342.859387,163.542835 341.987181,164.46995 340.832191,165.519488 C339.694732,166.55287 338.314088,167.656249 336.689713,168.829003 C335.075374,169.994342 333.394053,171.140721 331.645765,172.268126 C329.898814,173.394562 328.178245,174.455029 326.484119,175.449552 C324.785411,176.446715 323.258412,177.286854 321.903313,177.970201 C320.549123,178.65309 318.899822,179.414789 316.955356,180.255031 C315.016432,181.092915 312.964575,181.935354 310.799841,182.782315 C308.637026,183.628587 306.449514,184.452467 304.23735,185.253947 C302.023042,186.056278 299.965273,186.762231 298.064062,187.371858 C296.158452,187.982954 294.486302,188.476223 293.047643,188.851879 C291.549593,189.243077 290.46445,189.417168 289.797829,189.391747 C288.726712,189.361258 286.53128,188.733896 283.214886,187.478964 C279.961435,186.247755 276.191762,184.43653 271.910591,182.04617 C269.256507,180.601313 267.853619,179.188828 267.549488,177.888416 C267.234959,176.546005 267.440219,175.244681 268.174544,173.985844 C268.854047,172.820269 269.684738,171.666647 270.667367,170.525579 C271.539128,169.512892 271.993186,168.468676 272.000891,167.374789 C272.020746,166.555663 271.874863,165.852682 271.54794,165.270226 C271.211343,164.670771 270.746356,164.137012 270.155867,163.666612 C269.540402,163.176366 268.778988,162.727873 267.873609,162.318064 C266.930099,161.890994 265.854765,161.426332 264.653008,160.926222 C262.936566,160.235217 261.288298,159.830794 259.707491,159.716702 C258.084744,159.599568 256.375237,159.509237 254.571901,159.445372 C253.669138,159.400548 252.607622,159.239611 251.387669,158.96007 C250.195585,158.686895 249.008397,158.39367 247.816809,158.077836 C246.527854,157.709581 245.169909,157.310039 243.742925,156.879237 C243.27159,156.966409 242.703373,157.010987 242.037922,157.009983 C241.367006,156.984677 240.542465,156.904874 239.546057,156.769207 C238.548762,156.63341 237.300863,156.340304 235.80275,155.887278 C234.25417,155.456441 232.994111,154.984515 232.020847,154.475393 C231.038239,153.961395 230.266485,153.483925 229.713302,153.05327 C229.089619,152.591876 228.609197,152.089177 228.266354,151.549691 C225.493925,150.332402 222.855001,149.046896 220.350902,147.694097 C218.190991,146.537531 215.997397,145.221471 213.770039,143.745778 C211.503765,142.244591 209.784111,140.749547 208.604418,139.267407 C207.36655,137.818345 206.65632,136.49139 206.442501,135.299344 C206.220539,134.064651 206.329262,132.954168 206.754519,131.966042 C207.174136,130.990349 207.846684,130.128021 208.778253,129.38349 C209.665848,128.674027 210.649429,128.041792 211.729433,127.487342 C213.082308,126.792808 214.665809,126.212669 216.481075,125.749395 C218.277554,125.290967 220.159796,124.948992 222.127941,124.723769 C224.092617,124.498978 226.041575,124.389266 227.974992,124.394205 Z" id="路径备份-2" stroke="#1E1E1E" fill="#FFFFFF" fill-rule="nonzero"></path>
                <path d="M227.974992,118.394205 C229.913392,118.399864 231.65549,118.506417 233.197747,118.712838 C236.75355,119.163136 240.227443,119.886702 243.61912,120.883441 C246.998034,121.876281 250.088048,122.893533 252.89273,123.936413 C256.02556,125.12988 259.082011,126.397039 262.061941,127.737735 C262.749605,127.747137 263.476089,127.835727 264.241326,128.004855 C264.95285,128.145647 265.778533,128.370876 266.718079,128.681702 C267.661998,128.993964 268.688117,129.44414 269.788536,130.030021 C271.287495,130.796999 272.352911,131.477797 272.991929,132.063043 C273.69143,132.703775 274.105029,133.270242 274.266136,133.73599 C274.430077,134.188696 274.446145,134.590671 274.334853,134.945996 C275.215111,135.537844 276.038418,136.104052 276.804787,136.644608 C277.552704,137.210462 278.233135,137.775928 278.85981,138.350834 C279.5584,138.991807 279.970974,139.55849 280.133515,140.031149 C280.365327,140.999577 280.579363,141.767676 280.790366,142.382672 C280.985376,142.95142 281.88291,143.60785 283.349449,144.427449 C284.299146,144.987314 285.347197,145.503268 286.503392,145.981688 C287.65892,146.459825 288.961508,146.86279 290.410844,147.191764 C291.865044,147.521813 293.44696,147.734977 295.15653,147.832209 C296.866588,147.929455 298.752622,147.833211 300.816765,147.545083 C302.689985,147.291304 304.593975,146.952391 306.528751,146.528417 C308.487931,146.099153 310.504593,145.728994 312.578804,145.417988 C314.666978,145.104937 316.788905,144.952344 318.944627,144.960331 C321.117106,144.968379 323.425444,145.317719 325.873022,146.012398 C327.289575,146.426691 328.925311,146.995017 330.780028,147.71791 C332.627294,148.437874 334.434882,149.195532 336.202751,149.990871 C337.977911,150.789491 339.560211,151.579707 340.949782,152.36117 C342.392284,153.172449 343.359015,153.86099 343.863108,154.41216 C344.112597,154.719381 344.201847,155.087648 344.077774,155.560981 C343.991672,155.88946 343.788929,156.285186 343.452156,156.740923 C342.859387,157.542835 341.987181,158.46995 340.832191,159.519488 C339.694732,160.55287 338.314088,161.656249 336.689713,162.829003 C335.075374,163.994342 333.394053,165.140721 331.645765,166.268126 C329.898814,167.394562 328.178245,168.455029 326.484119,169.449552 C324.785411,170.446715 323.258412,171.286854 321.903313,171.970201 C320.549123,172.65309 318.899822,173.414789 316.955356,174.255031 C315.016432,175.092915 312.964575,175.935354 310.799841,176.782315 C308.637026,177.628587 306.449514,178.452467 304.23735,179.253947 C302.023042,180.056278 299.965273,180.762231 298.064062,181.371858 C296.158452,181.982954 294.486302,182.476223 293.047643,182.851879 C291.549593,183.243077 290.46445,183.417168 289.797829,183.391747 C288.726712,183.361258 286.53128,182.733896 283.214886,181.478964 C279.961435,180.247755 276.191762,178.43653 271.910591,176.04617 C269.256507,174.601313 267.853619,173.188828 267.549488,171.888416 C267.234959,170.546005 267.440219,169.244681 268.174544,167.985844 C268.854047,166.820269 269.684738,165.666647 270.667367,164.525579 C271.539128,163.512892 271.993186,162.468676 272.000891,161.374789 C272.020746,160.555663 271.874863,159.852682 271.54794,159.270226 C271.211343,158.670771 270.746356,158.137012 270.155867,157.666612 C269.540402,157.176366 268.778988,156.727873 267.873609,156.318064 C266.930099,155.890994 265.854765,155.426332 264.653008,154.926222 C262.936566,154.235217 261.288298,153.830794 259.707491,153.716702 C258.084744,153.599568 256.375237,153.509237 254.571901,153.445372 C253.669138,153.400548 252.607622,153.239611 251.387669,152.96007 C250.195585,152.686895 249.008397,152.39367 247.816809,152.077836 C246.527854,151.709581 245.169909,151.310039 243.742925,150.879237 C243.27159,150.966409 242.703373,151.010987 242.037922,151.009983 C241.367006,150.984677 240.542465,150.904874 239.546057,150.769207 C238.548762,150.63341 237.300863,150.340304 235.80275,149.887278 C234.25417,149.456441 232.994111,148.984515 232.020847,148.475393 C231.038239,147.961395 230.266485,147.483925 229.713302,147.05327 C229.089619,146.591876 228.609197,146.089177 228.266354,145.549691 C225.493925,144.332402 222.855001,143.046896 220.350902,141.694097 C218.190991,140.537531 215.997397,139.221471 213.770039,137.745778 C211.503765,136.244591 209.784111,134.749547 208.604418,133.267407 C207.36655,131.818345 206.65632,130.49139 206.442501,129.299344 C206.220539,128.064651 206.329262,126.954168 206.754519,125.966042 C207.174136,124.990349 207.846684,124.128021 208.778253,123.38349 C209.665848,122.674027 210.649429,122.041792 211.729433,121.487342 C213.082308,120.792808 214.665809,120.212669 216.481075,119.749395 C218.277554,119.290967 220.159796,118.948992 222.127941,118.723769 C224.092617,118.498978 226.041575,118.389266 227.974992,118.394205 Z" id="路径备份-3" stroke="#1E1E1E" fill="#1DA2B4" fill-rule="nonzero"></path>
                <g id="编组-43" transform="translate(153.506814, 213.737754)">
                    <g id="路径-89" transform="translate(0.493186, 14.140288)">
                        <mask id="mask-4" fill="white">
                            <use xlink:href="#path-3"></use>
                        </mask>
                        <path stroke="#1E1E1E" d="M182.652399,-0.693509372 L182.652399,9.30278271 L31.3849605,87.4626497 L-0.5,70.5566611 L-0.5,60.300631 L182.652399,-0.693509372 Z"></path>
                        <polygon fill="#1DA2B4" mask="url(#mask-4)" points="31.8439034 89.1875664 31.8439034 75.113117 182.152399 -2.41818734 184.360612 10.1069974"></polygon>
                    </g>
                    <polygon id="路径-86" stroke="#1E1E1E" fill="#FB8E0C" points="32.4245283 91.04006 183.128874 13.4068585 183.128874 13.090612 149.4035 0 1.61806403e-14 74.2591193 1.61806403e-14 74.6102784"></polygon>
                    <polygon id="路径-86" stroke="#1E1E1E" fill="#FFFFFF" points="100.743094 48.8302772 171.128874 12.3631644 171.128874 12.189479 152.606603 5 82.9352582 39.6140373 82.9352582 39.8068969"></polygon>
                </g>
                <g id="编组-43备份-3" transform="translate(280.000000, 70.000000)">
                    <g id="路径-89" transform="translate(0.000000, 6.000000)">
                        <mask id="mask-6" fill="white">
                            <use xlink:href="#path-5"></use>
                        </mask>
                        <path stroke="#1E1E1E" d="M76.5,-0.691958292 L76.5,4.03324848 L13.0931144,36.5634905 L-0.5,29.4072295 L-0.5,24.7692343 L76.5,-0.691958292 Z"></path>
                        <polygon fill="#1DA2B4" mask="url(#mask-6)" points="13.2863288 36.9483905 13.2863288 31.1176646 76 -1.0018003 76.9213396 4.18710029"></polygon>
                    </g>
                    <polygon id="路径-86" stroke="#1E1E1E" fill="#FB8E0C" points="13.4564479 38 76 5.59600493 76 5.46400405 62.0036901 0 -1.687539e-14 30.9956577 -1.687539e-14 31.142231"></polygon>
                </g>
                <polygon id="路径-88" stroke="#1E1E1E" points="330.528777 201.894203 338.360612 204.496374 398.101844 171.74914 389.914521 168.894203"></polygon>
                <polygon id="路径-88备份" stroke="#1E1E1E" points="172.740368 182.329781 179.638062 185.635987 211.123916 168.894203 203.914521 165.894203"></polygon>
                <polygon id="路径" fill="#1E1E1E" fill-rule="nonzero" points="402.263818 174.043109 403.281664 174.442574 343.80535 207.742345 342.285911 207.457149"></polygon>
                <polygon id="路径备份-5" fill="#1E1E1E" fill-rule="nonzero" points="214.263818 171.043109 215.281664 171.442574 184.01694 188.177923 182.497502 187.892727"></polygon>
                <polygon id="路径备份-4" fill="#1E1E1E" fill-rule="nonzero" points="407.263818 176.043109 408.281664 176.442574 348.80535 209.742345 347.285911 209.457149"></polygon>
                <polygon id="路径备份-6" fill="#1E1E1E" fill-rule="nonzero" points="219.263818 173.043109 220.281664 173.442574 189.01694 190.177923 187.497502 189.892727"></polygon>
                <polyline id="路径-90" stroke="#1E1E1E" points="191.932142 188.177923 236.760806 211.8528 271.906224 194.106117"></polyline>
                <polyline id="路径" stroke="#1E1E1E" transform="translate(361.835715, 168.468656) scale(-1, -1) translate(-361.835715, -168.468656) " points="343.285911 162.894203 366.397231 174.043109 380.385519 165.894203"></polyline>
                <polygon id="路径-91" fill="#1E1E1E" fill-rule="nonzero" points="197.741951 278.158645 202.649957 272.53128 202.649957 278.901852 198.521393 290.6777 186.069585 289.350425 186.069585 286.301346 195.359771 285.773"></polygon>
                <polygon id="路径-91备份" fill="#1E1E1E" fill-rule="nonzero" points="220.741951 264.158645 225.649957 258.53128 225.649957 264.901852 221.521393 276.6777 209.069585 275.350425 209.069585 272.301346 218.359771 271.773"></polygon>
                <path d="M201.952772,273.03128 L197.178001,287.13283 L186.903137,285.89793 L188.938482,282.575936 L194.695402,283.320578 L198.363004,273.03128 L201.952772,273.03128 Z" id="路径-91" stroke="#1E1E1E" fill="#FFFFFF" fill-rule="nonzero"></path>
                <path d="M224.952772,259.03128 L220.178001,273.13283 L209.903137,271.89793 L211.938482,268.575936 L217.695402,269.320578 L221.363004,259.03128 L224.952772,259.03128 Z" id="路径-91备份-2" stroke="#1E1E1E" fill="#1DA2B4" fill-rule="nonzero"></path>
            </g>
        </g>
    </g>
</svg>